<svg class="animated" id="freepik_stories-calculator" xmlns="http://www.w3.org/2000/svg" viewBox="0 0 500 500" version="1.1" xmlns:xlink="http://www.w3.org/1999/xlink" xmlns:svgjs="http://svgjs.com/svgjs"><style>svg#freepik_stories-calculator:not(.animated) .animable {opacity: 0;}svg#freepik_stories-calculator.animated #freepik--background-complete--inject-17 {animation: 1s 1 forwards cubic-bezier(.36,-0.01,.5,1.38) slideUp;animation-delay: 0s;}svg#freepik_stories-calculator.animated #freepik--Floor--inject-17 {animation: 1s 1 forwards cubic-bezier(.36,-0.01,.5,1.38) slideLeft;animation-delay: 0s;}svg#freepik_stories-calculator.animated #freepik--Character--inject-17 {animation: 1s 1 forwards cubic-bezier(.36,-0.01,.5,1.38) slideUp;animation-delay: 0s;}svg#freepik_stories-calculator.animated #freepik--Plant--inject-17 {animation: 1s 1 forwards cubic-bezier(.36,-0.01,.5,1.38) fadeIn;animation-delay: 0s;}svg#freepik_stories-calculator.animated #freepik--numerical-signs--inject-17 {animation: 1s 1 forwards cubic-bezier(.36,-0.01,.5,1.38) slideDown;animation-delay: 0s;}svg#freepik_stories-calculator.animated #freepik--speech-bubble--inject-17 {animation: 1s 1 forwards cubic-bezier(.36,-0.01,.5,1.38) slideLeft;animation-delay: 0s;}            @keyframes slideUp {                0% {                    opacity: 0;                    transform: translateY(30px);                }                100% {                    opacity: 1;                    transform: inherit;                }            }                    @keyframes slideLeft {                0% {                    opacity: 0;                    transform: translateX(-30px);                }                100% {                    opacity: 1;                    transform: translateX(0);                }            }                    @keyframes fadeIn {                0% {                    opacity: 0;                }                100% {                    opacity: 1;                }            }                    @keyframes slideDown {                0% {                    opacity: 0;                    transform: translateY(-30px);                }                100% {                    opacity: 1;                    transform: translateY(0);                }            }        </style><g id="freepik--background-complete--inject-17" class="animable" style="transform-origin: 233.927px 288.555px;"><path d="M362,264.44a27.08,27.08,0,0,1-7,1.17l-2.87,5.95-10.65-2.47,0-6.61a26.55,26.55,0,0,1-5.81-4.14l-6.24,2.18-5.78-9.28,4.69-4.65a26.59,26.59,0,0,1-1.17-7l-5.95-2.87L323.65,226l6.61,0a26.83,26.83,0,0,1,4.14-5.8L332.22,214l9.28-5.79,4.65,4.69a27,27,0,0,1,7-1.17l2.88-5.95,10.65,2.47,0,6.61a26.5,26.5,0,0,1,5.8,4.14l6.24-2.18,5.79,9.28-4.69,4.65a26.94,26.94,0,0,1,1.17,7l5.95,2.87-2.46,10.66-6.61,0a27.18,27.18,0,0,1-4.14,5.8l2.17,6.24-9.27,5.79L362,264.44Zm-2.13-15.55a11.73,11.73,0,1,0-16.16-3.74A11.72,11.72,0,0,0,359.85,248.89Z" style="fill: none; transform-origin: 354.08px 238.67px;" id="elpoy9tjdj6v" class="animable"></path><path d="M359.85,248.89a8.78,8.78,0,0,1-2.58,1.33,11.61,11.61,0,0,1-7.86-.1,11.83,11.83,0,0,1-4.6-3.05,12,12,0,0,1-2.93-5.62,11.3,11.3,0,0,1-.24-3.45,11.54,11.54,0,0,1,.81-3.52,12,12,0,0,1,12.09-7.55,12.07,12.07,0,0,1,6.52,2.55,12,12,0,0,1,3.76,5.1,11.84,11.84,0,0,1,.73,5.47,11.68,11.68,0,0,1-3.37,7.11,8.8,8.8,0,0,1-2.33,1.73A24.9,24.9,0,0,0,362,247a11.66,11.66,0,0,0,3.08-7,11.35,11.35,0,0,0-.77-5.22,11.53,11.53,0,0,0-3.62-4.82,11.09,11.09,0,0,0-2.85-1.62,10.63,10.63,0,0,0-3.34-.75,11.38,11.38,0,0,0-11.43,7.13,10.91,10.91,0,0,0-.78,3.33,10.76,10.76,0,0,0,.2,3.27,11.5,11.5,0,0,0,7.09,8.36,11.66,11.66,0,0,0,7.62.29C359,249.42,359.81,248.82,359.85,248.89Z" style="fill: rgb(224, 224, 224); transform-origin: 353.606px 238.875px;" id="elvpcwm01wy2p" class="animable"></path><path d="M362,264.44l.3.27.9.87,3.52,3.47h-.13l9.24-5.85-.07.2c-.67-1.88-1.41-4-2.2-6.23l0-.11.08-.09a26.12,26.12,0,0,0,4.09-5.77l.06-.12h6.75l-.24.18c.77-3.35,1.59-6.92,2.44-10.66l.14.3-5.95-2.86-.15-.07v-.17a26.69,26.69,0,0,0-1.17-7l-.05-.17.12-.12c1.46-1.44,3.06-3,4.69-4.66l0,.38L378.45,217l.37.13-6.23,2.18-.19.06-.14-.13a26.72,26.72,0,0,0-5.73-4.09l-.18-.09v-.2c0-2.07,0-4.32,0-6.61l.26.33L356,206.13l.38-.18-2.88,6-.08.18h-.21a26.64,26.64,0,0,0-6.93,1.15h0l-.34-.09h0l0,0,0,0-.07-.07-.15-.15-.29-.3-.58-.59-1.17-1.17-2.32-2.34.42.05-9.28,5.79.14-.4q1.09,3.15,2.17,6.24l.07.19-.14.15a26,26,0,0,0-4.09,5.73l-.1.17h-.19l-6.61,0,.31-.25q-1.26,5.44-2.47,10.65l-.17-.35,5.95,2.88.16.08v.18a26.26,26.26,0,0,0,1.15,7l.05.17-.13.12-4.7,4.64,0-.35,5.77,9.29-.3-.1,6.24-2.16.14-.05.11.1a26.83,26.83,0,0,0,5.74,4.12l.12.06v.14c0,2.4,0,4.56-.05,6.6l-.16-.19,10.64,2.51-.17.08,2.92-5.93,0-.06h.06a28.15,28.15,0,0,0,5.32-.66l1.29-.31.43-.09-.42.15c-.28.09-.7.22-1.28.36a26.15,26.15,0,0,1-5.33.77l.09-.07-2.83,6-.06.11-.11,0-10.67-2.41-.15,0v-.16c0-2,0-4.21,0-6.61l.11.2a27,27,0,0,1-5.86-4.16l.24.05-6.23,2.19-.19.07-.11-.17-5.81-9.27-.12-.19.16-.16,4.68-4.65-.07.29a26.93,26.93,0,0,1-1.19-7.11l.17.26-6-2.86-.22-.11.05-.24L323.34,226l.05-.25h.26l6.61,0-.29.17a27.2,27.2,0,0,1,4.19-5.88l-.07.34q-1.08-3.09-2.18-6.24l-.09-.25.23-.14,9.27-5.79.23-.15.19.19,2.32,2.34,1.16,1.18.59.59.29.3.15.14.07.08,0,0,0,0h0c-.68-.17-.19-.05-.34-.09h0a27.25,27.25,0,0,1,7.11-1.18l-.29.19,2.88-6,.11-.24.26.06,10.65,2.46.26.06v.27c0,2.28,0,4.54,0,6.61l-.17-.29a27.17,27.17,0,0,1,5.87,4.19l-.32-.07,6.24-2.16.23-.09.14.22,5.78,9.28.12.2-.17.17c-1.63,1.62-3.24,3.2-4.7,4.64l.08-.29a27.42,27.42,0,0,1,1.17,7.11l-.16-.24,5.95,2.89.19.09-.05.2c-.87,3.74-1.71,7.3-2.49,10.65l0,.19h-.19l-6.61,0,.19-.12a26.84,26.84,0,0,1-4.19,5.83l0-.2c.78,2.25,1.5,4.36,2.15,6.25l.05.13-.12.07-9.31,5.74-.07,0-.06-.06-3.41-3.52-.87-.92A2.19,2.19,0,0,1,362,264.44Z" style="fill: rgb(224, 224, 224); transform-origin: 354.005px 238.62px;" id="ellnv6ww61dmq" class="animable"></path><path d="M383.75,185.32a37.88,37.88,0,0,1-9.94,1.66l-4.07,8.41-15.06-3.48,0-9.35a37.62,37.62,0,0,1-8.21-5.85l-8.82,3.08-8.18-13.12,6.63-6.57a37.87,37.87,0,0,1-1.65-9.95l-8.42-4.06L329.56,131l9.34,0a38,38,0,0,1,5.86-8.21L341.68,114l13.12-8.18,6.57,6.63a37.8,37.8,0,0,1,9.94-1.65l4.07-8.42,15.06,3.49,0,9.34a38,38,0,0,1,8.2,5.85l8.82-3.07,8.19,13.11L409,137.72a37.41,37.41,0,0,1,1.66,9.94l8.41,4.07-3.48,15.06-9.34,0a38,38,0,0,1-5.86,8.2l3.08,8.82L390.32,192l-6.57-6.64Zm-3-22a16.59,16.59,0,1,0-22.86-5.29A16.59,16.59,0,0,0,380.75,163.35Z" style="fill: rgb(224, 224, 224); fill-rule: evenodd; transform-origin: 372.55px 148.885px;" id="el44zo9i7hqyj" class="animable"></path><path d="M419.23,235.14a20.41,20.41,0,0,1-5.29.88l-2.16,4.47-8-1.85,0-5a20.35,20.35,0,0,1-4.37-3.11l-4.69,1.63-4.35-7,3.53-3.49a19.72,19.72,0,0,1-.88-5.29l-4.48-2.17,1.85-8,5,0a20.59,20.59,0,0,1,3.12-4.36l-1.64-4.69,7-4.36,3.5,3.53a20.41,20.41,0,0,1,5.29-.88l2.16-4.48,8,1.86,0,5a20.05,20.05,0,0,1,4.36,3.11l4.7-1.63,4.35,7-3.53,3.5a19.72,19.72,0,0,1,.88,5.29l4.48,2.16-1.85,8-5,0a20.4,20.4,0,0,1-3.12,4.37l1.64,4.69-7,4.36-3.5-3.53Zm-1.59-11.69a8.83,8.83,0,1,0-12.16-2.82A8.83,8.83,0,0,0,417.64,223.45Z" style="fill: rgb(235, 235, 235); fill-rule: evenodd; transform-origin: 413.3px 215.73px;" id="elxzqaurl3f0t" class="animable"></path><path d="M112.36,146.65c.11.1-4.58,4.91-10.47,10.73s-10.74,10.46-10.84,10.36,4.59-4.91,10.48-10.73S112.26,146.55,112.36,146.65Z" style="fill: rgb(224, 224, 224); transform-origin: 101.705px 157.195px;" id="ely82xsk64i3d" class="animable"></path><path d="M112.41,167.69c-.1.1-5-4.52-10.88-10.31S90.9,146.81,91,146.7s5,4.51,10.89,10.31S112.52,167.58,112.41,167.69Z" style="fill: rgb(224, 224, 224); transform-origin: 101.705px 157.195px;" id="els67ognqgfet" class="animable"></path><path d="M133.57,279.74c0,.14-6-.38-13.36-1.15s-13.32-1.53-13.31-1.67,6,.37,13.36,1.15S133.59,279.59,133.57,279.74Z" style="fill: rgb(224, 224, 224); transform-origin: 120.235px 278.33px;" id="elprs8a0dmvt" class="animable"></path><path d="M132.51,289.78c0,.14-6-.37-13.36-1.15s-13.33-1.52-13.31-1.66,6,.37,13.36,1.14S132.53,289.64,132.51,289.78Z" style="fill: rgb(224, 224, 224); transform-origin: 119.175px 288.375px;" id="elte58uviu8u" class="animable"></path><path d="M60.4,257.69s-7.92-.57-7.19,17.2,2.54,27.22,2.54,27.22-.23,3.94-3.28,3.17-8.79-4.61-11.63-1.74-1.89,7.53,2,12.9,12,17.44,12.74,18.53,1,3.09-1.16,2.9-16.76-5.14-18.69,1.93S47.12,360,48.55,361.5s1.51,2.4.93,3.29-5.33-1.24-9.54-2.48-9.31-1.93-10.08,2.24,5.09,16.37,27.06,29.2L67.49,399l10-6.38c20.57-15,25.19-27.69,24-31.77s-6.19-2.87-10.25-1.21-8.58,4.24-9.24,3.41-.68-1.75.59-3.36,13.21-16,10.58-22.88-16.66-.45-18.79,0-2-1.63-1.44-2.77,7.47-14,10.82-19.72,3.92-10.37.7-13S76,303.1,73.08,304.17s-3.58-2.82-3.58-2.82.85-9.6-.2-27.34-9.06-16.32-9.06-16.32" style="fill: rgb(235, 235, 235); transform-origin: 65.7289px 328.331px;" id="el8hlskyw0m2h" class="animable"></path><path d="M61,273.6a2.89,2.89,0,0,1,0,.37c0,.27,0,.63.08,1.09.07,1,.16,2.39.29,4.2.24,3.64.55,8.92.91,15.43.72,13,1.57,31.06,2.44,51s1.67,37.93,2.32,51c.33,6.5.6,11.78.79,15.44.09,1.81.16,3.22.21,4.2,0,.46,0,.83,0,1.09a3.39,3.39,0,0,1,0,.37s0-.12,0-.37,0-.62-.08-1.09c-.07-1-.17-2.38-.29-4.19-.24-3.64-.55-8.92-.91-15.44-.73-13-1.57-31.05-2.44-51s-1.67-37.92-2.33-51c-.33-6.51-.6-11.78-.78-15.44-.09-1.81-.16-3.22-.21-4.2,0-.47,0-.83,0-1.09S61,273.6,61,273.6Z" style="fill: rgb(224, 224, 224); transform-origin: 64.5225px 345.695px;" id="eltjlycw4tfrb" class="animable"></path><path d="M48.66,309.22a3.59,3.59,0,0,1,.65.55c.41.37,1,.92,1.68,1.61,1.39,1.38,3.27,3.34,5.3,5.54l5.17,5.66,1.57,1.7a3.28,3.28,0,0,1,.55.66,4,4,0,0,1-.66-.54c-.4-.38-1-.93-1.67-1.63C59.87,321.38,58,319.4,56,317.2l-5.21-5.62-1.58-1.7A3.08,3.08,0,0,1,48.66,309.22Z" style="fill: rgb(224, 224, 224); transform-origin: 56.12px 317.08px;" id="elq9rqbppvoqs" class="animable"></path><path d="M64.63,324.59c-.08-.08,3.79-4.13,8.63-9s8.85-8.84,8.93-8.76-3.79,4.13-8.64,9S64.71,324.67,64.63,324.59Z" style="fill: rgb(224, 224, 224); transform-origin: 73.41px 315.71px;" id="eld7os62tmt29" class="animable"></path><path d="M64.59,355.22a3.56,3.56,0,0,1,.73-.47l2.07-1.16c1.75-1,4.15-2.34,6.75-3.94s4.91-3.12,6.57-4.23l2-1.31a3.53,3.53,0,0,1,.75-.45,3.8,3.8,0,0,1-.66.57c-.44.35-1.09.84-1.9,1.43-1.63,1.17-3.92,2.74-6.53,4.33s-5,2.93-6.82,3.85c-.9.45-1.62.81-2.13,1.05A4.6,4.6,0,0,1,64.59,355.22Z" style="fill: rgb(224, 224, 224); transform-origin: 74.025px 349.44px;" id="elg07xe8eyk3l" class="animable"></path><path d="M47.08,344.5a3,3,0,0,1,.73.34c.46.24,1.11.61,1.92,1.07,1.6.91,3.81,2.2,6.24,3.64s4.61,2.77,6.18,3.75L64,354.47a3,3,0,0,1,.65.48,3.64,3.64,0,0,1-.73-.34c-.45-.25-1.11-.61-1.91-1.07-1.61-.91-3.82-2.2-6.25-3.64s-4.61-2.77-6.18-3.75L47.73,345A3.34,3.34,0,0,1,47.08,344.5Z" style="fill: rgb(224, 224, 224); transform-origin: 55.865px 349.725px;" id="el0gzegn06j90s" class="animable"></path><path d="M43.61,371.53a5.86,5.86,0,0,1,.92.45L47,373.34c2.07,1.16,4.92,2.79,8,4.61s5.95,3.48,8,4.71l2.4,1.47a5.6,5.6,0,0,1,.85.58,4.1,4.1,0,0,1-.93-.45l-2.46-1.35c-2.07-1.16-4.91-2.79-8-4.61s-5.95-3.49-8-4.71l-2.39-1.47A4.18,4.18,0,0,1,43.61,371.53Z" style="fill: rgb(224, 224, 224); transform-origin: 54.93px 378.12px;" id="el5j2lnn0zaa8" class="animable"></path><path d="M65.81,384.25a4.51,4.51,0,0,1,.92-.62l2.56-1.56c2.17-1.33,5.16-3.16,8.4-5.28s6.14-4.1,8.23-5.55l2.47-1.71a4.36,4.36,0,0,1,.93-.59,5.75,5.75,0,0,1-.84.71c-.56.45-1.38,1.07-2.4,1.83-2,1.51-4.91,3.54-8.16,5.65s-6.27,3.92-8.48,5.18c-1.11.63-2,1.13-2.64,1.46A7,7,0,0,1,65.81,384.25Z" style="fill: rgb(224, 224, 224); transform-origin: 77.565px 376.595px;" id="el4tv156m4r34" class="animable"></path><polygon points="81.69 402.49 52.45 402.49 61.99 474.73 72.15 474.73 81.69 402.49" style="fill: rgb(224, 224, 224); transform-origin: 67.07px 438.61px;" id="elvzj5engjcm" class="animable"></polygon><path d="M54,411.37s0,.1.15.25a1.85,1.85,0,0,0,.71.51,3.57,3.57,0,0,0,3.09-.38c1.18-.65,2.21-1.93,3.79-2.5a8.29,8.29,0,0,1,5.38.11,23.21,23.21,0,0,1,5,2.42A33.63,33.63,0,0,0,76.17,414a11.47,11.47,0,0,0,3,.87,6.15,6.15,0,0,0,.85.06c.19,0,.29,0,.29,0a15,15,0,0,1-4-1.21,41.85,41.85,0,0,1-4-2.25,22.57,22.57,0,0,0-5.09-2.51,8.59,8.59,0,0,0-5.68-.06,7.62,7.62,0,0,0-2.13,1.32,15.66,15.66,0,0,1-1.68,1.3,3.41,3.41,0,0,1-2.84.49A2.88,2.88,0,0,1,54,411.37Z" style="fill: rgb(245, 245, 245); transform-origin: 67.155px 411.688px;" id="el4iioj8pii8a" class="animable"></path><path d="M55,424.67s.23-.3.68-.77a6.59,6.59,0,0,1,2.34-1.49,10.45,10.45,0,0,1,4.07-.61,43,43,0,0,1,5.08.7,17.48,17.48,0,0,0,5.21.21,14.15,14.15,0,0,0,4.1-1.17A13.22,13.22,0,0,0,79,420.08a3.53,3.53,0,0,0,.78-.71,27.66,27.66,0,0,1-3.38,1.86,14.88,14.88,0,0,1-4,1,17.4,17.4,0,0,1-5.08-.25,38.25,38.25,0,0,0-5.15-.66,10.43,10.43,0,0,0-4.21.74,6,6,0,0,0-2.34,1.67,4.6,4.6,0,0,0-.45.65C55.06,424.58,55,424.66,55,424.67Z" style="fill: rgb(245, 245, 245); transform-origin: 67.39px 422.02px;" id="elhla78j9gmeb" class="animable"></path><path d="M78.38,431.79a2.55,2.55,0,0,0-.81-.41,8.25,8.25,0,0,0-2.42-.52,14.84,14.84,0,0,0-3.66.21c-1.37.22-2.83.59-4.36.92a18.61,18.61,0,0,1-4.36.49,9.56,9.56,0,0,1-3.46-.75,8,8,0,0,1-2.62-2,2.31,2.31,0,0,0,.5.76,6.09,6.09,0,0,0,2,1.5,9.23,9.23,0,0,0,3.58.88,17.65,17.65,0,0,0,4.47-.46c1.56-.33,3-.72,4.34-1a16.3,16.3,0,0,1,3.57-.31A13.81,13.81,0,0,1,78.38,431.79Z" style="fill: rgb(245, 245, 245); transform-origin: 67.535px 431.303px;" id="elfmjsc0qmcd" class="animable"></path><path d="M57.62,441.81a4.74,4.74,0,0,1,2.84-.28,14,14,0,0,1,3,1.1,11.15,11.15,0,0,0,3.85,1.07,11.68,11.68,0,0,0,7-1.62A10.31,10.31,0,0,0,76,440.74c.35-.38.54-.6.51-.62a25.14,25.14,0,0,1-2.42,1.66,11.92,11.92,0,0,1-6.78,1.44c-2.77-.16-4.9-1.81-6.82-2a4.29,4.29,0,0,0-2.2.2C57.81,441.58,57.6,441.8,57.62,441.81Z" style="fill: rgb(245, 245, 245); transform-origin: 67.0659px 441.931px;" id="elvr9fj1m1p3" class="animable"></path><path d="M59.25,455.68a5.64,5.64,0,0,0,2.44-.49c1.47-.49,3.28-1.61,5.41-2.46a9.07,9.07,0,0,1,3.11-.65,5.72,5.72,0,0,1,2.49.57,5.43,5.43,0,0,1,1.81,1.56,1.36,1.36,0,0,0-.28-.62,4,4,0,0,0-1.37-1.24,5.71,5.71,0,0,0-2.65-.71,8.71,8.71,0,0,0-3.28.65c-2.2.87-4,2-5.37,2.59S59.24,455.6,59.25,455.68Z" style="fill: rgb(245, 245, 245); transform-origin: 66.88px 453.661px;" id="eld75xiyn9vwg" class="animable"></path><path d="M60.68,462.13a7.06,7.06,0,0,0,1.85.6,33.39,33.39,0,0,0,4.63.78,34.44,34.44,0,0,0,4.69.14,7.16,7.16,0,0,0,1.94-.23c0-.15-3,0-6.58-.38S60.72,462,60.68,462.13Z" style="fill: rgb(245, 245, 245); transform-origin: 67.235px 462.894px;" id="elv9p858mc0d" class="animable"></path></g><g id="freepik--Floor--inject-17" class="animable" style="transform-origin: 249.015px 473.56px;"><path d="M471.27,473.56c0,.15-99.52.26-222.25.26s-222.26-.11-222.26-.26,99.49-.26,222.26-.26S471.27,473.42,471.27,473.56Z" style="fill: rgb(38, 50, 56); transform-origin: 249.015px 473.56px;" id="elorllimds0f" class="animable"></path></g><g id="freepik--Character--inject-17" class="animable" style="transform-origin: 254.693px 251.486px;"><path d="M152.36,161s2.72-16.31,3.37-17.55,8.16-8.86,9.05-9,12.74-3.88,12.08-2-9,4.34-9,4.34l-.79,1s7.11-2.32,8.87-2.26,1.92,1.75.65,2.23-7.53,2.31-7.77,2.71,7-1.67,7.88-1.63c1.22.05,2.1,1.59.86,2.12-.74.3-7.7,1.9-7.7,1.9a60.65,60.65,0,0,1,6.47-.5c1.07.29,1,1.59-.2,1.9-.81.21-5.06.4-6.14.69,0,0-.81.68-.78,2.84s-2.77,7.89-2.77,7.89Z" style="fill: rgb(255, 190, 157); transform-origin: 165.26px 146.461px;" id="el8g1bolttzgh" class="animable"></path><path d="M176.85,132.4a6,6,0,0,1-1.74,1.51,14,14,0,0,1-2.22,1.22c-.88.33-1.86.67-2.88,1l-2.19.74.12-.07a35.18,35.18,0,0,1-4.05,3.75,35.4,35.4,0,0,1,3.66-4.1l0-.05.07,0,2.16-.76,2.87-1a17.41,17.41,0,0,0,2.2-1.08C176.11,132.89,176.8,132.33,176.85,132.4Z" style="fill: rgb(235, 153, 110); transform-origin: 170.37px 136.472px;" id="eliu3elit3eb" class="animable"></path><path d="M334.74,340.12,173.32,323.49a9,9,0,0,1-8-9.86L193.25,42.25a12.78,12.78,0,0,1,14-11.39L361.17,46.71a12.78,12.78,0,0,1,11.39,14l-28,271.38A9,9,0,0,1,334.74,340.12Z" style="fill: rgb(243, 114, 12); transform-origin: 268.949px 185.478px;" id="elgoebzbf78e" class="animable"></path><g id="el1heo9gebgbt"><path d="M334.74,340.12,173.32,323.49a9,9,0,0,1-8-9.86L193.25,42.25a12.78,12.78,0,0,1,14-11.39L361.17,46.71a12.78,12.78,0,0,1,11.39,14l-28,271.38A9,9,0,0,1,334.74,340.12Z" style="opacity: 0.4; transform-origin: 268.949px 185.478px;" class="animable"></path></g><path d="M318.45,338.44,157,321.82a9,9,0,0,1-8-9.87L177,40.57a12.76,12.76,0,0,1,14-11.39L344.88,45a12.76,12.76,0,0,1,11.39,14l-28,271.39A9,9,0,0,1,318.45,338.44Z" style="fill: rgb(243, 114, 12); transform-origin: 252.645px 183.797px;" id="elordqim87etr" class="animable"></path><g id="elk9rgy5mr4j"><rect x="176.76" y="261.64" width="60.8" height="26.86" rx="2.42" style="fill: rgb(243, 114, 12); transform-origin: 207.16px 275.07px; transform: rotate(5.88deg);" class="animable"></rect></g><g id="elmbkaqoab8j"><g style="opacity: 0.4; transform-origin: 207.16px 275.07px;" class="animable"><g id="eleufrom51l1f"><rect x="176.76" y="261.64" width="60.8" height="26.86" rx="2.42" class="animable" style="transform-origin: 207.16px 275.07px; transform: rotate(5.88deg);"></rect></g></g></g><g id="elxtygq8nbrf"><rect x="231.53" y="20.43" width="60.45" height="154.1" style="fill: rgb(250, 250, 250); transform-origin: 261.755px 97.48px; transform: rotate(-84.12deg);" class="animable"></rect></g><path d="M335.31,135.44s0-.37.09-1.07.17-1.75.3-3.11c.27-2.74.67-6.76,1.19-11.95,1-10.37,2.55-25.38,4.43-44l.16.2L188.19,59.78h0l.29-.23c-2.17,21-4.27,41.35-6.21,60.13l-.22-.28,109.85,11.44,31.9,3.35,8.55.92,2.21.24.76.09s-.25,0-.74-.06l-2.18-.21-8.5-.84L292,131.12,182,119.9l-.25,0,0-.24c1.93-18.79,4-39.11,6.18-60.14l0-.26.26,0h0L341.52,75.13l.18,0,0,.18c-2,18.67-3.55,33.72-4.64,44.11-.55,5.16-1,9.17-1.27,11.89-.15,1.35-.26,2.38-.34,3.08Z" style="fill: rgb(38, 50, 56); transform-origin: 261.725px 97.35px;" id="eluqbl70mbhtq" class="animable"></path><g id="ellia4j178x4i"><rect x="186.7" y="145.78" width="26.19" height="26.19" rx="2.08" style="fill: rgb(243, 114, 12); transform-origin: 199.795px 158.875px; transform: rotate(5.88deg);" class="animable"></rect></g><g id="elcix1c9fyt5m"><g style="opacity: 0.4; transform-origin: 199.795px 158.875px;" class="animable"><g id="elujss0zkljzp"><rect x="186.7" y="145.78" width="26.19" height="26.19" rx="2.08" class="animable" style="transform-origin: 199.795px 158.875px; transform: rotate(5.88deg);"></rect></g></g></g><g id="el4uxa0onafo5"><rect x="182.68" y="145.37" width="26.19" height="26.19" rx="2.08" style="fill: rgb(38, 50, 56); transform-origin: 195.775px 158.465px; transform: rotate(5.88deg);" class="animable"></rect></g><path d="M198.18,153.11,197.07,164l-2.52-.26.91-8.84-2.17-.23.21-2Z" style="fill: rgb(255, 255, 255); transform-origin: 195.735px 158.335px;" id="elkjm5sscvwy9" class="animable"></path><g id="el5mtjzkvzjb9"><rect x="223.03" y="149.53" width="26.19" height="26.19" rx="2.08" style="fill: rgb(243, 114, 12); transform-origin: 236.125px 162.625px; transform: rotate(5.88deg);" class="animable"></rect></g><g id="elmp2iyf4epie"><g style="opacity: 0.4; transform-origin: 236.125px 162.625px;" class="animable"><g id="elj4ayxbyy9ik"><rect x="223.03" y="149.53" width="26.19" height="26.19" rx="2.08" class="animable" style="transform-origin: 236.125px 162.625px; transform: rotate(5.88deg);"></rect></g></g></g><g id="elbckqpwqcwgu"><rect x="219.01" y="149.11" width="26.19" height="26.19" rx="2.08" style="fill: rgb(38, 50, 56); transform-origin: 232.105px 162.205px; transform: rotate(5.88deg);" class="animable"></rect></g><path d="M237.53,166.07l-.21,2-8.2-.84.17-1.63,4.59-3.53c1.06-.81,1.29-1.35,1.34-1.88.09-.85-.45-1.41-1.6-1.53a2.67,2.67,0,0,0-2.36.86l-1.71-1.37a5.05,5.05,0,0,1,4.52-1.57c2.42.25,3.91,1.65,3.7,3.62-.1,1.06-.5,2-2.16,3.24l-2.74,2.1Z" style="fill: rgb(255, 255, 255); transform-origin: 233.455px 162.293px;" id="eljuovjz0s3eq" class="animable"></path><g id="elkxpad5wh6m"><rect x="260.7" y="153.41" width="26.19" height="26.19" rx="2.08" style="fill: rgb(243, 114, 12); transform-origin: 273.795px 166.505px; transform: rotate(5.88deg);" class="animable"></rect></g><g id="eld97z82oaer"><g style="opacity: 0.4; transform-origin: 273.795px 166.505px;" class="animable"><g id="eltlhuhg9s37"><rect x="260.7" y="153.41" width="26.19" height="26.19" rx="2.08" class="animable" style="transform-origin: 273.795px 166.505px; transform: rotate(5.88deg);"></rect></g></g></g><g id="el69s6qsnqjq7"><rect x="256.68" y="152.99" width="26.19" height="26.19" rx="2.08" style="fill: rgb(38, 50, 56); transform-origin: 269.775px 166.085px; transform: rotate(5.88deg);" class="animable"></rect></g><path d="M275.24,168.66c-.19,1.83-1.77,3.36-4.86,3.05a7.56,7.56,0,0,1-4-1.59l1.17-1.83a5.3,5.3,0,0,0,3,1.3c1.26.13,2.09-.3,2.18-1.19s-.47-1.39-1.89-1.54l-1.15-.12.17-1.66,2.49-2.3-4.62-.47.21-2,7.6.78-.17,1.63-2.74,2.54A3.1,3.1,0,0,1,275.24,168.66Z" style="fill: rgb(255, 255, 255); transform-origin: 270.96px 166.03px;" id="eljslt2l81gp" class="animable"></path><g id="el9474404sxb8"><rect x="298.37" y="157.29" width="26.19" height="26.19" rx="2.08" style="fill: rgb(243, 114, 12); transform-origin: 311.465px 170.385px; transform: rotate(5.88deg);" class="animable"></rect></g><g id="elc6n63juztvp"><g style="opacity: 0.4; transform-origin: 311.465px 170.385px;" class="animable"><g id="eld6u4cahk52b"><rect x="298.37" y="157.29" width="26.19" height="26.19" rx="2.08" class="animable" style="transform-origin: 311.465px 170.385px; transform: rotate(5.88deg);"></rect></g></g></g><g id="elbfezg67xqvb"><rect x="294.43" y="156.87" width="26.19" height="26.19" rx="2.08" style="fill: rgb(38, 50, 56); transform-origin: 307.525px 169.965px; transform: rotate(5.88deg);" class="animable"></rect></g><g id="elm4pivwefbnq"><rect x="306.92" y="163.69" width="1" height="11.7" style="fill: rgb(255, 255, 255); transform-origin: 307.42px 169.54px; transform: rotate(-84.12deg);" class="animable"></rect></g><path d="M309.83,164.66a1.9,1.9,0,1,1-1.7-2.08A1.9,1.9,0,0,1,309.83,164.66Z" style="fill: rgb(255, 255, 255); transform-origin: 307.939px 164.47px;" id="el81tb7ynkcle" class="animable"></path><path d="M308.78,174.81a1.9,1.9,0,1,1-1.69-2.08A1.9,1.9,0,0,1,308.78,174.81Z" style="fill: rgb(255, 255, 255); transform-origin: 306.89px 174.619px;" id="el3dqjhs8ur6f" class="animable"></path><g id="elw2ws4aynvas"><rect x="182.77" y="183.95" width="26.19" height="26.19" rx="2.08" style="fill: rgb(243, 114, 12); transform-origin: 195.865px 197.045px; transform: rotate(5.88deg);" class="animable"></rect></g><g id="el8uh0o7yeu1q"><g style="opacity: 0.4; transform-origin: 195.865px 197.045px;" class="animable"><g id="elf1ibod4b1db"><rect x="182.77" y="183.95" width="26.19" height="26.19" rx="2.08" class="animable" style="transform-origin: 195.865px 197.045px; transform: rotate(5.88deg);"></rect></g></g></g><g id="el3cc8yh9n9z1"><rect x="178.75" y="183.54" width="26.19" height="26.19" rx="2.08" style="fill: rgb(38, 50, 56); transform-origin: 191.845px 196.635px; transform: rotate(5.88deg);" class="animable"></rect></g><path d="M196.54,200.18l-1.77-.18-.24,2.28-2.45-.25.24-2.28-5.85-.61.17-1.69,5.83-6.36,2.64.28-5.42,6,2.92.3.21-2,2.37.24-.21,2,1.77.18Z" style="fill: rgb(255, 255, 255); transform-origin: 191.61px 196.685px;" id="el6ql3nr3irpg" class="animable"></path><g id="el0g1jhva0j6r"><rect x="219.1" y="187.7" width="26.19" height="26.19" rx="2.08" style="fill: rgb(243, 114, 12); transform-origin: 232.195px 200.795px; transform: rotate(5.88deg);" class="animable"></rect></g><g id="eltp7o3kbzcb"><g style="opacity: 0.4; transform-origin: 232.195px 200.795px;" class="animable"><g id="el4aab33dw6i"><rect x="219.1" y="187.7" width="26.19" height="26.19" rx="2.08" class="animable" style="transform-origin: 232.195px 200.795px; transform: rotate(5.88deg);"></rect></g></g></g><g id="elu6ga4bbcns8"><rect x="215.08" y="187.28" width="26.19" height="26.19" rx="2.08" style="fill: rgb(38, 50, 56); transform-origin: 228.175px 200.375px; transform: rotate(5.88deg);" class="animable"></rect></g><path d="M232.54,202.75c-.19,1.92-1.78,3.45-4.88,3.13a7.59,7.59,0,0,1-4-1.59l1.19-1.82a5.23,5.23,0,0,0,3,1.29c1.26.13,2.09-.31,2.18-1.2s-.41-1.47-2.38-1.67l-2.78-.29,1.19-6,6.62.68-.2,2-4.53-.47-.39,2.05.89.09C231.62,199.25,232.74,200.82,232.54,202.75Z" style="fill: rgb(255, 255, 255); transform-origin: 228.17px 200.261px;" id="elenpgouu1zl" class="animable"></path><g id="elptgn10z4et"><rect x="256.77" y="191.58" width="26.19" height="26.19" rx="2.08" style="fill: rgb(243, 114, 12); transform-origin: 269.865px 204.675px; transform: rotate(5.88deg);" class="animable"></rect></g><g id="el2wo65r3wxi8"><g style="opacity: 0.4; transform-origin: 269.865px 204.675px;" class="animable"><g id="elfktnqe1zyab"><rect x="256.77" y="191.58" width="26.19" height="26.19" rx="2.08" class="animable" style="transform-origin: 269.865px 204.675px; transform: rotate(5.88deg);"></rect></g></g></g><g id="el6jzelyrh6lm"><rect x="252.75" y="191.16" width="26.19" height="26.19" rx="2.08" style="fill: rgb(38, 50, 56); transform-origin: 265.845px 204.255px; transform: rotate(5.88deg);" class="animable"></rect></g><path d="M271,206.69c-.23,2.22-2.19,3.43-4.48,3.19-3-.31-4.66-2.38-4.3-5.88.39-3.76,2.87-5.62,6.14-5.28a5.9,5.9,0,0,1,2.95,1.06l-1.12,1.75a3.64,3.64,0,0,0-2-.76c-1.82-.18-3.09.77-3.38,2.84a3.71,3.71,0,0,1,2.78-.69A3.46,3.46,0,0,1,271,206.69Zm-2.45-.13a1.64,1.64,0,0,0-1.67-1.82,1.71,1.71,0,0,0-2.05,1.44c-.1.93.53,1.68,1.74,1.81A1.63,1.63,0,0,0,268.52,206.56Z" style="fill: rgb(255, 255, 255); transform-origin: 266.741px 204.295px;" id="elcvcgwp6xvi5" class="animable"></path><g id="elr66wlak4t3n"><rect x="294.43" y="195.46" width="26.19" height="26.19" rx="2.08" style="fill: rgb(243, 114, 12); transform-origin: 307.525px 208.555px; transform: rotate(5.88deg);" class="animable"></rect></g><g id="el3airygh4gkj"><g style="opacity: 0.4; transform-origin: 307.525px 208.555px;" class="animable"><g id="elob7r0tomqc"><rect x="294.43" y="195.46" width="26.19" height="26.19" rx="2.08" class="animable" style="transform-origin: 307.525px 208.555px; transform: rotate(5.88deg);"></rect></g></g></g><g id="el0t0m5w6cwuqj"><rect x="290.41" y="195.04" width="26.19" height="26.19" rx="2.08" style="fill: rgb(38, 50, 56); transform-origin: 303.505px 208.135px; transform: rotate(5.88deg);" class="animable"></rect></g><g id="elngkucuyvtlt"><rect x="297.66" y="207.64" width="11.7" height="1" style="fill: rgb(255, 255, 255); transform-origin: 303.51px 208.14px; transform: rotate(-38.26deg);" class="animable"></rect></g><g id="el8vcvxq6ocrb"><rect x="303.01" y="202.29" width="1" height="11.7" style="fill: rgb(255, 255, 255); transform-origin: 303.51px 208.14px; transform: rotate(-39.12deg);" class="animable"></rect></g><g id="el6g5jhiqxzi"><rect x="178.87" y="221.81" width="26.19" height="26.19" rx="2.08" style="fill: rgb(243, 114, 12); transform-origin: 191.965px 234.905px; transform: rotate(5.88deg);" class="animable"></rect></g><g id="el738b3q9cpob"><g style="opacity: 0.4; transform-origin: 191.965px 234.905px;" class="animable"><g id="elwqthb11z12c"><rect x="178.87" y="221.81" width="26.19" height="26.19" rx="2.08" class="animable" style="transform-origin: 191.965px 234.905px; transform: rotate(5.88deg);"></rect></g></g></g><g id="elem2tbxfvbp6"><rect x="174.85" y="221.4" width="26.19" height="26.19" rx="2.08" style="fill: rgb(38, 50, 56); transform-origin: 187.945px 234.495px; transform: rotate(5.88deg);" class="animable"></rect></g><path d="M192.08,229.31l-.17,1.63-5,8.82-2.73-.29,4.8-8.41-3.6-.37-.18,1.77-2.24-.23.4-3.81Z" style="fill: rgb(255, 255, 255); transform-origin: 187.52px 234.09px;" id="elcvmpva02jxa" class="animable"></path><g id="el3xeqj6r684x"><rect x="215.2" y="225.56" width="26.19" height="26.19" rx="2.08" style="fill: rgb(243, 114, 12); transform-origin: 228.295px 238.655px; transform: rotate(5.88deg);" class="animable"></rect></g><g id="elhw0b7qvr1ij"><g style="opacity: 0.4; transform-origin: 228.295px 238.655px;" class="animable"><g id="el5y47ubwtdzs"><rect x="215.2" y="225.56" width="26.19" height="26.19" rx="2.08" class="animable" style="transform-origin: 228.295px 238.655px; transform: rotate(5.88deg);"></rect></g></g></g><g id="elhd8wdma013j"><rect x="211.18" y="225.14" width="26.19" height="26.19" rx="2.08" style="fill: rgb(38, 50, 56); transform-origin: 224.275px 238.235px; transform: rotate(5.88deg);" class="animable"></rect></g><path d="M229.5,241c-.21,2-2.17,3.15-4.93,2.86s-4.43-1.76-4.22-3.8a2.76,2.76,0,0,1,1.91-2.39,2.53,2.53,0,0,1-1-2.37c.2-1.91,2-2.92,4.49-2.67s4.08,1.63,3.89,3.54a2.54,2.54,0,0,1-1.51,2.1A2.76,2.76,0,0,1,229.5,241Zm-2.54-.34c.1-1-.63-1.63-1.88-1.76s-2.08.38-2.18,1.34.61,1.65,1.86,1.78S226.87,241.58,227,240.62Zm-3.24-5c-.09.82.51,1.4,1.53,1.51s1.76-.34,1.85-1.16-.54-1.44-1.57-1.54S223.8,234.78,223.72,235.63Z" style="fill: rgb(255, 255, 255); transform-origin: 224.994px 238.248px;" id="el9ulfc952zht" class="animable"></path><g id="ellgy9dh9l9b"><rect x="252.87" y="229.44" width="26.19" height="26.19" rx="2.08" style="fill: rgb(243, 114, 12); transform-origin: 265.965px 242.535px; transform: rotate(5.88deg);" class="animable"></rect></g><g id="elqutdhwxsh2"><g style="opacity: 0.4; transform-origin: 265.965px 242.535px;" class="animable"><g id="elk11a383lh8m"><rect x="252.87" y="229.44" width="26.19" height="26.19" rx="2.08" class="animable" style="transform-origin: 265.965px 242.535px; transform: rotate(5.88deg);"></rect></g></g></g><g id="elhhj3nuxy7b"><rect x="248.85" y="229.02" width="26.19" height="26.19" rx="2.08" style="fill: rgb(38, 50, 56); transform-origin: 261.945px 242.115px; transform: rotate(5.76789deg);" class="animable"></rect></g><path d="M267,242.28c-.39,3.76-2.85,5.62-6.14,5.28a5.82,5.82,0,0,1-2.93-1.05l1.12-1.75a3.55,3.55,0,0,0,2,.75c1.8.18,3.09-.77,3.38-2.85a3.75,3.75,0,0,1-2.8.7,3.47,3.47,0,0,1-3.39-3.77c.23-2.22,2.19-3.43,4.49-3.19C265.72,236.71,267.37,238.78,267,242.28Zm-2.61-2.18c.09-.93-.54-1.68-1.73-1.81a1.64,1.64,0,1,0-.3,3.25A1.7,1.7,0,0,0,264.4,240.1Z" style="fill: rgb(255, 255, 255); transform-origin: 262.491px 241.985px;" id="elt2w1psyuqbm" class="animable"></path><g id="eld70hizvr0j7"><rect x="290.53" y="233.32" width="26.19" height="26.19" rx="2.08" style="fill: rgb(243, 114, 12); transform-origin: 303.625px 246.415px; transform: rotate(5.88deg);" class="animable"></rect></g><g id="elze341t02k48"><g style="opacity: 0.4; transform-origin: 303.625px 246.415px;" class="animable"><g id="el59tws7ekb4v"><rect x="290.53" y="233.32" width="26.19" height="26.19" rx="2.08" class="animable" style="transform-origin: 303.625px 246.415px; transform: rotate(5.88deg);"></rect></g></g></g><g id="elf76wsa9236i"><rect x="286.51" y="232.9" width="26.19" height="26.19" rx="2.08" style="fill: rgb(38, 50, 56); transform-origin: 299.605px 245.995px; transform: rotate(5.88deg);" class="animable"></rect></g><g id="elccs2rrr6jip"><rect x="299.11" y="240.15" width="1" height="11.7" style="fill: rgb(255, 255, 255); transform-origin: 299.61px 246px; transform: rotate(-84.12deg);" class="animable"></rect></g><g id="elvtlvc4pww"><rect x="248.93" y="267.63" width="26.19" height="26.19" rx="2.08" style="fill: rgb(243, 114, 12); transform-origin: 262.025px 280.725px; transform: rotate(5.88deg);" class="animable"></rect></g><g id="eladsjs45py6f"><g style="opacity: 0.4; transform-origin: 262.025px 280.725px;" class="animable"><g id="elq8nvnk7yqr"><rect x="248.93" y="267.63" width="26.19" height="26.19" rx="2.08" class="animable" style="transform-origin: 262.025px 280.725px; transform: rotate(5.88deg);"></rect></g></g></g><g id="el9wiigv6ocm"><rect x="244.91" y="267.21" width="26.19" height="26.19" rx="2.08" style="fill: rgb(38, 50, 56); transform-origin: 258.005px 280.305px; transform: rotate(5.88deg);" class="animable"></rect></g><g id="ellfvzyxocps"><rect x="286.6" y="271.51" width="26.19" height="26.19" rx="2.08" style="fill: rgb(243, 114, 12); transform-origin: 299.695px 284.605px; transform: rotate(5.88deg);" class="animable"></rect></g><g id="eluz46753hq8"><g style="opacity: 0.4; transform-origin: 299.695px 284.605px;" class="animable"><g id="el68httz357d2"><rect x="286.6" y="271.51" width="26.19" height="26.19" rx="2.08" class="animable" style="transform-origin: 299.695px 284.605px; transform: rotate(5.88deg);"></rect></g></g></g><g id="elyr0wgpqs4k"><rect x="282.58" y="271.09" width="26.19" height="26.19" rx="2.08" style="fill: rgb(69, 90, 100); transform-origin: 295.675px 284.185px; transform: rotate(5.88deg);" class="animable"></rect></g><g id="elc849fzq9r2f"><rect x="295.32" y="276.9" width="1" height="11.7" style="fill: rgb(255, 255, 255); transform-origin: 295.82px 282.75px; transform: rotate(-84.12deg);" class="animable"></rect></g><g id="elxtcaaamyvtr"><rect x="294.87" y="281.33" width="1" height="11.7" style="fill: rgb(255, 255, 255); transform-origin: 295.37px 287.18px; transform: rotate(-84.12deg);" class="animable"></rect></g><g id="el49px8otmvgi"><rect x="169.45" y="261.01" width="63.23" height="26.86" rx="2.5" style="fill: rgb(38, 50, 56); transform-origin: 201.065px 274.44px; transform: rotate(5.88deg);" class="animable"></rect></g><path d="M198.72,273.68c.37-3.59,2.57-5.41,5.24-5.14s4.44,2.51,4.07,6.1-2.55,5.41-5.23,5.13S198.35,277.26,198.72,273.68Zm6.78.7c.26-2.47-.51-3.58-1.76-3.71s-2.22.8-2.47,3.27.51,3.58,1.75,3.71S205.25,276.84,205.5,274.38Z" style="fill: rgb(255, 255, 255); transform-origin: 203.375px 274.156px;" id="el8yi2ko072zd" class="animable"></path><g id="elmcyedio0ve"><rect x="252.16" y="279.81" width="11.7" height="1" style="fill: rgb(255, 255, 255); transform-origin: 258.01px 280.31px; transform: rotate(-83.27deg);" class="animable"></rect></g><g id="el2d8ycjdhmpq"><rect x="257.51" y="274.46" width="1" height="11.7" style="fill: rgb(255, 255, 255); transform-origin: 258.01px 280.31px; transform: rotate(-84.12deg);" class="animable"></rect></g><path d="M246.8,96.24l-1.67,16.23-.77-.08L246,96.88l-4.08-.42.07-.72Z" style="fill: rgb(38, 50, 56); transform-origin: 244.36px 104.105px;" id="ellmtd63kmt3l" class="animable"></path><path d="M260.14,113.29l-.08.72-11-1.13.06-.56,7.68-6.29c2.2-1.79,2.73-2.93,2.87-4.25.22-2.16-1.14-3.7-4-4a6,6,0,0,0-5.07,1.44l-.48-.56a6.88,6.88,0,0,1,5.65-1.6c3.1.32,4.91,2.12,4.64,4.74-.16,1.54-.78,2.83-3.14,4.74l-7,5.73Z" style="fill: rgb(38, 50, 56); transform-origin: 254.748px 105.488px;" id="el9q0cx04fz3r" class="animable"></path><path d="M273,110.79c-.28,2.7-2.37,4.4-5.94,4a7.35,7.35,0,0,1-5.41-2.83l.48-.51a6.75,6.75,0,0,0,5,2.62c3.1.32,4.88-1,5.13-3.38s-1.18-4-4.62-4.39l-.9-.1.06-.55,5.73-6.07-8.95-.92.07-.72,10,1-.06.55-5.76,6.09C271.59,106,273.28,108.08,273,110.79Z" style="fill: rgb(38, 50, 56); transform-origin: 267.65px 106.394px;" id="elwugivitabvd" class="animable"></path><path d="M289,112.25l-3.53-.36-.48,4.69-.77-.08.48-4.69-9.32-1,.06-.56,10.11-10.06.9.09-10,9.94,8.31.86.42-4.13.77.08-.43,4.12,3.53.37Z" style="fill: rgb(38, 50, 56); transform-origin: 282.215px 108.385px;" id="elh1bd9nat5t7" class="animable"></path><path d="M292.37,116.63a4.19,4.19,0,0,1-.23.85l-1.16,3-.6-.06,1.05-3.13a.77.77,0,0,1,.25-1.52A.79.79,0,0,1,292.37,116.63Z" style="fill: rgb(38, 50, 56); transform-origin: 291.377px 118.12px;" id="eljwehlwtvbr" class="animable"></path><path d="M308.45,114.26l-3.52-.36-.48,4.68-.77-.08.48-4.68-9.32-1,.06-.56L305,102.23l.9.1-10,9.94,8.31.85.42-4.13.77.08L305,113.2l3.53.36Z" style="fill: rgb(38, 50, 56); transform-origin: 301.685px 110.405px;" id="elyvz4pecnnva" class="animable"></path><path d="M320.51,115.6c-.28,2.64-2.32,4.49-6,4.11a7.34,7.34,0,0,1-5.38-2.83l.5-.51a6.69,6.69,0,0,0,5,2.62c3.17.33,4.9-1.18,5.14-3.48.26-2.5-1.08-4.14-5.72-4.62l-3.15-.32L312.5,103l8.37.87-.07.72-7.73-.8-1.33,6.14,2.5.26C319.2,110.7,320.8,112.72,320.51,115.6Z" style="fill: rgb(38, 50, 56); transform-origin: 315px 111.38px;" id="el6rtjgc9516s" class="animable"></path><polygon points="143.12 448.17 136.76 471.68 157.43 473.56 161.77 451.18 143.12 448.17" style="fill: rgb(243, 114, 12); transform-origin: 149.265px 460.865px;" id="eldmfrthq4irv" class="animable"></polygon><path d="M158,471.65a14.35,14.35,0,0,1-3-.1c-1.86-.15-4.42-.44-7.25-.8l-7.22-1a15.81,15.81,0,0,1-3-.52,15.48,15.48,0,0,1,3,.12c1.86.15,4.42.44,7.25.8l7.22,1A17.88,17.88,0,0,1,158,471.65Z" style="fill: rgb(38, 50, 56); transform-origin: 147.765px 470.446px;" id="eld2srsg0buoq" class="animable"></path><g id="elsyrt8m2863s"><g style="opacity: 0.6; transform-origin: 147.26px 471.405px;" class="animable"><polyline points="136.76 471.68 157.43 473.56 157.76 471.84 137.36 469.25 136.79 471.44" style="fill: rgb(255, 255, 255); transform-origin: 147.26px 471.405px;" id="elx4jcgm5l2x" class="animable"></polyline></g></g><path d="M147,470.63a180.63,180.63,0,0,1,4.4-17.9,87.88,87.88,0,0,1-2,9A88.93,88.93,0,0,1,147,470.63Z" style="fill: rgb(38, 50, 56); transform-origin: 149.2px 461.68px;" id="elb027eyi68d6" class="animable"></path><path d="M156.89,471.5a9.93,9.93,0,0,0,0-4.37,8.63,8.63,0,0,0-2.26-4.09,8.46,8.46,0,0,0-5.14-2.37,8.83,8.83,0,0,0-5.53,1.26,9.49,9.49,0,0,0-3.22,3.42,12.27,12.27,0,0,0-1.31,4.19,1.2,1.2,0,0,1,0-.31,6.43,6.43,0,0,1,.05-.89,9.36,9.36,0,0,1,1-3.15,9.58,9.58,0,0,1,3.28-3.64,9.11,9.11,0,0,1,5.82-1.36,8.79,8.79,0,0,1,5.41,2.53,8.88,8.88,0,0,1,2.28,4.33,8.2,8.2,0,0,1,0,3.3,5.79,5.79,0,0,1-.26.86A1.15,1.15,0,0,1,156.89,471.5Z" style="fill: rgb(38, 50, 56); transform-origin: 148.429px 465.82px;" id="elun965m11ej" class="animable"></path><path d="M228.37,445.49,227.14,464s18.42,6.11,18.53,9.55l-36,.26.73-28.92Z" style="fill: rgb(243, 114, 12); transform-origin: 227.67px 459.35px;" id="elsyzk197lz1" class="animable"></path><g id="elt3jrsve426"><g style="opacity: 0.6; transform-origin: 216.366px 463.471px;" class="animable"><path d="M216.06,462.11a1.48,1.48,0,0,0-1.07,1.65,1.41,1.41,0,0,0,1.63,1.07,1.56,1.56,0,0,0,1.12-1.75,1.47,1.47,0,0,0-1.81-.93" style="fill: rgb(255, 255, 255); transform-origin: 216.366px 463.471px;" id="el3ii64u5e3y7" class="animable"></path></g></g><g id="elwf3q85enjk9"><g style="opacity: 0.6; transform-origin: 227.76px 472.385px;" class="animable"><path d="M209.67,473.83l.19-2.92,34.66,1a2.48,2.48,0,0,1,1.33,1.95Z" style="fill: rgb(255, 255, 255); transform-origin: 227.76px 472.385px;" id="eldwzp8hxk9tc" class="animable"></path></g></g><path d="M227.73,463.84c0,.18-.89.23-1.78.77s-1.36,1.26-1.52,1.19.13-1.08,1.21-1.72S227.77,463.68,227.73,463.84Z" style="fill: rgb(38, 50, 56); transform-origin: 226.06px 464.732px;" id="el01o3qrtu5oo2" class="animable"></path><path d="M231.45,465.52c0,.17-.73.44-1.35,1.17s-.82,1.5-1,1.49-.26-1,.53-1.9S231.46,465.35,231.45,465.52Z" style="fill: rgb(38, 50, 56); transform-origin: 230.215px 466.809px;" id="el042006im4efl" class="animable"></path><path d="M233.46,470.1c-.16,0-.38-.86.1-1.8s1.32-1.31,1.39-1.16-.46.65-.84,1.43S233.64,470.09,233.46,470.1Z" style="fill: rgb(38, 50, 56); transform-origin: 234.112px 468.604px;" id="elebn37fxf96m" class="animable"></path><path d="M227.54,459.59c-.08.16-.88-.11-1.87-.07s-1.78.33-1.87.17.68-.75,1.85-.78S227.63,459.46,227.54,459.59Z" style="fill: rgb(38, 50, 56); transform-origin: 225.67px 459.323px;" id="elnsd1xg3zfio" class="animable"></path><g id="el1mjo4uks4gp"><g style="opacity: 0.3; transform-origin: 219.17px 450.625px;" class="animable"><polygon points="228.12 449.16 227.9 452.46 210.22 451.76 210.29 448.79 228.12 449.16" id="elutk6dcuv0l" class="animable" style="transform-origin: 219.17px 450.625px;"></polygon></g></g><path d="M227.72,455.85a3.43,3.43,0,0,1-1.8-.06,8.14,8.14,0,0,1-1.87-.64,7.55,7.55,0,0,1-1-.58,2,2,0,0,1-.53-.44.76.76,0,0,1-.05-.94,1,1,0,0,1,.78-.38,2.17,2.17,0,0,1,.67.12,6.08,6.08,0,0,1,1.11.42,6.23,6.23,0,0,1,1.63,1.14c.81.8,1.08,1.46,1,1.49s-.47-.5-1.3-1.17a7,7,0,0,0-1.58-.95,6.11,6.11,0,0,0-1-.35c-.38-.11-.7-.13-.81,0s0,.09,0,.2a2,2,0,0,0,.39.33q.47.32.93.57a10.11,10.11,0,0,0,1.72.72A14.23,14.23,0,0,1,227.72,455.85Z" style="fill: rgb(38, 50, 56); transform-origin: 225.025px 454.396px;" id="el5dgy6zys0gu" class="animable"></path><path d="M227.48,456.1a3,3,0,0,1-.42-1.76,5.65,5.65,0,0,1,.8-3,1.49,1.49,0,0,1,1.17-.88.83.83,0,0,1,.74.53,2.57,2.57,0,0,1,.17.66,4.14,4.14,0,0,1-.87,3.05c-.73.92-1.47,1.1-1.48,1s.57-.41,1.13-1.29a4.13,4.13,0,0,0,.62-1.67,3.69,3.69,0,0,0,0-1.05c0-.38-.18-.69-.32-.66s-.49.27-.65.57a7.27,7.27,0,0,0-.48,1,6.57,6.57,0,0,0-.4,1.78C227.41,455.41,227.58,456.07,227.48,456.1Z" style="fill: rgb(38, 50, 56); transform-origin: 228.51px 453.28px;" id="elafisnk6rfm" class="animable"></path><path d="M150.31,157.14s-3.91,21.3-7,34.19c-2.44,10-8.74,28.78,2.67,34.23S172.69,209,172.69,209l6.51-50.14c-4.53.85-9.67,6.11-15.14,13.84l1-19Z" style="fill: rgb(69, 90, 100); transform-origin: 159.284px 190.064px;" id="elfahs9u611ao" class="animable"></path><path d="M307.33,188.61l-6,2.86-5.53-8.67,3.23-6.69c.31-.62.64-1.31,1-2.11a9.1,9.1,0,0,0,.71-2.95,14,14,0,0,0-.09-3.76c-.3-1.12.88-2,1.68-1.38s1.7,3.7,1.11,7.39,3.69-.22,5.28-1.62,6.7-5.48,7.51-5.32c1.17.23,1.14,1.57-.48,2.92s-6.19,5.78-5.44,6.6h0a4.54,4.54,0,0,1,3.92,3.51c.4,1.81.73,4.32-.29,5.15A60.26,60.26,0,0,1,307.33,188.61Z" style="fill: rgb(255, 190, 157); transform-origin: 306.423px 178.587px;" id="elsr9m29bkm1" class="animable"></path><path d="M191,107.79l-.16,52.11L213.18,161l.65-12.67s7.94,1.58,10-5.8c1.31-4.71,1-41.12,1-41.12Z" style="fill: rgb(255, 190, 157); transform-origin: 207.851px 131.205px;" id="elfx6nlrn1px" class="animable"></path><path d="M229.85,106.51c-1.51,3.11-8.68,8.81-8.68,8.81L217.93,124c-2.81-2.2-6.59-2.07-7.3,2.87-.52,3.58,3.92,4.3,3.92,4.3-2.59,4.4-4.34,8-8.1,12.14-4.08,4.54-6.36,5-10.78,5.07h-4.88s-10-8.34-8-30.29,21.71-15.54,26.42-21C216.88,88.13,234.88,96.12,229.85,106.51Z" style="fill: rgb(38, 50, 56); transform-origin: 206.625px 120.795px;" id="el2x4he95hkd6" class="animable"></path><path d="M183.9,136.44h.62a9.43,9.43,0,0,0,1.77-.2,12.65,12.65,0,0,0,5.73-3,31.75,31.75,0,0,0,5.8-7.77c1-1.57,1.94-3.24,3.14-4.85a18.59,18.59,0,0,1,4.39-4.37,18.14,18.14,0,0,1,5.7-2.43c1.94-.5,3.85-.81,5.65-1.16,3.6-.67,6.83-1.67,9-3.38a9.78,9.78,0,0,0,3.65-5.28,7.59,7.59,0,0,0,.22-1.76c0-.41,0-.63,0-.63s0,.22.07.63a7.31,7.31,0,0,1-.18,1.78,9.83,9.83,0,0,1-3.64,5.38c-2.22,1.74-5.48,2.77-9.08,3.44-1.81.36-3.71.67-5.64,1.18a18.22,18.22,0,0,0-5.64,2.4,18.93,18.93,0,0,0-4.34,4.32c-1.19,1.6-2.18,3.26-3.13,4.83a31.62,31.62,0,0,1-5.87,7.78,12.59,12.59,0,0,1-5.81,3,9.14,9.14,0,0,1-1.79.17C184.11,136.47,183.9,136.44,183.9,136.44Z" style="fill: rgb(69, 90, 100); transform-origin: 206.771px 119.065px;" id="eldyvoh91asmh" class="animable"></path><path d="M182.75,118.59s.35-.14,1-.36a15.07,15.07,0,0,1,3.07-.73,7,7,0,0,1,4.79,1,4,4,0,0,1,1.71,2.56,3.58,3.58,0,0,1-1,3.27,2.82,2.82,0,0,1-1.75.7,3.63,3.63,0,0,1-1.91-.51,5.76,5.76,0,0,1-2.56-3.24,8,8,0,0,1-.19-4.44,7.67,7.67,0,0,1,2.41-4,8,8,0,0,1,4.51-2,13.67,13.67,0,0,1,5.13.66,35.83,35.83,0,0,0,5.2,1.25,20.94,20.94,0,0,0,5.48,0,18.08,18.08,0,0,0,5.27-1.46,6.19,6.19,0,0,0,3.53-3.7,4.79,4.79,0,0,0-1.17-4.69,4.12,4.12,0,0,0-4.52-.67,3.41,3.41,0,0,0-1.66,1.56,3.77,3.77,0,0,0-.36,2.21,5.14,5.14,0,0,0,2.27,3.58,7.45,7.45,0,0,0,3.91,1.1,11.46,11.46,0,0,0,3.75-.56,13.55,13.55,0,0,0,5.55-3.38,14.48,14.48,0,0,0,2.87-4,15,15,0,0,0,1.05-3c.13-.7.22-1.07.22-1.07l-.18,1.08a14.36,14.36,0,0,1-1,3,14.17,14.17,0,0,1-2.86,4.07,13.61,13.61,0,0,1-5.58,3.44,12,12,0,0,1-3.8.58,7.59,7.59,0,0,1-4-1.11,5.3,5.3,0,0,1-2.36-3.7,3.9,3.9,0,0,1,.37-2.32,3.64,3.64,0,0,1,1.75-1.65,4.31,4.31,0,0,1,4.74.7,5,5,0,0,1,1.23,4.88,6.44,6.44,0,0,1-3.64,3.84,18.58,18.58,0,0,1-5.33,1.48,21.85,21.85,0,0,1-5.54,0,36.79,36.79,0,0,1-5.22-1.25,13.83,13.83,0,0,0-5.06-.67,7.82,7.82,0,0,0-6.59,10.25,5.62,5.62,0,0,0,2.48,3.15,3.52,3.52,0,0,0,1.82.5,2.67,2.67,0,0,0,1.66-.66,3.47,3.47,0,0,0,.95-3.14,3.93,3.93,0,0,0-1.64-2.48,6.91,6.91,0,0,0-4.72-1,15.42,15.42,0,0,0-3.06.69Z" style="fill: rgb(69, 90, 100); transform-origin: 206.05px 111.85px;" id="el5ycx09ue704" class="animable"></path><polygon points="168.01 260.45 138.25 455.93 162.97 459.06 197.84 295.11 206.63 460.17 233.42 459.7 228.98 260.91 168.01 260.45" style="fill: rgb(38, 50, 56); transform-origin: 185.835px 360.31px;" id="el6bubirz08x3" class="animable"></polygon><path d="M206.15,460.67l0-.48-8.58-161.28L163.36,459.62l-25.68-3.26L167.58,260l61.89.46,4.46,199.78Zm-8-169.37,9,168.36,25.81-.45-4.42-197.8L168.44,261,138.82,455.49l23.75,3Z" style="fill: rgb(38, 50, 56); transform-origin: 185.805px 360.335px;" id="elz517qg7s08c" class="animable"></path><path d="M225.46,459.38c-.15,0-.26-39.16-.26-87.46s.11-87.48.26-87.48.26,39.16.26,87.48S225.6,459.38,225.46,459.38Z" style="fill: rgb(69, 90, 100); transform-origin: 225.46px 371.91px;" id="elrwndxthgno" class="animable"></path><path d="M157.53,458.67a2.26,2.26,0,0,1,.06-.42c0-.31.13-.72.23-1.24.21-1.11.52-2.71.91-4.75.84-4.15,2-10.1,3.51-17.45,3-14.73,7.25-35.05,12.13-57.45s9.47-42.66,12.87-57.29c1.71-7.3,3.1-13.21,4.07-17.33.49-2,.88-3.6,1.14-4.7.13-.52.24-.92.31-1.22a3.17,3.17,0,0,1,.13-.41s0,.14-.08.42-.14.71-.25,1.23c-.25,1.11-.6,2.7-1.05,4.73-.93,4.12-2.26,10-3.91,17.36-3.31,14.66-7.84,34.92-12.72,57.32s-9.19,42.71-12.28,57.41c-1.55,7.34-2.8,13.28-3.67,17.42-.43,2-.77,3.62-1,4.73l-.28,1.23A2.13,2.13,0,0,1,157.53,458.67Z" style="fill: rgb(69, 90, 100); transform-origin: 175.21px 377.54px;" id="elvfc0h7vtrff" class="animable"></path><path d="M206.63,294.93a4.41,4.41,0,0,1-1.13.15l-3.09.22c-2.61.17-6.22.35-10.18.74s-7.53.93-10.12,1.27l-3.07.39a4.46,4.46,0,0,1-1.14.07,5.1,5.1,0,0,1,1.11-.27c.71-.15,1.75-.34,3-.56,2.58-.43,6.15-1,10.13-1.42s7.6-.51,10.21-.59c1.31,0,2.37-.05,3.1-.05A5.42,5.42,0,0,1,206.63,294.93Z" style="fill: rgb(69, 90, 100); transform-origin: 192.265px 296.324px;" id="ell4rjxzuchri" class="animable"></path><path d="M229.5,282.24a2.31,2.31,0,0,1-.77.19,11.08,11.08,0,0,1-2.16.1,12.54,12.54,0,0,1-11-7.93,10.75,10.75,0,0,1-.59-2.08c-.09-.5-.1-.78-.06-.79s.26,1.1,1,2.72a13.5,13.5,0,0,0,4.32,5.32,13.35,13.35,0,0,0,6.41,2.39C228.37,282.34,229.48,282.14,229.5,282.24Z" style="fill: rgb(69, 90, 100); transform-origin: 222.199px 277.137px;" id="elxxxeo5gmxu" class="animable"></path><path d="M162.92,264.29l68.48-.22-3.75-45.19c-.41-10.34-.35-11.58-.61-21.12,0,0,9.72,11.75,17.37,20a15.58,15.58,0,0,0,18.08,3.47l40-27.91L295,174.15,258.65,196.4c-1.67-1-15.82-21.23-25.6-31.08a34.62,34.62,0,0,0-23.59-10.21,173.59,173.59,0,0,0-22.08.89,23.11,23.11,0,0,0-20.57,21.06c-.71,8.45-.14,18.26-.14,34.93Z" style="fill: rgb(69, 90, 100); transform-origin: 232.705px 209.676px;" id="elp4fissfj4ub" class="animable"></path><path d="M166.14,181.63s0,.19,0,.53,0,.91,0,1.51c0,1.32,0,3.22,0,5.57,0,4.7.21,11.18.42,18.35s.24,13.67.06,18.36c-.08,2.35-.19,4.25-.3,5.56,0,.61-.09,1.11-.12,1.51s-.06.52-.06.52,0-.18,0-.52.05-.91.08-1.51c.09-1.31.17-3.21.23-5.56.14-4.7.08-11.19-.12-18.36s-.37-13.65-.36-18.35c0-2.35,0-4.25.07-5.57,0-.61,0-1.1.05-1.51S166.14,181.63,166.14,181.63Z" style="fill: rgb(38, 50, 56); transform-origin: 166.354px 207.585px;" id="elzfgzjc8hizf" class="animable"></path><path d="M257.15,202.87a4.29,4.29,0,0,1,.14-.94c.12-.58.29-1.38.5-2.25s.4-1.67.55-2.23a3.89,3.89,0,0,1,.29-.91,4,4,0,0,1-.15.94c-.11.58-.29,1.37-.49,2.25s-.4,1.66-.55,2.23A4.38,4.38,0,0,1,257.15,202.87Z" style="fill: rgb(38, 50, 56); transform-origin: 257.89px 199.705px;" id="el9c5ze4kvkwv" class="animable"></path><path d="M260.8,203.43a30.6,30.6,0,0,1-.93-3.6,34.9,34.9,0,0,1-.73-3.65,33.14,33.14,0,0,1,.93,3.6A34.9,34.9,0,0,1,260.8,203.43Z" style="fill: rgb(38, 50, 56); transform-origin: 259.97px 199.805px;" id="el9c832de94qp" class="animable"></path><path d="M228.73,199.45l-.37-.34-1.05-1c-.9-.88-2.2-2.17-3.76-3.82a61.67,61.67,0,0,1-5.1-6.09,35.06,35.06,0,0,1-4.65-8.54,23.93,23.93,0,0,1-1.53-9.58,19.91,19.91,0,0,1,1.72-7.73,11.31,11.31,0,0,1,3.37-4.14,11,11,0,0,1,1.21-.8l.45-.25s-.62.34-1.61,1.11a11.5,11.5,0,0,0-3.29,4.14,20,20,0,0,0-1.66,7.68,23.77,23.77,0,0,0,1.54,9.5,35.58,35.58,0,0,0,4.6,8.5,64.47,64.47,0,0,0,5.06,6.1c1.54,1.66,2.82,3,3.71,3.87l1,1C228.62,199.32,228.73,199.45,228.73,199.45Z" style="fill: rgb(38, 50, 56); transform-origin: 220.487px 178.305px;" id="elqkgbmezewfq" class="animable"></path><path d="M184.22,180.86a11.83,11.83,0,0,1-2.35-2.55,12.07,12.07,0,0,1-1.94-2.86,11.92,11.92,0,0,1,2.35,2.54A11.79,11.79,0,0,1,184.22,180.86Z" style="fill: rgb(250, 250, 250); transform-origin: 182.075px 178.155px;" id="el9bbuph7zpdf" class="animable"></path><path d="M199.78,198.52a22.61,22.61,0,0,1-3.24,3.6,22.91,22.91,0,0,1-3.61,3.24,45.51,45.51,0,0,1,6.85-6.84Z" style="fill: rgb(250, 250, 250); transform-origin: 196.355px 201.94px;" id="el1pol5j32hof" class="animable"></path><path d="M214.84,223.87c-.14,0-.69-1.5-1.71-3.23s-2.08-3-2-3.07a7.42,7.42,0,0,1,2.42,2.81A7.55,7.55,0,0,1,214.84,223.87Z" style="fill: rgb(250, 250, 250); transform-origin: 212.983px 220.72px;" id="ell7rhdtq4dfp" class="animable"></path><path d="M175.8,221a19.45,19.45,0,0,1-1.8-10.26c.16,0,.2,2.34.71,5.16S176,220.94,175.8,221Z" style="fill: rgb(250, 250, 250); transform-origin: 174.87px 215.87px;" id="elsh60z90klxm" class="animable"></path><path d="M196.53,232.16a12.69,12.69,0,0,1-.76-8.58c.15,0-.07,1.95.15,4.31S196.68,232.11,196.53,232.16Z" style="fill: rgb(250, 250, 250); transform-origin: 195.953px 227.87px;" id="elq2asint94g" class="animable"></path><path d="M188.33,248.37a27.16,27.16,0,0,1-4.7-2.63,28.46,28.46,0,0,1-4.43-3.07,27.42,27.42,0,0,1,4.71,2.63A28.24,28.24,0,0,1,188.33,248.37Z" style="fill: rgb(250, 250, 250); transform-origin: 183.765px 245.52px;" id="elxb7ifwihlpa" class="animable"></path><path d="M220.57,243.58c.07.14-2.25,1.29-4.94,3s-4.74,3.3-4.84,3.18a19.45,19.45,0,0,1,4.56-3.62A19.13,19.13,0,0,1,220.57,243.58Z" style="fill: rgb(250, 250, 250); transform-origin: 215.681px 246.673px;" id="el10fmpyw9pfq" class="animable"></path><path d="M180,261.91a25.26,25.26,0,0,1-5-.74,24.67,24.67,0,0,1-4.94-1.26,24.88,24.88,0,0,1,5,.75A25.1,25.1,0,0,1,180,261.91Z" style="fill: rgb(250, 250, 250); transform-origin: 175.03px 260.91px;" id="elaljpuek513" class="animable"></path><path d="M201.64,258.39a13,13,0,0,1-3.71-6.85c.14,0,.76,1.58,1.79,3.46S201.76,258.29,201.64,258.39Z" style="fill: rgb(250, 250, 250); transform-origin: 199.79px 254.965px;" id="ele2e4n17ul0h" class="animable"></path><path d="M226,260.08a7.5,7.5,0,0,1-1.56,2.27c-1,1.16-1.84,2-2,1.94A7.23,7.23,0,0,1,224,262C225,260.86,225.85,260,226,260.08Z" style="fill: rgb(250, 250, 250); transform-origin: 224.22px 262.184px;" id="elw20rfbbo5i9" class="animable"></path><path d="M181.47,191.34c.08.12-.81.86-2,1.64a6.64,6.64,0,0,1-2.29,1.22c-.08-.12.82-.86,2-1.65A6.51,6.51,0,0,1,181.47,191.34Z" style="fill: rgb(250, 250, 250); transform-origin: 179.325px 192.77px;" id="el2ohwywtiupm" class="animable"></path><path d="M198.35,172.49a23,23,0,0,1-1.8-5.15,23.32,23.32,0,0,1-1-5.35,38.77,38.77,0,0,1,1.52,5.22A38.28,38.28,0,0,1,198.35,172.49Z" style="fill: rgb(250, 250, 250); transform-origin: 196.95px 167.24px;" id="elddc8bprtc2n" class="animable"></path><path d="M214.56,189.65c-.07.14-1.53-.42-3.4-.77s-3.44-.38-3.44-.54a9.84,9.84,0,0,1,6.84,1.31Z" style="fill: rgb(250, 250, 250); transform-origin: 211.14px 188.933px;" id="elu258x8q9i1c" class="animable"></path><path d="M225.7,175.07a7.72,7.72,0,0,1-3.82.13,7.62,7.62,0,0,1-3.6-1.27c.06-.14,1.64.45,3.68.75S225.68,174.92,225.7,175.07Z" style="fill: rgb(250, 250, 250); transform-origin: 221.99px 174.644px;" id="elhf12xozdvc6" class="animable"></path><path d="M237.09,191.33a18.16,18.16,0,0,1,.28-5.51,17.81,17.81,0,0,1,1.48-5.32c.14,0-.49,2.42-1,5.4S237.25,191.34,237.09,191.33Z" style="fill: rgb(250, 250, 250); transform-origin: 237.933px 185.915px;" id="elqih3sq50a6h" class="animable"></path><path d="M250.49,210.49a45,45,0,0,1-6.74-7,46.23,46.23,0,0,1,6.74,7Z" style="fill: rgb(250, 250, 250); transform-origin: 247.12px 206.99px;" id="elqr5udjp8rri" class="animable"></path><path d="M261.63,209a26.49,26.49,0,0,1-4,6.25,13.36,13.36,0,0,1,1.8-3.27A13.22,13.22,0,0,1,261.63,209Z" style="fill: rgb(250, 250, 250); transform-origin: 259.63px 212.125px;" id="elgq4nfufcoof" class="animable"></path><path d="M274.56,202.71a18.45,18.45,0,0,1-2.16-3.84,19.07,19.07,0,0,1-1.69-4.08,18.71,18.71,0,0,1,2.16,3.85A19.11,19.11,0,0,1,274.56,202.71Z" style="fill: rgb(250, 250, 250); transform-origin: 272.635px 198.75px;" id="eleenyhg2ag" class="animable"></path><path d="M292.16,195.43a40.74,40.74,0,0,1-9.1-1.62,20.9,20.9,0,0,1,4.6.56A20.44,20.44,0,0,1,292.16,195.43Z" style="fill: rgb(250, 250, 250); transform-origin: 287.61px 194.62px;" id="eldam4nypxjm6" class="animable"></path><path d="M152.36,214.16a45.46,45.46,0,0,1,4.18-8.89,23.16,23.16,0,0,1-1.86,4.55A23.31,23.31,0,0,1,152.36,214.16Z" style="fill: rgb(250, 250, 250); transform-origin: 154.45px 209.715px;" id="el6mlf6gzwgh" class="animable"></path><path d="M161.69,197.7a17.49,17.49,0,0,1-3-3,18.42,18.42,0,0,1-2.65-3.33,17,17,0,0,1,3,3A17.68,17.68,0,0,1,161.69,197.7Z" style="fill: rgb(250, 250, 250); transform-origin: 158.865px 194.535px;" id="eljxgrqjbqlyl" class="animable"></path><path d="M160.91,224.13c.09.11-.6.84-1.54,1.63s-1.79,1.33-1.89,1.22.61-.84,1.55-1.62S160.82,224,160.91,224.13Z" style="fill: rgb(250, 250, 250); transform-origin: 159.194px 225.553px;" id="elcuyytmstd" class="animable"></path><path d="M164.06,180.21c.12.09-.3.8-.93,1.59s-1.24,1.35-1.35,1.26.31-.8.94-1.59S164,180.12,164.06,180.21Z" style="fill: rgb(250, 250, 250); transform-origin: 162.921px 181.635px;" id="eliixj27u1zi8" class="animable"></path><g id="ell8946wiziy"><g style="opacity: 0.3; transform-origin: 222.19px 205.015px;" class="animable"><path d="M216.33,184.75c4.23,13.29,7.49,27.24,11.72,40.53l-1-27.52A66.16,66.16,0,0,1,216.33,184.75Z" id="elalec69sqagv" class="animable" style="transform-origin: 222.19px 205.015px;"></path></g></g><path d="M147.52,202.14a2.18,2.18,0,0,1,.13-.32l.4-.93c.36-.8.89-1.94,1.57-3.35,1.36-2.82,3.32-6.67,5.68-10.83s4.65-7.82,6.37-10.43c.86-1.31,1.57-2.36,2.07-3.07l.58-.82c.14-.19.21-.29.22-.28l-.18.3-.55.84-2,3.11c-1.69,2.63-4,6.3-6.31,10.45s-4.34,8-5.72,10.79l-1.63,3.33c-.17.34-.32.64-.44.9A1.71,1.71,0,0,1,147.52,202.14Z" style="fill: rgb(38, 50, 56); transform-origin: 156.03px 187.125px;" id="eli7ulcgsnhe" class="animable"></path><path d="M154.27,189.41a9.21,9.21,0,0,1-1.1.46,14.77,14.77,0,0,0-2.48,1.38,14.46,14.46,0,0,0-2.15,1.85c-.51.53-.79.88-.81.86s0-.1.16-.27a7.26,7.26,0,0,1,.54-.69,11.36,11.36,0,0,1,2.14-1.92,11.76,11.76,0,0,1,2.55-1.34,7.61,7.61,0,0,1,.83-.27A1.18,1.18,0,0,1,154.27,189.41Z" style="fill: rgb(38, 50, 56); transform-origin: 150.997px 191.685px;" id="elx6eg46orphe" class="animable"></path><path d="M155.21,168.9a30.36,30.36,0,0,1-3,4.65,29.25,29.25,0,0,1-3.47,4.34,31.14,31.14,0,0,1,3-4.64A29.7,29.7,0,0,1,155.21,168.9Z" style="fill: rgb(250, 250, 250); transform-origin: 151.975px 173.395px;" id="elxjuiuku5iqa" class="animable"></path><path d="M162.43,152.64a2.43,2.43,0,0,0,2.54-1.2c.56-.84.82-1.84,1.31-2.72,1.49-2.61,4.87-3.75,6.23-6.43.19-.38.3-.9,0-1.16s-.75-.08-1.1.09l-8.9,4.46" style="fill: rgb(255, 190, 157); transform-origin: 167.563px 146.838px;" id="elt1elnoc5uy" class="animable"></path><path d="M162.49,145.68a3.87,3.87,0,0,1,.91-.58c.6-.34,1.49-.81,2.59-1.39l3.86-2,1.13-.57a2,2,0,0,1,1.45-.35.84.84,0,0,1,.54.77,1.74,1.74,0,0,1-.18.8,6.18,6.18,0,0,1-.8,1.23,39.44,39.44,0,0,1-4,3.53,7.58,7.58,0,0,0-1.45,1.71c-.36.61-.59,1.24-.87,1.81a3.5,3.5,0,0,1-2.11,2.09,1.25,1.25,0,0,1-1.09-.08,3.07,3.07,0,0,0,1-.13,3.43,3.43,0,0,0,1.82-2,19.56,19.56,0,0,1,.82-1.87,7.91,7.91,0,0,1,1.5-1.86,45.3,45.3,0,0,0,4-3.51,6.84,6.84,0,0,0,.73-1.11c.18-.37.18-.76,0-.81s-.64.12-1,.31l-1.13.56-3.92,1.9c-1.12.53-2,1-2.67,1.23A3.83,3.83,0,0,1,162.49,145.68Z" style="fill: rgb(235, 153, 110); transform-origin: 167.72px 146.794px;" id="elfvl0d1uqm1" class="animable"></path></g><g id="freepik--Plant--inject-17" class="animable" style="transform-origin: 408.999px 387.735px;"><rect x="378.31" y="420.39" width="63.3" height="8.7" style="fill: rgb(38, 50, 56); transform-origin: 409.96px 424.74px;" id="elu0x8hzt2nn8" class="animable"></rect><path d="M441.71,429.19H378.2v-8.91h63.51ZM378.42,429h63.07v-8.48H378.42Z" style="fill: rgb(38, 50, 56); transform-origin: 409.955px 424.735px;" id="eln3kibvkxgi" class="animable"></path><polygon points="384.18 426.19 393.29 471.13 427 471.13 435.8 429.08 384.18 426.19" style="fill: rgb(38, 50, 56); transform-origin: 409.99px 448.66px;" id="elcwmhdyfpcym" class="animable"></polygon><polygon points="384.18 466.88 389.04 473.56 430.01 473.56 435.8 466.88 384.18 466.88" style="fill: rgb(69, 90, 100); transform-origin: 409.99px 470.22px;" id="elay1ipzqbcg5" class="animable"></polygon><path d="M407.58,427.5c-.13,0-.29-20.82-.36-46.5s0-46.51.1-46.51.28,20.82.35,46.51S407.7,427.5,407.58,427.5Z" style="fill: rgb(38, 50, 56); transform-origin: 407.448px 380.995px;" id="el7mncoqds0u8" class="animable"></path><path d="M421.68,375.39a2.86,2.86,0,0,1-.17.49l-.57,1.34c-.12.3-.26.62-.41,1l-.42,1.19c-.15.42-.32.87-.49,1.35s-.3,1-.47,1.55a63.23,63.23,0,0,0-1.77,7.75,96.07,96.07,0,0,0-1,9.69,131.52,131.52,0,0,0,.5,17.7c.21,2.26.41,4.09.56,5.35.07.59.12,1.07.16,1.45a3.27,3.27,0,0,1,0,.51,1.64,1.64,0,0,1-.12-.49c-.06-.38-.14-.86-.24-1.45-.21-1.25-.46-3.08-.7-5.34A116.14,116.14,0,0,1,416,399.7a91.17,91.17,0,0,1,1-9.74,58.64,58.64,0,0,1,1.88-7.78c.17-.54.32-1.06.5-1.54l.52-1.35c.17-.42.32-.81.46-1.18s.32-.67.45-1l.65-1.31A2.15,2.15,0,0,1,421.68,375.39Z" style="fill: rgb(38, 50, 56); transform-origin: 418.778px 400.075px;" id="elmpq3nubxnwk" class="animable"></path><path d="M420.06,358.55a6.11,6.11,0,0,1-.2.69c-.17.48-.39,1.12-.66,1.93-.15.43-.31.89-.48,1.4l-.51,1.68c-.37,1.21-.8,2.57-1.18,4.12-.21.76-.42,1.57-.64,2.4s-.39,1.73-.59,2.64c-.44,1.81-.76,3.78-1.17,5.83-.7,4.14-1.31,8.71-1.74,13.53s-.57,9.44-.63,13.64,0,8,.21,11.14c.06,1.59.16,3,.24,4.28s.15,2.34.23,3.23.12,1.53.16,2a3.48,3.48,0,0,1,0,.71,4,4,0,0,1-.11-.7l-.24-2c-.11-.88-.22-2-.31-3.22s-.23-2.69-.31-4.28c-.21-3.17-.3-7-.31-11.17s.2-8.83.6-13.66,1.06-9.43,1.78-13.57c.42-2.06.75-4,1.21-5.85.22-.91.42-1.79.62-2.63s.46-1.64.67-2.41c.4-1.54.85-2.91,1.25-4.11l.54-1.67c.19-.5.37-1,.52-1.39l.74-1.9A6.17,6.17,0,0,1,420.06,358.55Z" style="fill: rgb(38, 50, 56); transform-origin: 415.94px 393.16px;" id="elum2olf1hwx" class="animable"></path><path d="M403.57,431.18l0-.24c0-.19,0-.42-.06-.72-.05-.66-.11-1.58-.19-2.75-.15-2.43-.36-5.89-.63-10.15-.55-8.56-1.35-20.39-2.79-33.4-.73-6.5-1.59-12.68-2.47-18.28-.48-2.79-.9-5.45-1.39-7.93s-.92-4.78-1.37-6.88-.88-4-1.25-5.65-.72-3.08-1-4.25-.5-2-.65-2.68c-.07-.29-.12-.52-.16-.7s-.05-.24,0-.24a1.61,1.61,0,0,1,.08.23c0,.18.12.4.2.69.18.64.43,1.53.74,2.66s.71,2.57,1.1,4.23.88,3.54,1.32,5.65,1,4.39,1.42,6.87.94,5.14,1.43,7.94c.91,5.6,1.78,11.78,2.51,18.29,1.44,13,2.19,24.87,2.66,33.44.23,4.28.39,7.75.49,10.15,0,1.17.08,2.1.1,2.76,0,.29,0,.53,0,.72A.64.64,0,0,1,403.57,431.18Z" style="fill: rgb(38, 50, 56); transform-origin: 397.618px 384.245px;" id="el6ehve1mfnpq" class="animable"></path><path d="M407.06,344.5c-.27-2.95-3.25-5.18-6.22-5.21a9.79,9.79,0,0,0-7.53,4.09,23.72,23.72,0,0,0-3.63,8.06,54.48,54.48,0,0,0-2.23,21.43c.85,7.18,3.76,14.25,8.91,19.32.84.83,1.93,1.65,3.08,1.41a3.7,3.7,0,0,0,1.62-1,48,48,0,0,0,15.56-36.47c-.08-2.73-.44-5.57-1.95-7.84s-5-4.69-7.61-3.78" style="fill: rgb(243, 114, 12); transform-origin: 401.917px 366.466px;" id="el2r38f8pudwl" class="animable"></path><path d="M384.94,320.87l-4.17,7.56c-.1.17-.23.37-.43.39s-.38-.19-.5-.37q-5.52-8.47-11-16.94l2.54-1.44Z" style="fill: rgb(243, 114, 12); transform-origin: 376.89px 319.446px;" id="elcum5wbfn6z" class="animable"></path><g id="el1qeegrc7bjp"><g style="opacity: 0.2; transform-origin: 376.89px 319.446px;" class="animable"><path d="M384.94,320.87l-4.17,7.56c-.1.17-.23.37-.43.39s-.38-.19-.5-.37q-5.52-8.47-11-16.94l2.54-1.44Z" id="el5qtiewv9ypc" class="animable" style="transform-origin: 376.89px 319.446px;"></path></g></g><path d="M407.32,334.49l-37.63-22.21a1.73,1.73,0,0,1-.92-.92c-.15-.56.27-1.09.67-1.51a25.93,25.93,0,0,1,20.11-7.9,23,23,0,0,1,18.18,11.31c3.63,6.49,3.75,15.07-.41,21.23" style="fill: rgb(243, 114, 12); transform-origin: 389.593px 318.2px;" id="elbbe9slfejrn" class="animable"></path><path d="M375.11,305.2a1.78,1.78,0,0,1,.49-.07c.33,0,.81-.07,1.42-.06a28.66,28.66,0,0,1,5.23.41,30.55,30.55,0,0,1,24.35,22,29.06,29.06,0,0,1,.94,5.15,10.66,10.66,0,0,1,0,1.1,1.73,1.73,0,0,1-.29.82,6.29,6.29,0,0,0,.06-1.9,32.6,32.6,0,0,0-1.06-5.08A31.29,31.29,0,0,0,377,305.24C375.79,305.21,375.11,305.24,375.11,305.2Z" style="fill: rgb(38, 50, 56); transform-origin: 391.332px 319.809px;" id="el7usk892ylr6" class="animable"></path><path d="M402.22,319.16a9.13,9.13,0,0,1-1.9.87c-1.2.47-2.87,1.07-4.75,1.67s-3.59,1.07-4.84,1.37a9.91,9.91,0,0,1-2.05.4,9.15,9.15,0,0,1,2-.7l4.8-1.5,4.77-1.54A10.2,10.2,0,0,1,402.22,319.16Z" style="fill: rgb(38, 50, 56); transform-origin: 395.45px 321.315px;" id="elziaxgc7cxr" class="animable"></path><path d="M396.3,303.24a15.83,15.83,0,0,1,.44,4.2,16.16,16.16,0,0,1-.23,4.22,25.93,25.93,0,0,1-.22-4.21A26.61,26.61,0,0,1,396.3,303.24Z" style="fill: rgb(38, 50, 56); transform-origin: 396.499px 307.45px;" id="elt88k37psvje" class="animable"></path><path d="M369.36,311.86a18.12,18.12,0,0,1,2.73-1c1.71-.53,4.09-1.19,6.75-1.83s5.07-1.13,6.84-1.44a16.83,16.83,0,0,1,2.87-.39,21.46,21.46,0,0,1-2.81.7c-1.74.39-4.15.93-6.8,1.56s-5,1.26-6.76,1.71A21.34,21.34,0,0,1,369.36,311.86Z" style="fill: rgb(38, 50, 56); transform-origin: 378.955px 309.53px;" id="elef50b2gjqrd" class="animable"></path><path d="M391.44,338.1c-3.23-2.46-6.66-2.94-10.71-2.78a32.72,32.72,0,0,0-11.73,3c-6.35,2.78-12.31,6.87-16.1,12.67s-5.12,13.48-2.28,19.79a2.83,2.83,0,0,0,1.29,1.56,3,3,0,0,0,2.12-.16c7.22-2.35,14.49-4.73,21.12-8.42s12.68-8.81,16.24-15.51a13.46,13.46,0,0,0,1.71-5.15,6.37,6.37,0,0,0-1.66-5" style="fill: rgb(243, 114, 12); transform-origin: 371.115px 353.877px;" id="ellg3pue30vej" class="animable"></path><path d="M391.51,337.34a5,5,0,0,1-.52.21l-1.51.52-1.1.36-1.28.5c-.91.37-2,.74-3.09,1.28l-1.77.81c-.61.28-1.22.63-1.87,1-1.31.64-2.63,1.46-4,2.3a63.38,63.38,0,0,0-15.92,14c-1,1.3-2,2.5-2.8,3.72-.41.6-.83,1.16-1.19,1.74s-.7,1.12-1,1.65c-.68,1-1.19,2-1.67,2.9-.23.43-.46.83-.66,1.21l-.5,1c-.29.58-.52,1.06-.7,1.43a4.15,4.15,0,0,1-.28.49,2.73,2.73,0,0,1,.19-.53q.25-.57.63-1.47c.15-.32.3-.68.47-1.06s.4-.79.63-1.23c.46-.87.95-1.89,1.61-2.94l1-1.68c.35-.58.77-1.15,1.18-1.76.79-1.24,1.77-2.46,2.77-3.77a68.83,68.83,0,0,1,7.4-7.75,67.08,67.08,0,0,1,8.63-6.35c1.42-.83,2.76-1.64,4.09-2.27.65-.33,1.27-.67,1.89-.95l1.79-.78c1.14-.53,2.21-.88,3.13-1.22.47-.17.9-.34,1.3-.47l1.11-.33,1.54-.44A2.46,2.46,0,0,1,391.51,337.34Z" style="fill: rgb(38, 50, 56); transform-origin: 371.58px 354.9px;" id="el7h0ll62cu0i" class="animable"></path><path d="M366.22,351a76.06,76.06,0,0,1-7.87,2.53,73.84,73.84,0,0,1-8,2.11,75.53,75.53,0,0,1,7.87-2.54A76.48,76.48,0,0,1,366.22,351Z" style="fill: rgb(38, 50, 56); transform-origin: 358.285px 353.32px;" id="ellamh1ixzaoh" class="animable"></path><path d="M365.9,368.4a12.66,12.66,0,0,1-.17-2.45c-.05-1.52-.05-3.61,0-5.93s.19-4.41.32-5.92a12.21,12.21,0,0,1,.31-2.44,15.07,15.07,0,0,1,0,2.46c-.06,1.66-.12,3.68-.19,5.91s-.1,4.26-.15,5.92A14.94,14.94,0,0,1,365.9,368.4Z" style="fill: rgb(38, 50, 56); transform-origin: 366.051px 360.03px;" id="el2kawgjjer4g" class="animable"></path><path d="M380.78,360.82c-.12,0-.52-4.25-.88-9.51s-.56-9.54-.44-9.55.52,4.25.89,9.52S380.91,360.81,380.78,360.82Z" style="fill: rgb(38, 50, 56); transform-origin: 380.123px 351.29px;" id="elnx7malmbkb" class="animable"></path><path d="M362.26,341.35a14,14,0,0,1,2.52-.08c1.56,0,3.7.06,6.07.14s4.52.17,6.08.26a12.55,12.55,0,0,1,2.51.25,14.72,14.72,0,0,1-2.52.07c-1.56,0-3.71-.05-6.08-.13s-4.52-.18-6.07-.27A13.91,13.91,0,0,1,362.26,341.35Z" style="fill: rgb(38, 50, 56); transform-origin: 370.85px 341.63px;" id="elbtl8hbtzj4i" class="animable"></path><path d="M398,393.18a2,2,0,0,1-.05-.5c0-.38,0-.86-.07-1.45-.06-1.26-.07-3.08,0-5.33s.19-4.93.46-7.89.72-6.21,1.33-9.6,1.37-6.58,2.14-9.46,1.59-5.43,2.35-7.56,1.4-3.83,1.9-5l.57-1.34a2,2,0,0,1,.23-.46,2.54,2.54,0,0,1-.15.49l-.49,1.37c-.45,1.17-1.05,2.89-1.76,5s-1.48,4.7-2.25,7.57-1.48,6.06-2.1,9.43-1,6.61-1.35,9.56-.48,5.62-.56,7.86S398,390,398,391.23c0,.59,0,1.07,0,1.45A2.42,2.42,0,0,1,398,393.18Z" style="fill: rgb(38, 50, 56); transform-origin: 402.346px 368.885px;" id="ele5txyfjfjcu" class="animable"></path><path d="M400,368.54a9.14,9.14,0,0,1-1.5,1.65c-1,1-2.35,2.27-3.93,3.66s-3,2.58-4.14,3.42a9.86,9.86,0,0,1-1.83,1.27,11.38,11.38,0,0,1,1.63-1.52l4-3.51,4-3.55A12.81,12.81,0,0,1,400,368.54Z" style="fill: rgb(38, 50, 56); transform-origin: 394.3px 373.54px;" id="elx5i75he4s3q" class="animable"></path><path d="M411.88,378.14a16.16,16.16,0,0,1-1.6-2.22l-3.72-5.42c-1.44-2.05-2.75-3.89-3.8-5.38a18.29,18.29,0,0,1-1.52-2.27,16.75,16.75,0,0,1,1.78,2.08c1,1.33,2.44,3.19,3.91,5.31s2.73,4.07,3.61,5.51A16.23,16.23,0,0,1,411.88,378.14Z" style="fill: rgb(38, 50, 56); transform-origin: 406.56px 370.495px;" id="el4i8p38x0bo8" class="animable"></path><path d="M405.64,348c.06.11-3.89,2.77-8.84,6s-9,5.68-9.08,5.57,3.89-2.77,8.83-6S405.57,347.86,405.64,348Z" style="fill: rgb(38, 50, 56); transform-origin: 396.68px 353.784px;" id="ela8rfbycrkqr" class="animable"></path><path d="M416.79,360a148.94,148.94,0,0,1-11.65-11.38,76.54,76.54,0,0,1,6,5.53A72.24,72.24,0,0,1,416.79,360Z" style="fill: rgb(38, 50, 56); transform-origin: 410.965px 354.31px;" id="eliij9h6gsz1" class="animable"></path><path d="M419.6,359.76l3.39-.28a16.73,16.73,0,0,0,6.86-2.1,26.53,26.53,0,0,1,3.2-1.6c4.2-1.69,8.89-1.39,13.4-1.62a55.47,55.47,0,0,0,21.33-5.45,2.1,2.1,0,0,0,.93-.84c.69-1.27-.6-2.4-1.72-3.09-5.72-3.53-11.54-7.1-18-8.85s-13.86-1.45-19.4,2.36c-6.5,4.47-8.86,13.66-10,21.47" style="fill: rgb(243, 114, 12); transform-origin: 444.247px 347.332px;" id="el0lng7km7u28g" class="animable"></path><path d="M468.78,347.45a3.16,3.16,0,0,1-.57-.27l-1.61-.84c-1.4-.73-3.41-1.82-6-3a55.81,55.81,0,0,0-9.2-3.54,30.5,30.5,0,0,0-11.93-1,20.42,20.42,0,0,0-10.88,4.67,24.31,24.31,0,0,0-5.66,8,66.49,66.49,0,0,0-2.46,6.2c-.26.71-.46,1.28-.61,1.71a2.92,2.92,0,0,1-.24.59,4.57,4.57,0,0,1,.15-.62c.14-.44.31-1,.53-1.74a54.49,54.49,0,0,1,2.34-6.27,24,24,0,0,1,5.68-8.13,20.61,20.61,0,0,1,11.09-4.81,30.33,30.33,0,0,1,12.1,1,52.77,52.77,0,0,1,9.23,3.66c2.53,1.26,4.52,2.38,5.89,3.17l1.57.91A3.52,3.52,0,0,1,468.78,347.45Z" style="fill: rgb(38, 50, 56); transform-origin: 444.2px 349.078px;" id="eluzi2fkf1s2" class="animable"></path><path d="M460.63,351.83c-.07.11-4.52-2.77-9.92-6.41s-9.74-6.69-9.67-6.8,4.51,2.77,9.92,6.42S460.7,351.73,460.63,351.83Z" style="fill: rgb(38, 50, 56); transform-origin: 450.835px 345.225px;" id="elye4y1zrto2" class="animable"></path><path d="M455.89,338.39a11,11,0,0,1-3.24.58,11.06,11.06,0,0,1-3.29,0,21.06,21.06,0,0,1,3.26-.33A20.47,20.47,0,0,1,455.89,338.39Z" style="fill: rgb(38, 50, 56); transform-origin: 452.625px 338.741px;" id="elpe4fbksq34" class="animable"></path><path d="M436.44,335.86a8.39,8.39,0,0,1-1.46,2.27,9.64,9.64,0,0,1-1.84,2.1A8.35,8.35,0,0,1,434.6,338,9.73,9.73,0,0,1,436.44,335.86Z" style="fill: rgb(38, 50, 56); transform-origin: 434.79px 338.045px;" id="elbg008urfjhu" class="animable"></path><path d="M440.42,354.45a12,12,0,0,1-2.14-1.16c-1.28-.78-3-1.92-4.87-3.26s-3.48-2.62-4.66-3.55a13.65,13.65,0,0,1-1.84-1.58,12.54,12.54,0,0,1,2,1.32l4.74,3.44c1.84,1.34,3.54,2.52,4.78,3.36A15.11,15.11,0,0,1,440.42,354.45Z" style="fill: rgb(38, 50, 56); transform-origin: 433.665px 349.675px;" id="elea602ltkcwm" class="animable"></path><path d="M424.6,374.19c-3.24-.85-7.1,2.3-7.77,5.58s.56,6.64,2,9.67A49.24,49.24,0,0,0,432.23,407a33.14,33.14,0,0,0,20.49,7.54c-1.37-6.36.36-13-.4-19.47a25.34,25.34,0,0,0-22.43-22.21c-2.07-.22-4.47-.55-5.29,1.36" style="fill: rgb(243, 114, 12); transform-origin: 434.681px 393.615px;" id="elhtc7is5s6pj" class="animable"></path><path d="M452.72,414.51a2.06,2.06,0,0,1-.46-.22,7.16,7.16,0,0,1-1.22-.81,12.61,12.61,0,0,1-3.19-4.28c-.52-1-1.1-2.09-1.66-3.29l-1.75-3.86a35.28,35.28,0,0,0-2.14-4.12,33.56,33.56,0,0,0-2.94-4c-2.22-2.61-4.6-4.86-6.67-7a45.76,45.76,0,0,1-5.07-6.09,22.48,22.48,0,0,1-2.49-4.74c-.2-.6-.35-1.06-.43-1.39a1.81,1.81,0,0,1-.1-.5s.22.66.7,1.83a24.43,24.43,0,0,0,2.58,4.62,48.22,48.22,0,0,0,5.11,6c2.07,2.13,4.47,4.38,6.71,7a32.76,32.76,0,0,1,3,4.07,37.63,37.63,0,0,1,2.14,4.18l1.71,3.87c.54,1.2,1.1,2.3,1.6,3.31a12.94,12.94,0,0,0,3,4.29C452.1,414.16,452.74,414.47,452.72,414.51Z" style="fill: rgb(38, 50, 56); transform-origin: 438.66px 394.36px;" id="elrqkcek5gvqk" class="animable"></path><path d="M436,409.22a11,11,0,0,1,.3-2.18c.26-1.33.67-3.16,1.23-5.16s1.17-3.77,1.65-5a10.19,10.19,0,0,1,.88-2,11.73,11.73,0,0,1-.58,2.12c-.4,1.29-.95,3.08-1.51,5.06s-1,3.8-1.36,5.11A10.62,10.62,0,0,1,436,409.22Z" style="fill: rgb(38, 50, 56); transform-origin: 438.03px 402.05px;" id="elo2kmb1zxyfm" class="animable"></path><path d="M452.1,393.61a13.54,13.54,0,0,1-2.28-.53c-1.39-.36-3.32-.86-5.47-1.34s-4.1-.86-5.52-1.13a12.55,12.55,0,0,1-2.28-.51,12.65,12.65,0,0,1,2.33.19c1.44.19,3.42.52,5.57,1s4.08,1,5.46,1.48A10.25,10.25,0,0,1,452.1,393.61Z" style="fill: rgb(38, 50, 56); transform-origin: 444.325px 391.855px;" id="el2ptw3kkzupb" class="animable"></path><path d="M423.94,398.14a13.6,13.6,0,0,1,.35-2.52c.29-1.55.74-3.67,1.35-6s1.25-4.41,1.75-5.89a14.17,14.17,0,0,1,.93-2.38,15.17,15.17,0,0,1-.62,2.47c-.43,1.51-1,3.59-1.63,5.91s-1.1,4.42-1.47,5.95A14,14,0,0,1,423.94,398.14Z" style="fill: rgb(38, 50, 56); transform-origin: 426.13px 389.745px;" id="elmlq127lqfdl" class="animable"></path><path d="M444.67,380c0,.12-4.06-.2-9-.73s-9-1.06-9-1.18,4.06.2,9,.73S444.68,379.88,444.67,380Z" style="fill: rgb(38, 50, 56); transform-origin: 435.67px 379.045px;" id="elnaosjw0pxmr" class="animable"></path><path d="M441.71,429.05c0,.12-14.22.22-31.75.22s-31.76-.1-31.76-.22,14.22-.23,31.76-.23S441.71,428.92,441.71,429.05Z" style="fill: rgb(69, 90, 100); transform-origin: 409.955px 429.045px;" id="elxqty4yk7qnr" class="animable"></path><path d="M431.82,447.34c0,.13-9.58.23-21.4.23s-21.39-.1-21.39-.23,9.58-.22,21.39-.22S431.82,447.22,431.82,447.34Z" style="fill: rgb(69, 90, 100); transform-origin: 410.425px 447.345px;" id="eldmiofskwygi" class="animable"></path><path d="M431.44,450c0,.12-9.41.22-21,.22s-21-.1-21-.22,9.41-.23,21-.23S431.44,449.83,431.44,450Z" style="fill: rgb(69, 90, 100); transform-origin: 410.44px 449.995px;" id="eldqbrcvqcdqr" class="animable"></path><path d="M432.19,445.19c0,.12-9.91.22-22.13.22s-22.13-.1-22.13-.22,9.91-.23,22.13-.23S432.19,445.06,432.19,445.19Z" style="fill: rgb(69, 90, 100); transform-origin: 410.06px 445.185px;" id="els5vzl4g7e" class="animable"></path></g><g id="freepik--numerical-signs--inject-17" class="animable" style="transform-origin: 253.495px 166.49px;"><path d="M428,59.87c0,.15-6.71.23-15,.19s-15-.2-15-.34,6.71-.23,15-.19S428,59.73,428,59.87Z" style="fill: rgb(38, 50, 56); transform-origin: 413px 59.7953px;" id="elq2awygxs668" class="animable"></path><path d="M413.11,74.78c-.14,0-.32-6.7-.41-15s0-15,.11-15,.33,6.7.41,15S413.26,74.78,413.11,74.78Z" style="fill: rgb(38, 50, 56); transform-origin: 412.962px 59.78px;" id="eluik5j1bxx3l" class="animable"></path><path d="M443.76,283.68a100.22,100.22,0,0,1-9.2-4.4,98.58,98.58,0,0,1-9-4.88c.06-.12,4.18,1.85,9.2,4.41S443.83,283.56,443.76,283.68Z" style="fill: rgb(38, 50, 56); transform-origin: 434.66px 279.037px;" id="elwgu2fb6e7l" class="animable"></path><path d="M430.18,288.2a97.32,97.32,0,0,1,4.27-9.27,98.77,98.77,0,0,1,4.73-9,100,100,0,0,1-4.27,9.27A100.43,100.43,0,0,1,430.18,288.2Z" style="fill: rgb(38, 50, 56); transform-origin: 434.68px 279.065px;" id="el6dt7qjh9mpa" class="animable"></path><path d="M84.8,213.27c0,.14-4.74,2.17-10.69,4.54S63.28,222,63.23,221.87s4.73-2.17,10.69-4.54S84.74,213.14,84.8,213.27Z" style="fill: rgb(38, 50, 56); transform-origin: 74.0148px 217.57px;" id="el3hf1hpez7ya" class="animable"></path><path d="M73.76,206.77s-.17-.29-.53-.75a3.8,3.8,0,0,0-2-1.3A3.54,3.54,0,1,0,73.33,210a3.76,3.76,0,0,0,.56-2.33c0-.58-.17-.89-.13-.91a1.92,1.92,0,0,1,.33.89,3.72,3.72,0,0,1-.44,2.54,3.94,3.94,0,0,1-3.26,2,4,4,0,0,1-2.79-7,3.92,3.92,0,0,1,3.72-.81,3.7,3.7,0,0,1,2.07,1.53A2,2,0,0,1,73.76,206.77Z" style="fill: rgb(38, 50, 56); transform-origin: 70.1972px 208.203px;" id="elpw11a7lfn6" class="animable"></path><path d="M81.26,225.58c-.05,0-.17-.29-.53-.75a3.74,3.74,0,0,0-2-1.3,3.6,3.6,0,0,0-3.3.81,3.53,3.53,0,0,0,2.45,6.15,3.59,3.59,0,0,0,3-1.67,3.83,3.83,0,0,0,.56-2.33c0-.58-.18-.89-.13-.91a1.91,1.91,0,0,1,.33.88,3.75,3.75,0,0,1-.45,2.55,3.92,3.92,0,0,1-3.25,2,4,4,0,0,1-2.79-7,4,4,0,0,1,3.72-.82,3.79,3.79,0,0,1,2.07,1.54A1.91,1.91,0,0,1,81.26,225.58Z" style="fill: rgb(38, 50, 56); transform-origin: 77.7459px 227.024px;" id="el8b4myszyshl" class="animable"></path></g><g id="freepik--speech-bubble--inject-17" class="animable" style="transform-origin: 111.408px 93.1975px;"><path d="M140.71,109.32s.11.27.3.79.47,1.31.83,2.31c.72,2,1.78,5,3.13,8.88l.07.18-.2,0L132,119.7l.13,0a33.45,33.45,0,0,1-15.41,6.73,32.69,32.69,0,0,1-4.79.41c-.82,0-1.65-.07-2.49-.09l-1.25-.06c-.42,0-.84-.12-1.26-.18a31.7,31.7,0,0,1-10.11-3,34.24,34.24,0,0,1-9.17-6.49A33.65,33.65,0,0,1,93,65.05a32.76,32.76,0,0,1,9.75-4.33l1.27-.33.63-.16.64-.1,2.56-.38c.85-.08,1.7-.1,2.55-.15a17.67,17.67,0,0,1,2.52,0c.83.07,1.67,0,2.48.18l2.43.38c.8.13,1.58.38,2.36.57l1.16.3c.38.12.75.27,1.12.4A33.41,33.41,0,0,1,141.38,78a33.61,33.61,0,0,1,3.52,13,32.57,32.57,0,0,1-3.12,16.27c-.33.67-.59,1.17-.77,1.49s-.3.5-.3.5.07-.17.24-.51.43-.85.73-1.52a33.63,33.63,0,0,0,2.1-6.09,31.85,31.85,0,0,0,.82-10.12,33.13,33.13,0,0,0-22.25-29.19c-.37-.13-.73-.27-1.11-.39l-1.14-.3c-.77-.18-1.54-.43-2.33-.55l-2.4-.37c-.8-.14-1.62-.11-2.45-.17a15.79,15.79,0,0,0-2.48,0c-.83,0-1.67.07-2.51.14l-2.52.39-.63.1-.63.16-1.25.32a32.12,32.12,0,0,0-9.59,4.28A33.1,33.1,0,0,0,97,123a31.25,31.25,0,0,0,10,3c.41.06.82.14,1.24.18l1.24.06c.83,0,1.64.12,2.45.1a31.77,31.77,0,0,0,4.73-.39,33.06,33.06,0,0,0,15.27-6.58l.06,0H132l12.86,1.84-.13.15c-1.31-3.87-2.32-6.88-3-9l-.77-2.31C140.78,109.59,140.71,109.32,140.71,109.32Z" style="fill: rgb(38, 50, 56); transform-origin: 111.408px 93.1975px;" id="el27juzqt9dsd" class="animable"></path><path d="M113.16,85.42a1.35,1.35,0,0,1,.76,1.21v6.66a1.34,1.34,0,0,1-1.7,1.28,4.21,4.21,0,0,0-3.26.5,3.8,3.8,0,0,0-1.78,2.38,3.89,3.89,0,0,0,.68,2.91,4.3,4.3,0,0,0,2.75,1.82,5,5,0,0,0,5.24-3.39,1.34,1.34,0,0,1,2.55.81,7.7,7.7,0,0,1-8.21,5.22,6.93,6.93,0,0,1-4.53-2.94,6.54,6.54,0,0,1-1.1-5,6.46,6.46,0,0,1,3-4.11,7,7,0,0,1,3.68-1V86.63a1.34,1.34,0,0,1,1.33-1.34A1.37,1.37,0,0,1,113.16,85.42Z" style="fill: rgb(243, 114, 12); transform-origin: 111.445px 95.0815px;" id="el5s6oc0mckac" class="animable"></path><path d="M111.32,82.62a1.1,1.1,0,1,1,1.12,1.07A1.11,1.11,0,0,1,111.32,82.62Z" style="fill: rgb(243, 114, 12); transform-origin: 112.42px 82.5901px;" id="elz7bfuhrare" class="animable"></path></g><defs>     <filter id="active" height="200%">         <feMorphology in="SourceAlpha" result="DILATED" operator="dilate" radius="2"></feMorphology>                <feFlood flood-color="#32DFEC" flood-opacity="1" result="PINK"></feFlood>        <feComposite in="PINK" in2="DILATED" operator="in" result="OUTLINE"></feComposite>        <feMerge>            <feMergeNode in="OUTLINE"></feMergeNode>            <feMergeNode in="SourceGraphic"></feMergeNode>        </feMerge>    </filter>    <filter id="hover" height="200%">        <feMorphology in="SourceAlpha" result="DILATED" operator="dilate" radius="2"></feMorphology>                <feFlood flood-color="#ff0000" flood-opacity="0.5" result="PINK"></feFlood>        <feComposite in="PINK" in2="DILATED" operator="in" result="OUTLINE"></feComposite>        <feMerge>            <feMergeNode in="OUTLINE"></feMergeNode>            <feMergeNode in="SourceGraphic"></feMergeNode>        </feMerge>            <feColorMatrix type="matrix" values="0   0   0   0   0                0   1   0   0   0                0   0   0   0   0                0   0   0   1   0 "></feColorMatrix>    </filter></defs></svg>