<svg class="animated" id="freepik_stories-problem-solving" xmlns="http://www.w3.org/2000/svg" viewBox="0 0 500 500" version="1.1" xmlns:xlink="http://www.w3.org/1999/xlink" xmlns:svgjs="http://svgjs.com/svgjs"><style>svg#freepik_stories-problem-solving:not(.animated) .animable {opacity: 0;}svg#freepik_stories-problem-solving.animated #freepik--Floor--inject-2 {animation: 1s 1 forwards cubic-bezier(.36,-0.01,.5,1.38) lightSpeedRight;animation-delay: 0s;}svg#freepik_stories-problem-solving.animated #freepik--Shadows--inject-2 {animation: 1s 1 forwards cubic-bezier(.36,-0.01,.5,1.38) lightSpeedLeft;animation-delay: 0s;}svg#freepik_stories-problem-solving.animated #freepik--Labyrinth--inject-2 {animation: 1s 1 forwards cubic-bezier(.36,-0.01,.5,1.38) slideUp;animation-delay: 0s;}svg#freepik_stories-problem-solving.animated #freepik--Line--inject-2 {animation: 1s 1 forwards cubic-bezier(.36,-0.01,.5,1.38) lightSpeedRight;animation-delay: 0s;}svg#freepik_stories-problem-solving.animated #freepik--Icons--inject-2 {animation: 1s 1 forwards cubic-bezier(.36,-0.01,.5,1.38) slideLeft;animation-delay: 0s;}svg#freepik_stories-problem-solving.animated #freepik--Character--inject-2 {animation: 1s 1 forwards cubic-bezier(.36,-0.01,.5,1.38) slideRight;animation-delay: 0s;}            @keyframes lightSpeedRight {              from {                transform: translate3d(50%, 0, 0) skewX(-20deg);                opacity: 0;              }              60% {                transform: skewX(10deg);                opacity: 1;              }              80% {                transform: skewX(-2deg);              }              to {                opacity: 1;                transform: translate3d(0, 0, 0);              }            }                    @keyframes lightSpeedLeft {              from {                transform: translate3d(-50%, 0, 0) skewX(20deg);                opacity: 0;              }              60% {                transform: skewX(-10deg);                opacity: 1;              }              80% {                transform: skewX(2deg);              }              to {                opacity: 1;                transform: translate3d(0, 0, 0);              }            }                    @keyframes slideUp {                0% {                    opacity: 0;                    transform: translateY(30px);                }                100% {                    opacity: 1;                    transform: inherit;                }            }                    @keyframes slideLeft {                0% {                    opacity: 0;                    transform: translateX(-30px);                }                100% {                    opacity: 1;                    transform: translateX(0);                }            }                    @keyframes slideRight {                0% {                    opacity: 0;                    transform: translateX(30px);                }                100% {                    opacity: 1;                    transform: translateX(0);                }            }        </style><g id="freepik--Floor--inject-2" class="animable" style="transform-origin: 250.019px 363.55px;"><path id="freepik--floor--inject-2" d="M90,443.85C1.59,399.5,1.59,327.6,90,283.25s231.68-44.35,320.06,0,88.38,116.25,0,160.6S178.36,488.2,90,443.85Z" style="fill: rgb(245, 245, 245); transform-origin: 250.019px 363.55px;" class="animable"></path></g><g id="freepik--Shadows--inject-2" class="animable" style="transform-origin: 250.965px 252.005px;"><ellipse id="freepik--Shadow--inject-2" cx="369.43" cy="382.78" rx="61.17" ry="35.32" style="fill: rgb(230, 230, 230); transform-origin: 369.43px 382.78px;" class="animable"></ellipse><path id="freepik--shadow--inject-2" d="M282.09,365.44c6.63,3.82,6.63,10,0,13.84s-17.36,3.83-24,0-6.62-10,0-13.84S275.47,361.61,282.09,365.44Z" style="fill: rgb(230, 230, 230); transform-origin: 270.09px 372.36px;" class="animable"></path><g id="freepik--shadow--inject-2" class="animable" style="transform-origin: 151.53px 224.83px;"><polygon points="76.7 181.63 76.7 197.8 115.46 175.42 115.46 197.8 148.84 178.52 148.84 162.35 132.15 171.99 132.15 165.78 209.67 121.03 209.67 127.24 192.97 136.87 192.98 175.42 209.67 165.78 209.67 171.99 192.97 181.63 192.98 200.9 187.6 204 187.6 139.98 154.22 159.25 154.22 181.63 110.08 207.11 110.08 184.73 76.7 204 76.7 354.44 110.08 335.16 110.08 290.41 129.46 279.22 129.46 263.05 96.08 282.32 96.08 323.97 90.7 327.08 90.7 259.95 96.08 256.84 96.08 276.12 134.84 253.74 134.84 282.32 115.46 293.51 115.46 332.06 132.15 322.42 132.15 328.63 71.33 363.75 71.33 178.53 132.15 143.41 132.15 149.62 76.7 181.63" style="fill: rgb(224, 224, 224); transform-origin: 140.5px 242.39px;" id="elhesz3y273k" class="animable"></polygon><polygon points="231.73 271.13 168.22 307.8 168.22 285.43 132.15 306.25 132.15 300.05 148.84 290.41 148.84 229.49 110.08 251.86 110.08 229.49 90.7 240.67 90.7 215.19 96.08 212.09 96.08 231.36 168.22 189.71 168.22 170.44 173.6 167.34 173.6 231.36 206.98 212.09 206.98 192.82 212.35 189.71 212.35 259.95 190.29 272.69 190.29 266.48 206.98 256.84 206.98 218.3 168.22 240.67 168.22 195.92 115.46 226.38 115.46 242.55 154.22 220.18 154.22 287.31 168.22 279.22 168.22 256.84 190.29 244.1 190.29 250.31 173.6 259.95 173.6 298.49 226.36 268.03 226.36 139.98 209.67 149.61 209.67 143.41 226.36 133.77 226.36 95.22 170.91 127.24 170.91 121.03 231.73 85.91 231.73 271.13" style="fill: rgb(224, 224, 224); transform-origin: 161.215px 196.855px;" id="elpnv31o8s42" class="animable"></polygon></g></g><g id="freepik--Labyrinth--inject-2" class="animable" style="transform-origin: 156.655px 227.79px;"><g id="freepik--labyrinth--inject-2" class="animable" style="transform-origin: 156.655px 227.79px;"><path d="M133.71,144.31,72.88,179.43V364.65L80,368.77l60.82-35.12v-6.21l-7.13-4.12-9.56,5.52V298.53l19.38-11.19V258.76l-7.13-4.12L104.77,272.9v-11l-7.13-4.12-5.38,3.11V328l7.14,4.12,5.37-3.11V287.34L131,272.19v7.93l-19.38,11.19v44.75L85.39,351.22V209l26.25-15.15V208l7.14,4.12,44.13-25.48V164.27l26.25-15.15V204.9l7.13,4.12,5.38-3.1V186.65L218.36,177V170.8l-7.14-4.12-9.55,5.52V141.89l16.69-9.63v-6.21l-7.14-4.12-77.51,44.75v6.21l7.13,4.12,9.56-5.52v7.93l-26.25,15.16V180.44L117,176.32,85.39,194.58v-7.93l55.45-32v-6.2Z" style="fill: rgb(243, 114, 12); transform-origin: 145.62px 245.35px;" id="el1u10grkc8ul" class="animable"></path><path d="M240.43,90.93l-7.14-4.12-60.82,35.12v6.21l7.13,4.12,48.32-27.9v30.31l-16.7,9.64v6.2l7.14,4.12,9.56-5.51V268.93l-45.63,26.34V265L199,255.33v-6.21L191.85,245l-22.07,12.74v22.38l-6.87,4v-58.9l-7.13-4.12-31.63,18.26V231.4l45.63-26.34v36.51l7.13,4.12,31.63-18.26v30.31l-16.69,9.64v6.21l7.13,4.12L221.05,265V194.73l-7.14-4.12-5.37,3.11V213l-26.25,15.15V172.35l-7.14-4.11-5.37,3.1v19.27l-65,37.53v-11L97.64,213l-5.38,3.1v25.48l7.14,4.12,12.24-7.07v14.14l7.14,4.12,31.62-18.26v52.69L133.71,301v6.2l7.13,4.12,28.94-16.7V308.7l7.13,4.12,63.52-36.67Z" style="fill: rgb(243, 114, 12); transform-origin: 166.345px 199.815px;" id="elfukfz2wj3qv" class="animable"></path><g id="el10eepb38l8tk"><g style="opacity: 0.1; transform-origin: 156.655px 223.13px;" class="animable"><polygon points="140.84 148.43 133.71 144.31 72.88 179.43 80.02 183.54 140.84 148.43" id="el4qegcj220of" class="animable" style="transform-origin: 106.86px 163.925px;"></polygon><polygon points="179.6 126.05 172.47 121.93 233.29 86.81 240.43 90.93 179.6 126.05" id="ellbnmfyk7vqj" class="animable" style="transform-origin: 206.45px 106.43px;"></polygon><polygon points="124.15 180.44 117.02 176.32 85.39 194.58 85.39 202.82 124.15 180.44" id="el2ns2qdygzs9" class="animable" style="transform-origin: 104.77px 189.57px;"></polygon><polygon points="150.4 179.42 157.53 183.54 124.15 202.82 124.15 194.58 150.4 179.42" id="elekkiyffijjw" class="animable" style="transform-origin: 140.84px 191.12px;"></polygon><polygon points="218.36 126.05 211.22 121.93 133.71 166.69 140.84 170.8 218.36 126.05" id="elenwmoff6vy4" class="animable" style="transform-origin: 176.035px 146.365px;"></polygon><polygon points="218.36 148.43 235.05 138.79 227.92 134.67 211.22 144.31 218.36 148.43" id="eleru6om5h1c8" class="animable" style="transform-origin: 223.135px 141.55px;"></polygon><polygon points="218.36 170.8 211.22 166.68 201.7 172.15 201.67 180.44 218.36 170.8" id="el49ij7ys1c95" class="animable" style="transform-origin: 210.015px 173.56px;"></polygon><polygon points="176.91 175.46 169.78 171.34 175.15 168.24 182.29 172.35 176.91 175.46" id="el7axq71yt8lq" class="animable" style="transform-origin: 176.035px 171.85px;"></polygon><polygon points="169.78 190.61 104.77 228.14 104.77 236.38 176.91 194.73 169.78 190.61" id="el8l0q471h4aw" class="animable" style="transform-origin: 140.84px 213.495px;"></polygon><polygon points="104.77 217.11 99.4 220.21 92.26 216.09 97.64 212.99 104.77 217.11" id="elfh24y11dcfr" class="animable" style="transform-origin: 98.515px 216.6px;"></polygon><polygon points="99.4 264.97 104.77 261.86 97.64 257.74 92.26 260.85 99.4 264.97" id="el77js9l0r7nc" class="animable" style="transform-origin: 98.515px 261.355px;"></polygon><polygon points="118.78 340.18 111.64 336.06 85.39 351.22 85.39 359.45 118.78 340.18" id="el8aik89sopej" class="animable" style="transform-origin: 102.085px 347.755px;"></polygon><polygon points="140.84 327.44 133.71 323.32 124.15 328.84 124.15 337.08 140.84 327.44" id="elgcpun73k7od" class="animable" style="transform-origin: 132.495px 330.2px;"></polygon><polygon points="131.02 280.12 138.16 284.24 118.78 295.43 111.64 291.31 131.02 280.12" id="elzuu7zstwlwg" class="animable" style="transform-origin: 124.9px 287.775px;"></polygon><polygon points="143.53 258.76 104.77 281.14 104.77 272.9 136.4 254.64 143.53 258.76" id="elud1q7n1ruck" class="animable" style="transform-origin: 124.15px 267.89px;"></polygon><polygon points="124.15 247.57 162.91 225.19 155.78 221.07 124.15 239.33 124.15 247.57" id="el4sjb7k68ig" class="animable" style="transform-origin: 143.53px 234.32px;"></polygon><polygon points="133.71 300.94 150.4 291.31 157.53 295.43 140.84 305.06 133.71 300.94" id="elzk7cin2ui8o" class="animable" style="transform-origin: 145.62px 298.185px;"></polygon><polygon points="169.78 280.12 176.91 284.24 162.91 292.32 162.91 284.08 169.78 280.12" id="el3uyrhfq449b" class="animable" style="transform-origin: 169.91px 286.22px;"></polygon><polygon points="169.78 257.74 191.85 245 198.98 249.12 176.91 261.86 169.78 257.74" id="elfowxghqjm6r" class="animable" style="transform-origin: 184.38px 253.43px;"></polygon><polygon points="182.29 303.51 235.05 273.05 227.92 268.93 182.29 295.27 182.29 303.51" id="eldaq602cabcl" class="animable" style="transform-origin: 208.67px 286.22px;"></polygon><polygon points="215.67 261.86 198.98 271.5 191.85 267.38 208.54 257.74 215.67 261.86" id="elb24hg6tsjgq" class="animable" style="transform-origin: 203.76px 264.62px;"></polygon><polygon points="215.67 217.11 182.29 236.38 182.29 228.14 208.54 212.99 215.67 217.11" id="elx7nlx5ls3n" class="animable" style="transform-origin: 198.98px 224.685px;"></polygon></g></g><g id="eleq1247oem5e"><g style="opacity: 0.2; transform-origin: 153.965px 234.5px;" class="animable"><polygon points="80.02 368.76 80.02 183.54 72.88 179.43 72.88 364.65 80.02 368.76" id="elemvmc5uiqv8" class="animable" style="transform-origin: 76.45px 274.095px;"></polygon><polygon points="179.6 132.26 179.6 126.05 172.47 121.93 172.47 128.14 179.6 132.26" id="elvinr51ae0cq" class="animable" style="transform-origin: 176.035px 127.095px;"></polygon><polygon points="157.53 183.54 157.53 167.37 150.4 171.49 150.4 179.42 157.53 183.54" id="elh6ve7mqncka" class="animable" style="transform-origin: 153.965px 175.455px;"></polygon><polygon points="140.84 177.01 140.84 170.8 133.71 166.69 133.71 172.89 140.84 177.01" id="eldlr3a4632tv" class="animable" style="transform-origin: 137.275px 171.85px;"></polygon><polygon points="235.05 138.79 227.92 134.67 227.92 104.36 235.05 100.24 235.05 138.79" id="el6g4zd70qvrw" class="animable" style="transform-origin: 231.485px 119.515px;"></polygon><polygon points="218.36 154.63 218.36 148.43 211.22 144.31 211.22 150.51 218.36 154.63" id="elaoax5hbi8ej" class="animable" style="transform-origin: 214.79px 149.47px;"></polygon><polygon points="196.29 209.02 189.16 204.91 189.16 149.12 196.29 145 196.29 209.02" id="eleaxz3zez6rd" class="animable" style="transform-origin: 192.725px 177.01px;"></polygon><polygon points="176.91 194.73 176.91 175.46 169.78 171.34 169.78 190.61 176.91 194.73" id="el2jltclspsv9" class="animable" style="transform-origin: 173.345px 183.035px;"></polygon><polygon points="99.4 245.69 99.4 220.21 92.26 216.09 92.26 241.57 99.4 245.69" id="el24ocrvnjuvx" class="animable" style="transform-origin: 95.83px 230.89px;"></polygon><polygon points="176.91 200.94 169.78 205.06 169.78 241.57 176.91 245.69 176.91 200.94" id="elflwamq92k17" class="animable" style="transform-origin: 173.345px 223.315px;"></polygon><polygon points="118.78 212.13 118.78 189.75 111.64 193.87 111.64 208.01 118.78 212.13" id="eln5bvgeyammm" class="animable" style="transform-origin: 115.21px 200.94px;"></polygon><polygon points="99.4 332.1 99.4 264.97 92.26 260.85 92.26 327.98 99.4 332.1" id="el0jorxperd6zt" class="animable" style="transform-origin: 95.83px 296.475px;"></polygon><polygon points="118.78 340.18 118.78 295.43 111.64 291.31 111.64 336.06 118.78 340.18" id="elvsu4ht277jg" class="animable" style="transform-origin: 115.21px 315.745px;"></polygon><polygon points="138.16 284.24 138.16 268.07 131.02 272.19 131.02 280.12 138.16 284.24" id="elo27qfgdlvtn" class="animable" style="transform-origin: 134.59px 276.155px;"></polygon><polygon points="118.78 256.88 118.78 234.5 111.64 238.62 111.64 252.76 118.78 256.88" id="elnh9ic0sw9f" class="animable" style="transform-origin: 115.21px 245.69px;"></polygon><polygon points="150.4 238.62 157.53 234.5 157.53 295.43 150.4 291.31 150.4 238.62" id="elr2acpczbd5r" class="animable" style="transform-origin: 153.965px 264.965px;"></polygon><polygon points="140.84 311.27 133.71 307.15 133.71 300.94 140.84 305.06 140.84 311.27" id="el9thxy2do5z7" class="animable" style="transform-origin: 137.275px 306.105px;"></polygon><polygon points="176.91 284.24 176.91 261.86 169.78 257.74 169.78 280.12 176.91 284.24" id="elwo96unrdsfs" class="animable" style="transform-origin: 173.345px 270.99px;"></polygon><polygon points="176.91 312.82 176.91 290.45 169.78 294.57 169.78 308.7 176.91 312.82" id="elosf7parjk8f" class="animable" style="transform-origin: 173.345px 301.635px;"></polygon><polygon points="235.05 273.05 235.05 145 227.92 149.12 227.92 268.93 235.05 273.05" id="eljmvftllt2lq" class="animable" style="transform-origin: 231.485px 209.025px;"></polygon><polygon points="198.98 277.71 198.98 271.5 191.85 267.38 191.85 273.59 198.98 277.71" id="elkufeljdmhjp" class="animable" style="transform-origin: 195.415px 272.545px;"></polygon><polygon points="215.67 261.86 215.67 223.31 208.54 227.44 208.54 257.74 215.67 261.86" id="elt5bdmoup07" class="animable" style="transform-origin: 212.105px 242.585px;"></polygon><polygon points="215.67 217.11 215.67 197.84 208.54 193.72 208.54 212.99 215.67 217.11" id="eldpcq6zqgsg7" class="animable" style="transform-origin: 212.105px 205.415px;"></polygon></g></g><polygon points="85.39 186.65 85.39 202.82 124.15 180.44 124.15 202.82 157.53 183.54 157.53 167.37 140.84 177.01 140.84 170.8 218.36 126.05 218.36 132.26 201.67 141.89 201.67 180.44 218.36 170.8 218.36 177.01 201.67 186.65 201.67 205.92 196.29 209.02 196.29 145 162.91 164.27 162.91 186.65 118.78 212.13 118.78 189.75 85.39 209.02 85.39 359.45 118.78 340.18 118.78 295.43 138.16 284.24 138.16 268.07 104.77 287.34 104.77 328.99 99.4 332.1 99.4 264.97 104.77 261.86 104.77 281.14 143.53 258.76 143.53 287.34 124.15 298.53 124.15 337.08 140.84 327.44 140.84 333.65 80.02 368.76 80.02 183.54 140.84 148.43 140.84 154.63 85.39 186.65" style="fill: rgb(243, 114, 12); transform-origin: 149.19px 247.405px;" id="elhm66jvefn5" class="animable"></polygon><polygon points="240.43 276.15 176.91 312.82 176.91 290.45 140.84 311.27 140.84 305.06 157.53 295.43 157.53 234.5 118.78 256.88 118.78 234.5 99.4 245.69 99.4 220.21 104.77 217.11 104.77 236.38 176.91 194.73 176.91 175.46 182.29 172.35 182.29 236.38 215.67 217.11 215.67 197.84 221.05 194.73 221.05 264.96 198.98 277.71 198.98 271.5 215.67 261.86 215.67 223.31 176.91 245.69 176.91 200.94 124.15 231.4 124.15 247.57 162.91 225.19 162.91 292.32 176.91 284.24 176.91 261.86 198.98 249.12 198.98 255.33 182.29 264.97 182.29 303.51 235.05 273.05 235.05 145 218.36 154.63 218.36 148.43 235.05 138.79 235.05 100.24 179.6 132.26 179.6 126.05 240.43 90.93 240.43 276.15" style="fill: rgb(243, 114, 12); transform-origin: 169.915px 201.875px;" id="elharbl28bjap" class="animable"></polygon></g></g><g id="freepik--Line--inject-2" class="animable" style="transform-origin: 156.383px 217.714px;"><g id="freepik--line--inject-2" class="animable" style="transform-origin: 156.383px 217.714px;"><path d="M156.52,326h0a1.18,1.18,0,0,1-1.18-1.18v-5.89a1.18,1.18,0,0,1,1.18-1.18h0a1.17,1.17,0,0,1,1.17,1.18v5.89A1.17,1.17,0,0,1,156.52,326Z" style="fill: rgb(69, 90, 100); transform-origin: 156.515px 321.875px;" id="elo7b2jq95gr" class="animable"></path><path d="M156.52,313.31h0a1.18,1.18,0,0,1-1.18-1.18v-3.85L152,310.21a1.18,1.18,0,0,1-1.61-.43,1.17,1.17,0,0,1,.43-1.61l5.1-2.95a1.18,1.18,0,0,1,1.77,1v5.89A1.17,1.17,0,0,1,156.52,313.31Z" style="fill: rgb(69, 90, 100); transform-origin: 153.959px 309.186px;" id="el37521zrmo95" class="animable"></path><path d="M139,317.55a1.16,1.16,0,0,1-1-.59,1.17,1.17,0,0,1,.43-1.61l6.22-3.59a1.18,1.18,0,0,1,1.18,2l-6.23,3.59A1.1,1.1,0,0,1,139,317.55Z" style="fill: rgb(69, 90, 100); transform-origin: 142.039px 314.618px;" id="elu4h2ahgvbtk" class="animable"></path><path d="M127.65,324.09a1.27,1.27,0,0,1-.59-.16,1.18,1.18,0,0,1-.58-1V317a1.18,1.18,0,1,1,2.35,0v3.85l3.34-1.93a1.17,1.17,0,0,1,1.6.44,1.16,1.16,0,0,1-.43,1.6l-5.1,2.95A1.21,1.21,0,0,1,127.65,324.09Z" style="fill: rgb(69, 90, 100); transform-origin: 130.203px 319.901px;" id="elfh38907xhmg" class="animable"></path><path d="M127.65,307.38a1.17,1.17,0,0,1-1.17-1.17v-5.89a1.18,1.18,0,0,1,.58-1l5.11-2.95a1.18,1.18,0,0,1,1.17,2L128.83,301v5.21A1.17,1.17,0,0,1,127.65,307.38Z" style="fill: rgb(69, 90, 100); transform-origin: 130.111px 301.842px;" id="elhzkoc0r4ko" class="animable"></path><path d="M141.05,293.76a1.18,1.18,0,0,1-.59-2.2L145,289v-5.21a1.18,1.18,0,1,1,2.35,0v5.89a1.18,1.18,0,0,1-.59,1l-5.1,2.94A1.14,1.14,0,0,1,141.05,293.76Z" style="fill: rgb(69, 90, 100); transform-origin: 143.614px 288.132px;" id="el1kn47sfblej" class="animable"></path><path d="M146.15,274a1.17,1.17,0,0,1-1.17-1.18V262a1.18,1.18,0,1,1,2.35,0v10.89A1.18,1.18,0,0,1,146.15,274Z" style="fill: rgb(69, 90, 100); transform-origin: 146.155px 267.356px;" id="el9vtmk0mevnu" class="animable"></path><path d="M146.15,252.26a1.17,1.17,0,0,1-1.17-1.17v-3.85l-3.34,1.92a1.18,1.18,0,1,1-1.18-2l5.1-2.94a1.18,1.18,0,0,1,1.18,0,1.17,1.17,0,0,1,.59,1v5.89A1.17,1.17,0,0,1,146.15,252.26Z" style="fill: rgb(69, 90, 100); transform-origin: 143.509px 248.161px;" id="elvcer56n58ng" class="animable"></path><path d="M122.47,260.05a1.18,1.18,0,0,1-.59-2.2l9.29-5.36a1.17,1.17,0,0,1,1.61.43,1.19,1.19,0,0,1-.43,1.61l-9.3,5.36A1.1,1.1,0,0,1,122.47,260.05Z" style="fill: rgb(69, 90, 100); transform-origin: 127.114px 256.189px;" id="elcg3xrilyt8i" class="animable"></path><path d="M108.07,268.36a1.14,1.14,0,0,1-.59-.16,1.18,1.18,0,0,1-.59-1v-5.89a1.18,1.18,0,0,1,2.36,0v3.85l3.33-1.92a1.18,1.18,0,1,1,1.18,2l-5.1,2.94A1.14,1.14,0,0,1,108.07,268.36Z" style="fill: rgb(69, 90, 100); transform-origin: 110.711px 264.245px;" id="eliqixz5v3zla" class="animable"></path><path d="M108.07,251.56a1.18,1.18,0,0,1-1.18-1.18v-3.85l-3.33,1.93a1.18,1.18,0,1,1-1.18-2l5.1-2.95a1.18,1.18,0,0,1,1.77,1v5.89A1.18,1.18,0,0,1,108.07,251.56Z" style="fill: rgb(69, 90, 100); transform-origin: 105.429px 247.456px;" id="elwsanpojuix" class="animable"></path><path d="M88.42,257a1.23,1.23,0,0,1-.59-.15,1.19,1.19,0,0,1-.59-1V250a1.18,1.18,0,0,1,2.36,0v3.85l3.33-1.93a1.18,1.18,0,1,1,1.18,2l-5.1,3A1.23,1.23,0,0,1,88.42,257Z" style="fill: rgb(69, 90, 100); transform-origin: 91.0606px 252.914px;" id="elowoeo7ddtu" class="animable"></path><path d="M88.42,240.13A1.17,1.17,0,0,1,87.24,239V228a1.18,1.18,0,0,1,2.36,0v11A1.17,1.17,0,0,1,88.42,240.13Z" style="fill: rgb(69, 90, 100); transform-origin: 88.42px 233.475px;" id="eleg8vb3azlc5" class="animable"></path><path d="M88.42,218.15A1.18,1.18,0,0,1,87.24,217v-5.89a1.19,1.19,0,0,1,.59-1l5.1-2.94a1.18,1.18,0,1,1,1.18,2l-4.51,2.6V217A1.18,1.18,0,0,1,88.42,218.15Z" style="fill: rgb(69, 90, 100); transform-origin: 91.0606px 212.517px;" id="elpdxmlmytwk" class="animable"></path><path d="M108.07,206.81a1.18,1.18,0,0,1-1.18-1.18v-3.85l-3.33,1.92a1.18,1.18,0,1,1-1.18-2l5.1-2.94a1.18,1.18,0,0,1,1.77,1v5.89A1.18,1.18,0,0,1,108.07,206.81Z" style="fill: rgb(69, 90, 100); transform-origin: 105.429px 202.706px;" id="elm58r0j3p13" class="animable"></path><path d="M108.07,223.29a1.23,1.23,0,0,1-.59-.15,1.2,1.2,0,0,1-.59-1v-5.89a1.18,1.18,0,0,1,2.36,0v3.85l3.33-1.93a1.18,1.18,0,0,1,1.18,2l-5.1,2.95A1.23,1.23,0,0,1,108.07,223.29Z" style="fill: rgb(69, 90, 100); transform-origin: 110.529px 219.18px;" id="el5n1fsgtqx18" class="animable"></path><path d="M122.7,214.85a1.2,1.2,0,0,1-1-.59,1.18,1.18,0,0,1,.43-1.61l9.54-5.51a1.17,1.17,0,0,1,1.6.44,1.16,1.16,0,0,1-.43,1.6l-9.53,5.51A1.24,1.24,0,0,1,122.7,214.85Zm19.07-11a1.16,1.16,0,0,1-1-.59,1.17,1.17,0,0,1,.43-1.61l9.53-5.5a1.18,1.18,0,0,1,1.18,2l-9.54,5.5A1.1,1.1,0,0,1,141.77,203.84Z" style="fill: rgb(69, 90, 100); transform-origin: 136.93px 205.464px;" id="elhe0nfh7xtp7" class="animable"></path><path d="M160.83,192.83a1.17,1.17,0,0,1-.59-2.19l4.51-2.61v-5.21a1.18,1.18,0,0,1,2.36,0v5.89a1.19,1.19,0,0,1-.59,1l-5.1,3A1.26,1.26,0,0,1,160.83,192.83Z" style="fill: rgb(69, 90, 100); transform-origin: 163.376px 187.236px;" id="elhibxergpnus" class="animable"></path><path d="M165.93,173.4a1.18,1.18,0,0,1-1.18-1.18v-5.89a1.19,1.19,0,0,1,.59-1l5.1-2.94a1.18,1.18,0,1,1,1.18,2l-4.51,2.6v5.21A1.18,1.18,0,0,1,165.93,173.4Z" style="fill: rgb(69, 90, 100); transform-origin: 168.571px 167.752px;" id="elastfls3utqc" class="animable"></path><path d="M185.7,162a1.17,1.17,0,0,1-1.17-1.17V157l-3.34,1.92a1.18,1.18,0,1,1-1.17-2l5.1-2.94a1.18,1.18,0,0,1,1.76,1v5.89A1.17,1.17,0,0,1,185.7,162Z" style="fill: rgb(69, 90, 100); transform-origin: 183.056px 157.914px;" id="eljjmlux2rrlk" class="animable"></path><path d="M185.7,206.22a1.17,1.17,0,0,1-1.17-1.18V194a1.18,1.18,0,1,1,2.35,0v11A1.18,1.18,0,0,1,185.7,206.22Zm0-22.12a1.17,1.17,0,0,1-1.17-1.17V171.87a1.18,1.18,0,1,1,2.35,0v11.06A1.17,1.17,0,0,1,185.7,184.1Z" style="fill: rgb(69, 90, 100); transform-origin: 185.705px 188.401px;" id="elrumyl1a3pdb" class="animable"></path><path d="M185.7,223.17a1.1,1.1,0,0,1-.58-.16,1.17,1.17,0,0,1-.59-1V216.1a1.18,1.18,0,0,1,2.35,0V220l3.34-1.92a1.18,1.18,0,0,1,1.17,2l-5.1,2.94A1.11,1.11,0,0,1,185.7,223.17Z" style="fill: rgb(69, 90, 100); transform-origin: 188.161px 219.099px;" id="elb92pj69w4vl" class="animable"></path><path d="M199.87,215a1.18,1.18,0,0,1-.59-2.2l4.51-2.61V205a1.18,1.18,0,0,1,2.35,0v5.89a1.17,1.17,0,0,1-.59,1l-5.1,3A1.1,1.1,0,0,1,199.87,215Z" style="fill: rgb(69, 90, 100); transform-origin: 202.417px 209.466px;" id="elbexf0rbnyt5" class="animable"></path><path d="M205,195.62a1.17,1.17,0,0,1-1.17-1.18v-5.89a1.17,1.17,0,0,1,.59-1l5.1-2.95a1.18,1.18,0,1,1,1.17,2l-4.51,2.6v5.21A1.18,1.18,0,0,1,205,195.62Z" style="fill: rgb(69, 90, 100); transform-origin: 207.654px 189.963px;" id="elt24wq99whe" class="animable"></path><path d="M219.24,181.48a1.17,1.17,0,0,1-.59-2.19l4.52-2.61v-5.21a1.18,1.18,0,1,1,2.35,0v5.89a1.17,1.17,0,0,1-.59,1l-5.1,3A1.23,1.23,0,0,1,219.24,181.48Z" style="fill: rgb(69, 90, 100); transform-origin: 221.789px 175.831px;" id="elhdsgwx2nox" class="animable"></path><path d="M224.34,162.05a1.17,1.17,0,0,1-1.17-1.18V157L219.83,159a1.18,1.18,0,0,1-1.18-2l5.11-2.95a1.18,1.18,0,0,1,1.76,1v5.89A1.18,1.18,0,0,1,224.34,162.05Z" style="fill: rgb(69, 90, 100); transform-origin: 221.881px 157.974px;" id="elzxculeknk0s" class="animable"></path><path d="M205,167.35a1.1,1.1,0,0,1-.58-.16,1.17,1.17,0,0,1-.59-1v-5.89a1.18,1.18,0,0,1,2.35,0v3.85l3.34-1.92a1.18,1.18,0,1,1,1.17,2l-5.1,2.94A1.11,1.11,0,0,1,205,167.35Z" style="fill: rgb(69, 90, 100); transform-origin: 207.654px 163.289px;" id="elp85db6s8n7" class="animable"></path><path d="M205,150.86a1.17,1.17,0,0,1-1.17-1.17V143.8a1.17,1.17,0,0,1,.59-1l5.1-2.95a1.18,1.18,0,1,1,1.17,2l-4.51,2.61v5.21A1.17,1.17,0,0,1,205,150.86Z" style="fill: rgb(69, 90, 100); transform-origin: 207.654px 145.208px;" id="elwckp83x24la" class="animable"></path><path d="M219.24,136.73a1.18,1.18,0,0,1-.59-2.2l4.52-2.6v-5.21a1.18,1.18,0,1,1,2.35,0v5.89a1.17,1.17,0,0,1-.59,1l-5.1,2.94A1.14,1.14,0,0,1,219.24,136.73Z" style="fill: rgb(69, 90, 100); transform-origin: 221.794px 131.081px;" id="elwheohvyec8j" class="animable"></path><path d="M224.34,117.62a1.17,1.17,0,0,1-1.17-1.17V112.6l-3.34,1.92a1.18,1.18,0,0,1-1.18-2l5.11-2.94a1.18,1.18,0,0,1,1.76,1v5.89A1.17,1.17,0,0,1,224.34,117.62Z" style="fill: rgb(69, 90, 100); transform-origin: 221.881px 113.524px;" id="elfybaz9u2ku" class="animable"></path><path d="M173.14,141.29a1.17,1.17,0,0,1-.59-2.19l11.53-6.66a1.18,1.18,0,0,1,1.18,2l-11.53,6.66A1.23,1.23,0,0,1,173.14,141.29ZM196.19,128a1.18,1.18,0,0,1-.59-2.2l11.53-6.66a1.18,1.18,0,0,1,1.18,2l-11.53,6.66A1.14,1.14,0,0,1,196.19,128Z" style="fill: rgb(69, 90, 100); transform-origin: 190.336px 130.179px;" id="elryw69ob80n" class="animable"></path><path d="M156.52,150.89a1.2,1.2,0,0,1-.59-.15,1.17,1.17,0,0,1-.59-1v-5.89a1.18,1.18,0,1,1,2.35,0v3.85l3.33-1.93a1.18,1.18,0,0,1,1.18,2l-5.1,3A1.26,1.26,0,0,1,156.52,150.89Z" style="fill: rgb(69, 90, 100); transform-origin: 158.972px 146.726px;" id="el1kj4dpc0bm9j" class="animable"></path><path d="M156.52,134.15a1.18,1.18,0,0,1-1.18-1.18v-5.89a1.18,1.18,0,0,1,2.35,0V133A1.17,1.17,0,0,1,156.52,134.15Z" style="fill: rgb(69, 90, 100); transform-origin: 156.515px 130.079px;" id="el2lx425bj7wc" class="animable"></path></g></g><g id="freepik--Icons--inject-2" class="animable" style="transform-origin: 152.855px 217.692px;"><g id="freepik--idea-icon--inject-2" class="animable" style="transform-origin: 152.855px 92.4461px;"><path d="M150.82,78.84c-5.75,3.33-10.42,12.24-10.42,19.91,0,11,6.83,8.92,6.83,13.36a1.24,1.24,0,0,0,1.05,1.35c1.4.27,3.68-1,5.08-2.93a4.64,4.64,0,0,0,1-2.57h0c0-4.44,6.83-10.21,6.83-21.24C161.24,79.05,156.57,75.52,150.82,78.84Zm6,14.71a4.74,4.74,0,0,1-2.4,2.33c-.22.86-.44,1.87-.64,3a61.2,61.2,0,0,0-.86,9.86,1,1,0,0,1-.42.83h0c-.23.14-.42,0-.43-.31A62.11,62.11,0,0,1,153,99.13c.18-1.1.4-2.12.63-3a3.2,3.2,0,0,1-1.1-.08,3.71,3.71,0,0,1-1.68-.92,19,19,0,0,1-1.68,2.86,13,13,0,0,1-1.1,1.35,17.7,17.7,0,0,1,.63,2.32,47.13,47.13,0,0,1,.89,9.15,1,1,0,0,1-.44.81c-.24.13-.43,0-.42-.34a47.29,47.29,0,0,0-.86-8.86,15.38,15.38,0,0,0-.65-2.31c-1.05.81-1.9.88-2.39.45a2,2,0,0,1-.19-2.26,2.19,2.19,0,0,1,1.17-1.33c.68-.21,1.34.33,1.91,1.52a10.56,10.56,0,0,0,1-1.21,17.6,17.6,0,0,0,1.6-2.77,3.93,3.93,0,0,1-.63-2.86,2.68,2.68,0,0,1,1.16-1.81c.57-.33,1-.15,1.16.47a7.25,7.25,0,0,1-.63,3.59,3.31,3.31,0,0,0,1.6.91,2.65,2.65,0,0,0,1,.06,8.41,8.41,0,0,1,1.91-3.72c.45-.37.87-.38,1.17,0A2.53,2.53,0,0,1,156.84,93.55Z" style="fill: rgb(224, 224, 224); transform-origin: 150.795px 95.5438px;" id="el4fw4iv766g8" class="animable"></path><path d="M154.53,109.36v3.53a4.75,4.75,0,0,1-1.09,2.65c-1.44,1.94-3.8,3.3-5.24,3a1.28,1.28,0,0,1-1.07-1.49V113.9A1.26,1.26,0,0,0,148.2,115c1.44.28,3.8-1.08,5.24-3A4.7,4.7,0,0,0,154.53,109.36Z" style="fill: rgb(224, 224, 224); transform-origin: 150.82px 113.971px;" id="el8fxhi272hvk" class="animable"></path><path d="M156,110.26a4.7,4.7,0,0,1-1.09,2.64,7.69,7.69,0,0,1-4.36,3l-2-1.13V118a1.37,1.37,0,0,0,.58,1.31l3.68,2.12a1.25,1.25,0,0,0,.46.16c1.44.28,3.79-1.08,5.23-3a4.75,4.75,0,0,0,1.09-2.65v-3.53Z" style="fill: rgb(55, 71, 79); transform-origin: 154.064px 115.943px;" id="elhwccxdzbhzq" class="animable"></path><path d="M149.18,119.28l3.68,2.12a1.25,1.25,0,0,0,.46.16,2.37,2.37,0,0,0,.47,0l-1.55-1.52v-3.18l-1.69-1h0l-2-1.13V118A1.37,1.37,0,0,0,149.18,119.28Z" style="fill: rgb(69, 90, 100); transform-origin: 151.167px 118.151px;" id="elu1dfe3ay22" class="animable"></path><path d="M159.11,79.2c-1.83-1.06-4.21-1-6.82.54-5.75,3.32-10.41,12.24-10.41,19.91,0,11,6.82,8.92,6.82,13.36a1.29,1.29,0,0,0,.59,1.18l3.64,2.1a1.33,1.33,0,0,0,.46.17c1.41.27,3.68-1,5.09-2.93a4.64,4.64,0,0,0,1.05-2.57c0-4.44,6.82-10.21,6.82-21.24,0-4.19-1.39-7.15-3.6-8.42Z" style="fill: rgb(69, 90, 100); transform-origin: 154.115px 97.489px;" id="eln78dal4xu5g" class="animable"></path><path d="M161.05,95.28a6.42,6.42,0,0,0-1.19,2.42,3.24,3.24,0,0,0,1.38-1.41c.08-.16.33-.72.12-1A.19.19,0,0,0,161.05,95.28Z" style="fill: rgb(243, 114, 12); transform-origin: 160.651px 96.4524px;" id="elmpwlx3hudtr" class="animable"></path><path d="M155.85,94.09a.65.65,0,0,0-.33.5,2.65,2.65,0,0,0,.33,1.69,4.64,4.64,0,0,0,.33-2.07C156.14,94.05,156.07,94,155.85,94.09Z" style="fill: rgb(243, 114, 12); transform-origin: 155.843px 95.1628px;" id="elh01dqcmqvma" class="animable"></path><path d="M150.64,101.29l-.06,0a.66.66,0,0,0-.24.36.68.68,0,0,0,.12.84c.27.23.76.22,1.37-.19C151.37,101.48,150.93,101.2,150.64,101.29Z" style="fill: rgb(243, 114, 12); transform-origin: 151.038px 101.957px;" id="el2zk3s426i2l" class="animable"></path><path d="M155.93,81.84c-5.75,3.33-10.41,12.24-10.41,19.91,0,11,6.82,8.92,6.82,13.36a1.24,1.24,0,0,0,1,1.35c1.41.27,3.68-1,5.09-2.93a4.64,4.64,0,0,0,1.05-2.57h0c0-4.44,6.82-10.21,6.82-21.24C166.35,82.05,161.69,78.52,155.93,81.84Zm6,14.71a4.78,4.78,0,0,1-2.4,2.33c-.23.86-.45,1.87-.64,3a59.85,59.85,0,0,0-.86,9.86,1.07,1.07,0,0,1-.43.83h0c-.24.14-.43,0-.43-.31a61.39,61.39,0,0,1,.88-10.17c.19-1.1.4-2.13.64-3a3.17,3.17,0,0,1-1.1-.08,3.8,3.8,0,0,1-1.69-.92,18.65,18.65,0,0,1-1.68,2.86,10.82,10.82,0,0,1-1.1,1.35,17.18,17.18,0,0,1,.64,2.32,46.67,46.67,0,0,1,.88,9.14,1.07,1.07,0,0,1-.43.82c-.24.13-.43,0-.43-.34a46.33,46.33,0,0,0-.86-8.86,15.51,15.51,0,0,0-.64-2.31c-1.05.81-1.9.87-2.4.45a2,2,0,0,1-.18-2.26,2.16,2.16,0,0,1,1.17-1.33c.68-.21,1.34.33,1.9,1.52a10.39,10.39,0,0,0,1-1.21,17.37,17.37,0,0,0,1.61-2.77,3.88,3.88,0,0,1-.63-2.86,2.63,2.63,0,0,1,1.15-1.81c.58-.33,1-.15,1.16.47a7,7,0,0,1-.63,3.59,3.35,3.35,0,0,0,1.61.91,2.64,2.64,0,0,0,1,.06A8.32,8.32,0,0,1,161,94.1c.45-.37.88-.38,1.17,0A2.53,2.53,0,0,1,162,96.55Z" style="fill: rgb(243, 114, 12); transform-origin: 155.91px 98.5438px;" id="el2o6z3wafe7y" class="animable"></path><path d="M159.64,112.36v3.53a4.75,4.75,0,0,1-1.09,2.65c-1.44,1.94-3.79,3.3-5.23,3a1.3,1.3,0,0,1-1.08-1.49v-3.18a1.28,1.28,0,0,0,1.08,1.14c1.44.28,3.79-1.08,5.23-3A4.7,4.7,0,0,0,159.64,112.36Z" style="fill: rgb(243, 114, 12); transform-origin: 155.932px 116.971px;" id="elgtmxkczq5xe" class="animable"></path><path d="M152.89,116.26c-.54-.31-3.48-2-3.6-2.07a1.29,1.29,0,0,1-.59-1.18c0-4.44-6.82-2.33-6.82-13.36A24,24,0,0,1,143.25,92c1.26.73,2.89,1.68,3.64,2.1a24,24,0,0,0-1.37,7.68c0,11,6.82,8.92,6.82,13.36A1.28,1.28,0,0,0,152.89,116.26Z" style="fill: rgb(55, 71, 79); transform-origin: 147.385px 104.13px;" id="eldk5lydnv1c4" class="animable"></path><path d="M153.39,116.46a1.33,1.33,0,0,1-.46-.17A1.57,1.57,0,0,0,153.39,116.46Z" style="fill: rgb(55, 71, 79); transform-origin: 153.16px 116.375px;" id="el58i0ryb8xpo" class="animable"></path><path d="M152.83,74c-.49.29-.89,0-.89-.67V66.5a2.14,2.14,0,0,1,.89-1.7c.49-.28.89,0,.89.67v6.82A2.12,2.12,0,0,1,152.83,74Z" style="fill: rgb(240, 240, 240); transform-origin: 152.83px 69.4021px;" id="el9rwv02245sa" class="animable"></path><path d="M144.77,81.52c-.43.57-1,.69-1.21.27L141,77.36a1.86,1.86,0,0,1,.32-1.8c.43-.57,1-.69,1.22-.27l2.55,4.43A1.86,1.86,0,0,1,144.77,81.52Z" style="fill: rgb(240, 240, 240); transform-origin: 143.045px 78.54px;" id="el3plyspx8zzo" class="animable"></path><path d="M138.86,92.8c-.24.71-.78,1.21-1.21,1.13l-4.42-.85c-.43-.08-.57-.72-.33-1.43s.79-1.21,1.21-1.13l4.43.85C139,91.45,139.11,92.09,138.86,92.8Z" style="fill: rgb(240, 240, 240); transform-origin: 135.887px 92.225px;" id="elux4ylwcnfk" class="animable"></path><path d="M136.7,104.8a2.14,2.14,0,0,1-.88,1.7l-5.12,3c-.49.28-.88,0-.88-.67a2.11,2.11,0,0,1,.88-1.7l5.12-3C136.31,103.85,136.7,104.15,136.7,104.8Z" style="fill: rgb(240, 240, 240); transform-origin: 133.26px 106.816px;" id="elndad7ray3a" class="animable"></path><path d="M138.86,114.31a1.86,1.86,0,0,1-.32,1.8l-4.43,6c-.42.57-1,.69-1.21.27a1.86,1.86,0,0,1,.33-1.8l4.42-6C138.08,114,138.62,113.88,138.86,114.31Z" style="fill: rgb(240, 240, 240); transform-origin: 135.881px 118.341px;" id="elllic339tch" class="animable"></path><path d="M166.8,98.18c.25-.71.79-1.22,1.21-1.14l4.43.86c.42.08.57.72.32,1.42s-.78,1.22-1.21,1.14l-4.42-.85C166.7,99.52,166.56,98.88,166.8,98.18Z" style="fill: rgb(240, 240, 240); transform-origin: 169.782px 98.7499px;" id="elhl1567pddsr" class="animable"></path><path d="M169,86.18a2.12,2.12,0,0,1,.89-1.7l5.11-3c.49-.28.89,0,.89.67a2.15,2.15,0,0,1-.89,1.7l-5.11,2.95C169.36,87.13,169,86.83,169,86.18Z" style="fill: rgb(240, 240, 240); transform-origin: 172.445px 84.1537px;" id="elx1ivdeuny7e" class="animable"></path><path d="M166.8,76.67a1.87,1.87,0,0,1,.33-1.8l4.42-6c.43-.58,1-.7,1.21-.27a1.86,1.86,0,0,1-.32,1.8l-4.43,6C167.59,77,167.05,77.1,166.8,76.67Z" style="fill: rgb(240, 240, 240); transform-origin: 169.782px 72.6379px;" id="elsm5whpvas3" class="animable"></path><path d="M160.9,72.21c-.43-.08-.57-.72-.33-1.43l2.56-7.38c.24-.71.78-1.21,1.21-1.13s.57.72.32,1.43l-2.55,7.38C161.86,71.78,161.32,72.29,160.9,72.21Z" style="fill: rgb(240, 240, 240); transform-origin: 162.619px 67.2399px;" id="elliwtgd2uzs" class="animable"></path></g><g id="freepik--question-icon--inject-2" class="animable" style="transform-origin: 157.358px 350.913px;"><path d="M154.13,361.15a2.07,2.07,0,0,1,2.36-.1,2.91,2.91,0,0,1,1,2.5,7.66,7.66,0,0,1-1,3.62,6.35,6.35,0,0,1-2.32,2.62,2,2,0,0,1-2.32.06,3,3,0,0,1-1-2.51,7.69,7.69,0,0,1,1-3.6A6.14,6.14,0,0,1,154.13,361.15Z" style="fill: rgb(224, 224, 224); transform-origin: 154.172px 365.46px;" id="el6oxooikdn9r" class="animable"></path><path d="M150.51,343.63l-5,2.86a19.27,19.27,0,0,1,2.5-9.47,17.66,17.66,0,0,1,6.68-7,7.56,7.56,0,0,1,4.55-1.31,4,4,0,0,1,3,2.05,8.53,8.53,0,0,1,1.12,4.55,14.61,14.61,0,0,1-.36,3.13,23,23,0,0,1-1.13,3.61,43,43,0,0,1-2.18,4.24,41.64,41.64,0,0,0-2.06,4,14.25,14.25,0,0,0-.7,2.59,27.1,27.1,0,0,0-.36,4l-5.13,3,0-1.13a24.53,24.53,0,0,1,.93-6.68,30.54,30.54,0,0,1,3-6.92,43.46,43.46,0,0,0,2.42-4.63,6.55,6.55,0,0,0,.42-2.31,2.21,2.21,0,0,0-1-2.16c-.67-.36-1.58-.21-2.71.45a7.67,7.67,0,0,0-2.86,3A8.67,8.67,0,0,0,150.51,343.63Z" style="fill: rgb(224, 224, 224); transform-origin: 154.438px 344.292px;" id="elursikq9dq0o" class="animable"></path><path d="M160,364.08a2.07,2.07,0,0,1,2.36-.1,2.87,2.87,0,0,1,1,2.49,7.76,7.76,0,0,1-1,3.63,6.3,6.3,0,0,1-2.33,2.62,2,2,0,0,1-2.32.06,3,3,0,0,1-1-2.51,7.68,7.68,0,0,1,.94-3.6A6.2,6.2,0,0,1,160,364.08Z" style="fill: rgb(243, 114, 12); transform-origin: 160.037px 368.39px;" id="eluabsl7yr8s" class="animable"></path><path d="M157.9,372.91h0l-3.66-2.11-.2-.13a3,3,0,0,1-1-2.52,7.75,7.75,0,0,1,1-3.6l.13-.25,3.67,2.12-.14.25a7.68,7.68,0,0,0-.94,3.6,3,3,0,0,0,.95,2.51Z" style="fill: rgb(69, 90, 100); transform-origin: 155.464px 368.605px;" id="elxwk3isj1ici" class="animable"></path><path d="M162.18,363.88a2.12,2.12,0,0,0-2.21.19,5.93,5.93,0,0,0-2.15,2.34l-3.67-2.12a6.15,6.15,0,0,1,2-2.24l.15-.09a3,3,0,0,1,1-.39,1.73,1.73,0,0,1,1.21.19l.24.14,3.42,2Z" style="fill: rgb(55, 71, 79); transform-origin: 158.165px 363.972px;" id="elldiu6krzso" class="animable"></path><path d="M156.35,346.56l-5,2.86a19.16,19.16,0,0,1,2.5-9.47,17.66,17.66,0,0,1,6.68-7,7.53,7.53,0,0,1,4.54-1.31,4,4,0,0,1,3,2.05,8.53,8.53,0,0,1,1.13,4.55,14.61,14.61,0,0,1-.36,3.13,23.41,23.41,0,0,1-1.14,3.61,44.54,44.54,0,0,1-2.17,4.24,42.55,42.55,0,0,0-2.07,4,15.11,15.11,0,0,0-.7,2.59,27.1,27.1,0,0,0-.36,4l-5.13,3,0-1.12a24.53,24.53,0,0,1,.93-6.68,30.8,30.8,0,0,1,3-6.93,40,40,0,0,0,2.42-4.62,6.55,6.55,0,0,0,.42-2.31,2.23,2.23,0,0,0-1-2.16c-.68-.36-1.58-.21-2.72.45a7.67,7.67,0,0,0-2.86,3A8.66,8.66,0,0,0,156.35,346.56Z" style="fill: rgb(243, 114, 12); transform-origin: 160.278px 347.222px;" id="elddeevbnrd4" class="animable"></path><path d="M166.53,332.07a3.77,3.77,0,0,0-1.42-.46,7.53,7.53,0,0,0-4.54,1.31,17.66,17.66,0,0,0-6.68,7l-.21.38L150,338.22c.06-.13.13-.26.2-.39a17.72,17.72,0,0,1,6.68-7,7.63,7.63,0,0,1,4.55-1.31,3.93,3.93,0,0,1,1.47.49Z" style="fill: rgb(69, 90, 100); transform-origin: 158.265px 334.908px;" id="el9fb2g4nhvrr" class="animable"></path><path d="M163.3,344.19q-.63,1.29-2.07,3.81a30.8,30.8,0,0,0-3,6.93,25.11,25.11,0,0,0-.93,6.65v0l0,1.12-1.16-.67-2.5-1.44,0-1.13a24.53,24.53,0,0,1,.93-6.68,30.74,30.74,0,0,1,3-6.92c1-1.68,1.65-2.95,2.06-3.81Z" style="fill: rgb(69, 90, 100); transform-origin: 158.47px 352.375px;" id="elxir5c3j9qp" class="animable"></path><path d="M153.68,340.33a19.16,19.16,0,0,0-2.29,9.09l-3.66-2.11a18.93,18.93,0,0,1,2.29-9.09Z" style="fill: rgb(55, 71, 79); transform-origin: 150.705px 343.82px;" id="elr4rhukbnryh" class="animable"></path><path d="M164.07,341.07a6.46,6.46,0,0,1-.42,2.3,6.61,6.61,0,0,1-.35.82l-3.67-2.11c.16-.34.28-.61.36-.82a6.45,6.45,0,0,0,.4-1.93,2.81,2.81,0,0,1,2.67-.42A2.23,2.23,0,0,1,164.07,341.07Z" style="fill: rgb(55, 71, 79); transform-origin: 161.859px 341.467px;" id="elkrp82znik2k" class="animable"></path></g></g><g id="freepik--Character--inject-2" class="animable" style="transform-origin: 301.055px 230.332px;"><g id="freepik--character--inject-2" class="animable" style="transform-origin: 298.242px 231.443px;"><path id="freepik--line--inject-2" d="M181.25,378.63a16.65,16.65,0,0,0,3.74,3.66,34,34,0,0,0,4.68,2.88,53.32,53.32,0,0,0,9.84,4.19,22.36,22.36,0,0,0,10.71.7,11.29,11.29,0,0,0,4.74-2.18,7.29,7.29,0,0,0,2.54-4.7c.29-1.78.17-3.66.88-5.36a6.44,6.44,0,0,1,2.77-3c3-1.71,6.45-1.38,9.57-.32,1.88.65,3.68,1.51,5.49,2.33s3.75,1.62,5.66,2.33a58.23,58.23,0,0,0,12.31,3.2c3.73.51,7.8.71,11.33-.79,2.92-1.25,5.48-4.24,5.29-7.56a6,6,0,0,0-.73-2.58,1,1,0,0,0-1-.62.62.62,0,0,0-.44.82c.86,3.13-1.22,6.39-4,7.74-3.27,1.58-7.08,1.32-10.58.88a55,55,0,0,1-11.58-2.9c-1.84-.66-3.64-1.39-5.43-2.17s-3.49-1.58-5.29-2.23c-3.26-1.17-6.82-1.86-10.18-.67a9.46,9.46,0,0,0-3.72,2.33,7.75,7.75,0,0,0-2,4.41c-.25,1.72-.12,3.54-.78,5.17a6.46,6.46,0,0,1-3.29,3.24c-3.05,1.49-6.68,1.41-10,.84a42.15,42.15,0,0,1-9.52-3.13c-3.21-1.39-6.56-2.77-9.21-5.1a18.21,18.21,0,0,1-1.73-1.67c-.13-.15-.26.16-.18.26Z" style="fill: rgb(69, 90, 100); transform-origin: 225.963px 380.609px;" class="animable"></path><g id="freepik--Bottom--inject-2" class="animable" style="transform-origin: 365.38px 306.941px;"><path d="M408.84,374.58a11.41,11.41,0,0,1,1.2,5.86c-.1,1.77-1.16,4.06-.68,8.05s1.39,5.25,1.81,8.08a9.9,9.9,0,0,1-1.55,7.5c-1.65,2.68-5.3,4.81-12.5,4.55-5.82-.21-8.16-3.19-8.29-6.61Z" style="fill: rgb(38, 50, 56); transform-origin: 400.092px 391.611px;" id="elj8v8yfjhm4p" class="animable"></path><path d="M407.15,366.29a13.68,13.68,0,0,1,.35,2.26c.22,1.35.62,2.64.94,4q.13.53.24,1.05c.56,2.67,0,5.44,0,8.16a45.49,45.49,0,0,0,1.68,9.51c1.31,5.65,1.52,9.43-3.43,13.35-2.61,2.06-5.46,2.14-8.77,2.23-2.51.06-5.8-.67-7.28-1.77-2.12-1.56-2.09-2.87-2.11-3.37-.19-6,2-13,2.41-19a29.28,29.28,0,0,0,.11-4.86c-.2-2-.9-4-1.11-6a3.37,3.37,0,0,1,.28-2.2,3.51,3.51,0,0,1,2.66-1.2c2.64-.35,5.28-.61,7.92-.8a2.42,2.42,0,0,1,1.8.36,3.27,3.27,0,0,1,.66,1.92c.14.68.64,1.44,1.32,1.32a1.15,1.15,0,0,0,.8-1c.07-.45.26-3.93.24-4.38C405.9,365.87,406.84,365.72,407.15,366.29Z" style="fill: rgb(55, 71, 79); transform-origin: 399.958px 386.353px;" id="elrwitifpi2i" class="animable"></path><path d="M319.72,386.22a4.49,4.49,0,0,0,0,3.3c.42,1,5.34,4,12.15,3.85A28.26,28.26,0,0,0,346.17,389c2.66-1.61,5.37-1.82,8.74-1.88s7.32-1.27,8.47-2.8a8,8,0,0,0,0-4.54Z" style="fill: rgb(38, 50, 56); transform-origin: 341.557px 386.578px;" id="elfi4duiwbau" class="animable"></path><path d="M344.34,366.11a14.58,14.58,0,0,0-.71,1.49,12.09,12.09,0,0,1-3.74,4.67,38.44,38.44,0,0,1-7.52,4.06c-1.67.74-3.43,1-5.12,1.55a29.08,29.08,0,0,0-5.51,2.42c-2.74,1.69-3.27,6.19-.3,8.09,2.55,1.65,9.38,3.59,16.7,1.84,4-1,8.52-5,13.71-5.18,3.3-.13,9.55-.8,11.77-3.21.82-3.6-.07-4.63-.81-7.69a25.29,25.29,0,0,1-.62-5.27c0-.94.62-3.61-1.34-3.94l-.2,2s-.37.68-2.4,1c-.66.11-1.18,1-1.54,1.77-.27.61-.56,1.38-1.23,1.37a1.24,1.24,0,0,1-1-.8,9.41,9.41,0,0,1-.38-1.31,5.13,5.13,0,0,0-3.08-3,15.46,15.46,0,0,0-3.62-.76c-.93-.14-1.7-.55-2.53.25A2.93,2.93,0,0,0,344.34,366.11Z" style="fill: rgb(55, 71, 79); transform-origin: 341.693px 377.93px;" id="el9sffc9c2v7b" class="animable"></path><path d="M396.08,212.18c2.52,24.59,3.52,36.28,6.75,85.34a141.29,141.29,0,0,1,4.92,28.2c.7,11.91,2.39,47.8,2.39,47.8s-9.6,7.88-20.72,4.24c0,0-10.05-52.74-13.56-69.2-3.36-15.8-6.77-35.65-6.77-35.65l-1.58,24.61s.45,9.8.14,24.43c-.17,7.83-3.94,50.19-3.94,50.19s-13.47,6.12-22.56-1.74c0,0-.66-68.69-.79-75.78-.16-8.07,1.23-89.38,1.23-89.38Z" style="fill: rgb(243, 114, 12); transform-origin: 375.244px 291.98px;" id="eltxlr5x28fz" class="animable"></path><g id="elyvxs4fi23qi"><path d="M396.08,212.18c2.52,24.59,3.52,36.28,6.75,85.34a141.29,141.29,0,0,1,4.92,28.2c.7,11.91,2.39,47.8,2.39,47.8s-9.6,7.88-20.72,4.24c0,0-10.05-52.74-13.56-69.2-3.36-15.8-6.77-35.65-6.77-35.65l-1.58,24.61s.45,9.8.14,24.43c-.17,7.83-3.94,50.19-3.94,50.19s-13.47,6.12-22.56-1.74c0,0-.66-68.69-.79-75.78-.16-8.07,1.23-89.38,1.23-89.38Z" style="opacity: 0.15; transform-origin: 375.244px 291.98px;" class="animable"></path></g><g id="el74rsydy9vk3"><path d="M369.09,272.91l-6-33.49s-10.64-.93-16.52-6.86c0,0,1.05,5.82,14.42,9.31l5.43,27.94,1.14,27.71Z" style="opacity: 0.25; transform-origin: 357.83px 265.04px;" class="animable"></path></g><g id="el7vxrfgs4dg"><path d="M409.83,367a21.86,21.86,0,0,1-14.77,5.32s9.18-1.36,14.67-7.42Z" style="opacity: 0.25; transform-origin: 402.445px 368.613px;" class="animable"></path></g><g id="elxjaxbttw81"><path d="M364.15,367.14s-9.38,3.28-17.3.78c0,0,6.11,4.11,17.17.73Z" style="opacity: 0.25; transform-origin: 355.5px 368.562px;" class="animable"></path></g></g><g id="freepik--Arm--inject-2" class="animable" style="transform-origin: 314.186px 168.78px;"><path d="M340,143.4C336,149,324.1,171.28,321,177.87L300.15,161.2c-1.72-2.19-1.71-6.77-4.66-11.11-3.26-4.8-1.94-9.52-4.28-8.88-1.29.35-2.06,2-2,3.42,0,2.77,1.32,6.25.23,6-1.63-.58-2.85-2.43-5-5.2-.9-1.14-3-5.74-4.17-7.78a1.8,1.8,0,0,0-3.2-.21c-.3.64-.51,2.1-.8,2.71a6.11,6.11,0,0,1-1.24,1.25,6.18,6.18,0,0,0-1.29,1.21c-.9,1.39-.06,2.92-.4,4.41-.68,3.06.32,6.17,1.79,8.84.66,1.21,1.3,2.46,2,3.62a26.28,26.28,0,0,0,5.79,6.3c2,1.65,4.34,2.56,6.25,4.31s7.36,8.1,11.5,12.6c6.83,7.44,12.85,14.34,15,15.73,5.33,3.46,10.25,4,16.09-2.83,7-8.2,20.07-29.1,20.07-29.1l2.8-28.8S344.66,136.67,340,143.4Z" style="fill: rgb(158, 103, 103); transform-origin: 313.876px 168.737px;" id="el7lyqfr1qmfw" class="animable"></path><path d="M355.25,137.66c-6.19-.94-11.42.23-15.29,4.66s-14.49,26-16.08,28-3,2.74-3.19,4.4a2.66,2.66,0,0,0,.74,2.36c2.9.45,12.06,15.26,8.69,20.28l-1.56,1.36a3.06,3.06,0,0,0,3.92,0c2.11-1.62,4.61-6.38,7.48-10.5s15.29-21.07,15.29-21.07Z" style="fill: rgb(38, 50, 56); transform-origin: 337.949px 168.394px;" id="elrprtp20hy5f" class="animable"></path><path d="M321.43,177l-1.12.27s3.86,4.21,5,12.53c.61,4.58-.08,9.87-1.41,11.12,0,0,1.36.51,3.6-1.06a28.18,28.18,0,0,0,3.45-2.78,15.7,15.7,0,0,0-1.21-11C326.8,179.93,323.72,177.7,321.43,177Z" style="fill: rgb(55, 71, 79); transform-origin: 325.875px 189px;" id="elwirrrkbrpej" class="animable"></path></g><g id="freepik--Pencil--inject-2" class="animable" style="transform-origin: 292.881px 213.996px;"><path d="M293.84,326.6l-22.7,46.26a1.56,1.56,0,0,1-2.94-.38L258,321.66Z" style="fill: rgb(255, 168, 167); transform-origin: 275.92px 347.704px;" id="elvyfws93bwif" class="animable"></path><path d="M268.2,372.48a1.56,1.56,0,0,0,2.94.38l4.44-9h0a8.67,8.67,0,0,1-8.9-1.63l-.66-.59Z" style="fill: rgb(69, 90, 100); transform-origin: 270.8px 367.694px;" id="els58wnh7m9u" class="animable"></path><path d="M286,106.09l-.61,4.73-.76,5.71L258,321.66c3.24,4.81,8.58,7.73,14.21,9,8.56,2,17.82.29,21.6-4.08l26.56-205,1.41-10.91C320.48,117.69,284.74,113.14,286,106.09Z" style="fill: rgb(243, 114, 12); transform-origin: 289.89px 218.79px;" id="elqlrwxakgh3" class="animable"></path><g id="el2btt0gxcern"><path d="M286,106.09l-.61,4.73-.76,5.71L258,321.66c3.24,4.81,8.58,7.73,14.21,9,8.56,2,17.82.29,21.6-4.08l26.56-205,1.41-10.91C320.48,117.69,284.74,113.14,286,106.09Z" style="fill: rgb(255, 255, 255); opacity: 0.5; transform-origin: 289.89px 218.79px;" class="animable"></path></g><path d="M283.57,124.09l-1.35,10.57c-.49,3.05,5.78,5.85,13.22,7.5,9.89,2.21,22,1,22.67-3l1-7.78.31-2.79c-.66,4-12.78,5.26-22.67,3.05-7.13-1.59-13.21-4.26-13.21-7.16v0A.52.52,0,0,1,283.57,124.09Z" style="fill: rgb(235, 235, 235); transform-origin: 300.807px 133.672px;" id="eli4g0xl9awl" class="animable"></path><path d="M283.25,126.73c-1.15,7.08,34.71,11.53,35.87,4.45l1.38-10.57c-1.15,7.08-37,2.63-35.86-4.45Z" style="fill: rgb(243, 114, 12); transform-origin: 301.861px 125.46px;" id="el9xuv2382u" class="animable"></path><path d="M286,106.09l-1.37,10.44c-1.19,6.94,33.38,11.53,35.79,5.06a2,2,0,0,0,.11-.39l1.3-10.52C320.48,117.69,284.74,113.14,286,106.09Z" style="fill: rgb(235, 235, 235); transform-origin: 303.215px 115.393px;" id="el4zfcg94ne6c" class="animable"></path><g id="ellxxfuu7r51"><path d="M320.38,121.59l1.41-10.91c-.59,3.17-8.21,4.62-16.36,3.88L277.36,331.5l-6.22,41.36,22.7-46.26h0Z" style="opacity: 0.1; transform-origin: 296.465px 241.77px;" class="animable"></path></g><path d="M327.65,65.5c0-.12.07-.23.08-.35.58-4.59-7-9.33-16.87-10.58s-18.37,1.44-19,6h0L286,106.09c-.51,3,5.68,5.83,13.06,7.51,9.87,2.24,22,1.09,22.77-2.92,0,0,0,0,0,0l5.78-44.44c0-.21,0-.4.06-.61Z" style="fill: rgb(242, 143, 143); transform-origin: 306.866px 84.4969px;" id="eloxead0nyu6c" class="animable"></path><g id="eljzxta7a3a98"><path d="M313,54.9l-7.56,59.67c8.08.66,15.78-.72,16.36-3.89,0,0,0,0,0,0l5.78-44.44c0-.21,0-.4.06-.61V65.5c0-.12.07-.23.08-.35C328.27,60.89,321.81,56.52,313,54.9Z" style="opacity: 0.1; transform-origin: 316.596px 84.8156px;" class="animable"></path></g><path d="M327.73,65.15c-.58,4.59-9.08,7.29-19,6s-17.45-6-16.87-10.58,9.08-7.3,19-6S328.31,60.56,327.73,65.15Z" style="fill: rgb(255, 168, 167); transform-origin: 309.795px 62.8586px;" id="elt1l9k42aaat" class="animable"></path></g><g id="freepik--Chest--inject-2" class="animable" style="transform-origin: 377.469px 181.175px;"><path d="M397.28,216.94s.57,4.44-.16,5.58-14.35,4.75-32.06,3-23.06-6.39-23.68-7.43-.51-3.43,0-6.05Z" style="fill: rgb(38, 50, 56); transform-origin: 369.224px 219.015px;" id="elim90vm6zkn" class="animable"></path><path d="M340.92,159.73c1-16.33,8.11-22.26,15.4-22.09l19.13-1.28c4.09,1.06,16.87,4.13,22.44,5.8s5.62,14.16,4.33,22.43-4,14.56-4.79,28.47c.22,13.17,3.57,20.11.32,23.6-11.9,7.55-44.05,5.05-56.62-2.52-2.66-1.31.08-11.32-.18-19.42C340.51,180.82,340.62,165,340.92,159.73Z" style="fill: rgb(55, 71, 79); transform-origin: 371.434px 178.792px;" id="elyaiwoo3urwc" class="animable"></path><path d="M398.33,142.32c6.72.71,8.23,1.92,10.21,5s5.74,15.32,6.44,22c-3.94,11.18-19.86,6-19.86,6Z" style="fill: rgb(38, 50, 56); transform-origin: 405.05px 159.419px;" id="elwyhcu60805i" class="animable"></path><path d="M360.87,137.22s-6.57,6-4.38,11.53,11.68,6.55,19.09,1.26,6.76-11.48,6.76-11.48l-2.79-.86a9.23,9.23,0,0,1-1.53,3.78c-1.17,1.4-15.93,7.31-16.23,9,0,0-1.84-4.26-2-5.9a20.32,20.32,0,0,1,1-6.17Z" style="fill: rgb(250, 250, 250); transform-origin: 369.199px 145.351px;" id="elwoks0wrqe5q" class="animable"></path></g><g id="freepik--Head--inject-2" class="animable" style="transform-origin: 368.587px 117.783px;"><path d="M347.61,98.57c-.18,3.15.2,5.44,2.51,7.62a93.15,93.15,0,0,0,13.2,10.66,53.7,53.7,0,0,0,7.49,4.07,30,30,0,0,0,8.21,1.93l-.78,7.09s.94-1.83,2.21-4c1.1-1.88,5.78-11.49,5.78-11.49,1.84-3.78,4.07-7.71,4.13-12,0-2.85-1.23-5.9-3.78-7.17.11-5.93-5.06-10.71-9.78-12.46a27.62,27.62,0,0,0-12.75-1.51,20.27,20.27,0,0,0-11.64,5.23C350.66,88.1,348,91.32,347.61,98.57Z" style="fill: rgb(38, 50, 56); transform-origin: 368.966px 105.531px;" id="elu555r100ji" class="animable"></path><path d="M374.71,97.05a14.15,14.15,0,0,0,4.09,8,25.86,25.86,0,0,0-.69,8.61,4.7,4.7,0,0,0,.55,1.76,2.11,2.11,0,0,0,1.47,1c.82.11,1.19-.38,1.49-1a20.79,20.79,0,0,1,1.4-2.35,4.84,4.84,0,0,1,.79-.89c1.33-1.09,5.16-2.31,6.67,1.78s-2.06,9.5-5.12,10.17c-5.29,1.16-6.22-2.44-6.22-2.44l-2,18.5c-3,2.79-12,6.9-15.31,10.22-1.25-2.46-4.19-7-1-12.07l.09-6.1a43.33,43.33,0,0,1-8.37-.89c-2.67-.68-4.45-3.24-5.43-7.4-1.9-8.1.09-18.94,1.36-23.8a15.93,15.93,0,0,1,4.41-7.75.94.94,0,0,1,1.46.24,8.27,8.27,0,0,0,5.52,3.65c3.2.65,8.48.17,12.52-.83A1.9,1.9,0,0,1,374.71,97.05Z" style="fill: rgb(158, 103, 103); transform-origin: 368.587px 121.281px;" id="ele1z6oagr5fv" class="animable"></path><path d="M360.88,132.28c4.83-.17,8.3-.63,11.08-1.91a10.18,10.18,0,0,0,4.44-3.67s-.35,1.9-3.06,4.29c-3.06,2.69-12.48,3-12.48,3Z" style="fill: rgb(135, 76, 76); transform-origin: 368.63px 130.345px;" id="el7am6z8tsw6n" class="animable"></path><path d="M365.81,111.16a1.66,1.66,0,1,0,1.81-1.57A1.68,1.68,0,0,0,365.81,111.16Z" style="fill: rgb(38, 50, 56); transform-origin: 367.468px 111.244px;" id="eluzy7xccse5" class="animable"></path><path d="M367.77,104.08a10.92,10.92,0,0,1,4.2,3,2.72,2.72,0,0,0-.61-3.72A2.52,2.52,0,0,0,367.77,104.08Z" style="fill: rgb(38, 50, 56); transform-origin: 370.11px 104.989px;" id="el74n341ts918" class="animable"></path><path d="M364.73,121.32l-6,1.27a3,3,0,0,0,3.59,2.48A3.22,3.22,0,0,0,364.73,121.32Z" style="fill: rgb(135, 76, 76); transform-origin: 361.76px 123.228px;" id="eln8ajaii8d3q" class="animable"></path><path d="M364.06,122.64a2.78,2.78,0,0,0-2.74,2.46,2.89,2.89,0,0,0,1,0,3.17,3.17,0,0,0,2.37-2.31A3,3,0,0,0,364.06,122.64Z" style="fill: rgb(242, 143, 143); transform-origin: 363.005px 123.892px;" id="elw31fn7sivh" class="animable"></path><path d="M351.76,104a7.51,7.51,0,0,1,4.2,2.82,2.44,2.44,0,0,0-.67-3.44A2.58,2.58,0,0,0,351.76,104Z" style="fill: rgb(38, 50, 56); transform-origin: 354.079px 104.879px;" id="elrhpw03cqrl8" class="animable"></path><path d="M351.22,109.23a1.67,1.67,0,1,0,1.82-1.59A1.7,1.7,0,0,0,351.22,109.23Z" style="fill: rgb(38, 50, 56); transform-origin: 352.888px 109.304px;" id="elo3p7g9rkw88" class="animable"></path><polygon points="360.79 107.18 359.38 119.28 353.37 116.5 360.79 107.18" style="fill: rgb(135, 76, 76); transform-origin: 357.08px 113.23px;" id="elrtnohj42uwh" class="animable"></polygon><path d="M361.79,150.45c2.19-1.16,4.64-4.42,6.54-1.64s3.22,6,4.78,5.6,6.91-4.78,9.09-8.77a18.49,18.49,0,0,0,1.95-7s-1.67-2.13-3.06-3.79c-1.55-1.83-1.79-2.31-3.12-2.49l-.5,4.57a6.93,6.93,0,0,1-3.11,4.38C370.46,143.73,364.89,144.66,361.79,150.45Z" style="fill: rgb(235, 235, 235); transform-origin: 372.97px 143.402px;" id="elzecph2sknub" class="animable"></path><path d="M361.79,150.45c-1.18-1.23-4.73-4.91-6.82-4.45s-4.35,4.36-4.34,3.26,2.47-7.66,4.16-9.88,4.67-4.38,6-4.53l0,3.53a20.22,20.22,0,0,0-1.08,5C359.74,146.33,361.64,148.63,361.79,150.45Z" style="fill: rgb(235, 235, 235); transform-origin: 356.21px 142.65px;" id="el9jxo8kpfon" class="animable"></path></g><g id="freepik--Hand--inject-2" class="animable" style="transform-origin: 394.11px 146.442px;"><path d="M397,136.13a24.94,24.94,0,0,1-2.81-9.36c-.22-3.8-2.47-7.66-3.18-9.21s-2.45-4-3.69-6.19-1.61-2.84-3.84-3.66c-3.07-1.12-5.46-2.08-6.77-1.93s-1.42,1-.55,2.26,3.09,2,3.76,2.33,2.08,1.3,2.08,1.3l2.13,4.86a43.6,43.6,0,0,0-6.21.34c-1.08.35-2.38,2.72-2.21,4.18,0,0-2.05.9-1.67,2.83,0,0-1.38,1.24-.84,2.57a19.62,19.62,0,0,0,2.35,3.83c.51.64,2.88,1.21,2.88,1.21a22.11,22.11,0,0,0,2.93,5c1.47,1.58,2.61,1.7,4,4.69Z" style="fill: rgb(158, 103, 103); transform-origin: 385.037px 123.472px;" id="elb41wd0ptkxu" class="animable"></path><path d="M381.77,116.56c-1.08-.73-1.19-1.57-2.38-1.36s-1,1.57-1,1.57Z" style="fill: rgb(135, 76, 76); transform-origin: 380.074px 115.969px;" id="elueso275mbn" class="animable"></path><path d="M375.69,121.17a11.18,11.18,0,0,1,2.7-1.11c.89-.25,2.7-.53,2.7-.53a12.48,12.48,0,0,0-3.6.18,9.94,9.94,0,0,0-1.78.51,3,3,0,0,0,0,.83Z" style="fill: rgb(135, 76, 76); transform-origin: 378.386px 120.322px;" id="elpmvv16w9dqg" class="animable"></path><path d="M375.22,122.81a8.45,8.45,0,0,0-1.25.37,3.39,3.39,0,0,0,0,.83c.82-.8,3.48-1.36,3.48-1.36A10.48,10.48,0,0,0,375.22,122.81Z" style="fill: rgb(135, 76, 76); transform-origin: 375.697px 123.327px;" id="elf2hh64vywu" class="animable"></path><path d="M378.71,132.22a23.84,23.84,0,0,0-1.7-4.35,1.81,1.81,0,0,0-2.38-.68c-.4.42,1.22.65,1.65.95A15.8,15.8,0,0,1,378.71,132.22Z" style="fill: rgb(135, 76, 76); transform-origin: 376.639px 129.605px;" id="elpg5bubbg2h" class="animable"></path><path d="M385.47,116.65s-.67-1.45-1.92-3.79-1.2-2-2.73-2.64-4.41-1.69-5.05-2.79a4.43,4.43,0,0,0,.35.61c.85,1.26,3.09,2,3.76,2.33s2.08,1.3,2.08,1.3l2.19,5Z" style="fill: rgb(135, 76, 76); transform-origin: 380.62px 112.05px;" id="elosrl9ot65rl" class="animable"></path><path d="M397,136.13c4.13,7.39,15.58,25.45,17.75,32.19C416.21,173,415,183,412,186.1s-9.4.41-13.93-5.35c-3.91-5-6-15.55-8-23.19s-4.68-16.33-4.68-16.33Z" style="fill: rgb(158, 103, 103); transform-origin: 400.379px 161.766px;" id="el05jcp5rquvx" class="animable"></path><path d="M397,136.13a34.61,34.61,0,0,1-2.27-5.74,18.6,18.6,0,0,1-.56-3,15.42,15.42,0,0,0-.47-3,28.11,28.11,0,0,0-2.3-5.7,44.22,44.22,0,0,0-3.09-5.33c-.55-.87-1.07-1.78-1.57-2.67a5.2,5.2,0,0,0-2-2.19,25.44,25.44,0,0,0-2.84-1.13c-1-.35-1.94-.71-2.92-1a4.3,4.3,0,0,0-2.88-.16c-.41.2-.37.71-.16,1.15a3.5,3.5,0,0,0,.85,1.19,9.64,9.64,0,0,0,2.63,1.47,16.36,16.36,0,0,1,2.69,1.58l0,0,0,0,2.11,4.86.1.23h-.25a54.17,54.17,0,0,0-5.56.21c-.95,0-1.54.79-2,1.56a4.8,4.8,0,0,0-.72,2.58v.09l-.08,0a3.31,3.31,0,0,0-1.29,1.08,2.16,2.16,0,0,0-.32,1.6l0,.07-.05,0a2.45,2.45,0,0,0-.89,2.22,11.68,11.68,0,0,0,1.19,2.3c.23.37.48.74.73,1.09s.47.75.85.93a10.32,10.32,0,0,0,2.44.89h0l0,.05c.4.92.83,1.83,1.32,2.71a12,12,0,0,0,1.7,2.46c.68.74,1.53,1.3,2.21,2.05a9.28,9.28,0,0,1,1.6,2.55,9.72,9.72,0,0,0-1.63-2.52c-.69-.73-1.55-1.27-2.25-2a11.87,11.87,0,0,1-1.76-2.46,29.81,29.81,0,0,1-1.36-2.71l.06.06a11.51,11.51,0,0,1-2.5-.9,3.14,3.14,0,0,1-.91-1c-.26-.36-.51-.73-.74-1.1a11,11,0,0,1-1.23-2.36,2.71,2.71,0,0,1,.94-2.47l0,.12a2.41,2.41,0,0,1,.35-1.79,3.62,3.62,0,0,1,1.39-1.18l-.08.14a5.07,5.07,0,0,1,.73-2.75,5.3,5.3,0,0,1,.87-1.14,1.94,1.94,0,0,1,.62-.42,3.89,3.89,0,0,1,.72-.16c1.87-.21,3.74-.21,5.61-.24l-.15.23-2.14-4.85.06.08a16.27,16.27,0,0,0-2.63-1.54,9.76,9.76,0,0,1-2.73-1.55,4,4,0,0,1-.93-1.31,1.87,1.87,0,0,1-.18-.83.93.93,0,0,1,.49-.75,2.59,2.59,0,0,1,1.61-.2A9.71,9.71,0,0,1,379,106c1,.3,2,.66,2.93,1a26.32,26.32,0,0,1,2.88,1.17,5.44,5.44,0,0,1,2.1,2.31c.51.9,1,1.79,1.55,2.67a43.76,43.76,0,0,1,3.08,5.36,28.79,28.79,0,0,1,2.27,5.75,15.24,15.24,0,0,1,.43,3.07,18.28,18.28,0,0,0,.52,3A33.52,33.52,0,0,0,397,136.13Z" style="fill: rgb(135, 76, 76); transform-origin: 384.926px 123.305px;" id="eln1zu1j0rpaf" class="animable"></path></g></g><g id="freepik--Idea--inject-2" class="animable" style="transform-origin: 389.54px 82.8713px;"><g id="freepik--idea--inject-2" class="animable" style="transform-origin: 402.415px 71.1116px;"><g id="freepik--Light--inject-2" class="animable" style="transform-origin: 401.626px 75.5283px;"><path d="M396.09,88.91A2.2,2.2,0,1,1,395,86,2.2,2.2,0,0,1,396.09,88.91Z" style="fill: rgb(55, 71, 79); transform-origin: 394.086px 88.0013px;" id="eledelgk7oqeg" class="animable"></path><path d="M391.64,87c-1-1.37-.41-2.61,1.26-2.77a5.84,5.84,0,0,1,4.8,2.2c1,1.37.4,2.61-1.27,2.76A5.81,5.81,0,0,1,391.64,87Z" style="fill: rgb(69, 90, 100); transform-origin: 394.669px 86.7103px;" id="eld25fyb1lxq" class="animable"></path><path d="M391.89,86.27c-1-1.41-.42-2.69,1.31-2.85a6,6,0,0,1,4.94,2.26c1,1.41.42,2.69-1.31,2.86A6,6,0,0,1,391.89,86.27Z" style="fill: rgb(55, 71, 79); transform-origin: 395.015px 85.9798px;" id="elc30dyct9qup" class="animable"></path><path d="M392.16,85.5c-1-1.46-.44-2.78,1.34-3a6.23,6.23,0,0,1,5.1,2.34c1,1.45.43,2.77-1.35,2.94A6.21,6.21,0,0,1,392.16,85.5Z" style="fill: rgb(69, 90, 100); transform-origin: 395.379px 85.141px;" id="elcxthkfks7jj" class="animable"></path><path d="M392.43,84.69c-1.07-1.5-.45-2.85,1.39-3a6.4,6.4,0,0,1,5.25,2.4c1.06,1.5.44,2.86-1.39,3A6.41,6.41,0,0,1,392.43,84.69Z" style="fill: rgb(55, 71, 79); transform-origin: 395.747px 84.3899px;" id="elasnbcnc8pwl" class="animable"></path><path d="M392.74,83.86c-1.08-1.53-.45-2.91,1.42-3.09a6.51,6.51,0,0,1,5.36,2.45c1.09,1.53.45,2.92-1.42,3.09A6.51,6.51,0,0,1,392.74,83.86Z" style="fill: rgb(69, 90, 100); transform-origin: 396.132px 83.54px;" id="elcydtl4ebk9" class="animable"></path><path d="M406.08,61.8A10.48,10.48,0,0,0,392.19,67c-3.45,7.56,2.21,11.67.82,14.72a1.78,1.78,0,0,0,.34,1.78A5.67,5.67,0,0,0,398,85.6a1.8,1.8,0,0,0,1.58-.91h0c1.39-3,8.21-1.44,11.66-9A10.47,10.47,0,0,0,406.08,61.8Z" style="fill: rgb(243, 114, 12); transform-origin: 401.626px 73.2301px;" id="elexiezpfqhvi" class="animable"></path><g id="ely4k569hun9r"><g style="opacity: 0.6; transform-origin: 401.626px 73.2301px;" class="animable"><path d="M406.08,61.8A10.48,10.48,0,0,0,392.19,67c-3.45,7.56,2.21,11.67.82,14.72a1.78,1.78,0,0,0,.34,1.78A5.67,5.67,0,0,0,398,85.6a1.8,1.8,0,0,0,1.58-.91h0c1.39-3,8.21-1.44,11.66-9A10.47,10.47,0,0,0,406.08,61.8Z" style="fill: rgb(255, 255, 255); transform-origin: 401.626px 73.2301px;" id="elvolcqdecwj" class="animable"></path></g></g><path d="M394.12,83.32c-.71-1-.3-1.9.92-2a4.27,4.27,0,0,1,3.5,1.6c.71,1,.29,1.9-.93,2A4.25,4.25,0,0,1,394.12,83.32Z" style="fill: rgb(243, 114, 12); transform-origin: 396.329px 83.12px;" id="elzpct0yw56mj" class="animable"></path><path d="M397.71,83.46a.36.36,0,0,1-.18-.47,25.15,25.15,0,0,1,3.16-5.14,12.61,12.61,0,0,1,1.16-1.29,5.13,5.13,0,0,1-.64-.78,6.31,6.31,0,0,1-.78-1.65,5.91,5.91,0,0,1-1.74.49,5.09,5.09,0,0,1-1,0,13.28,13.28,0,0,1-.21,1.73,25.42,25.42,0,0,1-1.83,5.74.36.36,0,0,1-.47.17.37.37,0,0,1-.17-.48,24.61,24.61,0,0,0,1.77-5.57,12.85,12.85,0,0,0,.21-1.72,2.22,2.22,0,0,1-1.56-1.36,1.14,1.14,0,0,1,.47-1.4.93.93,0,0,1,1.05,0,2.68,2.68,0,0,1,.75,2.13,4.07,4.07,0,0,0,.92,0,5.84,5.84,0,0,0,1.68-.49,2.6,2.6,0,0,1,.36-2,1,1,0,0,1,1.73.79,2.6,2.6,0,0,1-1.3,1.6,5.44,5.44,0,0,0,.73,1.59,3.88,3.88,0,0,0,.59.7,2.73,2.73,0,0,1,2.11-.82.94.94,0,0,1,.71.77,1.15,1.15,0,0,1-.75,1.27,2.25,2.25,0,0,1-2-.29,12.18,12.18,0,0,0-1.17,1.29,25.54,25.54,0,0,0-3.06,5,.36.36,0,0,1-.47.19Zm-1.24-11.11a.24.24,0,0,0-.24,0,.46.46,0,0,0-.15.56,1.44,1.44,0,0,0,.88.82c-.06-.79-.25-1.24-.45-1.38ZM403,76.52a1.46,1.46,0,0,0,1.2.13c.09,0,.38-.19.32-.47s-.11-.21-.18-.23A2,2,0,0,0,403,76.52ZM401.5,71.8a.22.22,0,0,0-.32.06,1.69,1.69,0,0,0-.24,1.17,1.71,1.71,0,0,0,.73-.94A.23.23,0,0,0,401.5,71.8Z" style="fill: rgb(255, 255, 255); transform-origin: 400.112px 77.2672px;" id="elqp2kr2am3b" class="animable"></path></g><path d="M407.8,58.2l-.18-.05a.69.69,0,0,1-.34-.91L408.74,54a.68.68,0,0,1,1.25.56l-1.47,3.25A.67.67,0,0,1,407.8,58.2Z" style="fill: rgb(224, 224, 224); transform-origin: 408.634px 55.9028px;" id="ela4sh1521wc" class="animable"></path><path d="M400,56.94a.69.69,0,0,1-.58-.61l-.36-3.55a.68.68,0,1,1,1.36-.14l.36,3.55a.68.68,0,0,1-.61.75A.48.48,0,0,1,400,56.94Z" style="fill: rgb(224, 224, 224); transform-origin: 399.92px 54.4847px;" id="elvgum1y9ocip" class="animable"></path><path d="M392.65,59.73a.71.71,0,0,1-.45-.27l-2.08-2.9a.67.67,0,0,1,.15-1,.7.7,0,0,1,1,.15l2.08,2.9a.68.68,0,0,1-.66,1.07Z" style="fill: rgb(224, 224, 224); transform-origin: 391.719px 57.5719px;" id="elbxq6xffnq34" class="animable"></path><path d="M387.67,65.84a.64.64,0,0,1-.18-.06l-3.25-1.46a.68.68,0,0,1,.56-1.25l3.26,1.47a.69.69,0,0,1-.39,1.3Z" style="fill: rgb(224, 224, 224); transform-origin: 386.135px 64.4272px;" id="elgm93vpvqbr" class="animable"></path><path d="M412.54,87.32a.65.65,0,0,1-.45-.27L410,84.15a.68.68,0,0,1,.16-1,.68.68,0,0,1,.95.15l2.09,2.9a.68.68,0,0,1-.16,1A.65.65,0,0,1,412.54,87.32Z" style="fill: rgb(224, 224, 224); transform-origin: 411.6px 85.1747px;" id="el1ljfjfu12xi" class="animable"></path><path d="M418.69,79.79l-.18-.05-3.25-1.47a.67.67,0,0,1-.34-.9.68.68,0,0,1,.9-.35l3.25,1.47a.68.68,0,0,1,.35.9A.7.7,0,0,1,418.69,79.79Z" style="fill: rgb(224, 224, 224); transform-origin: 417.167px 78.3788px;" id="else0pgf8cgrg" class="animable"></path><path d="M416.69,70.55a.69.69,0,0,1,0-1.36l3.55-.36a.68.68,0,0,1,.75.61.68.68,0,0,1-.61.75l-3.55.36A.54.54,0,0,1,416.69,70.55Z" style="fill: rgb(224, 224, 224); transform-origin: 418.555px 69.6903px;" id="eln3m3h282ilp" class="animable"></path><path d="M413.9,63.18a.69.69,0,0,1-.3-1.23l2.9-2.09a.68.68,0,0,1,.95.16.67.67,0,0,1-.15.95l-2.89,2.09A.69.69,0,0,1,413.9,63.18Z" style="fill: rgb(224, 224, 224); transform-origin: 415.455px 61.461px;" id="el8ges11tig6b" class="animable"></path></g><g id="freepik--Shine--inject-2" class="animable" style="transform-origin: 411.219px 105.203px;"><path d="M403.52,103.8a.46.46,0,0,1-.22-.58l.17-.41a2.31,2.31,0,0,0-1-2.89l-.38-.23a.47.47,0,0,1-.17-.6.45.45,0,0,1,.58-.22L403,99h0a2.32,2.32,0,0,0,2.88-1l.23-.38a.45.45,0,0,1,.6-.17h0a.45.45,0,0,1,.22.58l-.17.41a2.33,2.33,0,0,0,.95,2.89l.38.23a.46.46,0,0,1-.41.82l-.41-.17a2.32,2.32,0,0,0-2.89,1l-.23.38a.46.46,0,0,1-.6.17Zm.52-3.67a3.28,3.28,0,0,1,.53,1.6,3.31,3.31,0,0,1,1.59-.53,3.19,3.19,0,0,1-.52-1.59A3.26,3.26,0,0,1,404,100.13Z" style="fill: rgb(243, 114, 12); transform-origin: 405.092px 100.603px;" id="el1nv50s6ugad" class="animable"></path><path d="M416.3,102.25a2.94,2.94,0,1,1,3.95-1.3A2.94,2.94,0,0,1,416.3,102.25Zm2.24-4.43a2,2,0,1,0,.89,2.72A2,2,0,0,0,418.54,97.82Z" style="fill: rgb(243, 114, 12); transform-origin: 417.625px 99.6256px;" id="ela6dj8phh8la" class="animable"></path><path d="M414.83,110.59a.45.45,0,0,1-.2-.62l.69-1.36a.45.45,0,1,1,.81.41l-.69,1.37A.46.46,0,0,1,414.83,110.59Z" style="fill: rgb(243, 114, 12); transform-origin: 415.377px 109.499px;" id="elwn2r6d2vr9b" class="animable"></path><path d="M413.6,111l-1.37-.69a.46.46,0,0,1-.2-.61.45.45,0,0,1,.62-.2l1.36.69a.45.45,0,1,1-.41.81Z" style="fill: rgb(243, 114, 12); transform-origin: 413.122px 110.248px;" id="elku5mys6232p" class="animable"></path><path d="M413.27,113.67a.47.47,0,0,1-.2-.62l.69-1.36a.47.47,0,0,1,.62-.21.47.47,0,0,1,.2.62l-.69,1.37A.46.46,0,0,1,413.27,113.67Z" style="fill: rgb(243, 114, 12); transform-origin: 413.825px 112.578px;" id="eletm20hfumdf" class="animable"></path><path d="M416.68,112.55l-1.37-.69a.46.46,0,0,1,.42-.82l1.36.69a.47.47,0,0,1,.21.62A.47.47,0,0,1,416.68,112.55Z" style="fill: rgb(243, 114, 12); transform-origin: 416.203px 111.794px;" id="elm2xfg0migeh" class="animable"></path></g><g id="freepik--shine--inject-2" class="animable" style="transform-origin: 367.823px 64.8104px;"><path d="M375.34,62.28a.45.45,0,0,1-.57-.25l-.18-.41a2.34,2.34,0,0,0-2.74-1.33l-.43.12a.46.46,0,0,1-.3-.87l.41-.17h0a2.34,2.34,0,0,0,1.33-2.74l-.12-.43a.46.46,0,0,1,.87-.3l.17.41a2.33,2.33,0,0,0,2.74,1.32l.43-.11a.46.46,0,0,1,.3.87l-.41.17a2.33,2.33,0,0,0-1.32,2.74l.11.43A.47.47,0,0,1,375.34,62.28Zm-2.28-2.93a3.28,3.28,0,0,1,1.52.74,3.1,3.1,0,0,1,.73-1.51,3.2,3.2,0,0,1-1.51-.74A3.2,3.2,0,0,1,373.06,59.35Z" style="fill: rgb(243, 114, 12); transform-origin: 374.185px 58.9487px;" id="eldsn5oayghbj" class="animable"></path><path d="M373.5,73.87a2.94,2.94,0,1,1,1.82-3.74A2.94,2.94,0,0,1,373.5,73.87Zm-1.63-4.69A2,2,0,1,0,373.2,73a2,2,0,1,0-1.33-3.82Z" style="fill: rgb(243, 114, 12); transform-origin: 372.541px 71.0907px;" id="el0drf43pyqcv7" class="animable"></path><path d="M360.71,64.88a.46.46,0,0,1-.59-.28l-.5-1.45a.46.46,0,0,1,.28-.58.47.47,0,0,1,.59.28l.5,1.45A.46.46,0,0,1,360.71,64.88Z" style="fill: rgb(243, 114, 12); transform-origin: 360.305px 63.7263px;" id="elenn2h2m487g" class="animable"></path><path d="M360.14,66.05l-1.45.5a.45.45,0,0,1-.58-.28.47.47,0,0,1,.28-.59l1.45-.5a.46.46,0,0,1,.58.28A.46.46,0,0,1,360.14,66.05Z" style="fill: rgb(243, 114, 12); transform-origin: 359.266px 65.8664px;" id="elbc7kxs9fcsb" class="animable"></path><path d="M361.84,68.14a.46.46,0,0,1-.59-.28l-.5-1.44a.46.46,0,1,1,.87-.31l.5,1.45A.45.45,0,0,1,361.84,68.14Z" style="fill: rgb(243, 114, 12); transform-origin: 361.435px 66.9852px;" id="el8fs4ul66sgv" class="animable"></path><path d="M363.4,64.92l-1.45.5a.46.46,0,0,1-.58-.28.47.47,0,0,1,.28-.59l1.45-.5a.45.45,0,0,1,.58.28A.46.46,0,0,1,363.4,64.92Z" style="fill: rgb(243, 114, 12); transform-origin: 362.526px 64.7336px;" id="elyd8su1tb3a" class="animable"></path></g></g></g><defs>     <filter id="active" height="200%">         <feMorphology in="SourceAlpha" result="DILATED" operator="dilate" radius="2"></feMorphology>                <feFlood flood-color="#32DFEC" flood-opacity="1" result="PINK"></feFlood>        <feComposite in="PINK" in2="DILATED" operator="in" result="OUTLINE"></feComposite>        <feMerge>            <feMergeNode in="OUTLINE"></feMergeNode>            <feMergeNode in="SourceGraphic"></feMergeNode>        </feMerge>    </filter>    <filter id="hover" height="200%">        <feMorphology in="SourceAlpha" result="DILATED" operator="dilate" radius="2"></feMorphology>                <feFlood flood-color="#ff0000" flood-opacity="0.5" result="PINK"></feFlood>        <feComposite in="PINK" in2="DILATED" operator="in" result="OUTLINE"></feComposite>        <feMerge>            <feMergeNode in="OUTLINE"></feMergeNode>            <feMergeNode in="SourceGraphic"></feMergeNode>        </feMerge>            <feColorMatrix type="matrix" values="0   0   0   0   0                0   1   0   0   0                0   0   0   0   0                0   0   0   1   0 "></feColorMatrix>    </filter></defs></svg>