<svg class="animated" id="freepik_stories-product-quality" xmlns="http://www.w3.org/2000/svg" viewBox="0 0 500 500" version="1.1" xmlns:xlink="http://www.w3.org/1999/xlink" xmlns:svgjs="http://svgjs.com/svgjs"><style>svg#freepik_stories-product-quality:not(.animated) .animable {opacity: 0;}svg#freepik_stories-product-quality.animated #freepik--background-complete--inject-18 {animation: 1s 1 forwards cubic-bezier(.36,-0.01,.5,1.38) slideDown;animation-delay: 0s;}svg#freepik_stories-product-quality.animated #freepik--Stars--inject-18 {animation: 1s 1 forwards cubic-bezier(.36,-0.01,.5,1.38) lightSpeedLeft;animation-delay: 0s;}svg#freepik_stories-product-quality.animated #freepik--speech-bubble--inject-18 {animation: 1s 1 forwards cubic-bezier(.36,-0.01,.5,1.38) slideUp;animation-delay: 0s;}svg#freepik_stories-product-quality.animated #freepik--Clipboard--inject-18 {animation: 1s 1 forwards cubic-bezier(.36,-0.01,.5,1.38) lightSpeedLeft;animation-delay: 0s;}svg#freepik_stories-product-quality.animated #freepik--Character--inject-18 {animation: 1s 1 forwards cubic-bezier(.36,-0.01,.5,1.38) zoomOut;animation-delay: 0s;}            @keyframes slideDown {                0% {                    opacity: 0;                    transform: translateY(-30px);                }                100% {                    opacity: 1;                    transform: translateY(0);                }            }                    @keyframes lightSpeedLeft {              from {                transform: translate3d(-50%, 0, 0) skewX(20deg);                opacity: 0;              }              60% {                transform: skewX(-10deg);                opacity: 1;              }              80% {                transform: skewX(2deg);              }              to {                opacity: 1;                transform: translate3d(0, 0, 0);              }            }                    @keyframes slideUp {                0% {                    opacity: 0;                    transform: translateY(30px);                }                100% {                    opacity: 1;                    transform: inherit;                }            }                    @keyframes zoomOut {                0% {                    opacity: 0;                    transform: scale(1.5);                }                100% {                    opacity: 1;                    transform: scale(1);                }            }        </style><g id="freepik--background-complete--inject-18" class="animable" style="transform-origin: 249.655px 237.395px;"><g id="el6mazldlnahn"><rect x="358.97" y="258.68" width="72.26" height="55.74" style="fill: rgb(235, 235, 235); transform-origin: 395.1px 286.55px; transform: rotate(180deg);" class="animable"></rect></g><g id="el5c5d2kk9gvh"><rect x="364.14" y="299.71" width="8.71" height="9.84" style="fill: rgb(255, 255, 255); transform-origin: 368.495px 304.63px; transform: rotate(180deg);" class="animable"></rect></g><rect x="400.98" y="258.82" width="8.21" height="11.89" style="fill: rgb(250, 250, 250); transform-origin: 405.085px 264.765px;" id="elrla8o93v5eq" class="animable"></rect><rect x="400.98" y="302.36" width="8.21" height="11.89" style="fill: rgb(250, 250, 250); transform-origin: 405.085px 308.305px;" id="elxyfdvbby9e" class="animable"></rect><path d="M377,314.8c-.13,0-.23-12.26-.23-27.38s.1-27.38.23-27.38.23,12.26.23,27.38S377.13,314.8,377,314.8Z" style="fill: rgb(224, 224, 224); transform-origin: 377px 287.42px;" id="ele2o4vm0nvtm" class="animable"></path><g id="elolagatqk71"><rect x="329.5" y="314.23" width="124.68" height="96.17" style="fill: rgb(235, 235, 235); transform-origin: 391.84px 362.315px; transform: rotate(180deg);" class="animable"></rect></g><g id="elwavq1xgi1x"><rect x="338.41" y="385.02" width="15.02" height="16.98" style="fill: rgb(255, 255, 255); transform-origin: 345.92px 393.51px; transform: rotate(180deg);" class="animable"></rect></g><rect x="401.98" y="314.48" width="14.16" height="20.52" style="fill: rgb(250, 250, 250); transform-origin: 409.06px 324.74px;" id="elm0mkrvj70rg" class="animable"></rect><rect x="401.98" y="389.59" width="14.16" height="20.52" style="fill: rgb(250, 250, 250); transform-origin: 409.06px 399.85px;" id="elfw09iz3cahe" class="animable"></rect><path d="M360.62,411.06c-.22,0-.4-21.15-.4-47.24s.18-47.24.4-47.24.39,21.15.39,47.24S360.84,411.06,360.62,411.06Z" style="fill: rgb(224, 224, 224); transform-origin: 360.615px 363.82px;" id="el52dvcr8rb1y" class="animable"></path><polygon points="450.22 114.21 456.9 127.74 471.83 129.91 461.03 140.45 463.58 155.32 450.22 148.3 436.86 155.32 439.41 140.45 428.61 129.91 443.54 127.74 450.22 114.21" style="fill: rgb(235, 235, 235); transform-origin: 450.22px 134.765px;" id="elk39x7b080vf" class="animable"></polygon><polygon points="52.51 288.97 56.72 297.5 66.13 298.86 59.32 305.5 60.93 314.88 52.51 310.45 44.09 314.88 45.7 305.5 38.89 298.86 48.3 297.5 52.51 288.97" style="fill: rgb(235, 235, 235); transform-origin: 52.51px 301.925px;" id="el528kw1ky3mh" class="animable"></polygon><polygon points="57.73 214.66 67.08 233.6 87.98 236.64 72.86 251.38 76.43 272.2 57.73 262.37 39.04 272.2 42.61 251.38 27.48 236.64 48.38 233.6 57.73 214.66" style="fill: rgb(235, 235, 235); transform-origin: 57.73px 243.43px;" id="elz957evel28d" class="animable"></polygon><polygon points="444.27 175.32 448.3 183.49 457.31 184.8 450.79 191.15 452.33 200.12 444.27 195.89 436.21 200.12 437.75 191.15 431.23 184.8 440.24 183.49 444.27 175.32" style="fill: rgb(235, 235, 235); transform-origin: 444.27px 187.72px;" id="el0c51pt4mu16l" class="animable"></polygon><polygon points="312.05 43.07 316.08 51.23 325.09 52.54 318.57 58.9 320.11 67.87 312.05 63.63 303.99 67.87 305.53 58.9 299.01 52.54 308.02 51.23 312.05 43.07" style="fill: rgb(235, 235, 235); transform-origin: 312.05px 55.47px;" id="el91e36emunfd" class="animable"></polygon><polygon points="404.22 130.41 406.86 135.75 412.76 136.61 408.49 140.77 409.5 146.64 404.22 143.87 398.95 146.64 399.96 140.77 395.69 136.61 401.59 135.75 404.22 130.41" style="fill: rgb(235, 235, 235); transform-origin: 404.225px 138.525px;" id="eljnnuyv7vvdp" class="animable"></polygon><polygon points="160.92 400.11 166.06 410.51 177.54 412.18 169.23 420.28 171.2 431.72 160.92 426.32 150.65 431.72 152.61 420.28 144.3 412.18 155.79 410.51 160.92 400.11" style="fill: rgb(235, 235, 235); transform-origin: 160.92px 415.915px;" id="elsbpgxr8k1hi" class="animable"></polygon><polygon points="174.48 389.76 176.6 394.06 181.35 394.75 177.91 398.1 178.72 402.83 174.48 400.59 170.24 402.83 171.05 398.1 167.61 394.75 172.36 394.06 174.48 389.76" style="fill: rgb(235, 235, 235); transform-origin: 174.48px 396.295px;" id="elt2oc2d4d1qq" class="animable"></polygon></g><g id="freepik--Stars--inject-18" class="animable" style="transform-origin: 371.04px 359.765px;"><polygon points="364.13 349.92 368.65 359.07 378.75 360.54 371.44 367.66 373.17 377.72 364.13 372.97 355.1 377.72 356.83 367.66 349.52 360.54 359.62 359.07 364.13 349.92" style="fill: rgb(243, 114, 12); transform-origin: 364.135px 363.82px;" id="elb4yo5lzusku" class="animable"></polygon><polygon points="385.68 341.81 387.81 346.12 392.56 346.81 389.12 350.17 389.93 354.91 385.68 352.67 381.42 354.91 382.24 350.17 378.79 346.81 383.55 346.12 385.68 341.81" style="fill: rgb(243, 114, 12); transform-origin: 385.675px 348.36px;" id="ela1ffnywl0vr" class="animable"></polygon></g><g id="freepik--speech-bubble--inject-18" class="animable" style="transform-origin: 391.864px 77.2825px;"><path d="M357.44,103.66,361,92.6a34.47,34.47,0,1,1,27.77,19A32.42,32.42,0,0,1,368.9,103h0Z" style="fill: rgb(250, 250, 250); transform-origin: 391.873px 77.27px;" id="el271v5p95997" class="animable"></path><path d="M357.44,103.66l.76-.06,2.21-.16,8.49-.58h0l0,0a31.78,31.78,0,0,0,15,7.76,34.52,34.52,0,0,0,5.26.75l2.8.11c.94,0,1.91-.11,2.88-.16a34.27,34.27,0,0,0,22.7-11.57A33.9,33.9,0,0,0,424.65,87a34.83,34.83,0,0,0,.86-15.51,30.62,30.62,0,0,0-.92-3.93,16.68,16.68,0,0,0-.65-1.92c-.25-.64-.47-1.28-.74-1.91A35.35,35.35,0,0,0,419,56.57a32.46,32.46,0,0,0-2.71-3.14,16.78,16.78,0,0,0-1.5-1.42c-.51-.45-1-.94-1.54-1.35l-1.64-1.22-.82-.6-.88-.52-1.73-1c-.59-.33-1.21-.58-1.81-.88a34,34,0,0,0-29.38.14,34.2,34.2,0,0,0-17.19,18.75c-.17.46-.33.92-.49,1.37a8.68,8.68,0,0,0-.43,1.37c-.23.92-.45,1.83-.67,2.72a48,48,0,0,0-.62,5.27,34.44,34.44,0,0,0,3.5,16.53l0,0v0l-2.68,8.18-.71,2.12c-.16.48-.25.73-.25.73s.06-.23.21-.7l.64-2.1,2.57-8.29v.08A34.3,34.3,0,0,1,357.23,76a46.43,46.43,0,0,1,.59-5.33c.22-.9.45-1.82.67-2.75a10.07,10.07,0,0,1,.42-1.39c.17-.46.33-.92.5-1.39a34.58,34.58,0,0,1,47.16-19.21c.61.29,1.24.55,1.84.89l1.76,1.05.88.53.84.61,1.66,1.23c.55.43,1.05.92,1.57,1.37a18.86,18.86,0,0,1,1.52,1.44,33.6,33.6,0,0,1,2.75,3.2,35.65,35.65,0,0,1,4.29,7.21c.27.64.49,1.3.74,1.94a16.76,16.76,0,0,1,.67,2,30.72,30.72,0,0,1,.92,4,35.12,35.12,0,0,1-.88,15.74,34.37,34.37,0,0,1-7.19,13,34.74,34.74,0,0,1-23,11.66c-1,0-2,.14-2.92.14l-2.83-.12a35.33,35.33,0,0,1-5.31-.78,31.67,31.67,0,0,1-15-7.94l.08,0-8.57.45-2.18.1C357.68,103.66,357.44,103.66,357.44,103.66Z" style="fill: rgb(38, 50, 56); transform-origin: 391.864px 77.2825px;" id="el4kcib9paa14" class="animable"></path><polygon points="372.31 76 377.98 71.08 387.53 80.89 408.95 63.05 413.48 68.7 386.04 91.04 372.31 76" style="fill: rgb(243, 114, 12); transform-origin: 392.895px 77.045px;" id="elmcuxf98a0a" class="animable"></polygon></g><g id="freepik--Clipboard--inject-18" class="animable" style="transform-origin: 169.152px 222.804px;"><path d="M298.11,349.49,106.35,392.23A8.63,8.63,0,0,1,96,385.68L33.81,106.43a8.62,8.62,0,0,1,6.55-10.3L232.12,53.39a8.63,8.63,0,0,1,10.31,6.55l62.23,279.25A8.62,8.62,0,0,1,298.11,349.49Z" style="fill: rgb(224, 224, 224); transform-origin: 169.235px 222.814px;" id="elsazl6esjujr" class="animable"></path><path d="M298.11,349.49l.64-.18a9.72,9.72,0,0,0,1.79-.79,8.82,8.82,0,0,0,2.43-2.11,8.59,8.59,0,0,0,1.75-4,8.26,8.26,0,0,0,0-2.67c-.16-.93-.41-1.91-.63-2.93-.46-2-1-4.28-1.5-6.7q-1.63-7.27-3.75-16.73c-5.63-25.17-13.77-61.59-23.83-106.6-5-22.5-10.52-47.15-16.43-73.62q-4.42-19.84-9.15-41-2.35-10.58-4.78-21.45c-.82-3.62-1.63-7.27-2.46-10.94A8.4,8.4,0,0,0,234,53.38a11.66,11.66,0,0,0-2.78.4l-2.8.62-5.63,1.26-11.36,2.53-23.12,5.16L140.67,74,40.43,96.32A8.44,8.44,0,0,0,33.94,106c.91,4.25,1.89,8.51,2.82,12.75Q39.6,131.45,42.39,144l11,49.41C60.61,225.8,67.57,257,74.2,286.8s12.92,58,18.82,84.51q1.1,5,2.19,9.84c.37,1.62.7,3.26,1.09,4.85a8.47,8.47,0,0,0,2.48,4.07,8.6,8.6,0,0,0,4.24,2.08,9,9,0,0,0,2.37.07c.78-.1,1.57-.29,2.35-.47l9.31-2.07,35.33-7.86L259,358.13l29-6.42,7.54-1.66,2.57-.56-2.56.6-7.54,1.7-29,6.49-106.6,23.83L117.12,390l-9.31,2.08c-.78.17-1.56.37-2.38.48a9.21,9.21,0,0,1-2.46-.08,8.81,8.81,0,0,1-7-6.39c-.4-1.61-.73-3.23-1.1-4.85q-1.09-4.87-2.2-9.84c-5.9-26.47-12.21-54.75-18.85-84.51s-13.6-61-20.83-93.39l-11-49.4q-2.79-12.54-5.63-25.27c-.94-4.24-1.91-8.48-2.83-12.77a8.84,8.84,0,0,1,6.81-10.13L140.59,73.58,188.26,63l23.11-5.15,11.36-2.53L228.37,54l2.8-.62A11.91,11.91,0,0,1,234,53a8.79,8.79,0,0,1,8.5,6.63c.82,3.68,1.64,7.32,2.45,10.95Q247.4,81.46,249.77,92q4.69,21.15,9.13,41c5.89,26.47,11.37,51.12,16.38,73.63,10,45,18.1,81.45,23.7,106.63,1.39,6.29,2.63,11.89,3.71,16.73.53,2.43,1,4.66,1.48,6.71.22,1,.47,2,.62,2.93a8.16,8.16,0,0,1,0,2.7,8.63,8.63,0,0,1-1.78,4.07,9,9,0,0,1-2.45,2.11,8.84,8.84,0,0,1-1.82.77Z" style="fill: rgb(38, 50, 56); transform-origin: 169.152px 222.804px;" id="el5qen0czdke" class="animable"></path><g id="elnhe9lfv8r6i"><g style="opacity: 0.3; transform-origin: 199.505px 335.655px;" class="animable"><polygon points="116.07 382.34 290.79 342.4 285.27 308.16 275.36 288.97 108.22 354.62 116.07 382.34" id="elc1vwe84ve7" class="animable" style="transform-origin: 199.505px 335.655px;"></polygon></g></g><g id="elqgjv8fg9kil"><g style="opacity: 0.3; transform-origin: 192.965px 72.48px;" class="animable"><polygon points="189.02 63.63 195.63 74.54 196.91 80.33 192.43 81.33 189.02 63.63" id="elnr0puw363f" class="animable" style="transform-origin: 192.965px 72.48px;"></polygon></g></g><polygon points="43.76 108.05 104.38 380.05 294.39 337.71 283.55 289.07 233.77 65.7 43.76 108.05" style="fill: rgb(255, 255, 255); transform-origin: 169.075px 222.875px;" id="ellqrg3i15ad7" class="animable"></polygon><path d="M43.76,108.05l190-42.51.16,0,0,.17c16.86,75.59,37.89,169.92,60.65,272v0l0,.21-.2,0-190,42.33-.18,0,0-.19c-35.69-160.62-60.07-270.38-60.44-272,.37,1.66,24.91,111.39,60.81,272l-.23-.14,190-42.37-.16.25v0c-22.73-102.06-43.74-196.39-60.57-272l.2.13Z" style="fill: rgb(38, 50, 56); transform-origin: 169.16px 222.895px;" id="elqstwmp8kmw" class="animable"></path><g id="elsxe5ezp1ie"><path d="M99.35,66H185.2a6.33,6.33,0,0,1,6.33,6.33V94.59a0,0,0,0,1,0,0H93a0,0,0,0,1,0,0V72.35A6.33,6.33,0,0,1,99.35,66Z" style="fill: rgb(38, 50, 56); transform-origin: 142.265px 80.295px; transform: rotate(-12.56deg);" class="animable"></path></g><polygon points="149.07 53.15 124.6 58.6 132.13 78.94 150.56 74.83 149.07 53.15" style="fill: rgb(38, 50, 56); transform-origin: 137.58px 66.045px;" id="el7ql1gum8dgy" class="animable"></polygon><path d="M181.06,57c0,.11-18.71,4.38-41.84,9.54S97.3,75.81,97.27,75.7s18.71-4.38,41.86-9.54S181,56.92,181.06,57Z" style="fill: rgb(69, 90, 100); transform-origin: 139.165px 66.3505px;" id="elw5xtezjgvij" class="animable"></path><path d="M98.46,100c-.11,0-1.08-3.9-2.16-8.76s-1.88-8.83-1.76-8.86,1.08,3.9,2.16,8.77S98.57,100,98.46,100Z" style="fill: rgb(69, 90, 100); transform-origin: 96.4991px 91.1899px;" id="elwlijlncxl1l" class="animable"></path><path d="M188.87,77.64a80.19,80.19,0,0,1-2-8,80.32,80.32,0,0,1-1.58-8,80.19,80.19,0,0,1,2,7.95A80.32,80.32,0,0,1,188.87,77.64Z" style="fill: rgb(69, 90, 100); transform-origin: 187.08px 69.64px;" id="elmktfg2nhura" class="animable"></path><path d="M185.06,82.39c0,.11-19.21,4.49-42.95,9.78s-43,9.5-43.05,9.38,19.2-4.49,43-9.78S185,82.28,185.06,82.39Z" style="fill: rgb(69, 90, 100); transform-origin: 142.06px 91.9702px;" id="elpkurtumjprg" class="animable"></path><path d="M134.45,161.51c0,.12-12.95,3.1-29,6.68s-29,6.37-29.07,6.26,13-3.1,29-6.67S134.42,161.4,134.45,161.51Z" style="fill: rgb(38, 50, 56); transform-origin: 105.415px 167.98px;" id="elqdmzg7hoac" class="animable"></path><path d="M231.16,150.62c0,.12-33.87,7.77-75.7,17.09s-75.78,16.79-75.8,16.68,33.86-7.77,75.71-17.09S231.14,150.51,231.16,150.62Z" style="fill: rgb(38, 50, 56); transform-origin: 155.41px 167.505px;" id="elm2ksrrneij" class="animable"></path><path d="M233.25,160c0,.11-33.88,7.76-75.71,17.09s-75.77,16.79-75.8,16.67,33.87-7.76,75.71-17.08S233.22,159.86,233.25,160Z" style="fill: rgb(38, 50, 56); transform-origin: 157.495px 176.88px;" id="elv5b1n3aigr" class="animable"></path><path d="M235.33,169.32c0,.11-33.87,7.76-75.7,17.08s-75.78,16.8-75.81,16.68,33.87-7.76,75.72-17.09S235.3,169.21,235.33,169.32Z" style="fill: rgb(38, 50, 56); transform-origin: 159.575px 186.2px;" id="eleo38r91jhlj" class="animable"></path><path d="M237.41,178.67c0,.11-33.87,7.76-75.7,17.08s-75.78,16.79-75.8,16.68,33.86-7.76,75.71-17.09S237.39,178.55,237.41,178.67Z" style="fill: rgb(38, 50, 56); transform-origin: 161.66px 195.55px;" id="elrc71px8iv1b" class="animable"></path><path d="M239.5,188c0,.12-33.88,7.77-75.71,17.09S88,221.89,88,221.78s33.87-7.76,75.71-17.09S239.47,187.9,239.5,188Z" style="fill: rgb(38, 50, 56); transform-origin: 163.75px 204.89px;" id="elwzgpstzrwkj" class="animable"></path><path d="M117.37,253.81a1.56,1.56,0,0,1-.09-.31l-.22-.89c-.19-.81-.46-1.94-.79-3.35-.67-2.89-1.61-6.95-2.73-11.81l.22.14-16.4,3.68s.3-.47.16-.25h0v0l0,.07,0,.14.06.28.13.56.24,1.11c.17.74.33,1.47.49,2.2.32,1.44.64,2.86.94,4.24.61,2.75,1.18,5.35,1.71,7.74l-.22-.14,11.85-2.55,3.37-.7.9-.17.32-.06s-.08,0-.28.09l-.85.21-3.3.78L101,257.65l-.18,0,0-.18-1.74-7.73c-.31-1.38-.63-2.8-1-4.24-.16-.73-.33-1.46-.49-2.2-.09-.36-.17-.74-.25-1.11l-.13-.56-.06-.28,0-.14,0-.07v-.05h0c-.14.23.19-.3.16-.25l16.41-3.63.18,0,0,.18,2.58,12c.29,1.4.52,2.52.69,3.32.07.36.12.64.17.87A.89.89,0,0,1,117.37,253.81Z" style="fill: rgb(38, 50, 56); transform-origin: 107.243px 247.43px;" id="elrdearku2h6q" class="animable"></path><g id="ellta6lyxj6zi"><rect x="124.53" y="226" width="117.22" height="9.78" style="fill: rgb(224, 224, 224); transform-origin: 183.14px 230.89px; transform: rotate(-12.56deg);" class="animable"></rect></g><path d="M123.71,282.27a2.31,2.31,0,0,1-.09-.32c-.06-.23-.13-.53-.22-.89-.19-.81-.46-1.93-.79-3.34-.67-2.9-1.61-7-2.73-11.82l.22.14-16.4,3.68c0,.06.3-.47.16-.24h0v.05l0,.07,0,.14.06.28.13.56c.08.38.16.75.25,1.12l.48,2.19c.32,1.45.64,2.86.94,4.24.61,2.75,1.18,5.35,1.71,7.74l-.22-.14,11.86-2.54,3.36-.7.9-.18a1.39,1.39,0,0,1,.32-.05l-.27.08-.86.21-3.3.79-11.93,2.75-.18,0,0-.18-1.74-7.73c-.31-1.38-.63-2.8-1-4.24-.16-.72-.33-1.46-.49-2.19-.08-.37-.17-.74-.25-1.12l-.13-.56-.06-.28,0-.14v-.12h0l.16-.26L120,265.69l.18,0,0,.17c1.06,4.93,2,9,2.58,12,.29,1.4.52,2.52.69,3.32.07.36.12.64.17.87A.92.92,0,0,1,123.71,282.27Z" style="fill: rgb(38, 50, 56); transform-origin: 113.575px 275.89px;" id="el15s9jj6g0d9" class="animable"></path><g id="el15f39jhmnblh"><rect x="130.87" y="254.45" width="117.22" height="9.78" style="fill: rgb(224, 224, 224); transform-origin: 189.48px 259.34px; transform: rotate(-12.56deg);" class="animable"></rect></g><path d="M130.05,310.72s0-.12-.09-.32-.13-.53-.22-.89c-.19-.81-.46-1.93-.79-3.34-.67-2.89-1.61-7-2.73-11.82l.22.14L110,298.17c0,.06.3-.47.16-.24h0V298l0,.07,0,.14.06.28.13.56c.08.38.16.75.25,1.12l.48,2.19c.32,1.45.64,2.86.94,4.24l1.71,7.74-.22-.13,11.86-2.55,3.36-.7.9-.18a1.47,1.47,0,0,1,.32,0l-.27.08-.86.21-3.3.79-11.93,2.75-.18,0,0-.18c-.53-2.38-1.12-5-1.74-7.73-.31-1.38-.63-2.79-1-4.24-.16-.72-.33-1.45-.49-2.19-.08-.37-.17-.74-.25-1.11l-.12-.56-.07-.28,0-.15V298h0c-.14.22.19-.31.16-.25l16.41-3.63.18,0,0,.18,2.58,12c.29,1.4.52,2.52.69,3.33.07.35.13.63.17.86A.94.94,0,0,1,130.05,310.72Z" style="fill: rgb(38, 50, 56); transform-origin: 119.878px 304.365px;" id="elp5ixdei3bjf" class="animable"></path><g id="elltlyap8nvk"><rect x="137.21" y="282.91" width="117.22" height="9.78" style="fill: rgb(224, 224, 224); transform-origin: 195.82px 287.8px; transform: rotate(-12.56deg);" class="animable"></rect></g><polygon points="101.61 247.94 103.33 245.23 108.44 248.07 115.02 238.15 117.56 239.91 109.08 252.41 101.61 247.94" style="fill: rgb(243, 114, 12); transform-origin: 109.585px 245.28px;" id="el4hey5dawtyf" class="animable"></polygon><polygon points="107.74 275.44 109.46 272.73 114.57 275.57 121.14 265.65 123.69 267.41 115.2 279.9 107.74 275.44" style="fill: rgb(243, 114, 12); transform-origin: 115.715px 272.775px;" id="el3ikhbz5i3g7" class="animable"></polygon><polygon points="114.03 303.63 115.75 300.93 120.85 303.77 127.43 293.85 129.97 295.6 121.49 308.1 114.03 303.63" style="fill: rgb(243, 114, 12); transform-origin: 122px 300.975px;" id="elpuqa0gnryha" class="animable"></polygon><path d="M166.4,339c0,.12-9.64,2.37-21.58,5s-21.64,4.72-21.66,4.61,9.63-2.36,21.57-5S166.37,338.9,166.4,339Z" style="fill: rgb(38, 50, 56); transform-origin: 144.78px 343.805px;" id="el9iesp3wjtmk" class="animable"></path><path d="M187.94,333.86a78.64,78.64,0,0,1-7.94,2,81.52,81.52,0,0,1-8,1.57,79.72,79.72,0,0,1,7.93-2C184.32,334.46,187.92,333.75,187.94,333.86Z" style="fill: rgb(38, 50, 56); transform-origin: 179.97px 335.639px;" id="elz5w503h1ca8" class="animable"></path><path d="M259.28,311.41c0,.11-8.67,2.15-19.41,4.54s-19.48,4.24-19.5,4.13,8.66-2.14,19.41-4.54S259.26,311.3,259.28,311.41Z" style="fill: rgb(38, 50, 56); transform-origin: 239.825px 315.745px;" id="elbtlj3ehvv1" class="animable"></path><path d="M250,337.73s.09-.27.19-.79a5.25,5.25,0,0,0-.12-2.31,20.7,20.7,0,0,0-1.38-3.45,11.49,11.49,0,0,1-1.37-4.76,7.35,7.35,0,0,1,2.54-5.39,6.92,6.92,0,0,1,6.64-1.23,6.73,6.73,0,0,1,3.16,2.07,3.21,3.21,0,0,1,.75,1.87,1.73,1.73,0,0,1-1.17,1.69,14.17,14.17,0,0,1-2,.49l-2,.41c-1.34.27-2.7.51-4.1.69a29.91,29.91,0,0,1-8.18.05,5,5,0,0,0-3.59.58,12.49,12.49,0,0,0-2.16,2.93,3.57,3.57,0,0,1-1.4,1.24,2.52,2.52,0,0,1-1.83.08,16.31,16.31,0,0,1-2.92-1.68,3.34,3.34,0,0,0-1.41-.53,2,2,0,0,0-1.34.33,7.83,7.83,0,0,0-1.69,2.22,5.27,5.27,0,0,1-4.22,2.44,5,5,0,0,1-3.5-1.24,5.17,5.17,0,0,1-1.39-1.92,3.45,3.45,0,0,1-.23-.79s.09.27.31.76a5.07,5.07,0,0,0,1.41,1.82,4.84,4.84,0,0,0,3.38,1.14,5,5,0,0,0,4-2.37,8,8,0,0,1,1.76-2.32,2.35,2.35,0,0,1,1.56-.41,4,4,0,0,1,1.54.57,16.87,16.87,0,0,0,2.86,1.63,2.18,2.18,0,0,0,1.57-.07,3,3,0,0,0,1.23-1.13,12.7,12.7,0,0,1,2.24-3,3.85,3.85,0,0,1,1.88-.7,9.46,9.46,0,0,1,2,0,30.05,30.05,0,0,0,8.09-.05c1.38-.18,2.73-.43,4.07-.69l2-.4a16.49,16.49,0,0,0,1.9-.47,1.32,1.32,0,0,0,.92-1.3,2.89,2.89,0,0,0-.66-1.63,6.44,6.44,0,0,0-3-2,6.6,6.6,0,0,0-6.3,1.14,7,7,0,0,0-2.46,5.12,11.49,11.49,0,0,0,1.28,4.67,19.73,19.73,0,0,1,1.33,3.5,5.25,5.25,0,0,1,.05,2.36A3.67,3.67,0,0,1,250,337.73Z" style="fill: rgb(38, 50, 56); transform-origin: 238.845px 328.582px;" id="elyixjasomioc" class="animable"></path><path d="M270.67,324.93a3.23,3.23,0,0,1-.52.16l-1.52.36-5.58,1.29c-4.7,1.1-11.2,2.64-18.35,4.45s-13.6,3.56-18.25,4.84l-5.52,1.52-1.51.4a3.35,3.35,0,0,1-.53.12,2.19,2.19,0,0,1,.51-.2l1.48-.47c1.29-.41,3.16-1,5.48-1.65,4.65-1.36,11.08-3.15,18.24-5s13.66-3.31,18.39-4.32c2.36-.51,4.28-.91,5.61-1.17l1.53-.29A3,3,0,0,1,270.67,324.93Z" style="fill: rgb(38, 50, 56); transform-origin: 244.78px 331.5px;" id="elc8ezd1b9ima" class="animable"></path><g id="elay3ruzewq09"><rect x="111.66" y="113.97" width="79.57" height="14.95" style="fill: rgb(224, 224, 224); transform-origin: 151.445px 121.445px; transform: rotate(-12.56deg);" class="animable"></rect></g></g><g id="freepik--Character--inject-18" class="animable" style="transform-origin: 264.725px 272.768px;"><polygon points="262.12 342.31 287.21 474.87 310.14 432.5 353.6 458.01 307.47 328.93 262.12 342.31" style="fill: rgb(243, 114, 12); transform-origin: 307.86px 401.9px;" id="eltgo6rt7g7c" class="animable"></polygon><g id="el6ixqcpvq3gw"><g style="opacity: 0.3; transform-origin: 295.9px 369.21px;" class="animable"><path d="M270.56,386.89a15,15,0,0,0,13.34-4.09c2.29-2.36,3.81-5.58,6.69-7.16,2.59-1.42,5.78-1.22,8.63-.43s5.53,2.1,8.38,2.84a21.87,21.87,0,0,0,16.72-2.48l-7.24-20.1-33.6-4.2-16,19.25Z" id="elayfm3dv2tzj" class="animable" style="transform-origin: 295.9px 369.21px;"></path></g></g><path d="M308.51,427.24c-.14,0-3.88-13.74-8.35-30.75s-8-30.85-7.84-30.88,3.87,13.72,8.34,30.75S308.65,427.2,308.51,427.24Z" style="fill: rgb(38, 50, 56); transform-origin: 300.414px 396.425px;" id="eloghtlt9cwv" class="animable"></path><polygon points="265.79 349.2 240.7 481.76 217.77 439.4 174.31 464.9 220.44 335.82 265.79 349.2" style="fill: rgb(243, 114, 12); transform-origin: 220.05px 408.79px;" id="el5fxord3nbkf" class="animable"></polygon><g id="elnzezb0z60ya"><g style="opacity: 0.3; transform-origin: 233.655px 372.405px;" class="animable"><path d="M206.64,374.43s7.14,5.87,15.65,3.17,13.8-3.28,18.41,0,17.08,13.95,17.08,13.95l2.89-15.29-16.75-23-17.48,3.53L214,358l-4.63,8.77Z" id="elh6ikal7xcxr" class="animable" style="transform-origin: 233.655px 372.405px;"></path></g></g><path d="M412.9,229.54c0,9.51-12.15,17.7-13.93,26.69-1.83,9.26,6.23,21.47,2.7,30s-18,11.59-23.13,19.3-2.43,22.15-9,28.73-21,3.81-28.73,9-10.63,19.53-19.3,23.13c-8.52,3.53-20.73-4.53-30-2.7-9,1.78-17.18,13.93-26.69,13.93s-17.71-12.15-26.7-13.93c-9.26-1.83-21.47,6.23-30,2.7s-11.58-18-19.29-23.13-22.15-2.43-28.74-9-3.81-21-9-28.73-19.53-10.63-23.12-19.3,4.53-20.73,2.7-30c-1.78-9-13.94-17.18-13.94-26.69s12.16-17.71,13.94-26.7c1.83-9.26-6.24-21.47-2.7-30s18-11.59,23.12-19.29,2.43-22.15,9-28.74,21-3.81,28.74-9,10.62-19.53,19.29-23.12,20.73,4.53,30,2.7c9-1.78,17.19-13.94,26.7-13.94s17.7,12.16,26.69,13.94c9.26,1.83,21.47-6.24,30-2.7,8.67,3.59,11.59,18,19.3,23.12s22.15,2.43,28.73,9,3.81,21,9,28.74,19.53,10.62,23.13,19.29-4.53,20.73-2.7,30C400.75,211.83,412.9,220,412.9,229.54Z" style="fill: rgb(243, 114, 12); transform-origin: 264.815px 229.535px;" id="elexnyo0aqreq" class="animable"></path><path d="M230.17,146.53s-.11-.13-.27-.41-.41-.73-.68-1.22c-.59-1.06-1.4-2.62-2.36-4.56-1.93-3.88-4.43-9.34-6.84-15.5s-4.26-11.88-5.47-16c-.6-2.09-1.06-3.78-1.35-5-.13-.54-.24-1-.32-1.36a1.55,1.55,0,0,1-.08-.48,2.13,2.13,0,0,1,.18.46l.41,1.33c.39,1.23.9,2.89,1.51,4.9,1.3,4.13,3.21,9.8,5.6,16s4.85,11.61,6.69,15.53l2.21,4.63.59,1.26A2.52,2.52,0,0,1,230.17,146.53Z" style="fill: rgb(38, 50, 56); transform-origin: 221.485px 124.265px;" id="el19av1dmeo3d" class="animable"></path><path d="M243.35,141.52a4.72,4.72,0,0,1-.39-1.1c-.21-.72-.49-1.77-.82-3.07-.66-2.59-1.48-6.21-2.22-10.23s-1.26-7.69-1.56-10.35c-.16-1.33-.26-2.41-.32-3.16a4.9,4.9,0,0,1,0-1.16,5.75,5.75,0,0,1,.23,1.14l.48,3.13c.4,2.65,1,6.3,1.71,10.31s1.5,7.63,2.06,10.24c.27,1.22.49,2.26.67,3.1A5.83,5.83,0,0,1,243.35,141.52Z" style="fill: rgb(38, 50, 56); transform-origin: 240.678px 126.985px;" id="elunmaxs1kop" class="animable"></path><path d="M266.6,139.21c-.15,0-.52-11.22-.83-25.05s-.45-25.06-.31-25.07.52,11.21.83,25.06S266.74,139.21,266.6,139.21Z" style="fill: rgb(38, 50, 56); transform-origin: 266.03px 114.15px;" id="elmi7he47xl1q" class="animable"></path><path d="M290,116.16c.14,0-1.48,5.65-3.61,12.53s-4,12.41-4.1,12.37,1.48-5.65,3.61-12.53S289.85,116.12,290,116.16Z" style="fill: rgb(38, 50, 56); transform-origin: 286.147px 128.61px;" id="el16uwjar4ab" class="animable"></path><path d="M299.54,145.15a1.7,1.7,0,0,1,.13-.48l.45-1.32c.4-1.14,1-2.78,1.8-4.8,1.57-4,3.81-9.59,6.37-15.69s4.94-11.59,6.69-15.55c.86-1.92,1.57-3.5,2.11-4.68l.59-1.26c.15-.28.23-.43.25-.42a2.78,2.78,0,0,1-.15.46l-.51,1.3-1.95,4.75c-1.71,4.06-4,9.54-6.55,15.61s-4.81,11.55-6.51,15.62l-1.95,4.74-.55,1.28A2,2,0,0,1,299.54,145.15Z" style="fill: rgb(38, 50, 56); transform-origin: 308.735px 123.05px;" id="elhd68sr167j4" class="animable"></path><path d="M312,151.67a5.13,5.13,0,0,1,.57-1c.4-.64,1-1.55,1.74-2.66,1.5-2.21,3.66-5.23,6.17-8.45s4.92-6,6.7-8c.89-1,1.63-1.79,2.15-2.33a4.9,4.9,0,0,1,.85-.8,4.73,4.73,0,0,1-.7.94c-.54.66-1.22,1.47-2,2.43-1.71,2.06-4.06,4.91-6.57,8.13s-4.7,6.19-6.28,8.35l-1.87,2.55A5.44,5.44,0,0,1,312,151.67Z" style="fill: rgb(38, 50, 56); transform-origin: 321.09px 140.05px;" id="elk2nrxj7xi1" class="animable"></path><path d="M330.22,166.57c-.1-.1,7.82-7.62,17.67-16.79s17.93-16.52,18-16.42-7.81,7.63-17.67,16.8S330.32,166.68,330.22,166.57Z" style="fill: rgb(38, 50, 56); transform-origin: 348.055px 149.965px;" id="elnokvb9uuen" class="animable"></path><path d="M362,169.68a26.87,26.87,0,0,1-3,1.64c-1.88,1-4.43,2.39-7.25,4s-5.42,2.95-7.35,3.85c-1,.45-1.74.8-2.3,1a3.12,3.12,0,0,1-.87.3,26.87,26.87,0,0,1,3-1.64c1.88-1,4.43-2.39,7.25-4s5.42-3,7.35-3.85c1-.45,1.74-.8,2.3-1A2.84,2.84,0,0,1,362,169.68Z" style="fill: rgb(38, 50, 56); transform-origin: 351.615px 175.075px;" id="el69iquw53byd" class="animable"></path><path d="M391.39,181.87c.05.14-9.37,3.58-21,7.69s-21.16,7.32-21.2,7.19,9.36-3.58,21-7.69S391.34,181.74,391.39,181.87Z" style="fill: rgb(38, 50, 56); transform-origin: 370.29px 189.31px;" id="elz2unuea1uqb" class="animable"></path><path d="M400.75,235.34c0,.14-10.25-.71-22.86-1.91s-22.83-2.29-22.81-2.44,10.24.72,22.86,1.92S400.76,235.2,400.75,235.34Z" style="fill: rgb(38, 50, 56); transform-origin: 377.915px 233.164px;" id="el75d0z1ypemo" class="animable"></path><path d="M393.22,283.3c-.06.13-9.63-4.27-21.37-9.81s-21.21-10.15-21.15-10.28,9.63,4.26,21.37,9.81S393.28,283.17,393.22,283.3Z" style="fill: rgb(38, 50, 56); transform-origin: 371.96px 273.255px;" id="elro0opymoe1l" class="animable"></path><path d="M361.74,328.93c-.11.09-7-7.92-15.41-17.88s-15.13-18.13-15-18.22,7,7.91,15.41,17.88S361.85,328.83,361.74,328.93Z" style="fill: rgb(38, 50, 56); transform-origin: 346.535px 310.88px;" id="el77ds3nd2946" class="animable"></path><path d="M335.46,335a7.46,7.46,0,0,1-.83-1.12c-.51-.74-1.23-1.83-2.09-3.18-1.74-2.71-4.07-6.5-6.53-10.75s-4.56-8.17-6-11c-.73-1.43-1.32-2.59-1.7-3.4a7.62,7.62,0,0,1-.56-1.29,7.65,7.65,0,0,1,.74,1.19c.48.88,1.1,2,1.85,3.33,1.55,2.81,3.71,6.69,6.16,10.94s4.73,8.06,6.39,10.81c.78,1.32,1.44,2.41,1.95,3.27A6.12,6.12,0,0,1,335.46,335Z" style="fill: rgb(38, 50, 56); transform-origin: 326.605px 319.63px;" id="el7kkye52w6rx" class="animable"></path><path d="M319.14,357.9s-.1-.13-.26-.41l-.65-1.22c-.57-1.07-1.34-2.63-2.26-4.57-1.84-3.89-4.21-9.35-6.46-15.53s-3.95-11.88-5-16c-.55-2.08-1-3.78-1.22-4.95-.11-.54-.2-1-.28-1.36a2.35,2.35,0,0,1-.07-.48,1.49,1.49,0,0,1,.17.46l.38,1.33c.35,1.24.81,2.89,1.37,4.9,1.18,4.13,2.93,9.81,5.18,16s4.55,11.62,6.31,15.55l2.1,4.63q.33.75.57,1.26A1.63,1.63,0,0,1,319.14,357.9Z" style="fill: rgb(38, 50, 56); transform-origin: 311.04px 335.64px;" id="elbqokppgsfy7" class="animable"></path><path d="M286.08,341.81a27.81,27.81,0,0,1-.43-3.48c-.23-2.15-.6-5.12-1.14-8.37s-1.17-6.17-1.65-8.28a27.06,27.06,0,0,1-.72-3.44,3.86,3.86,0,0,1,.34.88c.2.58.45,1.42.74,2.47.57,2.09,1.25,5,1.8,8.29a81.89,81.89,0,0,1,1,8.42c.07,1.08.11,2,.11,2.57A3.5,3.5,0,0,1,286.08,341.81Z" style="fill: rgb(38, 50, 56); transform-origin: 284.141px 330.025px;" id="elfp1gjjq4w4q" class="animable"></path><path d="M264.45,370.6a1.88,1.88,0,0,1,0-.51q0-.6,0-1.47c0-1.28,0-3.13,0-5.41.08-4.57.29-10.87.65-17.82s.81-13.25,1.18-17.8c.18-2.28.35-4.12.48-5.39.07-.58.12-1.07.16-1.46a2.06,2.06,0,0,1,.1-.51,1.93,1.93,0,0,1,0,.52c0,.39,0,.88-.07,1.47-.08,1.35-.18,3.17-.31,5.39-.27,4.63-.63,10.89-1,17.8s-.63,13.25-.8,17.81c-.08,2.22-.15,4-.2,5.4,0,.59-.06,1.07-.08,1.47A1.77,1.77,0,0,1,264.45,370.6Z" style="fill: rgb(38, 50, 56); transform-origin: 265.735px 345.415px;" id="eld4cuqfac8rn" class="animable"></path><path d="M246.87,320.23a11.9,11.9,0,0,1-.3,2.56c-.26,1.56-.68,3.71-1.23,6.06s-1.13,4.47-1.59,6a11.6,11.6,0,0,1-.87,2.42,13.43,13.43,0,0,1,.51-2.52l1.44-6c.52-2.25,1-4.29,1.38-6A13.57,13.57,0,0,1,246.87,320.23Z" style="fill: rgb(38, 50, 56); transform-origin: 244.875px 328.75px;" id="elm4or2t20nz8" class="animable"></path><path d="M215.08,305a54.22,54.22,0,0,1-4.37,6.2,58.51,58.51,0,0,1-4.79,5.89,53.22,53.22,0,0,1,4.37-6.2A55.63,55.63,0,0,1,215.08,305Z" style="fill: rgb(38, 50, 56); transform-origin: 210.5px 311.045px;" id="el2vpkd176poe" class="animable"></path><path d="M198.41,293.76c.1.09-6.1,7.38-13.86,16.27s-14.15,16-14.26,15.93,6.1-7.38,13.86-16.27S198.3,293.66,198.41,293.76Z" style="fill: rgb(38, 50, 56); transform-origin: 184.35px 309.86px;" id="elrgrkrk3yrk" class="animable"></path><path d="M190.06,281.35a98.46,98.46,0,0,1-7.71,6.7c-4.35,3.58-7.95,6.4-8,6.29a99.72,99.72,0,0,1,7.71-6.69A101.25,101.25,0,0,1,190.06,281.35Z" style="fill: rgb(38, 50, 56); transform-origin: 182.205px 287.847px;" id="ele9tm0aqtfj" class="animable"></path><path d="M180.3,262.64c.06.13-8.58,4.43-19.31,9.59s-19.46,9.25-19.53,9.12,8.58-4.42,19.31-9.59S180.24,262.51,180.3,262.64Z" style="fill: rgb(38, 50, 56); transform-origin: 160.88px 271.995px;" id="elquviq8kua5i" class="animable"></path><path d="M176.38,253.31a3.54,3.54,0,0,1-.9.26c-.59.14-1.44.32-2.49.51-2.11.4-5.05.84-8.31,1.17s-6.23.47-8.38.5c-1.07,0-1.94,0-2.54,0a2.91,2.91,0,0,1-.93-.09,29.63,29.63,0,0,1,3.46-.27c2.14-.13,5.09-.33,8.34-.66s6.18-.71,8.3-1A24.53,24.53,0,0,1,176.38,253.31Z" style="fill: rgb(38, 50, 56); transform-origin: 164.605px 254.533px;" id="elk7j2x0k2jwj" class="animable"></path><path d="M173.21,231.76a10.58,10.58,0,0,1-1.75,0l-4.76-.24c-4-.2-9.56-.38-15.69-.35s-11.69.28-15.7.52l-4.75.29a11,11,0,0,1-1.75.06,10.15,10.15,0,0,1,1.73-.26c1.12-.13,2.74-.29,4.74-.46,4-.33,9.58-.63,15.72-.67s11.71.21,15.73.5c2,.15,3.63.29,4.75.41A12.4,12.4,0,0,1,173.21,231.76Z" style="fill: rgb(38, 50, 56); transform-origin: 151.01px 231.349px;" id="el5p3i7t090ab" class="animable"></path><path d="M175.17,212.84c0,.14-6.51-1.55-14.46-3.77s-14.36-4.12-14.32-4.26,6.51,1.54,14.46,3.76S175.21,212.7,175.17,212.84Z" style="fill: rgb(38, 50, 56); transform-origin: 160.78px 208.825px;" id="elxnkondrt4v" class="animable"></path><path d="M179.36,197a1.6,1.6,0,0,1-.47-.1l-1.33-.4c-1.14-.36-2.79-.92-4.8-1.65a159.77,159.77,0,0,1-15.42-6.6,157.32,157.32,0,0,1-14.63-8.2c-1.81-1.15-3.26-2.11-4.24-2.8l-1.12-.81c-.25-.19-.38-.29-.37-.31a2.26,2.26,0,0,1,.43.23l1.18.72c1,.64,2.48,1.55,4.31,2.66,3.67,2.22,8.81,5.15,14.67,8s11.32,5.17,15.32,6.73c2,.77,3.61,1.38,4.74,1.8l1.29.49A3,3,0,0,1,179.36,197Z" style="fill: rgb(38, 50, 56); transform-origin: 158.17px 186.565px;" id="el4zefewfzbu" class="animable"></path><path d="M188.77,181c-.08.11-5.14-3.31-11.3-7.65s-11.09-7.95-11-8.07,5.14,3.31,11.31,7.65S188.85,180.91,188.77,181Z" style="fill: rgb(38, 50, 56); transform-origin: 177.62px 173.14px;" id="elqwrurvenpf9" class="animable"></path><path d="M168.88,132.42s.14.08.38.27l1,.88,3.69,3.26,12.11,10.81,12.16,10.75,3.68,3.27,1,.91a1.83,1.83,0,0,1,.32.34s-.14-.07-.39-.26l-1-.83c-.91-.73-2.2-1.81-3.79-3.15-3.18-2.68-7.52-6.43-12.27-10.64s-9-8.09-12-10.93c-1.52-1.42-2.74-2.57-3.58-3.39l-.95-.94C169,132.55,168.86,132.43,168.88,132.42Z" style="fill: rgb(38, 50, 56); transform-origin: 186.049px 147.665px;" id="el1q35o1zxwsz" class="animable"></path><path d="M200.07,133.33s.27.22.68.69,1,1.16,1.69,2c1.39,1.74,3.24,4.2,5.16,7s3.53,5.42,4.64,7.35c.56,1,1,1.75,1.28,2.3a3.53,3.53,0,0,1,.4.88,26.92,26.92,0,0,1-2-3c-1.19-1.88-2.85-4.45-4.76-7.25s-3.71-5.27-5-7.06A30.07,30.07,0,0,1,200.07,133.33Z" style="fill: rgb(38, 50, 56); transform-origin: 206.995px 143.44px;" id="elcftb5zx9v97" class="animable"></path><g id="elsojh0ov13xa"><g style="opacity: 0.2; transform-origin: 187.26px 139.245px;" class="animable"><path d="M160.1,124.82l43.51,38.09,10.81-8.65-25.24-38.68s-1.94,1.42-7,2.86C177.35,119.83,163,120.2,160.1,124.82Z" id="ell42gf1cmco8" class="animable" style="transform-origin: 187.26px 139.245px;"></path></g></g><g id="eleks4xm9gloj"><g style="opacity: 0.2; transform-origin: 225.94px 118.769px;" class="animable"><path d="M208.53,92.6l21.24,53.17,13.58-4.25L238.82,95.4s-2.33.55-7.52-.11C226.27,94.65,214.08,89.88,208.53,92.6Z" id="el56o78b3sd93" class="animable" style="transform-origin: 225.94px 118.769px;"></path></g></g><g id="elah07vyathcl"><g style="opacity: 0.3; transform-origin: 278.685px 110.636px;" class="animable"><path d="M265.17,81.47l1.43,57.74,12.72.61L292.2,95.5a20.77,20.77,0,0,1-7.49-3.1C280.31,89.58,271.33,81,265.17,81.47Z" id="el2gwsv2wqy08" class="animable" style="transform-origin: 278.685px 110.636px;"></path></g></g><g id="elmklazghh5io"><g style="opacity: 0.2; transform-origin: 319.795px 121.74px;" class="animable"><path d="M320.65,92.38l-21.11,53.23L311,151.1l29.05-35.86a25.8,25.8,0,0,1-5.51-6.49C331.8,104.32,327.08,94.15,320.65,92.38Z" id="elsij6epryz88" class="animable" style="transform-origin: 319.795px 121.74px;"></path></g></g><g id="el0kbje0fnloqf"><g style="opacity: 0.2; transform-origin: 354.5px 151.995px;" class="animable"><path d="M370.23,125.59l-39.32,41,8.76,11.81,38.42-25.64a23.16,23.16,0,0,1-2.53-7.48C374.64,140.28,374.51,131.2,370.23,125.59Z" id="eljtmnl0s38tk" class="animable" style="transform-origin: 354.5px 151.995px;"></path></g></g><g id="elxbt5oa14ii"><g style="opacity: 0.2; transform-origin: 375.453px 189.51px;" class="animable"><path d="M401.27,171.85l-52.95,21.79,4.39,13.53,46.07-5s-.29-1.42.32-6.61C399.68,190.53,405,179.29,401.27,171.85Z" id="elakug4kdqxym" class="animable" style="transform-origin: 375.453px 189.51px;"></path></g></g><g id="elit16gqkrhk"><g style="opacity: 0.2; transform-origin: 383.895px 243.345px;" class="animable"><path d="M413,229.54l-57.73,2-.48,12.73,44,12.88a17.14,17.14,0,0,1,1.74-5.25C403.81,245.78,413,237.14,413,229.54Z" id="elwi9sga6owmo" class="animable" style="transform-origin: 383.895px 243.345px;"></path></g></g><g id="eldfqxyfo50t5"><g style="opacity: 0.2; transform-origin: 373.09px 283.52px;" class="animable"><path d="M402.35,284.12,349.2,263.41,343.83,275,380,303.63a34.5,34.5,0,0,1,6.27-4.76C390.67,296.06,401.13,291.51,402.35,284.12Z" id="el9f3p2kthqrj" class="animable" style="transform-origin: 373.09px 283.52px;"></path></g></g><g id="el1pvguu8vzi3"><g style="opacity: 0.2; transform-origin: 242.22px 265.07px;" class="animable"><path d="M324.18,283.3l-13.16,11c1,1,18.53,30.84,29.34,49.26a5.12,5.12,0,0,1,.44-.34c7.11-4.76,19.77-2.85,26.91-7.56Z" id="ela65t8ewzjtk" class="animable" style="transform-origin: 339.365px 313.43px;"></path><path d="M300,304.18l-19.64,6.7,9.3,53.32a13.74,13.74,0,0,1,1.85-.51c9.26-1.83,21.47,6.23,30,2.7a12.62,12.62,0,0,0,3.22-2Z" id="elab1alb5x60p" class="animable" style="transform-origin: 302.545px 335.738px;"></path><path d="M264.14,377.6l3.13-69.66-17-4.31-12.63,60,.46.08C246.9,365.42,254.91,377,264.14,377.6Z" id="eldcrnzng0x2c" class="animable" style="transform-origin: 252.455px 340.615px;"></path><path d="M221.44,296.11S199,326.17,187.26,342.35a16.24,16.24,0,0,1,1.58.91c7.71,5.16,10.62,19.53,19.29,23.13.4.16.81.29,1.22.41l31.35-59.34Z" id="elq0y8ay5pj8" class="animable" style="transform-origin: 213.98px 331.455px;"></path><path d="M198.41,271.91,150.55,304.8c.18.24.38.47.54.72,5.2,7.76,2.43,22.15,9,28.73a11.47,11.47,0,0,0,2,1.57c16.91-19.06,47.27-53.28,48.37-54.47Z" id="eltgfmb4ef54k" class="animable" style="transform-origin: 180.505px 303.865px;"></path><path d="M187.44,248.42l-56.59,9.14c.91,9.08-6.25,20.54-2.88,28.66a9.62,9.62,0,0,0,.73,1.43c19.8-9.86,61.17-30.37,62.89-30.48Z" id="ellpvx3f6dvj" class="animable" style="transform-origin: 159.326px 268.035px;"></path><path d="M184.35,216.9l-53.49-15.43c-.05.46-.11.92-.19,1.37-1.78,9-13.94,17.19-13.94,26.7a11.85,11.85,0,0,0,.16,1.89h65.29Z" id="el3i3idw4c0y5" class="animable" style="transform-origin: 150.54px 216.45px;"></path><path d="M128.19,172.43c20,10.71,59.07,32.38,59.07,32.38l9.62-18.27-45.18-34c-.2.35-.39.71-.61,1C146,161.13,132.07,164.09,128.19,172.43Z" id="elhx6ao2tkdjo" class="animable" style="transform-origin: 162.535px 178.675px;"></path></g></g><path d="M412.9,229.54l-.06-.64a9.32,9.32,0,0,0-.26-1.86,20.18,20.18,0,0,0-3-6.7c-1.72-2.76-4.32-5.85-7-9.76a23.53,23.53,0,0,1-3.44-6.85,19.67,19.67,0,0,1,0-8.71c.56-3.05,1.47-6.19,2.26-9.52s1.53-6.93.79-10.61a12.11,12.11,0,0,0-2.49-5.07,23.36,23.36,0,0,0-4.44-3.94c-3.32-2.36-7.14-4.24-10.79-6.7a25,25,0,0,1-5.1-4.36,16.55,16.55,0,0,1-3.13-6.19c-1.28-4.55-1.57-9.41-2.54-14.27a22.51,22.51,0,0,0-2.47-7.06,11.94,11.94,0,0,0-5.69-4.93,31.37,31.37,0,0,0-7.65-2c-2.65-.44-5.37-.75-8.09-1.23a25.84,25.84,0,0,1-8-2.53,18.78,18.78,0,0,1-6.16-6c-1.66-2.38-3.09-4.94-4.61-7.47a39.33,39.33,0,0,0-5.2-7.2,12.25,12.25,0,0,0-7.89-3.87,30.09,30.09,0,0,0-9.14,1.07c-3,.73-6.08,1.62-9.23,2.21a19.52,19.52,0,0,1-9.66-.18,32.92,32.92,0,0,1-8.53-4.93c-2.67-2-5.27-4-8.12-5.78s-6.08-3.07-9.44-2.69l-.63,0c-.21,0-.41.09-.61.13-.41.1-.83.17-1.23.29a19.88,19.88,0,0,0-2.36.92,31.78,31.78,0,0,0-4.44,2.57c-2.84,2-5.53,4.18-8.45,6.16a30.76,30.76,0,0,1-4.6,2.66,15.49,15.49,0,0,1-5.21,1.31,36.72,36.72,0,0,1-10.66-1.51A72.49,72.49,0,0,0,215,92.11a16.34,16.34,0,0,0-5.36.36,11.78,11.78,0,0,0-4.71,2.58c-2.76,2.41-4.68,5.65-6.6,8.83A61,61,0,0,1,192,113.3a15.82,15.82,0,0,1-4.5,3.57,25.6,25.6,0,0,1-5.45,1.86c-3.76.83-7.6,1.18-11.39,1.86S163,122.34,160.26,125a14.19,14.19,0,0,0-3,4.89,30.61,30.61,0,0,0-1.45,5.65c-.7,3.86-1,7.82-2,11.71a20.61,20.61,0,0,1-2.13,5.64,16.09,16.09,0,0,1-4,4.53c-3.16,2.54-6.75,4.42-10.19,6.52a46,46,0,0,0-4.95,3.44,16,16,0,0,0-3.88,4.52,11.72,11.72,0,0,0-1.4,5.76,30.18,30.18,0,0,0,.71,6c.84,4,2.11,7.93,2.79,12A20.84,20.84,0,0,1,131,202,16.93,16.93,0,0,1,129,208c-2.09,3.65-4.81,6.86-7.22,10.26a33.37,33.37,0,0,0-3.22,5.34,12.52,12.52,0,0,0,0,11.92,33.08,33.08,0,0,0,3.22,5.34c2.41,3.4,5.13,6.61,7.22,10.26A17.17,17.17,0,0,1,131,257a20.52,20.52,0,0,1-.2,6.26c-.67,4.11-1.94,8.05-2.79,12.05a30.74,30.74,0,0,0-.71,6,11.72,11.72,0,0,0,1.39,5.77,15.81,15.81,0,0,0,3.87,4.53,46,46,0,0,0,4.95,3.44c3.44,2.1,7,4,10.2,6.52a16.25,16.25,0,0,1,4,4.53,20,20,0,0,1,2.13,5.63c.94,3.9,1.26,7.86,2,11.72a31.45,31.45,0,0,0,1.46,5.65,14.21,14.21,0,0,0,2.95,4.9c2.77,2.69,6.67,3.76,10.41,4.44s7.63,1,11.39,1.86a25.87,25.87,0,0,1,5.46,1.86,16,16,0,0,1,4.5,3.57,61.68,61.68,0,0,1,6.27,9.42c1.92,3.18,3.84,6.42,6.6,8.83a11.81,11.81,0,0,0,4.7,2.58A16.42,16.42,0,0,0,215,367a73.82,73.82,0,0,0,10.61-2.23,36.46,36.46,0,0,1,10.67-1.52,15.62,15.62,0,0,1,5.21,1.32,31.27,31.27,0,0,1,4.6,2.66c2.92,2,5.6,4.21,8.45,6.15a30.78,30.78,0,0,0,4.43,2.58,20.57,20.57,0,0,0,2.36.92c.41.11.82.19,1.23.29l.62.13.62,0c3.37.38,6.61-1,9.45-2.69s5.45-3.82,8.11-5.78a33,33,0,0,1,8.54-4.93,19.64,19.64,0,0,1,9.66-.18c3.15.6,6.19,1.49,9.23,2.22a30.76,30.76,0,0,0,9.15,1.07,12.31,12.31,0,0,0,7.88-3.88,40.37,40.37,0,0,0,5.2-7.21c1.51-2.52,2.94-5.08,4.6-7.47a19,19,0,0,1,6.17-6,25.55,25.55,0,0,1,8-2.52c2.73-.49,5.44-.8,8.09-1.23a31.39,31.39,0,0,0,7.65-2.05,12,12,0,0,0,5.69-4.93,22.74,22.74,0,0,0,2.46-7.06c1-4.86,1.26-9.73,2.55-14.28a16.29,16.29,0,0,1,3.13-6.18,24.47,24.47,0,0,1,5.1-4.36c3.65-2.46,7.47-4.34,10.78-6.7a22.83,22.83,0,0,0,4.45-3.95,12,12,0,0,0,2.48-5.06,16.67,16.67,0,0,0,.15-5.45,42.4,42.4,0,0,0-.94-5.16c-.8-3.33-1.7-6.47-2.26-9.52a19.67,19.67,0,0,1,0-8.71,23.78,23.78,0,0,1,3.44-6.85c2.71-3.91,5.32-7,7-9.76a20.1,20.1,0,0,0,3-6.7,9.23,9.23,0,0,0,.26-1.86l.06-.63s0,.21,0,.63a9.72,9.72,0,0,1-.24,1.87,19.87,19.87,0,0,1-3,6.75c-1.71,2.78-4.3,5.88-7,9.79a23,23,0,0,0-3.39,6.81,19.28,19.28,0,0,0,0,8.62c.56,3,1.47,6.17,2.28,9.5a44.71,44.71,0,0,1,1,5.2,17.12,17.12,0,0,1-.15,5.52,12.28,12.28,0,0,1-2.52,5.18,23.28,23.28,0,0,1-4.49,4c-3.34,2.38-7.15,4.27-10.78,6.72a24.49,24.49,0,0,0-5,4.31,16,16,0,0,0-3.06,6.08c-1.27,4.5-1.55,9.36-2.53,14.25a22.76,22.76,0,0,1-2.49,7.17,12.33,12.33,0,0,1-5.84,5.08,31.64,31.64,0,0,1-7.73,2.08c-2.66.44-5.38.75-8.09,1.24a25.44,25.44,0,0,0-7.9,2.49,18.59,18.59,0,0,0-6,5.85c-1.64,2.37-3.07,4.92-4.59,7.46a40.4,40.4,0,0,1-5.24,7.28,12.66,12.66,0,0,1-8.14,4,30.43,30.43,0,0,1-9.28-1.07c-3.05-.73-6.09-1.61-9.21-2.2a19.26,19.26,0,0,0-9.45.17,32.66,32.66,0,0,0-8.41,4.87c-2.65,1.95-5.26,4.05-8.14,5.81-.75.4-1.46.87-2.24,1.2-.39.18-.77.37-1.16.53l-1.21.43a12.12,12.12,0,0,1-5.11.6l-.65-.05c-.21,0-.42-.09-.64-.13-.42-.1-.85-.18-1.26-.3a18.78,18.78,0,0,1-2.43-.94,31.54,31.54,0,0,1-4.5-2.61c-2.87-2-5.56-4.18-8.45-6.15a31.92,31.92,0,0,0-4.53-2.62,15.2,15.2,0,0,0-5.05-1.27,36.34,36.34,0,0,0-10.53,1.51A72.41,72.41,0,0,1,215,367.44a17,17,0,0,1-5.54-.37,12.32,12.32,0,0,1-4.9-2.68c-2.84-2.49-4.78-5.76-6.7-8.95a60.43,60.43,0,0,0-6.22-9.34,15.19,15.19,0,0,0-4.36-3.45,24.56,24.56,0,0,0-5.34-1.82c-3.72-.82-7.55-1.17-11.37-1.86a32,32,0,0,1-5.65-1.48,14.55,14.55,0,0,1-5-3.1,14.35,14.35,0,0,1-3.07-5.07,31.66,31.66,0,0,1-1.49-5.74c-.7-3.89-1-7.85-2-11.69a19.7,19.7,0,0,0-2.08-5.49,15.69,15.69,0,0,0-3.9-4.39c-3.1-2.49-6.68-4.37-10.13-6.48a46.76,46.76,0,0,1-5-3.48,16.41,16.41,0,0,1-4-4.69,12.17,12.17,0,0,1-1.44-6,29.52,29.52,0,0,1,.72-6.15c.85-4,2.12-8,2.78-12a19.91,19.91,0,0,0,.19-6.11,16.39,16.39,0,0,0-2-5.74c-2-3.6-4.76-6.79-7.19-10.22A35,35,0,0,1,118,235.7a13.1,13.1,0,0,1,0-12.36,34.13,34.13,0,0,1,3.28-5.42c2.43-3.43,5.14-6.62,7.18-10.21a16.49,16.49,0,0,0,2-5.75,20.89,20.89,0,0,0-.2-6.11c-.67-4-1.94-8-2.79-12a30.11,30.11,0,0,1-.71-6.14,12.18,12.18,0,0,1,1.45-6,16.7,16.7,0,0,1,4-4.68,45.36,45.36,0,0,1,5-3.48c3.45-2.11,7-4,10.13-6.48a15.65,15.65,0,0,0,3.89-4.39,19.86,19.86,0,0,0,2.07-5.5c.93-3.84,1.25-7.79,2-11.68a31.63,31.63,0,0,1,1.48-5.74,12.56,12.56,0,0,1,8.1-8.16,32,32,0,0,1,5.65-1.48c3.82-.69,7.65-1,11.37-1.85a26.07,26.07,0,0,0,5.34-1.82,15.36,15.36,0,0,0,4.35-3.46,60.43,60.43,0,0,0,6.22-9.34c1.92-3.19,3.86-6.46,6.71-8.94A12.24,12.24,0,0,1,209.46,92a17.24,17.24,0,0,1,5.54-.37,73.72,73.72,0,0,1,10.67,2.24,36,36,0,0,0,10.53,1.52,15.16,15.16,0,0,0,5-1.28,29.62,29.62,0,0,0,4.53-2.62c2.9-2,5.59-4.19,8.46-6.14a30.62,30.62,0,0,1,4.5-2.61,20.94,20.94,0,0,1,2.42-.95c.42-.12.85-.19,1.27-.29l.63-.14.65,0a12.28,12.28,0,0,1,5.11.6l1.21.43c.39.16.77.35,1.16.53.79.34,1.5.8,2.24,1.2,2.89,1.76,5.49,3.86,8.15,5.81a32.73,32.73,0,0,0,8.4,4.87,19.14,19.14,0,0,0,9.45.17c3.12-.58,6.16-1.46,9.21-2.19a30.75,30.75,0,0,1,9.28-1.08,12.7,12.7,0,0,1,8.14,4,40.67,40.67,0,0,1,5.25,7.29c1.52,2.53,2.94,5.09,4.58,7.45a18.53,18.53,0,0,0,6,5.86,25.18,25.18,0,0,0,7.9,2.49c2.71.49,5.43.8,8.09,1.24a32.09,32.09,0,0,1,7.73,2.08,12.39,12.39,0,0,1,5.85,5.07,23,23,0,0,1,2.49,7.17c1,4.89,1.26,9.75,2.52,14.25a16.23,16.23,0,0,0,3.06,6.08,24.24,24.24,0,0,0,5,4.32c3.63,2.45,7.45,4.34,10.78,6.72a23.28,23.28,0,0,1,4.49,4,12.32,12.32,0,0,1,2.53,5.17,17.17,17.17,0,0,1,.15,5.53,44.15,44.15,0,0,1-1,5.19c-.8,3.34-1.72,6.47-2.28,9.51a19.28,19.28,0,0,0,0,8.62,23,23,0,0,0,3.39,6.81c2.69,3.92,5.28,7,7,9.79a20,20,0,0,1,3,6.75,9.72,9.72,0,0,1,.24,1.87C412.9,229.32,412.9,229.54,412.9,229.54Z" style="fill: rgb(38, 50, 56); transform-origin: 264.675px 229.536px;" id="elb7bbrn5eoar" class="animable"></path><path d="M237,367c.14,0-3.55,15-8.24,33.42s-8.61,33.33-8.75,33.3,3.55-15,8.24-33.43S236.9,366.92,237,367Z" style="fill: rgb(38, 50, 56); transform-origin: 228.505px 400.36px;" id="elm67oi8kzq2r" class="animable"></path><circle cx="264.82" cy="229.54" r="90.78" style="fill: rgb(255, 255, 255); transform-origin: 264.82px 229.54px;" id="eltiz0kw8ymkd" class="animable"></circle><path d="M208.92,198.08c-1.25,1.25-8.13,13.77-8.76,24.1s.86,68.31.86,68.31l.27,3.85c16.34,19.11,75.74,47.55,129.24-.1h0l3-35.67-8.83-75.51L294,175.55l-7.19-11.65-47.92,11.22-4.28,10.1Z" style="fill: rgb(69, 90, 100); transform-origin: 266.767px 242.134px;" id="elexppmea3ufd" class="animable"></path><path d="M283.52,133.54c2.11-7.85,4.18-15.75,4.91-23.84s.06-16.45-3.16-23.91c-.49-1.13-4.54-8.68-5.76-8.49-.87.13,1.75,7.23,1.35,8-3.85,7.47-4.55,16.24-3.44,24.57a109.6,109.6,0,0,0,6.1,23.66" style="fill: rgb(38, 50, 56); transform-origin: 282.82px 105.418px;" id="elg0tvxdhesy4" class="animable"></path><path d="M282.72,102.54c-.38-20.37-12.56-37.12-32.91-36.17l-1.88.2a36.43,36.43,0,0,0-32.6,37.11c.44,17.65,1.14,37.15,2.25,46.53,2.29,19.41,22,20.39,22,20.39s.91,12.77.91,12.77l8.35,9.07,38.71-24Z" style="fill: rgb(255, 191, 157); transform-origin: 251.435px 129.386px;" id="el4gn0ex28ltp" class="animable"></path><path d="M239.63,170.75s12.33-.57,24.52-10.15c0,0-4.08,17.61-23.66,17.9Z" style="fill: rgb(255, 154, 108); transform-origin: 251.89px 169.55px;" id="elzcbmpglgqy" class="animable"></path><path d="M226.52,119.51a2.79,2.79,0,0,0,3,2.52,2.67,2.67,0,0,0,2.6-2.8,2.8,2.8,0,0,0-3-2.52A2.66,2.66,0,0,0,226.52,119.51Z" style="fill: rgb(38, 50, 56); transform-origin: 229.32px 119.37px;" id="elrfi1w1k66n9" class="animable"></path><path d="M220.34,111.31c.38.32,2.32-1.45,5.31-1.76s5.33,1,5.62.55c.14-.17-.28-.79-1.31-1.39a7.69,7.69,0,0,0-4.54-.89,7.4,7.4,0,0,0-4.18,1.85C220.39,110.48,220.15,111.16,220.34,111.31Z" style="fill: rgb(38, 50, 56); transform-origin: 225.787px 109.56px;" id="elo4md04q9bm" class="animable"></path><path d="M252.91,117.27a2.79,2.79,0,0,0,3,2.52,2.67,2.67,0,0,0,2.6-2.8,2.8,2.8,0,0,0-3-2.53A2.68,2.68,0,0,0,252.91,117.27Z" style="fill: rgb(38, 50, 56); transform-origin: 255.71px 117.125px;" id="el6ogixwtzpqi" class="animable"></path><path d="M249.73,109.43c.38.33,2.33-1.45,5.31-1.76s5.34,1,5.62.56c.14-.18-.27-.8-1.3-1.39a7.66,7.66,0,0,0-4.55-.89,7.3,7.3,0,0,0-4.18,1.85C249.79,108.6,249.55,109.29,249.73,109.43Z" style="fill: rgb(38, 50, 56); transform-origin: 255.18px 107.685px;" id="eldjhxro80jaj" class="animable"></path><path d="M241.43,133.52c0-.17-1.89-.3-4.94-.37-.77,0-1.51-.07-1.69-.58a3.84,3.84,0,0,1,.27-2.31l1.64-6c2.26-8.6,3.81-15.64,3.47-15.73s-2.47,6.81-4.73,15.42L233.91,130a4.41,4.41,0,0,0-.08,3,1.92,1.92,0,0,0,1.37,1,5.38,5.38,0,0,0,1.31,0C239.56,133.87,241.44,133.69,241.43,133.52Z" style="fill: rgb(38, 50, 56); transform-origin: 237.518px 121.285px;" id="elajyp7gogufj" class="animable"></path><path d="M250.44,134.66c-.49,0-.15,3.26-2.68,5.86s-6,2.6-6,3.06c0,.2.83.55,2.3.43a8.09,8.09,0,0,0,5-2.37,7.05,7.05,0,0,0,2-4.89C251.11,135.38,250.66,134.62,250.44,134.66Z" style="fill: rgb(38, 50, 56); transform-origin: 246.412px 139.346px;" id="elrwylyselq8" class="animable"></path><path d="M248.62,97.29c.38.78,3.32.08,6.87.14s6.49.71,6.87-.07c.17-.37-.4-1.08-1.63-1.75a12,12,0,0,0-10.47,0C249,96.21,248.45,96.92,248.62,97.29Z" style="fill: rgb(38, 50, 56); transform-origin: 255.49px 96.0744px;" id="eljtyhm2n12s" class="animable"></path><path d="M220.53,101.25c.59.62,2.58-.3,5.05-.6s4.62,0,5-.78c.18-.37-.22-1-1.2-1.56a7.38,7.38,0,0,0-8.13,1.11C220.47,100.21,220.26,100.94,220.53,101.25Z" style="fill: rgb(38, 50, 56); transform-origin: 225.52px 99.5116px;" id="elp0741fpxyso" class="animable"></path><path d="M282.65,117.11c.32-.18,12.94-5.36,13.92,8S284,136.65,283.91,136.27,282.65,117.11,282.65,117.11Z" style="fill: rgb(255, 191, 157); transform-origin: 289.635px 126.27px;" id="elbpu93potwe" class="animable"></path><path d="M287.61,130.92c.06,0,.24.14.65.29a2.32,2.32,0,0,0,1.74-.09c1.37-.62,2.39-2.94,2.28-5.35a7.63,7.63,0,0,0-.89-3.28,2.69,2.69,0,0,0-1.88-1.65,1.17,1.17,0,0,0-1.32.73c-.16.39-.05.65-.12.68s-.3-.21-.24-.76a1.51,1.51,0,0,1,.47-.88,1.76,1.76,0,0,1,1.26-.43,3.23,3.23,0,0,1,2.57,1.89,7.82,7.82,0,0,1,1.08,3.66c.11,2.69-1.08,5.31-3,6a2.49,2.49,0,0,1-2.15-.19C287.66,131.24,287.57,130.94,287.61,130.92Z" style="fill: rgb(255, 154, 108); transform-origin: 290.409px 126.033px;" id="el01p0us2y2nl2" class="animable"></path><path d="M222.54,81c-2.23-1.06,3.8-8.47,9-11.22,7.79-4.15,19.89-7.18,27.42-5.56,9.07,2,16.75,5.9,21.74,13.72s7.28,17.15,7.62,26.42c.1,2.83,0,5.79-1.36,8.27-1.67,3.07-5.13,5.16-4.71,9.22a5.55,5.55,0,0,1-1.12,4.16c-2.28,2.76-5.42.51-6.95-1.85-3.27-5-4-11.25-4.64-17.23-.46-4.24-.91-8.58,0-12.74.5-2.27,1.42-4.44,1.8-6.73s.15-4.84-1.37-6.6a8.12,8.12,0,0,0-1.16-1,13.93,13.93,0,0,0-14-1.74c-7.35,3.14-19.92,7.94-23.44,5.6C226.32,80.36,225,78,225,78Z" style="fill: rgb(38, 50, 56); transform-origin: 255.206px 95.5288px;" id="el8pzi1pqgsac" class="animable"></path><path d="M208.92,198.08c-.77,1.07-11.7,4.7-15.85,11.61s-8.25,37.93-8.25,37.93L182.18,268c5.2,8.22,12.18,19.11,19.58,26.79Z" style="fill: rgb(69, 90, 100); transform-origin: 195.55px 246.435px;" id="el7jdtwdc2i3c" class="animable"></path><g id="el1akyhqdglbi"><g style="opacity: 0.3; transform-origin: 312.29px 245.718px;" class="animable"><path d="M291.05,228a52.77,52.77,0,0,0,2.36,12.31c1.43,3.93,3.94,7.63,7.61,9.66,1.53.84,3.26,1.4,4.55,2.6s2.07,3.14,3.32,4.55a13.1,13.1,0,0,0,5.61,3.29,49.49,49.49,0,0,0,18.62,3c.2-2.14.21-10,.41-12.15Z" id="el2gtko1yhojp" class="animable" style="transform-origin: 312.29px 245.718px;"></path></g></g><path d="M324.7,183.06s13.78,4.08,17.82,9.95,11.19,28.63,12.66,32.85.18,14-2.57,21-7.53,13.09-15.78,14-21.29-3.85-24.23-7-4.15-10.12-4.15-10.12a77.34,77.34,0,0,0,10.81-2.71" style="fill: rgb(69, 90, 100); transform-origin: 332.122px 222.017px;" id="el89m297v08ee" class="animable"></path><path d="M319.26,241.1l-.17.07-.52.19c-.46.16-1.15.39-2.06.66a74.82,74.82,0,0,1-8,1.92l.11-.15a33,33,0,0,0,1.41,5.05,20,20,0,0,0,1.19,2.71,9.53,9.53,0,0,0,1.85,2.51,13.42,13.42,0,0,0,2.78,1.84,33.4,33.4,0,0,0,3.25,1.49,52.3,52.3,0,0,0,7.32,2.32,36.55,36.55,0,0,0,8.22,1.05,19.63,19.63,0,0,0,2.16-.1,17.94,17.94,0,0,0,2.15-.38,14.89,14.89,0,0,0,4.14-1.61,18.64,18.64,0,0,0,6.57-6.41,34.1,34.1,0,0,0,3.9-8.86,50.28,50.28,0,0,0,1.59-7.33,34.94,34.94,0,0,0,.36-7.26,12.78,12.78,0,0,0-.71-3.42q-.57-1.68-1.11-3.33l-2.15-6.43c-1.42-4.18-2.82-8.13-4.22-11.8a73.36,73.36,0,0,0-4.43-9.93,11.68,11.68,0,0,0-3.12-3.48,26.13,26.13,0,0,0-3.5-2.35,54.89,54.89,0,0,0-6.11-3c-1.72-.71-3.08-1.21-4-1.54l-1.05-.37a1.76,1.76,0,0,1-.36-.14,1.74,1.74,0,0,1,.37.09l1.07.32c.94.3,2.32.77,4.06,1.45a54.94,54.94,0,0,1,6.17,2.89,27,27,0,0,1,3.57,2.35,12,12,0,0,1,3.22,3.55,71.89,71.89,0,0,1,4.52,10c1.43,3.66,2.84,7.62,4.27,11.8.71,2.09,1.43,4.24,2.17,6.43.37,1.09.74,2.2,1.11,3.32a13.22,13.22,0,0,1,.75,3.54,35.16,35.16,0,0,1-.35,7.37,51.39,51.39,0,0,1-1.61,7.41,34.28,34.28,0,0,1-4,9,19.05,19.05,0,0,1-6.76,6.57,15.48,15.48,0,0,1-4.27,1.65,19,19,0,0,1-2.21.39c-.74,0-1.48.13-2.2.1a37.22,37.22,0,0,1-8.33-1.1,51.45,51.45,0,0,1-7.38-2.37,33.92,33.92,0,0,1-3.27-1.53,13.85,13.85,0,0,1-2.86-1.91,9.88,9.88,0,0,1-1.9-2.63,20.23,20.23,0,0,1-1.19-2.75,34.9,34.9,0,0,1-1.37-5.13l0-.13.13,0c3.52-.61,6.22-1.3,8.05-1.8l2.08-.59.53-.15C319.2,241.1,319.26,241.09,319.26,241.1Z" style="fill: rgb(38, 50, 56); transform-origin: 332.209px 222.137px;" id="elgxw6kbdlzzg" class="animable"></path><path d="M344.55,233.73c-.1,0-.42-1.7-1.57-4.24a29.42,29.42,0,0,0-6.22-8.83,20.86,20.86,0,0,0-4.84-3.44l-1.21-.54c-.4-.18-.82-.26-1.2-.39a11.33,11.33,0,0,0-2.21-.46l-.5-.07h-1.36a7,7,0,0,0-1.4.12,6.67,6.67,0,0,1-1.22.13,5.12,5.12,0,0,1,1.18-.33,5.55,5.55,0,0,1,1.43-.21l.9,0,.49,0,.52.06a11.26,11.26,0,0,1,2.29.4,12.5,12.5,0,0,1,1.24.38l1.26.54a20.15,20.15,0,0,1,5,3.5,27.2,27.2,0,0,1,6.19,9.06,16.14,16.14,0,0,1,.66,1.78,12.08,12.08,0,0,1,.38,1.39A6.11,6.11,0,0,1,344.55,233.73Z" style="fill: rgb(38, 50, 56); transform-origin: 333.685px 224.6px;" id="eladsme8wgtvl" class="animable"></path><path d="M352.07,221.36a26.41,26.41,0,0,0-2.08-4.19,16.39,16.39,0,0,0-8.78-6.65c-4.23-1.29-8.34-.89-11.21-.62l-3.43.41a6.92,6.92,0,0,1-1.26.11,5.07,5.07,0,0,1,1.23-.31c.8-.16,2-.37,3.42-.57a26.73,26.73,0,0,1,11.4.48,15.68,15.68,0,0,1,5.56,3A16.15,16.15,0,0,1,350.3,217a14.08,14.08,0,0,1,1.47,3.15A5.41,5.41,0,0,1,352.07,221.36Z" style="fill: rgb(38, 50, 56); transform-origin: 338.69px 215.25px;" id="elfvk2wvlswvb" class="animable"></path><path d="M341.68,206.57a30.49,30.49,0,0,0-16.3.64,7.74,7.74,0,0,1,2.25-1,23.1,23.1,0,0,1,5.83-1,23.37,23.37,0,0,1,5.89.54A8.29,8.29,0,0,1,341.68,206.57Z" style="fill: rgb(38, 50, 56); transform-origin: 333.53px 206.203px;" id="el70uxf1zhit9" class="animable"></path><path d="M319.38,186.5c.08,0-.12,1.41-.28,3.67a55,55,0,0,0,1.48,17.24l-.36.12c-.41-1.15-.73-2.09-.94-2.75a4.62,4.62,0,0,1-.28-1,4.18,4.18,0,0,1,.48,1c.27.63.64,1.55,1.1,2.69l-.36.11a45.21,45.21,0,0,1-1.57-8.47,46,46,0,0,1,.08-8.91c.13-1.13.28-2,.4-2.67A3.71,3.71,0,0,1,319.38,186.5Z" style="fill: rgb(38, 50, 56); transform-origin: 319.526px 197.04px;" id="elfzrquwjwvf6" class="animable"></path><path d="M299.89,160.85s-7.15,0-8.05,8.59c-.69,6.6,0,13,0,15.9s-1.27,13.17-1.27,13.17-4.88,4.33-4.8,9.53,3.8,6.82,3.8,6.82a8.83,8.83,0,0,0,2.06,9.5s-2.07,4.79-.37,8a7.69,7.69,0,0,0,4.3,3.33,4.87,4.87,0,0,0,3,6.71,21.08,21.08,0,0,0,7.43.91l5.34-.1,4.7,2.6s8.06-3.51,8.26-8.26l.21-4.75S322.19,225,322,222.5s1.86-8.47.62-11.15-5.57-4.26-5.16-8-.41-5.82-2.27-7.89-10.07-6.19-10.07-6.19-2.11-6-2.11-10.11S307.12,162.42,299.89,160.85Z" style="fill: rgb(255, 191, 157); transform-origin: 305.135px 203.33px;" id="el40vgn002sx8" class="animable"></path><path d="M304.71,190.83a10.21,10.21,0,0,1-2,1.28c-1.26.74-3,1.72-5,2.78s-3.74,2-5,2.65a10.83,10.83,0,0,1-2.16,1,9.92,9.92,0,0,1,2-1.29c1.26-.74,3-1.72,5-2.78s3.74-2,5-2.65A10.36,10.36,0,0,1,304.71,190.83Z" style="fill: rgb(255, 154, 108); transform-origin: 297.63px 194.685px;" id="el40f16rpugz4" class="animable"></path><path d="M309.41,207s-.2.23-.63.56a21.87,21.87,0,0,1-1.86,1.31,36.6,36.6,0,0,1-6.7,3.38,37.34,37.34,0,0,1-7.25,2c-1,.15-1.73.24-2.26.27a2.28,2.28,0,0,1-.84,0c0-.08,1.16-.24,3-.63a48.44,48.44,0,0,0,7.13-2.08,47.19,47.19,0,0,0,6.7-3.22A30.8,30.8,0,0,1,309.41,207Z" style="fill: rgb(255, 154, 108); transform-origin: 299.64px 210.78px;" id="el9a3wfdkxirj" class="animable"></path><path d="M315.55,201.85c.13.05-.14,1-1,1.73s-1.78.95-1.81.82.71-.51,1.46-1.21S315.41,201.79,315.55,201.85Z" style="fill: rgb(255, 154, 108); transform-origin: 314.16px 203.141px;" id="el1x4zbor4t41" class="animable"></path><path d="M312.6,221.15a15.89,15.89,0,0,1-3,1.1,59.21,59.21,0,0,1-7.5,1.71,56.76,56.76,0,0,1-7.66.72,14.76,14.76,0,0,1-3.19-.1,26.74,26.74,0,0,1,3.17-.26c2-.14,4.65-.4,7.6-.87s5.58-1.08,7.48-1.56A27.31,27.31,0,0,1,312.6,221.15Z" style="fill: rgb(255, 154, 108); transform-origin: 301.925px 222.937px;" id="elohtejxf4t2d" class="animable"></path><path d="M319.14,220a13.24,13.24,0,0,1,.55-1.53,9.08,9.08,0,0,0,.39-3.79,8.8,8.8,0,0,0-1.28-3.59,13.31,13.31,0,0,1-.89-1.36c0-.05.57.32,1.2,1.15a7.87,7.87,0,0,1,.92,7.72C319.62,219.51,319.19,220,319.14,220Z" style="fill: rgb(255, 154, 108); transform-origin: 319.278px 214.863px;" id="elfeskx31jmdk" class="animable"></path><path d="M313,235.63a10.8,10.8,0,0,1-2.54.6,40.11,40.11,0,0,1-6.28.49,38.4,38.4,0,0,1-6.29-.53,10.62,10.62,0,0,1-2.54-.61,16.56,16.56,0,0,1,2.59.25,58.64,58.64,0,0,0,6.24.37,59.49,59.49,0,0,0,6.23-.34A16.29,16.29,0,0,1,313,235.63Z" style="fill: rgb(255, 154, 108); transform-origin: 304.175px 236.15px;" id="elqwk7o64yrt" class="animable"></path><path d="M300.28,179.26c0,.06-.33.33-1,.57a6.29,6.29,0,0,1-5.34-.64c-.6-.39-.88-.73-.84-.78a13.21,13.21,0,0,0,3.5,1.18A13,13,0,0,0,300.28,179.26Z" style="fill: rgb(255, 154, 108); transform-origin: 296.688px 179.282px;" id="el46utvf5koop" class="animable"></path><path d="M320.62,220.57a2,2,0,0,1,.12.77,9,9,0,0,1-.25,2.11c-.19.87-.52,1.88-.84,3a8.46,8.46,0,0,0-.37,3.64c.17,1.27,1.12,2.29,1.27,3.58a4.73,4.73,0,0,1-.79,3.09,10.58,10.58,0,0,1-1.29,1.68c-.34.37-.55.55-.58.53s.69-.88,1.55-2.39a4.52,4.52,0,0,0,.63-2.84c-.12-1.09-1.08-2.11-1.31-3.56a8.62,8.62,0,0,1,.43-3.86c.35-1.13.71-2.12.94-3A19,19,0,0,0,320.62,220.57Z" style="fill: rgb(255, 154, 108); transform-origin: 319.315px 229.771px;" id="elxxtifmm49q" class="animable"></path><path d="M323.31,226.85a3.13,3.13,0,0,1,.34.94c.18.61.42,1.51.64,2.63a24.08,24.08,0,0,1,.48,4,10.8,10.8,0,0,1-.9,4.9,14.12,14.12,0,0,1-3.08,3.91,27.6,27.6,0,0,1-3.17,2.49c-.95.65-1.75,1.13-2.31,1.44a3.67,3.67,0,0,1-.89.44c-.05-.07,1.15-.83,3-2.18a31.19,31.19,0,0,0,3.06-2.54,14.15,14.15,0,0,0,2.94-3.79,10.77,10.77,0,0,0,.89-4.67,27.1,27.1,0,0,0-.36-3.95C323.56,228.24,323.23,226.87,323.31,226.85Z" style="fill: rgb(38, 50, 56); transform-origin: 319.601px 237.225px;" id="elwxb7t496zfr" class="animable"></path><path d="M247.86,193.56a6.82,6.82,0,0,1-1.16-.86l-3-2.51-2.08-1.75a5.69,5.69,0,0,0-1.18-.85,1.47,1.47,0,0,0-1.34,0c-.86.45-1.44,1.55-2.17,2.47s-1.45,2-2.21,3c-1.2,1.62-2.37,3.17-3.44,4.61l-.65.86.21-1.06a51.77,51.77,0,0,1,2.49-8.72c.4-1,.76-1.86,1-2.41a3.56,3.56,0,0,1,.45-.83,5,5,0,0,1-.29.89c-.21.57-.52,1.4-.88,2.46a60.73,60.73,0,0,0-2.29,8.71l-.45-.2,3.43-4.62,2.21-3,1.06-1.41a3.73,3.73,0,0,1,1.32-1.2,2,2,0,0,1,1.75.07,6.16,6.16,0,0,1,1.25.93l2,1.8,2.92,2.63A9.14,9.14,0,0,1,247.86,193.56Z" style="fill: rgb(38, 50, 56); transform-origin: 239.245px 192.02px;" id="el9jdn725zc1f" class="animable"></path><path d="M290.08,185.11a2.25,2.25,0,0,1-.39.35l-1.18.92-4.41,3.31-14.71,10.83-.22.16-.15-.23c-.12-.18-.24-.38-.37-.57l-7.38-11.66.27.09a54.25,54.25,0,0,0-8.2,4.09c-.94.57-1.67,1-2.17,1.37a4.41,4.41,0,0,1-.78.47,4.37,4.37,0,0,1,.7-.59c.48-.35,1.19-.86,2.12-1.47a49.11,49.11,0,0,1,8.16-4.28l.17-.07.1.15c2.17,3.37,4.72,7.36,7.45,11.62.13.19.25.39.37.57l-.38-.07,14.81-10.7,4.5-3.19,1.24-.84C289.92,185.18,290.07,185.09,290.08,185.11Z" style="fill: rgb(38, 50, 56); transform-origin: 270.235px 192.894px;" id="el6n7hrgano7n" class="animable"></path><path d="M200.33,224.88a3.2,3.2,0,0,1,.06.7c0,.52,0,1.19.05,2,0,1.81.09,4.34.14,7.44.12,6.28.37,15,.7,24.55s.52,18.27.54,24.56c0,3.15,0,5.69,0,7.45,0,.83,0,1.51-.05,2a3.08,3.08,0,0,1-.05.71,5.79,5.79,0,0,1,0-.71c0-.51,0-1.19-.06-2,0-1.82-.08-4.35-.14-7.44-.11-6.29-.37-15-.69-24.56s-.52-18.27-.54-24.56c0-3.14,0-5.69,0-7.44,0-.84,0-1.51,0-2A5.47,5.47,0,0,1,200.33,224.88Z" style="fill: rgb(38, 50, 56); transform-origin: 201.055px 259.585px;" id="el5bcyz2h7z8s" class="animable"></path><path d="M248.19,315.2a1,1,0,0,1-.06-.28c0-.22,0-.5-.09-.85-.08-.79-.19-1.88-.32-3.27-.28-2.84-.6-7-.92-12.05s-.59-11.17-.76-17.91-.19-14.17,0-22,.54-15.2,1-21.93,1-12.79,1.54-17.86,1-9.18,1.44-12c.2-1.39.35-2.47.46-3.25.06-.35.1-.63.14-.85a.9.9,0,0,1,.06-.28.91.91,0,0,1,0,.29c0,.22-.05.5-.08.85-.09.78-.21,1.87-.37,3.26-.34,2.84-.78,6.94-1.27,12s-1,11.13-1.43,17.86-.76,14.14-.94,21.92-.13,15.19,0,21.93.38,12.8.66,17.89.53,9.22.75,12.06c.09,1.39.17,2.49.22,3.28,0,.35,0,.63.05.85A2.13,2.13,0,0,1,248.19,315.2Z" style="fill: rgb(38, 50, 56); transform-origin: 248.298px 258.935px;" id="elf4w8yrewf3" class="animable"></path><path d="M218.39,151.52l-1.06.7-3.12,2c-1.38.89-3,2.16-4.9,3.56-1,.72-1.92,1.59-3,2.47l-1.63,1.37c-.56.48-1.09,1-1.66,1.55a90,90,0,0,0-14.46,17.37l-1.78,2.86c-.63.95-1.11,2-1.69,3s-1.15,2.08-1.67,3.18-1,2.23-1.54,3.37c-.25.57-.53,1.13-.77,1.72s-.45,1.19-.68,1.8c-.45,1.2-.93,2.41-1.37,3.66-.74,2.53-1.68,5.09-2.24,7.82a91.74,91.74,0,0,0-1.4,36.07A90.54,90.54,0,0,0,319.8,301.43a95.66,95.66,0,0,0,8.94-7.8l2-2.12c.68-.7,1.34-1.41,2-2.16l1.9-2.19c.6-.76,1.19-1.52,1.79-2.27A89.75,89.75,0,0,0,354,245a92.47,92.47,0,0,0,1.19-10.2c.1-1.69.1-3.36.16-5s-.12-3.31-.18-4.94c0-.81-.07-1.63-.1-2.44s-.18-1.6-.26-2.4c-.2-1.59-.39-3.17-.58-4.73s-.6-3.08-.9-4.6a41.47,41.47,0,0,0-1-4.47l-1.24-4.33a18.34,18.34,0,0,0-.71-2.09c-.26-.69-.52-1.38-.77-2.06-.53-1.35-1-2.73-1.57-4s-1.19-2.56-1.78-3.81A89.74,89.74,0,0,0,329,165.53a94.28,94.28,0,0,0-17.82-13.89l-3.82-2.19a18.84,18.84,0,0,0-1.78-.92l-1.68-.8-3-1.42c-.9-.46-1.79-.72-2.54-1l-3.48-1.34-1.18-.48,1.2.43,3.49,1.3c.76.3,1.65.56,2.56,1l3,1.4,1.69.8a18.74,18.74,0,0,1,1.79.9l3.83,2.18a93.3,93.3,0,0,1,17.93,13.86,89.83,89.83,0,0,1,17.38,24.41c.59,1.27,1.19,2.54,1.8,3.84s1,2.67,1.58,4l.78,2.06a18.5,18.5,0,0,1,.71,2.1c.42,1.44.84,2.88,1.26,4.35a41.3,41.3,0,0,1,1.05,4.49c.3,1.52.66,3,.92,4.61s.38,3.16.58,4.76c.09.8.22,1.6.27,2.41s.07,1.63.1,2.45c.06,1.64.15,3.29.19,5s-.05,3.35-.16,5a90.33,90.33,0,0,1-18.83,50.35L335,287.47l-1.92,2.21c-.62.75-1.29,1.47-2,2.17l-2,2.14a95.24,95.24,0,0,1-9,7.84A91,91,0,0,1,175,244.17a87.91,87.91,0,0,1-1-18.93,86.77,86.77,0,0,1,2.51-17.3c.56-2.74,1.51-5.3,2.25-7.85.45-1.24.94-2.46,1.4-3.67.23-.6.46-1.2.68-1.8s.53-1.15.78-1.73c.53-1.14,1-2.26,1.55-3.37s1.14-2.14,1.69-3.19,1.07-2.09,1.7-3.05l1.8-2.86a88.39,88.39,0,0,1,14.57-17.35c.57-.53,1.1-1.07,1.66-1.55l1.64-1.37c1.08-.87,2-1.73,3-2.45,1.95-1.4,3.55-2.65,4.94-3.53l3.15-2C218,151.73,218.39,151.52,218.39,151.52Z" style="fill: rgb(38, 50, 56); transform-origin: 264.843px 232.012px;" id="el5nlpoxg80pf" class="animable"></path></g><defs>     <filter id="active" height="200%">         <feMorphology in="SourceAlpha" result="DILATED" operator="dilate" radius="2"></feMorphology>                <feFlood flood-color="#32DFEC" flood-opacity="1" result="PINK"></feFlood>        <feComposite in="PINK" in2="DILATED" operator="in" result="OUTLINE"></feComposite>        <feMerge>            <feMergeNode in="OUTLINE"></feMergeNode>            <feMergeNode in="SourceGraphic"></feMergeNode>        </feMerge>    </filter>    <filter id="hover" height="200%">        <feMorphology in="SourceAlpha" result="DILATED" operator="dilate" radius="2"></feMorphology>                <feFlood flood-color="#ff0000" flood-opacity="0.5" result="PINK"></feFlood>        <feComposite in="PINK" in2="DILATED" operator="in" result="OUTLINE"></feComposite>        <feMerge>            <feMergeNode in="OUTLINE"></feMergeNode>            <feMergeNode in="SourceGraphic"></feMergeNode>        </feMerge>            <feColorMatrix type="matrix" values="0   0   0   0   0                0   1   0   0   0                0   0   0   0   0                0   0   0   1   0 "></feColorMatrix>    </filter></defs></svg>