<svg class="animated" id="freepik_stories-sleep-analysis" xmlns="http://www.w3.org/2000/svg" viewBox="0 0 500 500" version="1.1" xmlns:xlink="http://www.w3.org/1999/xlink" xmlns:svgjs="http://svgjs.com/svgjs"><style>svg#freepik_stories-sleep-analysis:not(.animated) .animable {opacity: 0;}svg#freepik_stories-sleep-analysis.animated #freepik--Floor--inject-2 {animation: 1s 1 forwards cubic-bezier(.36,-0.01,.5,1.38) zoomIn;animation-delay: 0s;}svg#freepik_stories-sleep-analysis.animated #freepik--Shadows--inject-2 {animation: 1s 1 forwards cubic-bezier(.36,-0.01,.5,1.38) slideRight;animation-delay: 0s;}svg#freepik_stories-sleep-analysis.animated #freepik--Window--inject-2 {animation: 1s 1 forwards cubic-bezier(.36,-0.01,.5,1.38) zoomOut;animation-delay: 0s;}svg#freepik_stories-sleep-analysis.animated #freepik--Nightstand--inject-2 {animation: 1s 1 forwards cubic-bezier(.36,-0.01,.5,1.38) slideUp;animation-delay: 0s;}svg#freepik_stories-sleep-analysis.animated #freepik--character-on-bed--inject-2 {animation: 1s 1 forwards cubic-bezier(.36,-0.01,.5,1.38) slideDown;animation-delay: 0s;}svg#freepik_stories-sleep-analysis.animated #freepik--nightstand--inject-2 {animation: 1s 1 forwards cubic-bezier(.36,-0.01,.5,1.38) slideUp;animation-delay: 0s;}svg#freepik_stories-sleep-analysis.animated #freepik--Device--inject-2 {animation: 1s 1 forwards cubic-bezier(.36,-0.01,.5,1.38) slideLeft;animation-delay: 0s;}svg#freepik_stories-sleep-analysis.animated #freepik--speech-bubble--inject-2 {animation: 1s 1 forwards cubic-bezier(.36,-0.01,.5,1.38) slideLeft;animation-delay: 0s;}            @keyframes zoomIn {                0% {                    opacity: 0;                    transform: scale(0.5);                }                100% {                    opacity: 1;                    transform: scale(1);                }            }                    @keyframes slideRight {                0% {                    opacity: 0;                    transform: translateX(30px);                }                100% {                    opacity: 1;                    transform: translateX(0);                }            }                    @keyframes zoomOut {                0% {                    opacity: 0;                    transform: scale(1.5);                }                100% {                    opacity: 1;                    transform: scale(1);                }            }                    @keyframes slideUp {                0% {                    opacity: 0;                    transform: translateY(30px);                }                100% {                    opacity: 1;                    transform: inherit;                }            }                    @keyframes slideDown {                0% {                    opacity: 0;                    transform: translateY(-30px);                }                100% {                    opacity: 1;                    transform: translateY(0);                }            }                    @keyframes slideLeft {                0% {                    opacity: 0;                    transform: translateX(-30px);                }                100% {                    opacity: 1;                    transform: translateX(0);                }            }        </style><g id="freepik--Floor--inject-2" class="animable" style="transform-origin: 250px 344.42px;"><ellipse id="freepik--floor--inject-2" cx="250" cy="344.42" rx="239.76" ry="138.42" style="fill: rgb(245, 245, 245); transform-origin: 250px 344.42px;" class="animable"></ellipse></g><g id="freepik--Shadows--inject-2" class="animable" style="transform-origin: 250.388px 351.2px;"><path id="freepik--Shadow--inject-2" d="M330.56,464.79l137.57-79.43c2.39-1.38,2.39-3.62,0-5L220.88,237.61a9.57,9.57,0,0,0-8.66,0L74.66,317.05c-2.39,1.38-2.39,3.62,0,5L321.9,464.79A9.57,9.57,0,0,0,330.56,464.79Z" style="fill: rgb(224, 224, 224); transform-origin: 271.395px 351.2px;" class="animable"></path><path id="freepik--shadow--inject-2" d="M131.39,353.58,86.88,327.83a4.79,4.79,0,0,0-4.33,0l-50.8,29.33a1.32,1.32,0,0,0,0,2.5l44.51,25.75a4.76,4.76,0,0,0,4.33,0l50.8-29.34A1.32,1.32,0,0,0,131.39,353.58Z" style="fill: rgb(224, 224, 224); transform-origin: 81.5628px 356.622px;" class="animable"></path></g><g id="freepik--Window--inject-2" class="animable" style="transform-origin: 395.28px 134.175px;"><g id="freepik--window--inject-2" class="animable" style="transform-origin: 395.28px 134.175px;"><g id="freepik--window--inject-2" class="animable" style="transform-origin: 395.28px 134.175px;"><polygon points="448.09 209.47 444.03 211.81 342.48 153.19 346.54 150.84 448.09 209.47" style="fill: rgb(243, 114, 12); transform-origin: 395.285px 181.325px;" id="elmo5k8gd789g" class="animable"></polygon><polygon points="346.54 150.84 444.03 207.12 444.02 117.51 346.54 61.23 346.54 150.84" style="fill: rgb(55, 71, 79); transform-origin: 395.285px 134.175px;" id="el4gwsvidjezq" class="animable"></polygon><polygon points="393.25 85.86 393.25 180.16 389.19 177.81 389.19 83.51 393.25 85.86" style="fill: rgb(243, 114, 12); transform-origin: 391.22px 131.835px;" id="elkwj2tsfquo" class="animable"></polygon><g id="elhenkdxd89tv"><polygon points="393.25 85.86 393.25 180.16 389.19 177.81 389.19 83.51 393.25 85.86" style="opacity: 0.2; transform-origin: 391.22px 131.835px;" class="animable"></polygon></g><polygon points="395.28 84.68 393.25 85.86 393.25 180.16 395.28 178.98 395.28 84.68" style="fill: rgb(243, 114, 12); transform-origin: 394.265px 132.42px;" id="elcj2uaph6qoe" class="animable"></polygon><g id="elnduov2v0un"><polygon points="395.28 84.68 393.25 85.86 393.25 180.16 395.28 178.98 395.28 84.68" style="opacity: 0.3; transform-origin: 394.265px 132.42px;" class="animable"></polygon></g><polygon points="393.25 85.86 389.19 83.51 391.22 82.33 395.28 84.68 393.25 85.86" style="fill: rgb(250, 250, 250); transform-origin: 392.235px 84.095px;" id="el8hu9epa7lw8" class="animable"></polygon><path d="M338.41,155.53l109.68,63.32V115.17L338.41,51.85Zm4.07-96.65L444,117.51v94.3L342.48,153.18Z" style="fill: rgb(243, 114, 12); transform-origin: 393.25px 135.35px;" id="elcllfl3mf2uh" class="animable"></path><g id="el2ixjlw9t4bl"><path d="M338.41,155.53l109.68,63.32V115.17L338.41,51.85Zm4.07-96.65L444,117.51v94.3L342.48,153.18Z" style="opacity: 0.2; transform-origin: 393.25px 135.35px;" class="animable"></path></g><polygon points="342.48 153.19 346.54 150.84 346.54 61.23 342.48 58.88 342.48 153.19" style="fill: rgb(243, 114, 12); transform-origin: 344.51px 106.035px;" id="eltx1yhegxfgf" class="animable"></polygon><g id="elpt335s80x0d"><polygon points="342.48 153.19 346.54 150.84 346.54 61.23 342.48 58.88 342.48 153.19" style="opacity: 0.3; transform-origin: 344.51px 106.035px;" class="animable"></polygon></g><polygon points="338.41 51.85 342.48 49.5 452.15 112.82 448.09 115.17 338.41 51.85" style="fill: rgb(243, 114, 12); transform-origin: 395.28px 82.335px;" id="elhexjtn6wblj" class="animable"></polygon><polygon points="452.15 112.82 448.09 115.17 448.09 218.85 452.15 216.5 452.15 112.82" style="fill: rgb(243, 114, 12); transform-origin: 450.12px 165.835px;" id="el0xmmwxhl2z6" class="animable"></polygon><g id="elfcufq0iy6dq"><polygon points="452.15 112.82 448.09 115.17 448.09 218.85 452.15 216.5 452.15 112.82" style="opacity: 0.3; transform-origin: 450.12px 165.835px;" class="animable"></polygon></g><g id="elg3m8v43ob67"><polygon points="393.25 88.2 389.2 85.86 389.2 88.2 393.25 90.54 393.25 88.2" style="opacity: 0.1; transform-origin: 391.225px 88.2px;" class="animable"></polygon></g><g id="el5e3ecvvp6vd"><polygon points="393.25 90.54 395.28 89.37 393.25 88.2 393.25 90.54" style="opacity: 0.1; transform-origin: 394.265px 89.37px;" class="animable"></polygon></g></g><g id="el3iqnpxqvurh"><g style="opacity: 0.6; transform-origin: 433.522px 148.992px;" class="animable"><path d="M431.76,146.28a.55.55,0,0,1,.31.71.55.55,0,0,1-1-.4A.55.55,0,0,1,431.76,146.28Z" style="fill: rgb(255, 255, 255); transform-origin: 431.584px 146.743px;" id="el4l510icf4dh" class="animable"></path><path d="M435.28,149.61a1.1,1.1,0,1,1-1.42.62A1.09,1.09,0,0,1,435.28,149.61Z" style="fill: rgb(255, 255, 255); transform-origin: 434.882px 150.634px;" id="elbu75h08u4vn" class="animable"></path></g></g><g id="eldzjjglxuwh"><g style="opacity: 0.6; transform-origin: 379.077px 102.101px;" class="animable"><path d="M377.3,99.37a.56.56,0,0,1,.31.72.56.56,0,0,1-.72.31.55.55,0,0,1,.41-1Z" style="fill: rgb(255, 255, 255); transform-origin: 377.144px 99.9038px;" id="el51u77qz31wb" class="animable"></path><path d="M380.82,102.71a1.1,1.1,0,1,1-1.43.62A1.09,1.09,0,0,1,380.82,102.71Z" style="fill: rgb(255, 255, 255); transform-origin: 380.414px 103.731px;" id="elyqq6rmc4x7" class="animable"></path></g></g><g id="elsirho8f0d5l"><path d="M380.82,129.2a1.1,1.1,0,1,1-1.43.62A1.11,1.11,0,0,1,380.82,129.2Z" style="fill: rgb(255, 255, 255); opacity: 0.6; transform-origin: 380.414px 130.224px;" class="animable"></path></g><g id="elpga4nthc3a"><g style="opacity: 0.3; transform-origin: 362.783px 113.562px;" class="animable"><path d="M366.05,112.46a1.16,1.16,0,1,1-1.16-1.16A1.15,1.15,0,0,1,366.05,112.46Z" style="fill: rgb(255, 255, 255); transform-origin: 364.89px 112.46px;" id="elvwzg0xm93vm" class="animable"></path><path d="M362.59,115.62a.69.69,0,1,1-.69-.69A.69.69,0,0,1,362.59,115.62Z" style="fill: rgb(255, 255, 255); transform-origin: 361.9px 115.62px;" id="el03gebh0ii5yk" class="animable"></path><path d="M360.63,111.3a.56.56,0,1,1-1.11,0,.56.56,0,0,1,1.11,0Z" style="fill: rgb(255, 255, 255); transform-origin: 360.075px 111.375px;" id="el2ndutbvvxns" class="animable"></path></g></g><g id="el9wz2v6eplp8"><g style="opacity: 0.3; transform-origin: 431.958px 127.605px;" class="animable"><path d="M433.83,130.9a1.15,1.15,0,0,1-1.37-.88,1.16,1.16,0,1,1,1.37.88Z" style="fill: rgb(255, 255, 255); transform-origin: 433.592px 129.766px;" id="elfm13kypq42s" class="animable"></path><path d="M430,128.2a.69.69,0,1,1-.29-1.35.69.69,0,1,1,.29,1.35Z" style="fill: rgb(255, 255, 255); transform-origin: 429.855px 127.525px;" id="elfl5xq5h2jgq" class="animable"></path><path d="M433.81,125.37a.56.56,0,0,1-.66-.43.55.55,0,1,1,.66.43Z" style="fill: rgb(255, 255, 255); transform-origin: 433.69px 124.832px;" id="ellklxb6sqhkh" class="animable"></path></g></g><g id="el2hrezistyi8"><g style="opacity: 0.3; transform-origin: 405.058px 108.117px;" class="animable"><path d="M408.36,107.05a1.16,1.16,0,1,1-1.16-1.16A1.16,1.16,0,0,1,408.36,107.05Z" style="fill: rgb(255, 255, 255); transform-origin: 407.2px 107.05px;" id="elnay0y1bpneh" class="animable"></path><path d="M404.9,110.21a.69.69,0,1,1-.69-.69A.69.69,0,0,1,404.9,110.21Z" style="fill: rgb(255, 255, 255); transform-origin: 404.21px 110.21px;" id="elu6otx7dhw7" class="animable"></path><path d="M402.94,105.89a.55.55,0,0,1-.55.56.56.56,0,1,1,0-1.11A.55.55,0,0,1,402.94,105.89Z" style="fill: rgb(255, 255, 255); transform-origin: 402.348px 105.895px;" id="elkmaglq788ne" class="animable"></path></g></g><g id="el25k715ee31j"><g style="opacity: 0.3; transform-origin: 357.103px 83.0375px;" class="animable"><path d="M360.39,82a1.16,1.16,0,1,1-1.16-1.16A1.16,1.16,0,0,1,360.39,82Z" style="fill: rgb(255, 255, 255); transform-origin: 359.23px 82px;" id="elk8ov5tx0ek" class="animable"></path><path d="M356.93,85.13a.69.69,0,1,1-.69-.69A.69.69,0,0,1,356.93,85.13Z" style="fill: rgb(255, 255, 255); transform-origin: 356.24px 85.13px;" id="el7ny3i2ocrr6" class="animable"></path><path d="M355,80.81a.55.55,0,0,1-.55.56.56.56,0,1,1,0-1.11A.55.55,0,0,1,355,80.81Z" style="fill: rgb(255, 255, 255); transform-origin: 354.408px 80.815px;" id="elvh7sj97qjhe" class="animable"></path></g></g><g id="elahtxexpg58l"><g style="opacity: 0.6; transform-origin: 414.49px 124.27px;" class="animable"><path d="M415.59,124.27a1.1,1.1,0,1,1-1.1-1.1A1.1,1.1,0,0,1,415.59,124.27Z" style="fill: rgb(255, 255, 255); transform-origin: 414.49px 124.27px;" id="el7cl3vnksevm" class="animable"></path></g></g><g id="ely0fuie5rf1"><path d="M405.3,133.11a.55.55,0,1,1-.72.31A.56.56,0,0,1,405.3,133.11Z" style="fill: rgb(255, 255, 255); opacity: 0.6; transform-origin: 405.093px 133.621px;" class="animable"></path></g></g></g><g id="freepik--Nightstand--inject-2" class="animable" style="transform-origin: 270.57px 213.295px;"><g id="freepik--nightstand--inject-2" class="animable" style="transform-origin: 270.57px 213.295px;"><polygon points="310.04 249.18 302.36 244.74 310.04 242.52 310.04 249.18" style="fill: rgb(243, 114, 12); transform-origin: 306.2px 245.85px;" id="eliut332xyc5" class="animable"></polygon><g id="eln0io19d6fk"><polygon points="310.04 249.18 302.36 244.74 310.04 242.52 310.04 249.18" style="opacity: 0.6; transform-origin: 306.2px 245.85px;" class="animable"></polygon></g><polygon points="271.55 264.75 271.55 271.82 227.25 246.18 227.25 239.11 271.55 264.75" style="fill: rgb(243, 114, 12); transform-origin: 249.4px 255.465px;" id="el0b6rzgnzljn6" class="animable"></polygon><g id="elgh4pynsx5vf"><polygon points="271.55 264.75 271.55 271.82 227.25 246.18 227.25 239.11 271.55 264.75" style="opacity: 0.6; transform-origin: 249.4px 255.465px;" class="animable"></polygon></g><polygon points="223.41 183.65 267.71 209.29 267.71 266.96 223.41 241.33 223.41 183.65" style="fill: rgb(243, 114, 12); transform-origin: 245.56px 225.305px;" id="el7b6z66hjp7p" class="animable"></polygon><g id="el4d1yfvi8rzz"><polygon points="223.41 183.65 267.71 209.29 267.71 266.96 223.41 241.33 223.41 183.65" style="opacity: 0.55; transform-origin: 245.56px 225.305px;" class="animable"></polygon></g><polygon points="267.71 209.29 317.73 180.41 317.73 238.09 267.71 266.96 267.71 209.29" style="fill: rgb(243, 114, 12); transform-origin: 292.72px 223.685px;" id="elz5vziwlh2ni" class="animable"></polygon><g id="elkeq3rbstvp7"><polygon points="267.71 209.29 317.73 180.41 317.73 238.09 267.71 266.96 267.71 209.29" style="opacity: 0.45; transform-origin: 292.72px 223.685px;" class="animable"></polygon></g><polygon points="317.73 180.41 273.42 154.77 223.41 183.65 267.71 209.29 317.73 180.41" style="fill: rgb(243, 114, 12); transform-origin: 270.57px 182.03px;" id="elugjtssjhhf" class="animable"></polygon><g id="elc0xv9i15g5a"><polygon points="317.73 180.41 273.42 154.77 223.41 183.65 267.71 209.29 317.73 180.41" style="opacity: 0.3; transform-origin: 270.57px 182.03px;" class="animable"></polygon></g><polygon points="271.55 211.51 313.89 187.06 313.89 200.37 271.55 224.82 271.55 211.51" style="fill: rgb(243, 114, 12); transform-origin: 292.72px 205.94px;" id="elb3yl6oo9gvf" class="animable"></polygon><g id="el2ih2nocxmec"><polygon points="271.55 211.51 313.89 187.06 313.89 200.37 271.55 224.82 271.55 211.51" style="opacity: 0.2; transform-origin: 292.72px 205.94px;" class="animable"></polygon></g><g id="elr0v6zo1yu2d"><polygon points="271.55 229.25 313.89 204.81 313.89 235.87 271.55 260.31 271.55 229.25" style="opacity: 0.2; transform-origin: 292.72px 232.56px;" class="animable"></polygon></g><polygon points="271.55 271.82 275.4 269.6 275.4 262.53 271.55 264.75 271.55 271.82" style="fill: rgb(243, 114, 12); transform-origin: 273.475px 267.175px;" id="eljxugkga9rg" class="animable"></polygon><g id="elzya7twkzs2"><polygon points="271.55 271.82 275.4 269.6 275.4 262.53 271.55 264.75 271.55 271.82" style="opacity: 0.55; transform-origin: 273.475px 267.175px;" class="animable"></polygon></g><polygon points="310.04 249.18 313.88 246.96 313.88 240.3 310.04 242.52 310.04 249.18" style="fill: rgb(243, 114, 12); transform-origin: 311.96px 244.74px;" id="ell9c5p0rnbi" class="animable"></polygon><g id="elyhdk2twh3hq"><polygon points="310.04 249.18 313.88 246.96 313.88 240.3 310.04 242.52 310.04 249.18" style="opacity: 0.55; transform-origin: 311.96px 244.74px;" class="animable"></polygon></g><path d="M284.67,206.73c0,.62,1.84.06,4.1-1.25l7.18-4.14c2.26-1.31,4.09-2.87,4.09-3.48v-1.11l-15.37,8.88Z" style="fill: rgb(55, 71, 79); transform-origin: 292.355px 201.866px;" id="el30ngig65wc" class="animable"></path><g id="eluuswjdomw4j"><polygon points="313.89 235.87 287.17 220.23 271.55 229.25 271.55 260.31 313.89 235.87" style="opacity: 0.2; transform-origin: 292.72px 240.27px;" class="animable"></polygon></g></g></g><g id="freepik--character-on-bed--inject-2" class="animable" style="transform-origin: 273.31px 299.277px;"><g id="freepik--Bed--inject-2" class="animable" style="transform-origin: 273.31px 299.277px;"><path d="M103.41,330.54l-16.07-9.28a6.44,6.44,0,0,1-2.91-5.05V221.8a6.46,6.46,0,0,1,2.91-5.06l131-75.65a6.44,6.44,0,0,1,5.83,0l16.07,9.28a6.45,6.45,0,0,1,2.92,5v94.41a6.45,6.45,0,0,1-2.92,5l-131,75.66A6.44,6.44,0,0,1,103.41,330.54Z" style="fill: rgb(69, 90, 100); transform-origin: 163.795px 235.791px;" id="elsetca44om5o" class="animable"></path><path d="M243.2,155.42v94.41a6.44,6.44,0,0,1-2.91,5l-131,75.66c-1.61.93-2.91.17-2.91-1.69V234.44a6.44,6.44,0,0,1,2.91-5.05l131-75.66C241.89,152.8,243.2,153.56,243.2,155.42Z" style="fill: rgb(38, 50, 56); transform-origin: 174.79px 242.11px;" id="el2gh7bwlcw4q" class="animable"></path><path d="M108.57,330.85a6.59,6.59,0,0,1-5.16-.31l-16.07-9.28a6.47,6.47,0,0,1-2.91-5.05V221.79a5.93,5.93,0,0,1,.85-2.87l21.9,12.65a5.9,5.9,0,0,0-.85,2.87v94.41C106.33,330.44,107.29,331.22,108.57,330.85Z" style="fill: rgb(55, 71, 79); transform-origin: 96.5px 275.077px;" id="eldawyck3xtwt" class="animable"></path><path d="M340.29,423.05l-13.51-7.8a3.2,3.2,0,0,0-2.92,0l-13.51,7.8a3.06,3.06,0,0,0-1,1.08h0c-.05.09-.08.19-.12.28a2.88,2.88,0,0,0-.31,1.16v21.92h0a3.2,3.2,0,0,0,1.35,2.44l.1.09,13.51,7.8h0a1,1,0,0,0,.18.06,2.75,2.75,0,0,0,.5.2,2.91,2.91,0,0,0,.78.08,3,3,0,0,0,1.46-.34l13.51-7.8a3.24,3.24,0,0,0,1.45-2.53V425.57A3.22,3.22,0,0,0,340.29,423.05Z" style="fill: rgb(69, 90, 100); transform-origin: 325.34px 436.53px;" id="elcwzaagi2c5l" class="animable"></path><path d="M326.78,457.82l13.51-7.8a3.24,3.24,0,0,0,1.45-2.53V425.57c0-.93-.66-1.3-1.46-.84l-13.51,7.8a3.22,3.22,0,0,0-1.46,2.52V457C325.32,457.9,326,458.28,326.78,457.82Z" style="fill: rgb(55, 71, 79); transform-origin: 333.525px 441.274px;" id="elfttr0uf94si" class="animable"></path><path d="M455.26,356.67l-13.51-7.8a3.23,3.23,0,0,0-2.92,0l-13.51,7.8a3,3,0,0,0-1,1.09h0a2.21,2.21,0,0,0-.12.27,2.85,2.85,0,0,0-.3,1.16v21.92h0a3.2,3.2,0,0,0,1.35,2.44.87.87,0,0,0,.11.09l13.5,7.8h0a1,1,0,0,0,.18.06,2.18,2.18,0,0,0,.5.2,3.39,3.39,0,0,0,.78.09,3,3,0,0,0,1.46-.35l13.51-7.8a3.26,3.26,0,0,0,1.46-2.53V359.19A3.22,3.22,0,0,0,455.26,356.67Z" style="fill: rgb(69, 90, 100); transform-origin: 440.325px 370.156px;" id="el0stgczuhv1c" class="animable"></path><path d="M441.75,391.44l13.51-7.8a3.26,3.26,0,0,0,1.46-2.53V359.19c0-.93-.66-1.3-1.46-.84l-13.51,7.8a3.22,3.22,0,0,0-1.46,2.53v21.91C440.29,391.52,440.94,391.9,441.75,391.44Z" style="fill: rgb(55, 71, 79); transform-origin: 448.505px 374.894px;" id="el6z6geqt6j38" class="animable"></path><path d="M237.36,224.91l-125.2,72.28a12.92,12.92,0,0,0-5.84,10.11v5.54A12.92,12.92,0,0,0,112.16,323l207.32,119.7a12.92,12.92,0,0,0,11.68,0l125.19-72.29a12.87,12.87,0,0,0,5.84-10.11v-5.54a12.91,12.91,0,0,0-5.84-10.11L249,224.91A12.9,12.9,0,0,0,237.36,224.91Z" style="fill: rgb(69, 90, 100); transform-origin: 284.255px 333.809px;" id="eljzbflbsk1e" class="animable"></path><path d="M462.19,354.72v5.54a12.91,12.91,0,0,1-5.83,10.11l-125.2,72.28a12,12,0,0,1-5.84,1.39V425a12,12,0,0,0,5.84-1.39l125.2-72.28c3-1.75,3.2-4.49.59-6.36A13,13,0,0,1,462.19,354.72Z" style="fill: rgb(38, 50, 56); transform-origin: 393.755px 394.506px;" id="el9m751lzm2je" class="animable"></path><path d="M112.17,303.93c-3.07-1.76-3.22-4.57-.45-6.43a13,13,0,0,0-5.4,9.8v5.54A12.92,12.92,0,0,0,112.16,323l207.32,119.7a12,12,0,0,0,5.84,1.39V425a11.91,11.91,0,0,1-5.83-1.39Z" style="fill: rgb(55, 71, 79); transform-origin: 215.82px 370.796px;" id="elgk3konwagjo" class="animable"></path><path d="M237.36,193.35l-125.2,72.28a12.92,12.92,0,0,0-5.84,10.11v11.81a12.92,12.92,0,0,0,5.84,10.11l207.32,119.7a12.92,12.92,0,0,0,11.68,0l125.19-72.29a12.87,12.87,0,0,0,5.84-10.1V323.16a12.87,12.87,0,0,0-5.84-10.11L249,193.35A12.9,12.9,0,0,0,237.36,193.35Z" style="fill: rgb(243, 114, 12); transform-origin: 284.255px 305.359px;" id="el8myiqwlzn0c" class="animable"></path><g id="el8d7r6oet0af"><path d="M112.16,272.37l207.32,119.7a12.92,12.92,0,0,0,11.68,0l125.19-72.28c3.23-1.86,3.23-4.88,0-6.74L249,193.35a12.9,12.9,0,0,0-11.67,0l-125.2,72.28C108.94,267.49,108.94,270.51,112.16,272.37Z" style="fill: rgb(255, 255, 255); opacity: 0.8; transform-origin: 284.257px 292.71px;" class="animable"></path></g><g id="eldf1w5tfdxnn"><path d="M133.7,259.52l27.23,15.81c3.23,1.86,6.48,1.4,11.09,0s19.9-7.48,19.9-7.48,2.48,9.85,13,23.28c4,5.11,11.53,14.7,24.2,21.54L303.42,269,243.2,234.23l5.47-3.1c4.07-2.47,3.22-4.58,0-6.44l-33.15-19.08-81.84,47.58C130.46,255.06,130.48,257.66,133.7,259.52Z" style="opacity: 0.05; transform-origin: 217.347px 259.14px;" class="animable"></path></g><g id="el9ae2f20mgo6"><path d="M462.19,323.16V335a12.91,12.91,0,0,1-5.83,10.11l-125.2,72.28a12,12,0,0,1-5.84,1.39V393.46a12,12,0,0,0,5.84-1.38l125.2-72.29c3-1.75,3.2-4.48.59-6.36A13,13,0,0,1,462.19,323.16Z" style="fill: rgb(255, 255, 255); opacity: 0.5; transform-origin: 393.755px 366.106px;" class="animable"></path></g><g id="el4jya3naxyog"><path d="M112.17,272.38c-3.07-1.77-3.22-4.58-.45-6.44a13,13,0,0,0-5.4,9.8v11.81a12.92,12.92,0,0,0,5.84,10.11l207.32,119.7a12,12,0,0,0,5.84,1.39V393.46a11.91,11.91,0,0,1-5.83-1.38Z" style="fill: rgb(255, 255, 255); opacity: 0.6; transform-origin: 215.82px 342.346px;" class="animable"></path></g><path d="M253,218.76c0-3.5-5.24-9.36-11.7-13.09l-26-15c-3.61-2.09-6.84-3.06-9-2.91l0,0c-5.59,0-27.94,10.79-38.92,17.12s-34.92,21.6-38.65,28.07c-1.22,2.12,42,33.48,47.25,32.37,11.77-2.46,33-12.57,43.91-19.22,17.81-10.86,27.89-19.9,31.44-23.76C253,220.48,253,219.5,253,218.76Z" style="fill: rgb(240, 240, 240); transform-origin: 190.852px 226.547px;" id="elalbnf98l3jw" class="animable"></path><path d="M190.31,212.58c-7.92,4.55-8.45,10.2-4.56,16.89,2.59,4.46,6.59,10.62,13.25,13.54,4,1.76,5.87,3.49,8.76,7.05.06.07.1.14.15.21,3.91-2,7.75-4.05,11.29-6Z" style="fill: rgb(224, 224, 224); transform-origin: 201.296px 231.425px;" id="ell7gbcy4l9mk" class="animable"></path><path d="M139.92,247.6l26,15c6.47,3.73,11.7,3.92,11.7.42s-5.23-9.36-11.7-13.09l-26-15c-6.46-3.73-11.7-3.92-11.7-.42S133.46,243.87,139.92,247.6Z" style="fill: rgb(224, 224, 224); transform-origin: 152.92px 248.765px;" id="el5yobla5owg4" class="animable"></path><polygon points="273.28 250.06 291.41 260.29 280.75 270.06 265.88 259.83 273.28 250.06" style="fill: rgb(177, 102, 104); transform-origin: 278.645px 260.06px;" id="elp1op8cb4dx8" class="animable"></polygon><path d="M234.48,238.34c9.74-4.09,14-2.83,19.61-.25,6.63,3.06,23.8,14,23.8,14s-5.51,9.14-10.73,9.75C254.57,254.67,234.48,238.34,234.48,238.34Z" style="fill: rgb(55, 71, 79); transform-origin: 256.185px 248.77px;" id="elfouruvzqw6p" class="animable"></path><path d="M210.5,247c-6.28,4.24-11.5,7.79-10.87,13.83S246.75,302,246.75,302L282,272.16s-18.2-19.19-27.94-26.73-13.76-9.57-28.3-5.16C215.82,243.3,210.5,247,210.5,247Z" style="fill: rgb(69, 90, 100); transform-origin: 240.789px 269.983px;" id="elx1ec0qgy7m" class="animable"></path><path d="M221.51,206.35a13.08,13.08,0,0,0-22.6,13.18c.12.2.25.38.38.57l-2.43,7.58-6-8.39a2.88,2.88,0,0,0-2.91-2.53,2.66,2.66,0,0,0-2.55,2.89l3.76-.13a4.8,4.8,0,0,0-1.52,2.46c-.6,2.42,3,6.75,7.68,10.38,0,0,6.85,7.54,8.41,8.52a4.47,4.47,0,0,0,3.31.5l-1.63-16.27a13.07,13.07,0,0,0,16.06-18.76Z" style="fill: rgb(38, 50, 56); transform-origin: 204.322px 220.684px;" id="el3v4hhhq3ioe" class="animable"></path><path d="M200.08,230.15c-.45.81-2.21.06-3.59-.34s-4.87,0-4.55,3.75,5.26,6.21,7.86,5.62c4.47-1,3.62-3.77,3.62-3.77l8.47,13.88h0c8.21,3.28,21.72-5.09,12.62-8.22l-2.43-4.14a22.71,22.71,0,0,0,4.47-2.44c2.53-2.05,3-5.26,2.09-8.76-1.46-5.62-3.22-9.82-9.91-18.65-7.33-9.68-19.5-2.72-23.64,5.2S200.08,230.15,200.08,230.15Z" style="fill: rgb(177, 102, 104); transform-origin: 210.494px 226.199px;" id="elg2dtjjtucjg" class="animable"></path><path d="M200.76,231.31c-.35.21-2.95-1.22-4.27-1.5-1.82-.39-6-11.11-6-11.11a5.39,5.39,0,0,1-1.75-5.65c.67-3.18,4.29-5.68,6.8-7.36,4.53-3,9.59-6.46,11.33-11.86.14-.42.36-.92.8-1a1.11,1.11,0,0,1,.76.3,7,7,0,0,1,2.32,4.31c0,.16.09.35.25.37s.26-.11.34-.23a6.21,6.21,0,0,0,.86-2.14c.21-1.05,2.2,1.3,2.38,1.64A8.88,8.88,0,0,1,215,204c-.8,2.24-2.81,3.82-4.65,5.22a76,76,0,0,1-12.4,6.91c-1.38.57-.93,2,.36,5.78C199.47,225.26,201.91,230.6,200.76,231.31Z" style="fill: rgb(38, 50, 56); transform-origin: 202.019px 212.08px;" id="elcu7nv9woiv" class="animable"></path><path d="M222.08,236.93s-7.7,2.63-10.54,2.75a8.34,8.34,0,0,1-4.73-1.22,11.33,11.33,0,0,0,3.74,2.5c2.77,1.11,12.49-2.38,12.49-2.38Z" style="fill: rgb(154, 74, 77); transform-origin: 214.925px 239.054px;" id="elazouh04ir1k" class="animable"></path><path d="M211.67,221.25a2.35,2.35,0,0,1-3.91,2.36,3.4,3.4,0,0,0,2.4-.43A3.51,3.51,0,0,0,211.67,221.25Z" style="fill: rgb(38, 50, 56); transform-origin: 209.769px 222.777px;" id="el1atogsx5q2z" class="animable"></path><path d="M221.77,215.53a2.35,2.35,0,0,1-4.05,2.1,3.44,3.44,0,0,0,4.05-2.1Z" style="fill: rgb(38, 50, 56); transform-origin: 219.777px 216.979px;" id="eliy1epgmkhs" class="animable"></path><path d="M207.23,217.87l-2.06,2.85a1.84,1.84,0,0,1-.4-2.52A1.71,1.71,0,0,1,207.23,217.87Z" style="fill: rgb(38, 50, 56); transform-origin: 205.835px 219.105px;" id="elh57akpbfjwm" class="animable"></path><path d="M216.39,230.06l3.46-.59a1.72,1.72,0,0,1-1.38,2.06A1.83,1.83,0,0,1,216.39,230.06Z" style="fill: rgb(154, 74, 77); transform-origin: 218.14px 230.511px;" id="elk7flsqp1v2s" class="animable"></path><path d="M219.91,212.19l-3.52-.45a1.7,1.7,0,0,1,1.92-1.55A1.86,1.86,0,0,1,219.91,212.19Z" style="fill: rgb(38, 50, 56); transform-origin: 218.153px 211.182px;" id="el94uj89cce8q" class="animable"></path><polygon points="213.4 218.43 218.17 225.67 221.3 222.06 213.4 218.43" style="fill: rgb(154, 74, 77); transform-origin: 217.35px 222.05px;" id="elmrdgzlq7sr" class="animable"></polygon><g id="eluol4nhbwuwi"><path d="M258,303.84a64.85,64.85,0,0,1-9.23-6.61c-2.29-2.09-4.46-4.89-3.51-7.84l-12.94,7.47c2.27,4.8,7.68,7.66,12.29,10.29q3.74,2.13,7.53,4.13L255,312.8c14.28,7.3,29.18,13.41,44,19.5,1.81.74,3.77,1.5,5.67,1.05Z" style="opacity: 0.1; transform-origin: 268.495px 311.437px;" class="animable"></path></g><path d="M193.92,319.58v44.25l131.4,75.86V393.46a11.88,11.88,0,0,1-5.84-1.39Z" style="fill: rgb(243, 114, 12); transform-origin: 259.62px 379.635px;" id="eld30tqkfi2wb" class="animable"></path><g id="el0z7jrnvo5gke"><path d="M193.92,319.58v44.25l131.4,75.86V393.46a11.88,11.88,0,0,1-5.84-1.39Z" style="opacity: 0.3; transform-origin: 259.62px 379.635px;" class="animable"></path></g><path d="M456.36,319.79c3-1.75,3.2-4.48.59-6.36a13,13,0,0,1,5.24,9.73v37.51l-136.87,79V393.46a12.12,12.12,0,0,0,5.84-1.38Z" style="fill: rgb(243, 114, 12); transform-origin: 393.755px 376.55px;" id="elf1qsbjz0o8o" class="animable"></path><g id="el5d3apfvyghx"><path d="M456.36,319.79c3-1.75,3.2-4.48.59-6.36a13,13,0,0,1,5.24,9.73v37.51l-136.87,79V393.46a12.12,12.12,0,0,0,5.84-1.38Z" style="opacity: 0.45; transform-origin: 393.755px 376.55px;" class="animable"></path></g><path d="M456.35,313.05,330.79,240.56l-41.66,24.05c-16.89-2.46-48.32,18.16-55.61,32.11l-39.6,22.86,125.56,72.49a12.92,12.92,0,0,0,11.68,0l125.19-72.28C459.58,317.93,459.58,314.91,456.35,313.05Z" style="fill: rgb(243, 114, 12); transform-origin: 326.346px 317.013px;" id="elrwobve5g2xf" class="animable"></path><g id="ellgwauz2ylap"><path d="M456.35,313.05,330.79,240.56l-41.66,24.05c-16.89-2.46-48.32,18.16-55.61,32.11l-39.6,22.86,125.56,72.49a12.92,12.92,0,0,0,11.68,0l125.19-72.28C459.58,317.93,459.58,314.91,456.35,313.05Z" style="opacity: 0.2; transform-origin: 326.346px 317.013px;" class="animable"></path></g><g id="elhfehpyo9tpr"><path d="M456.35,313.05,330.79,240.56l-41.66,24.05c12.73,8.09,25.23,12.74,38.18,20.2,6.25,3.6,13.51,9.48,29.37,20.29,5.2,3.55,11.42,7.67,18,7,5-.49,9.33-3.48,14.12-5a8,8,0,0,1,3.21-.46c4.75.49,4.4,6.2,4.47,9.65a26.55,26.55,0,0,1-4.27,15,8.27,8.27,0,0,0-1.38,3.18c-.6,3.56,1.15,6.27,4.55,7.77s16.75,3,23.24-.78l37.73-21.78C459.56,317.93,459.56,314.9,456.35,313.05Z" style="opacity: 0.1; transform-origin: 373.944px 292.199px;" class="animable"></path></g><g id="elp2s6hilpyy"><path d="M343.89,355.87q-4-2.44-7.92-5.05c-1-.69-5.61-3.69-6.77-4.72,3.39,1.5,6.73,3,10.07,4.62,3.66,1.74,7.36,3.39,11.13,4.87,5.07,2,13.48,5.74,17.85.4,2.6-3.18,1.9-7.81,2.76-11.83s7.86-17.23-.92-18.14a8.21,8.21,0,0,0-3.21.46c-4.79,1.48-9.14,4.47-14.12,5-6.58.66-13.22-2.92-18-7A120.78,120.78,0,0,0,316.52,312c-.52-.3-.48-.08-.91-.51a53.76,53.76,0,0,1,8.06,3.87c2,1.15,3.85,2.42,5.82,3.56a115.26,115.26,0,0,0,11.38,6,25.45,25.45,0,0,0,12.4,2.45c5-.45,9.57-2.87,14.23-4.72a11.71,11.71,0,0,1,5.72-1.13c3.12.4,5.73,4.31,5.56,7.33a2.46,2.46,0,0,1,0,.28c-.59,5.1-1.45,10.16-1.93,15.27a7.92,7.92,0,0,0,.48,4.51,6.32,6.32,0,0,0,4.32,2.77c1.73.39,3.52.45,5.2,1a1.1,1.1,0,0,1,.58.34c.26.37,0,.88-.27,1.24a15.56,15.56,0,0,1-6.07,4.48c-2.32,1.06-4.76,1.81-7.1,2.81a29.53,29.53,0,0,1-5.64,2.12,19.87,19.87,0,0,1-3.78.28c-2.19,0-6.46,0-13.06-3.6C348.92,358.88,346.39,357.39,343.89,355.87Z" style="opacity: 0.1; transform-origin: 351.574px 337.722px;" class="animable"></path></g><g id="eleq5hgq2nbr"><polygon points="215.82 332.23 215.82 376.56 218.57 378.06 218.56 333.8 215.82 332.23" style="opacity: 0.2; transform-origin: 217.195px 355.145px;" class="animable"></polygon></g><g id="el0vz1ibh5a9e9"><path d="M215.82,332.23l36.29-21c8.79-10.66,41.63-36.52,59.76-34.5l40.84-23.58,2.85,1.67-40.63,23.41c-18.17.9-44.36,17.71-59.91,34.53l-36.46,21Z" style="opacity: 0.1; transform-origin: 285.69px 293.455px;" class="animable"></path></g><path d="M284.65,322.41c-1.31-.49-3-1.28-4.44-1.88a29.64,29.64,0,0,1-6.58-3.22c1.95,0,2.86.77,5.6.16a4,4,0,0,0,2.42-1.53.88.88,0,0,0,.19-.43c.06-.64-.8-.9-1.44-1-2.62-.31-4.81-1.72-7.31-2.42-3.71-1-8.66-.51-11.46-1.65s-26-18.84-26-18.84a170.44,170.44,0,0,1-17.92-21.56c-6.78-9.81-9.82-13.65-14.7-15.08-5,3.45-4.79,5.82-4.49,10.09s3.78,9.64,6.08,13.42c3.27,5.37,6.28,8.83,11.95,16.19A62.58,62.58,0,0,0,226.77,305c5.48,4.42,27.16,15.45,27.16,15.45s13.77,11.79,23.5,11.17c2.73-.18,4.64-.7,6.67-2.68C286,327.08,287.17,323.37,284.65,322.41Z" style="fill: rgb(177, 102, 104); transform-origin: 242.241px 293.302px;" id="elhl469bseym9" class="animable"></path><path d="M201.83,253.83c-5,3.32-6.13,9.7-3.61,16.6s16.19,23.86,16.19,23.86,11.33-2.7,14.66-11.32c0,0-11.18-16.12-14.67-20.79C210.35,256.76,205,252.35,201.83,253.83Z" style="fill: rgb(55, 71, 79); transform-origin: 212.997px 273.915px;" id="elebua1kglkkm" class="animable"></path><path d="M286.43,257.48l-9.3,5.73,2.9,2.16c-3.78,3.89-10.16,10.87-11.7,11.73-2.64,1.47-6.22-.1-9.78,1.39-2.39,1-4.34,2.4-6.89,3-.63.16-1.46.52-1.31,1.15a1,1,0,0,0,.3.47,4,4,0,0,0,2.44,1.15c2.86.29,3.66-.61,5.63-.83a30.08,30.08,0,0,1-6.14,4c-1.39.78-2.94,1.76-4.18,2.41-2.38,1.26-.61,3.8,1.64,5.09a12.64,12.64,0,0,0,7.14,1.76c7.3-.43,15.07-7.62,18.5-11.18a27.64,27.64,0,0,1,4.33-3.68c4.73-3.22,14.6-10.16,16.64-13.29C299.34,264.41,291.66,260.06,286.43,257.48Z" style="fill: rgb(177, 102, 104); transform-origin: 272.236px 277.094px;" id="el4jzf56rxsov" class="animable"></path><path d="M268.33,277.1a3.33,3.33,0,0,1,3.22,0,13.72,13.72,0,0,1,5,5.28c.73,1.62,0,2.31,0,2.31a7.71,7.71,0,0,0,3.5-2.85,5,5,0,0,0-1-3,13.43,13.43,0,0,0-4.84-4.42,4.48,4.48,0,0,0-2.49-.3A19.52,19.52,0,0,0,268.33,277.1Z" style="fill: rgb(55, 71, 79); transform-origin: 274.19px 279.375px;" id="elp9edoqqcrc" class="animable"></path><path d="M274.92,275.68l-1.8,1.58a1.27,1.27,0,0,0-.09,1.84l2.08,2.25a1.41,1.41,0,0,0,1.92.12l1.73-1.45a1.29,1.29,0,0,0,.14-1.85l-2.11-2.38A1.33,1.33,0,0,0,274.92,275.68Z" style="fill: rgb(38, 50, 56); transform-origin: 275.952px 278.569px;" id="elvvik8t8hx0k" class="animable"></path><path d="M274.92,275.22l-1.8,1.58a1.27,1.27,0,0,0-.09,1.84l2.08,2.25A1.41,1.41,0,0,0,277,281l1.73-1.46a1.28,1.28,0,0,0,.14-1.84l-2.11-2.38A1.32,1.32,0,0,0,274.92,275.22Z" style="fill: rgb(69, 90, 100); transform-origin: 275.937px 278.103px;" id="elhyma7ub365v" class="animable"></path><path d="M276.14,280.83a.87.87,0,0,1-.66-.28l-2.08-2.25a.78.78,0,0,1-.22-.58.81.81,0,0,1,.27-.55l1.8-1.58a.82.82,0,0,1,.54-.2.87.87,0,0,1,.63.27l2.11,2.38a.84.84,0,0,1,.2.58.79.79,0,0,1-.29.55l-1.73,1.46a.9.9,0,0,1-.57.2Z" style="fill: rgb(243, 114, 12); transform-origin: 275.955px 278.11px;" id="ellehsggkrih" class="animable"></path></g></g><g id="freepik--nightstand--inject-2" class="animable" style="transform-origin: 81.57px 300.851px;"><g id="freepik--nightstand--inject-2" class="animable" style="transform-origin: 81.57px 322.415px;"><polygon points="121.04 358.3 113.36 353.86 121.04 351.64 121.04 358.3" style="fill: rgb(243, 114, 12); transform-origin: 117.2px 354.97px;" id="el4f3ud5gld3x" class="animable"></polygon><g id="ely70fanh4bbe"><polygon points="121.04 358.3 113.36 353.86 121.04 351.64 121.04 358.3" style="opacity: 0.6; transform-origin: 117.2px 354.97px;" class="animable"></polygon></g><polygon points="82.56 373.87 82.56 380.94 38.25 355.3 38.25 348.23 82.56 373.87" style="fill: rgb(243, 114, 12); transform-origin: 60.405px 364.585px;" id="eltceyhdwn9f" class="animable"></polygon><g id="ell4tv5a0hlto"><polygon points="82.56 373.87 82.56 380.94 38.25 355.3 38.25 348.23 82.56 373.87" style="opacity: 0.6; transform-origin: 60.405px 364.585px;" class="animable"></polygon></g><polygon points="34.41 292.77 78.71 318.41 78.71 376.08 34.41 350.45 34.41 292.77" style="fill: rgb(243, 114, 12); transform-origin: 56.56px 334.425px;" id="elikcoi26ycb" class="animable"></polygon><g id="el2mza19t5h7t"><polygon points="34.41 292.77 78.71 318.41 78.71 376.08 34.41 350.45 34.41 292.77" style="opacity: 0.55; transform-origin: 56.56px 334.425px;" class="animable"></polygon></g><polygon points="78.71 318.41 128.73 289.53 128.73 347.21 78.71 376.08 78.71 318.41" style="fill: rgb(243, 114, 12); transform-origin: 103.72px 332.805px;" id="els7e6wjx162" class="animable"></polygon><g id="el5ngbds036pk"><polygon points="78.71 318.41 128.73 289.53 128.73 347.21 78.71 376.08 78.71 318.41" style="opacity: 0.45; transform-origin: 103.72px 332.805px;" class="animable"></polygon></g><polygon points="128.73 289.53 84.43 263.89 34.41 292.77 78.71 318.41 128.73 289.53" style="fill: rgb(243, 114, 12); transform-origin: 81.57px 291.15px;" id="el8g9s4v06yyr" class="animable"></polygon><g id="eln0204w9s09c"><polygon points="128.73 289.53 84.43 263.89 34.41 292.77 78.71 318.41 128.73 289.53" style="opacity: 0.3; transform-origin: 81.57px 291.15px;" class="animable"></polygon></g><polygon points="82.56 320.63 124.89 296.19 124.89 309.5 82.56 333.94 82.56 320.63" style="fill: rgb(243, 114, 12); transform-origin: 103.725px 315.065px;" id="el790aggno824" class="animable"></polygon><g id="elptls9emfj7"><polygon points="82.56 320.63 124.89 296.19 124.89 309.5 82.56 333.94 82.56 320.63" style="opacity: 0.2; transform-origin: 103.725px 315.065px;" class="animable"></polygon></g><g id="el9qw8gqljnt"><polygon points="82.56 338.37 124.89 313.93 124.89 344.99 82.56 369.43 82.56 338.37" style="opacity: 0.2; transform-origin: 103.725px 341.68px;" class="animable"></polygon></g><polygon points="82.56 380.94 86.4 378.72 86.4 371.65 82.56 373.87 82.56 380.94" style="fill: rgb(243, 114, 12); transform-origin: 84.48px 376.295px;" id="elxezogy1yw6" class="animable"></polygon><g id="elefmqirripvs"><polygon points="82.56 380.94 86.4 378.72 86.4 371.65 82.56 373.87 82.56 380.94" style="opacity: 0.55; transform-origin: 84.48px 376.295px;" class="animable"></polygon></g><polygon points="121.04 358.3 124.89 356.08 124.89 349.42 121.04 351.64 121.04 358.3" style="fill: rgb(243, 114, 12); transform-origin: 122.965px 353.86px;" id="el0iafn3e17mus" class="animable"></polygon><g id="elxwjlf4b55v"><polygon points="121.04 358.3 124.89 356.08 124.89 349.42 121.04 351.64 121.04 358.3" style="opacity: 0.55; transform-origin: 122.965px 353.86px;" class="animable"></polygon></g><path d="M95.67,315.86c0,.61,1.84.05,4.1-1.26l7.18-4.14c2.26-1.31,4.09-2.86,4.09-3.48v-1.11l-15.37,8.88Z" style="fill: rgb(55, 71, 79); transform-origin: 103.355px 310.988px;" id="eldqxzl78wpyn" class="animable"></path><g id="eli6yil2uter"><polygon points="124.89 344.99 98.17 329.36 82.56 338.37 82.56 369.43 124.89 344.99" style="opacity: 0.2; transform-origin: 103.725px 349.395px;" class="animable"></polygon></g></g><g id="freepik--Lamp--inject-2" class="animable" style="transform-origin: 56.7879px 260.059px;"><path d="M66.94,293.59a3.71,3.71,0,0,0-.08-.81,12.07,12.07,0,0,0-4.92-7.34H51.65a12,12,0,0,0-4.92,7.34,3.18,3.18,0,0,0-.08.81c0,.05,0,.14,0,.14.09,1.42,1.07,2.83,3,3.91a15.87,15.87,0,0,0,14.36,0c1.88-1.08,2.86-2.49,3-3.91C66.93,293.73,66.94,293.63,66.94,293.59Z" style="fill: rgb(38, 50, 56); transform-origin: 56.8293px 292.399px;" id="el1r387dqzsui" class="animable"></path><path d="M51.91,285.28c-2.69,1.55-2.69,4.07,0,5.63a10.76,10.76,0,0,0,9.76,0c2.7-1.56,2.7-4.08,0-5.63A10.76,10.76,0,0,0,51.91,285.28Z" style="fill: rgb(55, 71, 79); transform-origin: 56.7937px 288.095px;" id="el33d0wejxsjw" class="animable"></path><path d="M58.19,250.94h-2.8V287h0a.68.68,0,0,0,.4.65,2.22,2.22,0,0,0,2,0,.65.65,0,0,0,.4-.65h0Z" style="fill: rgb(69, 90, 100); transform-origin: 56.7906px 269.414px;" id="el3ha1xb293ks" class="animable"></path><path d="M76.81,249.73h0l-9.43-24H46.19l-9.42,24h0c-1.35,3.76.5,7.83,5.55,10.74,8,4.61,20.94,4.61,28.92,0C76.31,257.56,78.15,253.49,76.81,249.73Z" style="fill: rgb(243, 114, 12); transform-origin: 56.7879px 244.829px;" id="elipqjizk3x3s" class="animable"></path><path d="M49.12,231.45a17,17,0,0,0,15.34,0c4.24-2.45,4.24-6.41,0-8.86a17,17,0,0,0-15.34,0C44.89,225,44.89,229,49.12,231.45Z" style="fill: rgb(243, 114, 12); transform-origin: 56.7937px 227.02px;" id="elcpcsooortch" class="animable"></path><g id="el7cacat0cajq"><path d="M49.12,231.45a17,17,0,0,0,15.34,0c4.24-2.45,4.24-6.41,0-8.86a17,17,0,0,0-15.34,0C44.89,225,44.89,229,49.12,231.45Z" style="fill: rgb(255, 255, 255); opacity: 0.6; transform-origin: 56.7937px 227.02px;" class="animable"></path></g><path d="M56.79,231.74a13.53,13.53,0,0,1-6.64-1.57c-1.55-.89-2.41-2-2.41-3.15s.86-2.25,2.41-3.15a13.53,13.53,0,0,1,6.64-1.57,13.59,13.59,0,0,1,6.65,1.57c1.55.9,2.4,2,2.4,3.15s-.85,2.26-2.4,3.15A13.59,13.59,0,0,1,56.79,231.74Z" style="fill: rgb(243, 114, 12); transform-origin: 56.79px 227.02px;" id="el2zwgmajmzr4" class="animable"></path></g></g><g id="freepik--Device--inject-2" class="animable" style="transform-origin: 275.031px 184.097px;"><g id="freepik--device--inject-2" class="animable" style="transform-origin: 275.031px 184.097px;"><g id="freepik--shadow--inject-2"><path d="M279.7,193.1,290,187.15c.22-.13.22-.33,0-.46L271.12,175.8a.91.91,0,0,0-.79,0l-10.28,5.95a.25.25,0,0,0,0,.46l18.86,10.89A.91.91,0,0,0,279.7,193.1Z" style="opacity: 0.2; transform-origin: 275.031px 184.45px;" class="animable"></path></g><g id="freepik--device--inject-2" class="animable" style="transform-origin: 275.3px 183.542px;"><g id="freepik--device--inject-2" class="animable" style="transform-origin: 275.3px 183.542px;"><path d="M289,185.19c.14.1.12.25,0,.35l-9.13,5.27a.7.7,0,0,1-.66,0l-17.45-10.07c-.17-.1-.18-.25,0-.36a.72.72,0,0,0-.29.55v.44a.73.73,0,0,0,.33.58L279.12,192a.79.79,0,0,0,.67,0l9.13-5.27a.76.76,0,0,0,.33-.58v-.44A.72.72,0,0,0,289,185.19Z" style="fill: rgb(243, 114, 12); transform-origin: 275.36px 186.227px;" id="elf2sxaez03nd" class="animable"></path><path d="M288.92,185.16l-17.45-10.08a.76.76,0,0,0-.66,0l-9.13,5.28c-.18.1-.18.27,0,.38l17.45,10.07a.7.7,0,0,0,.66,0l9.13-5.27A.2.2,0,0,0,288.92,185.16Zm-2.6-.68c.16.09.16.23,0,.32l-8.07,4.66a.61.61,0,0,1-.57,0l-13.58-7.84a.17.17,0,0,1,0-.33l8.07-4.66a.47.47,0,0,1,.48,0Z" style="fill: rgb(243, 114, 12); transform-origin: 275.301px 182.949px;" id="elzeg9lupiecg" class="animable"></path><g id="el64kprmq7gz9"><path d="M288.92,185.16l-17.45-10.08a.76.76,0,0,0-.66,0l-9.13,5.28c-.18.1-.18.27,0,.38l17.45,10.07a.7.7,0,0,0,.66,0l9.13-5.27A.2.2,0,0,0,288.92,185.16Zm-2.6-.68c.16.09.16.23,0,.32l-8.07,4.66a.61.61,0,0,1-.57,0l-13.58-7.84a.17.17,0,0,1,0-.33l8.07-4.66a.47.47,0,0,1,.48,0Z" style="fill: rgb(255, 255, 255); opacity: 0.8; transform-origin: 275.301px 182.949px;" class="animable"></path></g><path d="M261.64,180.38a.72.72,0,0,0-.29.55v.44a.73.73,0,0,0,.33.58L279.12,192a.77.77,0,0,0,.34.08v-1.21a.7.7,0,0,1-.33-.08l-17.45-10.07C261.51,180.64,261.5,180.49,261.64,180.38Z" style="fill: rgb(243, 114, 12); transform-origin: 270.405px 186.23px;" id="el70ln0dpn2yr" class="animable"></path><g id="el3z6v3zj8n8f"><path d="M261.64,180.38a.72.72,0,0,0-.29.55v.44a.73.73,0,0,0,.33.58L279.12,192a.77.77,0,0,0,.34.08v-1.21a.7.7,0,0,1-.33-.08l-17.45-10.07C261.51,180.64,261.5,180.49,261.64,180.38Z" style="fill: rgb(255, 255, 255); opacity: 0.6; transform-origin: 270.405px 186.23px;" class="animable"></path></g><path d="M267.12,178.24a.14.14,0,0,0,0-.26.51.51,0,0,0-.45,0,.14.14,0,0,0,0,.26A.51.51,0,0,0,267.12,178.24Z" style="fill: rgb(69, 90, 100); transform-origin: 266.895px 178.11px;" id="elvdkoiqo6568" class="animable"></path><path d="M283.49,188.05a1.24,1.24,0,0,1-.55-.13.37.37,0,0,1,0-.69,1.25,1.25,0,0,1,1.1,0,.37.37,0,0,1,0,.69h0A1.21,1.21,0,0,1,283.49,188.05Zm0-.86a1,1,0,0,0-.5.12.28.28,0,0,0,0,.53,1.1,1.1,0,0,0,1,0h0a.28.28,0,0,0,0-.53A1,1,0,0,0,283.49,187.19Z" style="fill: rgb(69, 90, 100); transform-origin: 283.49px 187.576px;" id="elb7o9rslvr59" class="animable"></path><path d="M266.9,179.09l1.72-1c.1-.06.1-.15,0-.21a.38.38,0,0,0-.36,0l-1.72,1c-.1.06-.11.15,0,.21A.41.41,0,0,0,266.9,179.09Z" style="fill: rgb(69, 90, 100); transform-origin: 267.578px 178.483px;" id="elgop3fovyvuj" class="animable"></path><path d="M272.65,176.58a.47.47,0,0,0-.48,0l-8.07,4.66a.17.17,0,0,0,0,.33l13.58,7.84a.61.61,0,0,0,.57,0l8.07-4.66c.16-.09.16-.23,0-.32Z" style="fill: rgb(243, 114, 12); transform-origin: 275.205px 182.997px;" id="elgt7x4mr6yq5" class="animable"></path><g id="eld4ti07f8j3f"><path d="M272.65,176.58a.47.47,0,0,0-.48,0l-8.07,4.66a.17.17,0,0,0,0,.33l13.58,7.84a.61.61,0,0,0,.57,0l8.07-4.66c.16-.09.16-.23,0-.32Z" style="fill: rgb(69, 90, 100); opacity: 0.85; transform-origin: 275.205px 182.997px;" class="animable"></path></g><path d="M268,182.2l-.07,0s0,0,0-.05l.14-.66v0l0-.05.23-.13.08,0,.08,0,1.89,1.09s0,0,0,0,0,0,0,.05l-.24.13a.17.17,0,0,1-.16,0l-1.44-.83-.09.43,0,0h-.09Z" style="fill: rgb(255, 255, 255); transform-origin: 269.14px 181.955px;" id="eld9h514wxr04" class="animable"></path><path d="M269.67,181.12s0,0,.08,0a.08.08,0,0,1,.07,0l.29.16a.05.05,0,0,1,0,.05s0,0,0,0l-.27.16-.08,0-.08,0-.29-.17s0,0,0,0a.05.05,0,0,1,0,0Zm1,.59a.17.17,0,0,1,.16,0l.29.16s0,0,0,0,0,0,0,0l-.28.16-.08,0-.07,0-.29-.16s0,0,0-.05,0,0,0,0Z" style="fill: rgb(255, 255, 255); transform-origin: 270.255px 181.571px;" id="elg8mb1jjm45h" class="animable"></path><path d="M271.86,180.06l.12.07.14.08.14.08.12.07a1.16,1.16,0,0,1,.26.22.37.37,0,0,1,.12.22.35.35,0,0,1-.07.23,1,1,0,0,1-.3.25,1.67,1.67,0,0,1-.43.17,1.11,1.11,0,0,1-.4,0,1.23,1.23,0,0,1-.39-.06,1.73,1.73,0,0,1-.37-.16l-.26-.14-.24-.15a1.59,1.59,0,0,1-.27-.21.43.43,0,0,1-.12-.23.31.31,0,0,1,.07-.23.79.79,0,0,1,.3-.25,1.48,1.48,0,0,1,.42-.17,1.41,1.41,0,0,1,.4,0,1.59,1.59,0,0,1,.39.07A2.39,2.39,0,0,1,271.86,180.06Zm-.68,1a1.31,1.31,0,0,0,.43.13.69.69,0,0,0,.41-.1c.13-.08.19-.16.17-.24a.49.49,0,0,0-.22-.25l-.24-.14-.25-.14a1.31,1.31,0,0,0-.43-.13.69.69,0,0,0-.41.1c-.14.08-.19.16-.17.24a.47.47,0,0,0,.22.24l.24.15Z" style="fill: rgb(255, 255, 255); transform-origin: 271.334px 180.652px;" id="elxcfbg29urjb" class="animable"></path><path d="M273.77,179l.12.07.14.08.14.08.12.07a1.48,1.48,0,0,1,.26.21.43.43,0,0,1,.12.23.36.36,0,0,1-.07.23,1.16,1.16,0,0,1-.3.25,1.67,1.67,0,0,1-.43.17,1.39,1.39,0,0,1-.4,0,1.23,1.23,0,0,1-.39-.07,2.39,2.39,0,0,1-.37-.15l-.26-.14-.24-.15a1.59,1.59,0,0,1-.27-.21.43.43,0,0,1-.12-.23.32.32,0,0,1,.07-.24.78.78,0,0,1,.3-.24,1.9,1.9,0,0,1,.42-.18,1.39,1.39,0,0,1,.4,0,1.59,1.59,0,0,1,.39.07A2.39,2.39,0,0,1,273.77,179Zm-.68,1a1.6,1.6,0,0,0,.43.13.71.71,0,0,0,.41-.11c.14-.07.19-.15.17-.23a.49.49,0,0,0-.22-.25l-.24-.14-.25-.14a1.11,1.11,0,0,0-.43-.13.69.69,0,0,0-.41.1c-.14.08-.19.16-.17.23a.49.49,0,0,0,.22.25l.24.15A2.8,2.8,0,0,1,273.09,179.94Z" style="fill: rgb(255, 255, 255); transform-origin: 273.244px 179.585px;" id="elhrahg12b4" class="animable"></path></g><path d="M265.05,181.72l-.08-.05a0,0,0,0,1,0,0H265l.09.05a0,0,0,0,1,0,0h-.08Z" style="fill: rgb(255, 255, 255); transform-origin: 265.03px 181.695px;" id="elj0t40pvsoc" class="animable"></path><path d="M265.21,181.63l-.15-.09s0,0,0,0h.08l.15.09a0,0,0,0,1,0,0h-.08Z" style="fill: rgb(255, 255, 255); transform-origin: 265.175px 181.585px;" id="el3efk4zk9wn6" class="animable"></path><path d="M265.37,181.54l-.22-.12a0,0,0,0,1,0,0h.08l.22.13s0,0,0,0h0A.09.09,0,0,1,265.37,181.54Z" style="fill: rgb(255, 255, 255); transform-origin: 265.3px 181.488px;" id="el1cd97vyfx05" class="animable"></path><path d="M265.53,181.45l-.38-.22s0,0,0,0h.08l.37.21s0,0,0,0h0A.09.09,0,0,1,265.53,181.45Z" style="fill: rgb(255, 255, 255); transform-origin: 265.375px 181.342px;" id="elfsy3ita24rf" class="animable"></path><path d="M266,181.22h0l0,0-.18.1h0l0,0h0V181h.08l.19.11,0,0h0s0,0,0,0h0l0,0,0,0h0l0,0Zm-.11-.07-.14-.08v.15Z" style="fill: rgb(255, 255, 255); transform-origin: 265.92px 181.16px;" id="elvvs19fr0g9q" class="animable"></path><path d="M266.16,181.08a.34.34,0,0,1-.18,0c-.06,0-.08-.07-.08-.11s0-.07.1-.11l.08,0,.08,0h0v0h0l-.11,0c-.05,0-.07,0-.07.08s0,.05.06.07a.2.2,0,0,0,.13,0,.28.28,0,0,0,.12,0l0,0,0,0-.09-.05-.07,0h0l.12-.06h0l.13.08h0a.27.27,0,0,1-.11.1A.38.38,0,0,1,266.16,181.08Z" style="fill: rgb(255, 255, 255); transform-origin: 266.14px 180.976px;" id="elj5bm0uboay" class="animable"></path><path d="M268.61,179.36l.21.12a0,0,0,0,0,.05,0l.21-.12a0,0,0,0,0,0,0l-.21-.12h-.05l-.21.12A0,0,0,0,0,268.61,179.36Z" style="fill: rgb(255, 255, 255); transform-origin: 268.845px 179.36px;" id="elotnyo07b8s" class="animable"></path><path d="M268.75,179.19l-.09,0-.09,0s0,.06,0,.09l.07,0h.06l-.07,0a0,0,0,0,1,0-.07h.07l.07,0h.05Z" style="fill: rgb(255, 255, 255); transform-origin: 268.695px 179.235px;" id="elkptf472v17s" class="animable"></path><path d="M272.55,177a.17.17,0,0,0-.1,0l-.53.3a.06.06,0,0,0,0,.1l.2.11.1,0h0l.05,0,.53-.31a0,0,0,0,0,0-.09l-.19-.11A.2.2,0,0,0,272.55,177Zm-.33.54h0l-.2-.11a0,0,0,0,1,0-.08l.53-.3h.09l.19.11a0,0,0,0,1,0,.07l-.53.31Z" style="fill: rgb(255, 255, 255); transform-origin: 272.362px 177.266px;" id="el77651t0rcit" class="animable"></path><path d="M272.23,177.49h0l-.18-.1a0,0,0,0,1,0-.06l.48-.27h0l.17.1a0,0,0,0,1,0,.05l-.48.28Z" style="fill: rgb(255, 255, 255); transform-origin: 272.375px 177.275px;" id="elt90k3z6sl8p" class="animable"></path><path d="M272.68,177a.16.16,0,0,1,.11,0l0,0s.05.06,0,.07l0,0-.18-.11Z" style="fill: rgb(255, 255, 255); transform-origin: 272.711px 177.015px;" id="el81hxjd8unm4" class="animable"></path><path d="M270.36,184.16l7-4a.64.64,0,0,1,.54,0l1.78,1c.15.08.15.22,0,.31l-7,4a.57.57,0,0,1-.54,0l-1.78-1C270.21,184.38,270.21,184.24,270.36,184.16Z" style="fill: rgb(243, 114, 12); transform-origin: 275.02px 182.819px;" id="elw6vps2x0wn" class="animable"></path><path d="M273.68,183.85a.44.44,0,0,1,0,.64,1.71,1.71,0,0,1-1.59.28c-.57-.18-.78-.59-.47-.92l.1-.09c-.06.23.13.47.51.59a1.42,1.42,0,0,0,1.33-.23A.41.41,0,0,0,273.68,183.85Z" style="fill: rgb(255, 255, 255); transform-origin: 272.647px 184.308px;" id="eli2ltokhvux" class="animable"></path><path d="M273.77,182.72l1.8-1a.33.33,0,0,1,.29,0c.08,0,.08.12,0,.17l-1.8,1a.33.33,0,0,1-.29,0C273.68,182.84,273.69,182.77,273.77,182.72Z" style="fill: rgb(250, 250, 250); transform-origin: 274.813px 182.305px;" id="el4lm6c7vyafv" class="animable"></path><path d="M274.32,183l3.65-2.11a.3.3,0,0,1,.29,0,.08.08,0,0,1,0,.16l-3.65,2.11a.33.33,0,0,1-.29,0C274.24,183.16,274.24,183.09,274.32,183Z" style="fill: rgb(250, 250, 250); transform-origin: 276.3px 182.023px;" id="elu7fimdt6hk" class="animable"></path><path d="M274.88,183.36l3.65-2.11a.3.3,0,0,1,.29,0c.08,0,.07.12,0,.16l-3.65,2.11a.33.33,0,0,1-.29,0C274.79,183.48,274.8,183.41,274.88,183.36Z" style="fill: rgb(250, 250, 250); transform-origin: 276.846px 182.383px;" id="el2mbj8zhtm63" class="animable"></path></g></g></g><g id="freepik--speech-bubble--inject-2" class="animable" style="transform-origin: 154.355px 99.1019px;"><path d="M134.43,170.28c-.37-.22-3.3-1.87-4.05-2.34a1.43,1.43,0,0,1-.58-.67L124.93,156l2.44-1.41,6.49,15A1.46,1.46,0,0,0,134.43,170.28Z" style="fill: rgb(243, 114, 12); transform-origin: 129.68px 162.435px;" id="elybpi3vwwi0t" class="animable"></path><g id="elezoms4k4wem"><g style="opacity: 0.2; transform-origin: 129.68px 162.435px;" class="animable"><path d="M134.43,170.28c-.37-.22-3.3-1.87-4.05-2.34a1.43,1.43,0,0,1-.58-.67L124.93,156l2.44-1.41,6.49,15A1.46,1.46,0,0,0,134.43,170.28Z" style="fill: rgb(255, 255, 255); transform-origin: 129.68px 162.435px;" id="elg0p5ypvdahd" class="animable"></path></g></g><path d="M143.62,145.24l-7,24.19a1.48,1.48,0,0,1-2.21.85,1.46,1.46,0,0,1-.57-.67l-6.49-15Z" style="fill: rgb(243, 114, 12); transform-origin: 135.485px 157.873px;" id="eloswiwz5wovj" class="animable"></path><g id="el7zhx8l4ptvb"><g style="opacity: 0.7; transform-origin: 135.485px 157.873px;" class="animable"><path d="M143.62,145.24l-7,24.19a1.48,1.48,0,0,1-2.21.85,1.46,1.46,0,0,1-.57-.67l-6.49-15Z" style="fill: rgb(255, 255, 255); transform-origin: 135.485px 157.873px;" id="elak6thikxekg" class="animable"></path></g></g><path d="M223.08,27.27A1.26,1.26,0,0,0,223,27a.07.07,0,0,0,0-.06,1,1,0,0,0-.08-.28,1.38,1.38,0,0,0-.18-.39.54.54,0,0,0-.1-.16.94.94,0,0,0-.09-.12,1,1,0,0,0-.2-.2l0,0a1.17,1.17,0,0,0-.27-.15c-.65-.34-3.21-1.81-3.77-2.14a2.13,2.13,0,0,0-2.24.18L88.69,97.13a4,4,0,0,0-.65.45l-.1.09a6,6,0,0,0-.51.5s0,0,0,0a7.27,7.27,0,0,0-1,1.4h0a6.17,6.17,0,0,0-.81,2.85v67.4a3.83,3.83,0,0,0,.35,1.63,2.39,2.39,0,0,0,.42.63,1.87,1.87,0,0,0,.52.42l3.94,2.23,0,0,.15.09a1.07,1.07,0,0,0,.27.09,1.74,1.74,0,0,0,.39.05,2,2,0,0,0,1-.29L220,101.15a6.82,6.82,0,0,0,3.09-5.34V27.65C223.1,27.52,223.09,27.39,223.08,27.27ZM92,99.81h0l0,0Zm-.63.62,0,0h0Zm-.56.7h0ZM90,102.57h0Zm-.24.7c0,.06,0,.12,0,.19S89.75,103.33,89.77,103.27Zm-.17.71a5.62,5.62,0,0,0,0,.7A5.62,5.62,0,0,1,89.6,104Zm1.09,70.69.09.06Zm1.94-75.32h0L220,25.87Z" style="fill: rgb(243, 114, 12); transform-origin: 154.357px 99.1119px;" id="el1ffqa5njhfn" class="animable"></path><g id="ellyn5a0az7ci"><g style="opacity: 0.7; transform-origin: 156.335px 100.219px;" class="animable"><path d="M223.1,27.65V95.81a6.82,6.82,0,0,1-3.09,5.34L92.63,174.68a2,2,0,0,1-1,.29,1.74,1.74,0,0,1-.39-.05,1.07,1.07,0,0,1-.27-.09l-.16-.09-.18-.12a1.22,1.22,0,0,1-.17-.15,2.43,2.43,0,0,1-.57-.81,3.91,3.91,0,0,1-.32-1.56V104.7a6.83,6.83,0,0,1,3.08-5.35L220,25.87a2.25,2.25,0,0,1,2.07-.26,1.17,1.17,0,0,1,.27.15l0,0a1,1,0,0,1,.2.2.94.94,0,0,1,.09.12.54.54,0,0,1,.1.16,1.38,1.38,0,0,1,.18.39,1,1,0,0,1,.08.28.07.07,0,0,1,0,.06,1.26,1.26,0,0,1,.05.28C223.09,27.39,223.1,27.52,223.1,27.65Z" style="fill: rgb(255, 255, 255); transform-origin: 156.335px 100.219px;" id="eltik285atedr" class="animable"></path></g></g><g id="ellhkjx0fmu19"><g style="opacity: 0.2; transform-origin: 88.2249px 137.19px;" class="animable"><path d="M85.61,102.46v67.4a3.83,3.83,0,0,0,.35,1.63,2.39,2.39,0,0,0,.42.63,1.87,1.87,0,0,0,.52.42l3.94,2.23a2,2,0,0,1-.4-.3,2.43,2.43,0,0,1-.57-.81,4.68,4.68,0,0,1-.32-1.56V104.7a6.18,6.18,0,0,1,.79-2.83l-3.92-2.26A6.17,6.17,0,0,0,85.61,102.46Z" style="fill: rgb(255, 255, 255); transform-origin: 88.2249px 137.19px;" id="elb0k4jdsms5" class="animable"></path></g></g><g id="elxzha9q53z5b"><g style="opacity: 0.8; transform-origin: 154.25px 62.5319px;" class="animable"><path d="M218.31,23.47a2.13,2.13,0,0,0-2.24.18L88.69,97.13a4,4,0,0,0-.65.45l-.1.09a6,6,0,0,0-.51.5s0,0,0,0a7.27,7.27,0,0,0-1,1.4h0l3.92,2.26a7.39,7.39,0,0,1,1-1.41l.05-.06a5.9,5.9,0,0,1,.51-.49l.1-.1a4.46,4.46,0,0,1,.65-.45h0L220,25.87a2.25,2.25,0,0,1,2.07-.26C221.43,25.27,218.87,23.8,218.31,23.47Z" style="fill: rgb(255, 255, 255); transform-origin: 154.25px 62.5319px;" id="elvlz0oj5medd" class="animable"></path></g></g><g id="el1ix3ar1geym"><g style="opacity: 0.5; transform-origin: 156.31px 125.58px;" class="animable"><path d="M96.87,158.18l10-5.79c1.19-.69,2.16-.48,2.16.46a4.21,4.21,0,0,1-2.16,3l-10,5.78c-1.19.69-2.16.49-2.16-.46A4.19,4.19,0,0,1,96.87,158.18Z" style="fill: rgb(69, 90, 100); transform-origin: 101.87px 157.011px;" id="elz9j1iphh5lr" class="animable"></path><path d="M115,147.7l10-5.78c1.2-.69,2.17-.49,2.17.45a4.18,4.18,0,0,1-2.17,3l-10,5.78c-1.2.69-2.17.49-2.17-.46A4.18,4.18,0,0,1,115,147.7Z" style="fill: rgb(69, 90, 100); transform-origin: 120px 146.535px;" id="el07sjzafmrthf" class="animable"></path><path d="M133.16,137.22l10-5.78c1.19-.69,2.16-.49,2.16.46a4.19,4.19,0,0,1-2.16,2.95l-10,5.78c-1.19.69-2.16.49-2.16-.45A4.19,4.19,0,0,1,133.16,137.22Z" style="fill: rgb(69, 90, 100); transform-origin: 138.16px 136.035px;" id="el18cxfixbzxm" class="animable"></path><path d="M151.31,126.74l10-5.78c1.2-.69,2.17-.48,2.17.46a4.2,4.2,0,0,1-2.17,3l-10,5.78c-1.2.69-2.16.48-2.16-.46A4.18,4.18,0,0,1,151.31,126.74Z" style="fill: rgb(69, 90, 100); transform-origin: 156.315px 125.58px;" id="elgmbuhshgfwf" class="animable"></path><path d="M169.46,116.27l10-5.79c1.19-.69,2.16-.48,2.16.46a4.21,4.21,0,0,1-2.16,3l-10,5.78c-1.2.69-2.17.49-2.17-.46A4.18,4.18,0,0,1,169.46,116.27Z" style="fill: rgb(69, 90, 100); transform-origin: 174.455px 115.101px;" id="elzrtbc2dygrn" class="animable"></path><path d="M187.6,105.79l10-5.78c1.2-.69,2.17-.49,2.17.45a4.18,4.18,0,0,1-2.17,3l-10,5.78c-1.19.69-2.16.49-2.16-.46A4.19,4.19,0,0,1,187.6,105.79Z" style="fill: rgb(69, 90, 100); transform-origin: 192.605px 104.625px;" id="elto8h53ad4ka" class="animable"></path><path d="M205.75,95.31l10-5.78c1.19-.69,2.16-.49,2.16.46a4.19,4.19,0,0,1-2.16,3l-10,5.78c-1.2.69-2.17.49-2.17-.45A4.18,4.18,0,0,1,205.75,95.31Z" style="fill: rgb(69, 90, 100); transform-origin: 210.745px 94.1503px;" id="el04a73hafcudt" class="animable"></path></g></g><g id="eluii9xfenpdf"><g style="opacity: 0.3; transform-origin: 156.088px 98.15px;" class="animable"><path d="M110.89,150.37a.35.35,0,0,1-.35-.35V148.6a.35.35,0,1,1,.7,0V150A.35.35,0,0,1,110.89,150.37Z" style="fill: rgb(69, 90, 100); transform-origin: 110.89px 149.31px;" id="elazcvf7x0kfg" class="animable"></path><path d="M110.89,146.09a.35.35,0,0,1-.35-.36v-2.87a.35.35,0,0,1,.7,0v2.87A.35.35,0,0,1,110.89,146.09Zm0-5.74a.35.35,0,0,1-.35-.36v-2.86a.35.35,0,1,1,.7,0V140A.35.35,0,0,1,110.89,140.35Zm0-5.74a.35.35,0,0,1-.35-.35v-2.87a.35.35,0,1,1,.7,0v2.87A.35.35,0,0,1,110.89,134.61Zm0-5.73a.35.35,0,0,1-.35-.36v-2.87a.35.35,0,1,1,.7,0v2.87A.35.35,0,0,1,110.89,128.88Zm0-5.74a.35.35,0,0,1-.35-.36v-2.86a.35.35,0,1,1,.7,0v2.86A.35.35,0,0,1,110.89,123.14Zm0-5.74a.35.35,0,0,1-.35-.35v-2.87a.35.35,0,1,1,.7,0v2.87A.35.35,0,0,1,110.89,117.4Zm0-5.73a.35.35,0,0,1-.35-.36v-2.87a.35.35,0,0,1,.7,0v2.87A.35.35,0,0,1,110.89,111.67Zm0-5.74a.35.35,0,0,1-.35-.36v-2.86a.35.35,0,1,1,.7,0v2.86A.35.35,0,0,1,110.89,105.93Z" style="fill: rgb(69, 90, 100); transform-origin: 110.89px 124.225px;" id="elj07cc166rek" class="animable"></path><path d="M110.89,100.19a.35.35,0,0,1-.35-.35V98.42a.35.35,0,1,1,.7,0v1.42A.35.35,0,0,1,110.89,100.19Z" style="fill: rgb(69, 90, 100); transform-origin: 110.89px 99.13px;" id="elj29xlz7egek" class="animable"></path><path d="M129,139.94a.36.36,0,0,1-.36-.35v-1.42a.36.36,0,0,1,.71,0v1.42A.35.35,0,0,1,129,139.94Z" style="fill: rgb(69, 90, 100); transform-origin: 128.995px 138.905px;" id="el748v01xcxlw" class="animable"></path><path d="M129,135.66a.36.36,0,0,1-.36-.36v-2.87a.36.36,0,0,1,.71,0v2.87A.36.36,0,0,1,129,135.66Zm0-5.74a.36.36,0,0,1-.36-.35V126.7a.36.36,0,1,1,.71,0v2.87A.35.35,0,0,1,129,129.92Zm0-5.74a.35.35,0,0,1-.36-.35V121a.36.36,0,0,1,.71,0v2.87A.35.35,0,0,1,129,124.18Zm0-5.73a.36.36,0,0,1-.36-.36v-2.86a.36.36,0,1,1,.71,0v2.86A.36.36,0,0,1,129,118.45Zm0-5.74a.36.36,0,0,1-.36-.35v-2.87a.36.36,0,1,1,.71,0v2.87A.35.35,0,0,1,129,112.71Zm0-5.74a.35.35,0,0,1-.36-.35v-2.87a.36.36,0,0,1,.71,0v2.87A.35.35,0,0,1,129,107Zm0-5.73a.36.36,0,0,1-.36-.36V98a.36.36,0,1,1,.71,0v2.86A.36.36,0,0,1,129,101.24Zm0-5.74a.36.36,0,0,1-.36-.35V92.28a.36.36,0,1,1,.71,0v2.87A.35.35,0,0,1,129,95.5Z" style="fill: rgb(69, 90, 100); transform-origin: 128.995px 113.76px;" id="ellil3vajqp8t" class="animable"></path><path d="M129,89.77a.36.36,0,0,1-.36-.36V88a.36.36,0,0,1,.71,0v1.42A.36.36,0,0,1,129,89.77Z" style="fill: rgb(69, 90, 100); transform-origin: 128.995px 88.7349px;" id="elskiuwbvzad" class="animable"></path><path d="M147.05,129.52a.36.36,0,0,1-.36-.36v-1.42a.36.36,0,0,1,.71,0v1.42A.36.36,0,0,1,147.05,129.52Z" style="fill: rgb(69, 90, 100); transform-origin: 147.045px 128.48px;" id="elhj4q6fucrbk" class="animable"></path><path d="M147.05,125.23a.36.36,0,0,1-.36-.35V122a.36.36,0,1,1,.71,0v2.87A.35.35,0,0,1,147.05,125.23Zm0-5.74a.36.36,0,0,1-.36-.35v-2.87a.36.36,0,0,1,.71,0v2.87A.35.35,0,0,1,147.05,119.49Zm0-5.73a.36.36,0,0,1-.36-.36v-2.87a.36.36,0,0,1,.71,0v2.87A.36.36,0,0,1,147.05,113.76Zm0-5.74a.36.36,0,0,1-.36-.35V104.8a.36.36,0,1,1,.71,0v2.87A.35.35,0,0,1,147.05,108Zm0-5.74a.36.36,0,0,1-.36-.35V99.06a.36.36,0,0,1,.71,0v2.87A.35.35,0,0,1,147.05,102.28Zm0-5.73a.36.36,0,0,1-.36-.36V93.32a.36.36,0,0,1,.71,0v2.87A.36.36,0,0,1,147.05,96.55Zm0-5.74a.36.36,0,0,1-.36-.35V87.59a.36.36,0,1,1,.71,0v2.87A.35.35,0,0,1,147.05,90.81Zm0-5.74a.35.35,0,0,1-.36-.35V81.85a.36.36,0,0,1,.71,0v2.87A.35.35,0,0,1,147.05,85.07Z" style="fill: rgb(69, 90, 100); transform-origin: 147.045px 103.39px;" id="elt1via30ik28" class="animable"></path><path d="M147.05,79.34a.36.36,0,0,1-.36-.36V77.57a.36.36,0,1,1,.71,0V79A.36.36,0,0,1,147.05,79.34Z" style="fill: rgb(69, 90, 100); transform-origin: 147.045px 78.2451px;" id="elghiai41na6" class="animable"></path><path d="M165.12,119.09a.36.36,0,0,1-.35-.36v-1.41a.36.36,0,1,1,.71,0v1.41A.36.36,0,0,1,165.12,119.09Z" style="fill: rgb(69, 90, 100); transform-origin: 165.125px 117.995px;" id="ely1jt2ulbv3c" class="animable"></path><path d="M165.12,114.8a.35.35,0,0,1-.35-.35v-2.87a.36.36,0,1,1,.71,0v2.87A.36.36,0,0,1,165.12,114.8Zm0-5.73a.36.36,0,0,1-.35-.36v-2.87a.36.36,0,0,1,.71,0v2.87A.36.36,0,0,1,165.12,109.07Zm0-5.74a.36.36,0,0,1-.35-.36v-2.86a.36.36,0,1,1,.71,0V103A.36.36,0,0,1,165.12,103.33Zm0-5.74a.35.35,0,0,1-.35-.35V94.37a.36.36,0,0,1,.71,0v2.87A.36.36,0,0,1,165.12,97.59Zm0-5.73a.36.36,0,0,1-.35-.36V88.63a.36.36,0,0,1,.71,0V91.5A.36.36,0,0,1,165.12,91.86Zm0-5.74a.36.36,0,0,1-.35-.36V82.9a.36.36,0,1,1,.71,0v2.86A.36.36,0,0,1,165.12,86.12Zm0-5.74a.35.35,0,0,1-.35-.35V77.16a.36.36,0,0,1,.71,0V80A.36.36,0,0,1,165.12,80.38Zm0-5.73a.36.36,0,0,1-.35-.36V71.42a.36.36,0,0,1,.71,0v2.87A.36.36,0,0,1,165.12,74.65Z" style="fill: rgb(69, 90, 100); transform-origin: 165.125px 92.9599px;" id="ele9tjfy19uvr" class="animable"></path><path d="M165.12,68.91a.35.35,0,0,1-.35-.35V67.14a.36.36,0,1,1,.71,0v1.42A.36.36,0,0,1,165.12,68.91Z" style="fill: rgb(69, 90, 100); transform-origin: 165.125px 67.8151px;" id="el465xt483tnn" class="animable"></path><path d="M183.2,108.66a.35.35,0,0,1-.35-.35v-1.42a.36.36,0,1,1,.71,0v1.42A.36.36,0,0,1,183.2,108.66Z" style="fill: rgb(69, 90, 100); transform-origin: 183.205px 107.565px;" id="elndtv3lph98" class="animable"></path><path d="M183.2,104.37a.35.35,0,0,1-.35-.35v-2.87a.36.36,0,0,1,.71,0V104A.35.35,0,0,1,183.2,104.37Zm0-5.73a.36.36,0,0,1-.35-.36V95.41a.36.36,0,0,1,.71,0v2.87A.36.36,0,0,1,183.2,98.64Zm0-5.74a.35.35,0,0,1-.35-.35V89.68a.36.36,0,1,1,.71,0v2.87A.36.36,0,0,1,183.2,92.9Zm0-5.74a.35.35,0,0,1-.35-.35V83.94a.36.36,0,0,1,.71,0v2.87A.35.35,0,0,1,183.2,87.16Zm0-5.73a.36.36,0,0,1-.35-.36V78.21a.36.36,0,1,1,.71,0v2.86A.36.36,0,0,1,183.2,81.43Zm0-5.74a.35.35,0,0,1-.35-.35V72.47a.36.36,0,1,1,.71,0v2.87A.36.36,0,0,1,183.2,75.69Zm0-5.73a.36.36,0,0,1-.35-.36V66.73a.36.36,0,0,1,.71,0V69.6A.36.36,0,0,1,183.2,70Zm0-5.74a.36.36,0,0,1-.35-.36V61a.36.36,0,1,1,.71,0v2.86A.36.36,0,0,1,183.2,64.22Z" style="fill: rgb(69, 90, 100); transform-origin: 183.205px 82.4752px;" id="elk7fky7bpr1k" class="animable"></path><path d="M183.2,58.48a.35.35,0,0,1-.35-.35V56.71a.36.36,0,0,1,.71,0v1.42A.36.36,0,0,1,183.2,58.48Z" style="fill: rgb(69, 90, 100); transform-origin: 183.205px 57.4449px;" id="elzlihe2j7g4h" class="animable"></path><path d="M201.28,98.23a.35.35,0,0,1-.35-.35V96.46a.35.35,0,0,1,.7,0v1.42A.35.35,0,0,1,201.28,98.23Z" style="fill: rgb(69, 90, 100); transform-origin: 201.28px 97.17px;" id="el45ylaeb882f" class="animable"></path><path d="M201.28,94a.35.35,0,0,1-.35-.36V90.72a.35.35,0,0,1,.7,0v2.87A.35.35,0,0,1,201.28,94Zm0-5.74a.35.35,0,0,1-.35-.35V85a.35.35,0,1,1,.7,0v2.87A.35.35,0,0,1,201.28,88.21Zm0-5.74a.35.35,0,0,1-.35-.35V79.25a.35.35,0,1,1,.7,0v2.87A.35.35,0,0,1,201.28,82.47Zm0-5.73a.35.35,0,0,1-.35-.36V73.51a.35.35,0,0,1,.7,0v2.87A.35.35,0,0,1,201.28,76.74Zm0-5.74a.35.35,0,0,1-.35-.35V67.78a.35.35,0,1,1,.7,0v2.87A.35.35,0,0,1,201.28,71Zm0-5.74a.35.35,0,0,1-.35-.35V62a.35.35,0,1,1,.7,0v2.87A.35.35,0,0,1,201.28,65.26Zm0-5.73a.35.35,0,0,1-.35-.36V56.3a.35.35,0,1,1,.7,0v2.87A.35.35,0,0,1,201.28,59.53Zm0-5.74a.35.35,0,0,1-.35-.35V50.57a.35.35,0,1,1,.7,0v2.87A.35.35,0,0,1,201.28,53.79Z" style="fill: rgb(69, 90, 100); transform-origin: 201.283px 72.11px;" id="eliqvvs1rn3cb" class="animable"></path><path d="M201.28,48.05a.34.34,0,0,1-.35-.35V46.28a.35.35,0,1,1,.7,0V47.7A.34.34,0,0,1,201.28,48.05Z" style="fill: rgb(69, 90, 100); transform-origin: 201.28px 46.9901px;" id="el5fnx5nme5cf" class="animable"></path></g></g><path d="M100,147.07l3.79-2.19a4.78,4.78,0,0,0,2.17-3.75V118c0-1.38-1-1.94-2.16-1.25L100,118.93a4.78,4.78,0,0,0-2.17,3.75v23.14C97.82,147.2,98.79,147.76,100,147.07Z" style="fill: rgb(243, 114, 12); transform-origin: 101.895px 131.91px;" id="elve8xta8e7jh" class="animable"></path><path d="M118.13,136.62l3.8-2.19a4.8,4.8,0,0,0,2.16-3.75V119c0-1.39-1-1.94-2.17-1.25L118.13,120a4.8,4.8,0,0,0-2.16,3.75v11.65C116,136.75,116.94,137.31,118.13,136.62Z" style="fill: rgb(243, 114, 12); transform-origin: 120.03px 127.184px;" id="el2wjytdcce1k" class="animable"></path><path d="M136.28,111.42l3.79-2.19a4.78,4.78,0,0,0,2.17-3.75V85.17c0-1.38-1-1.94-2.17-1.25l-3.79,2.19a4.78,4.78,0,0,0-2.17,3.75v20.31C134.11,111.55,135.08,112.11,136.28,111.42Z" style="fill: rgb(243, 114, 12); transform-origin: 138.175px 97.67px;" id="elip101n5p1dn" class="animable"></path><path d="M154.42,106.4l3.8-2.19a4.8,4.8,0,0,0,2.16-3.75V75c0-1.39-1-1.95-2.16-1.25l-3.8,2.18a4.8,4.8,0,0,0-2.16,3.75v25.48C152.26,106.53,153.23,107.09,154.42,106.4Z" style="fill: rgb(243, 114, 12); transform-origin: 156.32px 90.072px;" id="el5okx6p3tugl" class="animable"></path><path d="M172.57,95.16,176.36,93a4.78,4.78,0,0,0,2.17-3.75V71.75c0-1.38-1-1.94-2.17-1.25l-3.79,2.19a4.78,4.78,0,0,0-2.17,3.75V93.91C170.4,95.29,171.37,95.85,172.57,95.16Z" style="fill: rgb(243, 114, 12); transform-origin: 174.465px 82.83px;" id="elkq432cjl3l" class="animable"></path><path d="M190.71,95l3.8-2.19A4.8,4.8,0,0,0,196.67,89V66.84c0-1.38-1-1.94-2.16-1.25l-3.79,2.19a4.78,4.78,0,0,0-2.17,3.75v22.2C188.55,95.11,189.52,95.67,190.71,95Z" style="fill: rgb(243, 114, 12); transform-origin: 192.61px 80.2886px;" id="elpgzjspuwh7" class="animable"></path><path d="M208.86,69.2,212.65,67a4.78,4.78,0,0,0,2.17-3.75V48.63c0-1.38-1-1.94-2.17-1.24l-3.79,2.18a4.77,4.77,0,0,0-2.16,3.75V68C206.7,69.33,207.66,69.89,208.86,69.2Z" style="fill: rgb(243, 114, 12); transform-origin: 210.76px 58.2924px;" id="elx1bk82ugbne" class="animable"></path></g><defs>     <filter id="active" height="200%">         <feMorphology in="SourceAlpha" result="DILATED" operator="dilate" radius="2"></feMorphology>                <feFlood flood-color="#32DFEC" flood-opacity="1" result="PINK"></feFlood>        <feComposite in="PINK" in2="DILATED" operator="in" result="OUTLINE"></feComposite>        <feMerge>            <feMergeNode in="OUTLINE"></feMergeNode>            <feMergeNode in="SourceGraphic"></feMergeNode>        </feMerge>    </filter>    <filter id="hover" height="200%">        <feMorphology in="SourceAlpha" result="DILATED" operator="dilate" radius="2"></feMorphology>                <feFlood flood-color="#ff0000" flood-opacity="0.5" result="PINK"></feFlood>        <feComposite in="PINK" in2="DILATED" operator="in" result="OUTLINE"></feComposite>        <feMerge>            <feMergeNode in="OUTLINE"></feMergeNode>            <feMergeNode in="SourceGraphic"></feMergeNode>        </feMerge>            <feColorMatrix type="matrix" values="0   0   0   0   0                0   1   0   0   0                0   0   0   0   0                0   0   0   1   0 "></feColorMatrix>    </filter></defs></svg>