<?xml version="1.0" encoding="iso-8859-1"?>
<!-- Generator: Adobe Illustrator 19.0.0, SVG Export Plug-In . SVG Version: 6.00 Build 0)  -->
<svg version="1.1" id="Layer_1" xmlns="http://www.w3.org/2000/svg" xmlns:xlink="http://www.w3.org/1999/xlink" x="0px" y="0px"
	 viewBox="0 0 512 512" style="enable-background:new 0 0 512 512;" xml:space="preserve">
<path style="fill:#1E0478;" d="M457.599,54.353C492.676,89.43,512,136.073,512,185.679s-19.323,96.249-54.401,131.339
	c-36.21,36.197-83.775,54.309-131.326,54.309c-43.455,0-86.896-15.122-121.684-45.338l-22.129,22.129l22.551,22.537
	c2.463,2.476,3.859,5.822,3.859,9.313c0,3.504-1.396,6.85-3.859,9.313L99.397,494.894c-10.999,10.999-25.62,17.058-41.176,17.058
	c-15.543,0-30.164-6.059-41.163-17.058S0,469.275,0,453.731c0-15.556,6.059-30.177,17.058-41.176l105.614-105.614
	c2.463-2.463,5.809-3.859,9.313-3.859c3.491,0,6.836,1.396,9.313,3.859l22.537,22.551l22.116-22.129
	c-29.374-33.76-45.404-76.49-45.404-121.684c0-49.606,19.31-96.249,54.401-131.326C267.354-18.054,385.179-18.054,457.599,54.353z
	 M485.656,185.679c0-42.572-16.584-82.589-46.682-112.701c-31.073-31.073-71.893-46.603-112.701-46.603
	c-40.82,0-81.628,15.53-112.701,46.603c-30.111,30.111-46.682,70.128-46.682,112.701s16.571,82.602,46.682,112.701
	c62.146,62.146,163.255,62.146,225.401,0C469.072,268.281,485.656,228.251,485.656,185.679z M158.329,398.712l18.731-18.744
	l-45.075-45.075l-18.744,18.731L158.329,398.712z M80.771,476.269l58.932-58.932l-45.088-45.088l-58.932,58.932
	c-6.02,6.02-9.339,14.028-9.339,22.551c0,8.509,3.319,16.518,9.339,22.537c6.02,6.02,14.028,9.339,22.537,9.339
	C66.743,485.608,74.752,482.289,80.771,476.269z"/>
<path style="fill:#9B8CCC;" d="M438.974,72.978c30.098,30.111,46.682,70.128,46.682,112.701s-16.584,82.602-46.682,112.701
	c-62.146,62.146-163.255,62.146-225.401,0c-30.111-30.098-46.682-70.128-46.682-112.701s16.571-82.589,46.682-112.701
	c31.073-31.073,71.88-46.603,112.701-46.603C367.08,26.375,407.901,41.905,438.974,72.978z M454.846,185.679
	c0-32.943-12.54-65.874-37.62-90.953c-50.146-50.159-131.761-50.159-181.92,0c-50.159,50.146-50.159,131.761,0,181.92
	c25.08,25.08,58.023,37.62,90.967,37.62s65.874-12.54,90.953-37.62C442.306,251.566,454.846,218.622,454.846,185.679z"/>
<path style="fill:#1E0478;" d="M417.227,94.726c25.08,25.08,37.62,58.01,37.62,90.953s-12.54,65.887-37.62,90.967
	c-25.08,25.08-58.01,37.62-90.953,37.62s-65.887-12.54-90.967-37.62c-50.159-50.159-50.159-131.774,0-181.92
	C285.466,44.566,367.08,44.566,417.227,94.726z M398.601,258.02c39.885-39.885,39.885-104.784,0-144.669
	c-19.943-19.943-46.142-29.914-72.328-29.914c-26.199,0-52.399,9.971-72.341,29.914c-39.885,39.885-39.885,104.784,0,144.669
	S358.716,297.905,398.601,258.02z"/>
<path style="fill:#FFFFFF;" d="M398.601,113.351c39.885,39.885,39.885,104.784,0,144.669s-104.784,39.885-144.669,0
	s-39.885-104.784,0-144.669c19.943-19.943,46.142-29.914,72.341-29.914C352.459,83.437,378.659,93.408,398.601,113.351z
	 M375.313,155.265c5.15-5.15,5.15-13.488,0-18.625c-27.042-27.056-71.05-27.056-98.093,0c-5.137,5.137-5.137,13.475,0,18.625
	c5.15,5.137,13.488,5.137,18.625,0c16.781-16.781,44.074-16.781,60.842,0c2.569,2.569,5.941,3.859,9.313,3.859
	C369.372,159.124,372.744,157.833,375.313,155.265z"/>
<path style="fill:#1E0478;" d="M375.313,136.639c5.15,5.137,5.15,13.475,0,18.625c-2.569,2.569-5.941,3.859-9.313,3.859
	c-3.372,0-6.744-1.291-9.313-3.859c-16.768-16.781-44.061-16.781-60.842,0c-5.137,5.137-13.475,5.137-18.625,0
	c-5.137-5.15-5.137-13.488,0-18.625C304.263,109.584,348.271,109.584,375.313,136.639z"/>
<polygon style="fill:#94E7EF;" points="177.06,379.968 158.329,398.712 113.241,353.623 131.985,334.893 "/>
<path style="fill:#9B8CCC;" d="M139.703,417.337l-58.932,58.932c-6.02,6.02-14.028,9.339-22.551,9.339
	c-8.509,0-16.518-3.319-22.537-9.339c-6.02-6.02-9.339-14.028-9.339-22.538c0-8.522,3.319-16.531,9.339-22.551l58.932-58.932
	L139.703,417.337z"/>
<g>
</g>
<g>
</g>
<g>
</g>
<g>
</g>
<g>
</g>
<g>
</g>
<g>
</g>
<g>
</g>
<g>
</g>
<g>
</g>
<g>
</g>
<g>
</g>
<g>
</g>
<g>
</g>
<g>
</g>
</svg>
