<svg xmlns="http://www.w3.org/2000/svg" viewBox="0 0 500 500"><g id="freepik--Timer--inject-33"><g id="freepik--timer--inject-33"><path d="M172.1,221.5H327.9a7.54,7.54,0,0,1,7.54,7.54v4.14a0,0,0,0,1,0,0H164.56a0,0,0,0,1,0,0V229A7.54,7.54,0,0,1,172.1,221.5Z" style="fill:#37474f"></path><path d="M295.16,138.57a13.27,13.27,0,0,1,6.68,1.79l21.08,12.17a8.12,8.12,0,0,0-3.84-1H180.91a8.16,8.16,0,0,0-3.78.93l21-12.14a13.3,13.3,0,0,1,6.68-1.79Z" style="fill:#E57C23"></path><path d="M295.16,138.57a13.27,13.27,0,0,1,6.68,1.79l21.08,12.17a8.12,8.12,0,0,0-3.84-1H180.91a8.16,8.16,0,0,0-3.78.93l21-12.14a13.3,13.3,0,0,1,6.68-1.79Z" style="fill:#fff;opacity:0.2"></path><path d="M172.82,221.92H327.18V159.66a8.1,8.1,0,0,0-8.1-8.1H180.91a8.1,8.1,0,0,0-8.09,8.1Z" style="fill:#E57C23"></path><path d="M172.82,221.92H327.18V159.66a8.1,8.1,0,0,0-8.1-8.1H180.91a8.1,8.1,0,0,0-8.09,8.1Z" style="opacity:0.2"></path><circle cx="286.56" cy="187.41" r="29.59" transform="translate(-48.59 257.52) rotate(-45)" style="fill:#fafafa"></circle><path d="M286.56,161.4a.78.78,0,0,0-.75.81v3.33a.75.75,0,1,0,1.49,0V162.2A.77.77,0,0,0,286.56,161.4Z" style="fill:#E57C23"></path><path d="M312.57,187.41a.79.79,0,0,1-.81.75h-3.33a.78.78,0,0,1-.81-.75.8.8,0,0,1,.81-.75h3.34A.77.77,0,0,1,312.57,187.41Z" style="fill:#E57C23"></path><path d="M260.55,187.41a.78.78,0,0,1,.81-.75h3.33a.77.77,0,0,1,.8.75.78.78,0,0,1-.81.75h-3.33A.77.77,0,0,1,260.55,187.41Z" style="fill:#E57C23"></path><path d="M286.56,213.42a.77.77,0,0,0,.74-.81v-3.33a.77.77,0,0,0-.75-.8.78.78,0,0,0-.75.8v3.34A.77.77,0,0,0,286.56,213.42Z" style="fill:#E57C23"></path><path d="M297.5,169.65a.2.2,0,0,1-.13,0,.25.25,0,0,1-.09-.34l2.47-4.28a.25.25,0,0,1,.34-.09.26.26,0,0,1,.1.34l-2.48,4.28A.24.24,0,0,1,297.5,169.65Z" style="fill:#455a64"></path><path d="M305,177.53a.26.26,0,0,1-.22-.13.25.25,0,0,1,.09-.34l4.28-2.47a.25.25,0,0,1,.25.43l-4.28,2.48A.27.27,0,0,1,305,177.53Z" style="fill:#455a64"></path><path d="M275.62,169.65a.26.26,0,0,1-.22-.13l-2.47-4.28a.25.25,0,1,1,.43-.25l2.48,4.28a.26.26,0,0,1-.1.34A.19.19,0,0,1,275.62,169.65Z" style="fill:#455a64"></path><path d="M268.08,177.53a.31.31,0,0,1-.13,0L263.67,175a.25.25,0,0,1,.25-.43l4.28,2.47a.26.26,0,0,1,.1.34A.27.27,0,0,1,268.08,177.53Z" style="fill:#455a64"></path><path d="M300,210a.25.25,0,0,1-.22-.12l-2.47-4.29a.25.25,0,1,1,.43-.25l2.48,4.29a.26.26,0,0,1-.1.34A.27.27,0,0,1,300,210Z" style="fill:#455a64"></path><path d="M309.32,200.26a.28.28,0,0,1-.13,0l-4.28-2.48a.25.25,0,0,1,.25-.43l4.28,2.47a.25.25,0,0,1-.12.47Z" style="fill:#455a64"></path><path d="M273.15,210a.28.28,0,0,1-.13,0,.25.25,0,0,1-.09-.34l2.47-4.29a.25.25,0,0,1,.34-.09.26.26,0,0,1,.1.34l-2.48,4.29A.24.24,0,0,1,273.15,210Z" style="fill:#455a64"></path><path d="M263.8,200.26a.26.26,0,0,1-.22-.13.25.25,0,0,1,.09-.34l4.28-2.47a.25.25,0,1,1,.25.43l-4.28,2.48Z" style="fill:#455a64"></path><path d="M288.29,186.32a39.85,39.85,0,0,1,5.89-2.42l5.41-4.14-6.28,2.62a38.55,38.55,0,0,1-5,3.94Z" style="fill:#E57C23"></path><path d="M286.56,187.41c0-5.06,1.89-4.82,1.89-4.82L286.56,168l-1.89,14.61s1.89-.24,1.89,4.82Z" style="fill:#455a64"></path><path d="M289.36,187.41a2.8,2.8,0,1,1-2.8-2.8A2.81,2.81,0,0,1,289.36,187.41Z" style="fill:#455a64"></path><circle cx="286.56" cy="187.41" r="1.49" style="fill:#263238"></circle><path d="M282.61,199.29a.17.17,0,0,1,.17.17v.47a.17.17,0,0,1-.17.18h-1.19v3.6a.17.17,0,0,1-.05.13.18.18,0,0,1-.12,0h-.54a.17.17,0,0,1-.17-.18v-3.6h-1.19a.17.17,0,0,1-.12-.05.18.18,0,0,1-.06-.13v-.47a.14.14,0,0,1,.06-.12.13.13,0,0,1,.12-.05Z" style="fill:#e0e0e0"></path><path d="M283.62,203.89a.17.17,0,0,1-.12,0,.18.18,0,0,1-.06-.13v-4.25a.14.14,0,0,1,.06-.12.13.13,0,0,1,.12-.05h.53a.17.17,0,0,1,.18.17v4.25a.17.17,0,0,1-.18.18Z" style="fill:#e0e0e0"></path><path d="M287.51,201.63l1.25-2.17.09-.1a.24.24,0,0,1,.2-.07h.44a.17.17,0,0,1,.18.17v4.25a.17.17,0,0,1-.18.18H289a.17.17,0,0,1-.12,0,.18.18,0,0,1-.06-.13v-2.57l-.85,1.48a.44.44,0,0,1-.09.11.2.2,0,0,1-.15.05h-.35a.2.2,0,0,1-.15-.05.44.44,0,0,1-.09-.11l-.86-1.48v2.57a.17.17,0,0,1-.17.18h-.54a.18.18,0,0,1-.12,0,.17.17,0,0,1-.05-.13v-4.25a.13.13,0,0,1,.05-.12.15.15,0,0,1,.12-.05H286a.26.26,0,0,1,.2.07l.08.1Z" style="fill:#e0e0e0"></path><path d="M293.76,203.07a.17.17,0,0,1,.18.18v.46a.17.17,0,0,1-.18.18h-2.88a.17.17,0,0,1-.18-.18v-4.25a.17.17,0,0,1,.18-.17h2.83a.17.17,0,0,1,.18.17v.47a.17.17,0,0,1-.18.18h-2.12v1h2a.16.16,0,0,1,.12.06.13.13,0,0,1,.05.12v.47a.13.13,0,0,1-.05.12.16.16,0,0,1-.12.06h-2v1.09Z" style="fill:#e0e0e0"></path><circle cx="213.44" cy="187.41" r="29.59" transform="translate(-17.99 352.08) rotate(-76.72)" style="fill:#fafafa"></circle><path d="M213.44,161.4a.78.78,0,0,0-.75.81v3.33a.77.77,0,0,0,.75.8.78.78,0,0,0,.75-.81V162.2A.77.77,0,0,0,213.44,161.4Z" style="fill:#E57C23"></path><path d="M239.45,187.41a.78.78,0,0,1-.81.75h-3.33a.77.77,0,0,1-.8-.75.78.78,0,0,1,.81-.75h3.33A.77.77,0,0,1,239.45,187.41Z" style="fill:#E57C23"></path><path d="M187.43,187.41a.78.78,0,0,1,.81-.75h3.33a.77.77,0,0,1,.8.75.78.78,0,0,1-.81.75h-3.33A.77.77,0,0,1,187.43,187.41Z" style="fill:#E57C23"></path><path d="M213.44,213.42a.78.78,0,0,0,.75-.81v-3.33a.77.77,0,0,0-.75-.8.78.78,0,0,0-.75.8v3.34A.77.77,0,0,0,213.44,213.42Z" style="fill:#E57C23"></path><path d="M224.38,169.65a.2.2,0,0,1-.13,0,.25.25,0,0,1-.09-.34l2.47-4.28a.26.26,0,0,1,.35-.09.26.26,0,0,1,.09.34l-2.48,4.28A.24.24,0,0,1,224.38,169.65Z" style="fill:#455a64"></path><path d="M231.92,177.53a.26.26,0,0,1-.22-.13.25.25,0,0,1,.09-.34l4.28-2.47a.25.25,0,1,1,.25.43L232,177.5A.27.27,0,0,1,231.92,177.53Z" style="fill:#455a64"></path><path d="M202.5,169.65a.26.26,0,0,1-.22-.13l-2.47-4.28a.25.25,0,1,1,.43-.25l2.48,4.28a.26.26,0,0,1-.09.34A.22.22,0,0,1,202.5,169.65Z" style="fill:#455a64"></path><path d="M195,177.53a.24.24,0,0,1-.12,0L190.55,175a.25.25,0,1,1,.25-.43l4.29,2.47a.25.25,0,0,1-.13.47Z" style="fill:#455a64"></path><path d="M226.85,210a.25.25,0,0,1-.22-.12l-2.47-4.29a.25.25,0,0,1,.43-.25l2.48,4.29a.26.26,0,0,1-.09.34A.31.31,0,0,1,226.85,210Z" style="fill:#455a64"></path><path d="M236.2,200.26a.31.31,0,0,1-.13,0l-4.28-2.48a.25.25,0,0,1,.25-.43l4.28,2.47a.25.25,0,0,1-.12.47Z" style="fill:#455a64"></path><path d="M200,210a.28.28,0,0,1-.13,0,.25.25,0,0,1-.09-.34l2.47-4.29a.26.26,0,0,1,.35-.09.26.26,0,0,1,.09.34l-2.48,4.29A.24.24,0,0,1,200,210Z" style="fill:#455a64"></path><path d="M190.68,200.26a.26.26,0,0,1-.22-.13.25.25,0,0,1,.09-.34l4.29-2.47a.25.25,0,0,1,.34.09.26.26,0,0,1-.09.34l-4.29,2.48Z" style="fill:#455a64"></path><path d="M211.87,188.37a40.28,40.28,0,0,1-5.9,2.43l-5.41,4.13,6.29-2.62a38.55,38.55,0,0,1,5-3.94Z" style="fill:#E57C23"></path><path d="M213.44,187.41c0-5.06,1.89-4.82,1.89-4.82L213.44,168l-1.89,14.61s1.89-.24,1.89,4.82Z" style="fill:#455a64"></path><path d="M216.24,187.41a2.8,2.8,0,1,1-2.8-2.8A2.8,2.8,0,0,1,216.24,187.41Z" style="fill:#455a64"></path><path d="M214.93,187.41a1.49,1.49,0,1,1-1.49-1.49A1.49,1.49,0,0,1,214.93,187.41Z" style="fill:#263238"></path><path d="M209.49,199.29a.13.13,0,0,1,.12.05.14.14,0,0,1,.06.12v.47a.18.18,0,0,1-.06.13.17.17,0,0,1-.12.05h-1.18v3.6a.18.18,0,0,1-.06.13.17.17,0,0,1-.12,0h-.54a.18.18,0,0,1-.12,0,.17.17,0,0,1-.05-.13v-3.6h-1.19a.17.17,0,0,1-.17-.18v-.47a.17.17,0,0,1,.17-.17Z" style="fill:#e0e0e0"></path><path d="M210.5,203.89a.17.17,0,0,1-.12,0,.18.18,0,0,1-.06-.13v-4.25a.14.14,0,0,1,.06-.12.13.13,0,0,1,.12-.05H211a.16.16,0,0,1,.12.05.13.13,0,0,1,.05.12v4.25a.17.17,0,0,1-.05.13.21.21,0,0,1-.12,0Z" style="fill:#e0e0e0"></path><path d="M214.4,201.63l1.25-2.17.09-.1a.22.22,0,0,1,.19-.07h.45a.15.15,0,0,1,.12.05.13.13,0,0,1,.05.12v4.25a.17.17,0,0,1-.05.13.18.18,0,0,1-.12,0h-.54a.17.17,0,0,1-.17-.18v-2.57l-.86,1.48a.44.44,0,0,1-.09.11.2.2,0,0,1-.15.05h-.35a.2.2,0,0,1-.15-.05.44.44,0,0,1-.09-.11l-.85-1.48v2.57a.18.18,0,0,1-.06.13.17.17,0,0,1-.12,0h-.53a.17.17,0,0,1-.18-.18v-4.25a.17.17,0,0,1,.18-.17h.44a.24.24,0,0,1,.2.07l.09.1Z" style="fill:#e0e0e0"></path><path d="M220.65,203.07a.21.21,0,0,1,.12.05.17.17,0,0,1,0,.13v.46a.17.17,0,0,1,0,.13.21.21,0,0,1-.12,0h-2.89a.17.17,0,0,1-.18-.18v-4.25a.17.17,0,0,1,.18-.17h2.83a.17.17,0,0,1,.18.17v.47a.17.17,0,0,1-.18.18h-2.12v1h2a.21.21,0,0,1,.18.18v.47a.21.21,0,0,1-.18.18h-2v1.09Z" style="fill:#e0e0e0"></path><path d="M288.87,139a1.18,1.18,0,0,0-.68-1,3.62,3.62,0,0,0-3.27,0,1.16,1.16,0,0,0-.67,1v6.61a1.14,1.14,0,0,0,.67,1,3.62,3.62,0,0,0,3.27,0,1.15,1.15,0,0,0,.68-1Z" style="fill:#263238"></path><path d="M284.92,138a1.16,1.16,0,0,0-.67,1,1.14,1.14,0,0,0,.67.94,3.62,3.62,0,0,0,3.27,0,1.15,1.15,0,0,0,.68-.94,1.18,1.18,0,0,0-.68-1A3.62,3.62,0,0,0,284.92,138Z" style="fill:#455a64"></path><path d="M293.46,134.62a3.42,3.42,0,0,0-2-2.81,10.76,10.76,0,0,0-9.76,0,3.4,3.4,0,0,0-2,2.81v2.59a3.43,3.43,0,0,0,2,2.82,10.82,10.82,0,0,0,9.76,0,3.45,3.45,0,0,0,2-2.82Z" style="fill:#37474f"></path><path d="M281.68,131.81a3,3,0,0,0,0,5.63,10.82,10.82,0,0,0,9.76,0,3,3,0,0,0,0-5.63A10.76,10.76,0,0,0,281.68,131.81Z" style="fill:#455a64"></path><path d="M215.75,139a1.18,1.18,0,0,0-.68-1,3.6,3.6,0,0,0-3.26,0,1.16,1.16,0,0,0-.68,1v6.61a1.13,1.13,0,0,0,.68,1,3.6,3.6,0,0,0,3.26,0,1.15,1.15,0,0,0,.68-1Z" style="fill:#263238"></path><path d="M211.81,138a1.16,1.16,0,0,0-.68,1,1.13,1.13,0,0,0,.68.94,3.6,3.6,0,0,0,3.26,0,1.15,1.15,0,0,0,.68-.94,1.18,1.18,0,0,0-.68-1A3.6,3.6,0,0,0,211.81,138Z" style="fill:#455a64"></path><path d="M220.34,134.62a3.42,3.42,0,0,0-2-2.81,10.76,10.76,0,0,0-9.76,0,3.4,3.4,0,0,0-2,2.81v2.59a3.43,3.43,0,0,0,2,2.82,10.82,10.82,0,0,0,9.76,0,3.45,3.45,0,0,0,2-2.82Z" style="fill:#37474f"></path><path d="M208.56,131.81a3,3,0,0,0,0,5.63,10.82,10.82,0,0,0,9.76,0,3,3,0,0,0,0-5.63A10.76,10.76,0,0,0,208.56,131.81Z" style="fill:#455a64"></path></g></g><g id="freepik--Chessboard--inject-33"><g id="freepik--chessboard--inject-33"><polygon points="342.25 313.27 295.49 286.27 342.25 259.27 389.01 286.27 342.25 313.27" style="fill:#fafafa"></polygon><polygon points="342.25 313.27 342.25 329.47 389.01 302.47 389.01 286.27 342.25 313.27" style="fill:#f0f0f0"></polygon><polygon points="295.49 286.27 342.25 313.27 342.25 329.47 295.49 302.47 295.49 286.27" style="fill:#e0e0e0"></polygon><polygon points="248.72 313.27 201.96 286.27 248.72 259.27 295.49 286.27 248.72 313.27" style="fill:#fafafa"></polygon><polygon points="248.72 313.27 248.72 329.47 295.49 302.47 295.49 286.27 248.72 313.27" style="fill:#ebebeb"></polygon><polygon points="201.96 286.27 248.72 313.27 248.72 329.47 201.96 302.47 201.96 286.27" style="fill:#e0e0e0"></polygon><polygon points="201.96 340.27 155.2 313.27 201.96 286.27 248.72 313.27 201.96 340.27" style="fill:#E57C23"></polygon><polygon points="201.96 340.27 155.2 313.27 201.96 286.27 248.72 313.27 201.96 340.27" style="fill:#fff;opacity:0.2"></polygon><polygon points="201.96 340.27 201.96 356.47 248.72 329.47 248.72 313.27 201.96 340.27" style="fill:#E57C23"></polygon><polygon points="155.2 313.27 201.96 340.27 201.96 356.47 155.2 329.47 155.2 313.27" style="fill:#E57C23"></polygon><polygon points="155.2 313.27 201.96 340.27 201.96 356.47 155.2 329.47 155.2 313.27" style="opacity:0.2"></polygon><polygon points="155.2 367.27 108.44 340.27 155.2 313.27 201.96 340.27 155.2 367.27" style="fill:#fafafa"></polygon><polygon points="155.2 367.27 155.2 383.46 201.96 356.47 201.96 340.27 155.2 367.27" style="fill:#ebebeb"></polygon><polygon points="108.44 340.27 155.2 367.27 155.2 383.46 108.44 356.47 108.44 340.27" style="fill:#e0e0e0"></polygon><polygon points="295.49 340.27 248.72 313.27 295.49 286.27 342.25 313.27 295.49 340.27" style="fill:#E57C23"></polygon><polygon points="295.49 340.27 248.72 313.27 295.49 286.27 342.25 313.27 295.49 340.27" style="fill:#fff;opacity:0.2"></polygon><polygon points="295.49 340.27 295.49 356.47 342.25 329.47 342.25 313.27 295.49 340.27" style="fill:#E57C23"></polygon><polygon points="248.72 313.27 295.49 340.27 295.49 356.47 248.72 329.47 248.72 313.27" style="fill:#E57C23"></polygon><polygon points="248.72 313.27 295.49 340.27 295.49 356.47 248.72 329.47 248.72 313.27" style="opacity:0.2"></polygon><polygon points="248.72 367.27 201.96 340.27 248.72 313.27 295.49 340.27 248.72 367.27" style="fill:#fafafa"></polygon><polygon points="248.72 367.27 248.72 383.47 295.49 356.47 295.49 340.27 248.72 367.27" style="fill:#ebebeb"></polygon><polygon points="201.96 356.47 248.72 383.47 248.72 367.27 201.96 340.27 201.96 356.47" style="fill:#e0e0e0"></polygon><polygon points="201.96 394.26 155.2 367.27 201.96 340.27 248.72 367.27 201.96 394.26" style="fill:#E57C23"></polygon><polygon points="201.96 394.26 155.2 367.27 201.96 340.27 248.72 367.27 201.96 394.26" style="fill:#fff;opacity:0.2"></polygon><polygon points="201.96 394.26 201.96 410.46 248.72 383.47 248.72 367.27 201.96 394.26" style="fill:#E57C23"></polygon><polygon points="155.2 367.27 201.96 394.26 201.96 410.46 155.2 383.46 155.2 367.27" style="fill:#E57C23"></polygon><polygon points="155.2 367.27 201.96 394.26 201.96 410.46 155.2 383.46 155.2 367.27" style="opacity:0.2"></polygon><polygon points="342.25 367.27 295.49 340.27 342.25 313.27 389.01 340.27 342.25 367.27" style="fill:#fafafa"></polygon><polygon points="342.25 367.27 342.25 383.46 389.01 356.47 389.01 340.27 342.25 367.27" style="fill:#f0f0f0"></polygon><polygon points="295.49 340.27 342.25 367.27 342.25 383.46 295.49 356.47 295.49 340.27" style="fill:#e0e0e0"></polygon><polygon points="295.49 394.26 248.72 367.27 295.49 340.27 342.25 367.27 295.49 394.26" style="fill:#E57C23"></polygon><polygon points="295.49 394.26 248.72 367.27 295.49 340.27 342.25 367.27 295.49 394.26" style="fill:#fff;opacity:0.2"></polygon><polygon points="295.49 394.26 295.49 410.46 342.25 383.47 342.25 367.27 295.49 394.26" style="fill:#E57C23"></polygon><polygon points="248.72 367.27 295.49 394.26 295.49 410.46 248.72 383.47 248.72 367.27" style="fill:#E57C23"></polygon><polygon points="248.72 367.27 295.49 394.26 295.49 410.46 248.72 383.47 248.72 367.27" style="opacity:0.2"></polygon><polygon points="248.72 421.26 201.96 394.26 248.72 367.27 295.49 394.26 248.72 421.26" style="fill:#fafafa"></polygon><polygon points="248.72 421.26 248.72 437.46 295.49 410.46 295.49 394.26 248.72 421.26" style="fill:#ebebeb"></polygon><polygon points="201.96 394.26 248.72 421.26 248.72 437.46 201.96 410.46 201.96 394.26" style="fill:#e6e6e6"></polygon><polygon points="295.49 448.26 248.72 421.26 295.49 394.26 342.25 421.26 295.49 448.26" style="fill:#E57C23"></polygon><polygon points="295.49 448.26 248.72 421.26 295.49 394.26 342.25 421.26 295.49 448.26" style="fill:#fff;opacity:0.2"></polygon><polygon points="295.49 448.26 295.49 464.46 342.25 437.46 342.25 421.26 295.49 448.26" style="fill:#E57C23"></polygon><polygon points="248.72 421.26 295.49 448.26 295.49 464.46 248.72 437.46 248.72 421.26" style="fill:#E57C23"></polygon><polygon points="248.72 421.26 295.49 448.26 295.49 464.46 248.72 437.46 248.72 421.26" style="opacity:0.2"></polygon><polygon points="108.44 394.26 61.68 367.27 108.44 340.27 155.2 367.27 108.44 394.26" style="fill:#E57C23"></polygon><polygon points="108.44 394.26 61.68 367.27 108.44 340.27 155.2 367.27 108.44 394.26" style="fill:#fff;opacity:0.2"></polygon><polygon points="108.44 394.26 108.44 410.46 155.2 383.47 155.2 367.27 108.44 394.26" style="fill:#E57C23"></polygon><polygon points="61.68 367.27 108.44 394.26 108.44 410.46 61.68 383.46 61.68 367.27" style="fill:#E57C23"></polygon><polygon points="61.68 367.27 108.44 394.26 108.44 410.46 61.68 383.46 61.68 367.27" style="opacity:0.2"></polygon></g></g><g id="freepik--white-chess-pieces--inject-33"><g id="freepik--chess-piece--inject-33"><path d="M261.35,284.52c-6.31-3.64-16.53-3.64-22.83,0-3.16,1.82-4.72,4.21-4.72,6.59,0,.46,0,2.27,0,2.72,0,2.39,1.56,4.78,4.71,6.6,6.31,3.64,16.53,3.64,22.83,0,3.16-1.82,4.72-4.21,4.72-6.6,0-.45,0-2.26,0-2.72C266.06,288.73,264.5,286.34,261.35,284.52Z" style="fill:#ebebeb"></path><path d="M261.35,284.52c-6.31-3.64-16.53-3.64-22.83,0-3.16,1.82-4.72,4.21-4.72,6.59,0,.46,0,2.27,0,2.72,0,2.39,1.56,4.78,4.71,6.6,6.31,3.64,16.53,3.64,22.83,0,3.16-1.82,4.72-4.21,4.72-6.6,0-.45,0-2.26,0-2.72C266.06,288.73,264.5,286.34,261.35,284.52Z" style="opacity:0.2"></path><path d="M242.47,282.85a18.18,18.18,0,0,0-3.95,1.67c-3.16,1.82-4.72,4.21-4.72,6.59,0,.46,0,2.27,0,2.72,0,2.39,1.56,4.78,4.71,6.6a19,19,0,0,0,4,1.68Z" style="opacity:0.2"></path><path d="M238.52,284.52c6.3-3.64,16.52-3.64,22.83,0s6.3,9.54,0,13.18-16.52,3.64-22.83,0S232.21,288.16,238.52,284.52Z" style="fill:#ebebeb"></path><path d="M238.52,284.52c6.3-3.64,16.52-3.64,22.83,0s6.3,9.54,0,13.18-16.52,3.64-22.83,0S232.21,288.16,238.52,284.52Z" style="opacity:0.4"></path><path d="M249.92,278.23c-15.43,0-17.43,6.64-17.43,10.06s2.08,6.27,6.38,8.75h0A24.44,24.44,0,0,0,261,297c4.3-2.48,6.39-5.32,6.39-8.75S265.35,278.23,249.92,278.23Z" style="fill:#ebebeb"></path><path d="M255.68,292.14l-.29,0c-1.15.15-3.26,0-4.19.92-1.57,1.51.6,2.82,2,3.24a9.83,9.83,0,0,0,6.81-.62,10.45,10.45,0,0,0,4.47-3.8c.42-.72,1.21-2.81.16-3.29a1.43,1.43,0,0,0-1.67.41,13.4,13.4,0,0,1-1.64,1.15,13.89,13.89,0,0,1-1.59.91A15.08,15.08,0,0,1,255.68,292.14Z" style="fill:#fff;opacity:0.1"></path><path d="M248,290.14c9.11.82,15.49-2.81,17.74-6.71-2-2.71-6.41-5.2-15.86-5.2-15.43,0-17.43,6.64-17.43,10.06s2.08,6.27,6.38,8.75h0A24.44,24.44,0,0,0,261,297a20,20,0,0,0,2.63-1.78c-3.25,2.26-8.61,3.93-15.55,2.93S238.55,289.29,248,290.14Z" style="opacity:0.1"></path><path d="M242.49,287.31l-.85-8.24c-7.93,1.89-9.15,6.54-9.15,9.22,0,3.43,2.08,6.27,6.38,8.75h0c.13.08.28.15.42.22C234.55,294.19,237.49,285.85,242.49,287.31Z" style="opacity:0.1"></path><path d="M261.64,269.38c-6.47-3.74-16.95-3.74-23.42,0-3.23,1.87-4.83,4.32-4.83,6.76v3.67c0,2.44,1.6,4.89,4.83,6.76,6.47,3.74,16.95,3.74,23.42,0,3.23-1.87,4.84-4.32,4.83-6.77v-3.66C266.47,273.69,264.87,271.24,261.64,269.38Z" style="fill:#ebebeb"></path><path d="M261.64,269.38c-6.47-3.74-16.95-3.74-23.42,0-3.23,1.87-4.83,4.32-4.83,6.76v3.67c0,2.44,1.6,4.89,4.83,6.76,6.47,3.74,16.95,3.74,23.42,0,3.23-1.87,4.84-4.32,4.83-6.77v-3.66C266.47,273.69,264.87,271.24,261.64,269.38Z" style="opacity:0.2"></path><path d="M238.22,286.56a19.39,19.39,0,0,0,3.59,1.57V267.81a19.37,19.37,0,0,0-3.59,1.56c-3.23,1.87-4.83,4.32-4.83,6.76v3.67C233.38,282.24,235,284.69,238.22,286.56Z" style="opacity:0.2"></path><path d="M238.22,269.37c6.47-3.73,16.95-3.73,23.42,0s6.46,9.78,0,13.51-16.95,3.73-23.42,0S231.76,273.11,238.22,269.37Z" style="fill:#f5f5f5"></path><path d="M263.19,272.73h0c-1.83-4.28-6.43-17.13-6.43-38.22H243.09c0,21.09-4.61,33.94-6.43,38.22h0c-1.12,2.77.06,5.83,3.58,8,5.35,3.29,14,3.29,19.35,0C263.12,278.56,264.31,275.5,263.19,272.73Z" style="fill:#ebebeb"></path><path d="M256.3,248.43A108.63,108.63,0,0,0,260,268c1.19,4.13,2.94,6.94.65,9.51s-7.89,3.36-7.89,3.36a17.38,17.38,0,0,0,5.52-3.73c2.34-2.48.93-6.07.24-9.14C257.43,263.06,255.9,255.3,256.3,248.43Z" style="fill:#fff;opacity:0.1"></path><path d="M251.72,283.13c-1.17-.52-3.59-1.47-1.79-11.67s1.76-26.28,1.72-36.95h-8.56c0,21.09-4.61,33.94-6.43,38.22h0c-1.12,2.77.06,5.83,3.58,8A19.47,19.47,0,0,0,251.72,283.13Z" style="opacity:0.1"></path><path d="M243.75,266.2c1.59-6.83,2.07-20.89,2.11-31.69h-2.77c0,21.09-4.61,33.94-6.43,38.22h0c-1.12,2.77.06,5.83,3.58,8a15,15,0,0,0,3,1.38C238.77,279,242.09,273.3,243.75,266.2Z" style="opacity:0.1"></path><path d="M258.23,229.11c-4.58-2.65-12-2.65-16.6,0-2.29,1.32-3.43,3.06-3.43,4.79,0,.33,0,3.93,0,4.26,0,1.73,1.13,3.47,3.43,4.8,4.58,2.64,12,2.64,16.6,0,2.29-1.33,3.43-3.07,3.42-4.8V233.9C261.66,232.17,260.52,230.43,258.23,229.11Z" style="fill:#e0e0e0"></path><path d="M248.55,227.18a16.21,16.21,0,0,0-6.92,1.93c-2.29,1.32-3.43,3.06-3.43,4.79,0,.33,0,3.93,0,4.26,0,1.73,1.13,3.47,3.43,4.8a16.21,16.21,0,0,0,6.92,1.93Z" style="opacity:0.2"></path><path d="M241.63,229.11c4.59-2.65,12-2.65,16.6,0s4.58,6.94,0,9.58-12,2.65-16.6,0S237.05,231.75,241.63,229.11Z" style="fill:#f5f5f5"></path><path d="M259.15,211.64c-5.09-2.94-13.35-2.94-18.44,0-2.93,1.69-4.16,4-3.72,6.19h0l3.27,15.92h0a5.24,5.24,0,0,0,2.77,3.3,15.25,15.25,0,0,0,13.8,0,5.24,5.24,0,0,0,2.77-3.3h0l3.27-15.92h0C263.31,215.63,262.08,213.33,259.15,211.64Z" style="fill:#ebebeb"></path><path d="M260,212.19c-.71,5.93-2.24,18-3.12,24.83a5.21,5.21,0,0,0,2.73-3.27h0l3.27-15.92h0C263.27,215.85,262.3,213.81,260,212.19Z" style="fill:#fff;opacity:0.1"></path><path d="M243.62,210.38a15.58,15.58,0,0,0-2.91,1.26c-2.93,1.69-4.16,4-3.72,6.19h0l3.27,15.92h0a5.24,5.24,0,0,0,2.77,3.3,11.32,11.32,0,0,0,2.74,1.11Z" style="opacity:0.1"></path><path d="M240.71,211.64c5.09-2.94,13.35-2.94,18.44,0s5.09,7.71,0,10.65-13.35,2.94-18.44,0S235.62,214.58,240.71,211.64Z" style="fill:#f5f5f5"></path><path d="M259,213.17h0l-.19-.17-.2-.18a12.74,12.74,0,0,0-17.3,0l-.26.25-.21.19h0c-2.24,2.3-1.67,5.26,1.72,7.21a16.27,16.27,0,0,0,14.76,0C260.73,218.48,261.27,215.48,259,213.17Z" style="fill:#ebebeb"></path><path d="M254.55,210.85a12.23,12.23,0,0,1,4.21,3.06,4.1,4.1,0,0,1-.28,4.49,5.91,5.91,0,0,0-.45-4.21A11.31,11.31,0,0,0,254.55,210.85Z" style="fill:#fff;opacity:0.2"></path><path d="M242.84,218.24c-2.57-2.41-1.28-5.11.59-7a12.79,12.79,0,0,0-2.15,1.58l-.26.25-.21.19h0c-2.24,2.3-1.67,5.26,1.72,7.21a16.27,16.27,0,0,0,14.76,0,7.51,7.51,0,0,0,1.77-1.36c-.14.12-1.31,1.18-5.26,1.59C247.72,221.31,244.79,220.07,242.84,218.24Z" style="opacity:0.1"></path><path d="M255.31,206.67a5.39,5.39,0,1,1-5.38-5.38A5.38,5.38,0,0,1,255.31,206.67Z" style="fill:#ebebeb"></path><path d="M255.32,206.67a5.39,5.39,0,1,1-6-5.35,4.46,4.46,0,1,0,6,5.2A.76.76,0,0,1,255.32,206.67Z" style="opacity:0.2"></path><path d="M251.5,202.25a2.63,2.63,0,0,0-1.15,0,1.08,1.08,0,0,0-.92,1.12c0,.68.8,1,1.35,1.13l1,.3c.42.13.79.39,1.21.51s.69-.24.71-.64a1.87,1.87,0,0,0-.2-1,2.52,2.52,0,0,0-.69-.83A2.73,2.73,0,0,0,251.5,202.25Z" style="fill:#fff;opacity:0.2"></path></g><g id="freepik--chess-piece--inject-33"><path d="M422.38,398.64c-6.31-3.64-16.53-3.64-22.83,0-3.16,1.82-4.72,4.2-4.71,6.59V408c0,2.39,1.55,4.78,4.71,6.6,6.3,3.64,16.52,3.64,22.82,0,3.16-1.82,4.73-4.21,4.72-6.6,0-.45,0-2.26,0-2.72C427.09,402.84,425.53,400.46,422.38,398.64Z" style="fill:#ebebeb"></path><path d="M422.38,398.64c-6.31-3.64-16.53-3.64-22.83,0-3.16,1.82-4.72,4.2-4.71,6.59V408c0,2.39,1.55,4.78,4.71,6.6,6.3,3.64,16.52,3.64,22.82,0,3.16-1.82,4.73-4.21,4.72-6.6,0-.45,0-2.26,0-2.72C427.09,402.84,425.53,400.46,422.38,398.64Z" style="opacity:0.2"></path><path d="M403.5,397a18.71,18.71,0,0,0-3.95,1.68c-3.16,1.82-4.72,4.2-4.71,6.59V408c0,2.39,1.55,4.78,4.71,6.6a18.71,18.71,0,0,0,3.95,1.68Z" style="opacity:0.2"></path><path d="M399.55,398.64c6.3-3.64,16.52-3.64,22.83,0s6.3,9.54,0,13.18-16.53,3.64-22.83,0S393.24,402.28,399.55,398.64Z" style="fill:#ebebeb"></path><path d="M399.55,398.64c6.3-3.64,16.52-3.64,22.83,0s6.3,9.54,0,13.18-16.53,3.64-22.83,0S393.24,402.28,399.55,398.64Z" style="opacity:0.4"></path><path d="M411,392.35c-15.43,0-17.43,6.63-17.43,10.06s2.08,6.27,6.38,8.75h0a24.47,24.47,0,0,0,22.07,0c4.29-2.48,6.38-5.32,6.38-8.75S426.38,392.35,411,392.35Z" style="fill:#ebebeb"></path><path d="M416.71,406.25l-.29,0c-1.15.16-3.26,0-4.19.93-1.57,1.51.6,2.81,1.95,3.24a9.78,9.78,0,0,0,6.81-.63,10.5,10.5,0,0,0,4.47-3.79c.42-.72,1.21-2.81.16-3.3a1.44,1.44,0,0,0-1.67.42,13.73,13.73,0,0,1-1.64,1.15,12.37,12.37,0,0,1-1.59.91A15.07,15.07,0,0,1,416.71,406.25Z" style="fill:#fff;opacity:0.1"></path><path d="M409.07,404.26c9.11.82,15.49-2.81,17.74-6.71-2-2.72-6.41-5.2-15.86-5.2-15.43,0-17.43,6.63-17.43,10.06s2.08,6.27,6.38,8.75h0a24.47,24.47,0,0,0,22.07,0,19.63,19.63,0,0,0,2.62-1.79c-3.25,2.26-8.61,3.94-15.55,2.93S399.58,403.41,409.07,404.26Z" style="opacity:0.1"></path><path d="M403.52,401.43l-.85-8.24c-7.93,1.89-9.15,6.54-9.15,9.22,0,3.43,2.08,6.27,6.38,8.75h0c.13.08.28.15.42.22C395.58,408.31,398.52,400,403.52,401.43Z" style="opacity:0.1"></path><path d="M422.67,383.49c-6.47-3.73-16.95-3.73-23.41,0-3.24,1.87-4.84,4.31-4.84,6.76,0,.47,0,3.2,0,3.66,0,2.45,1.6,4.9,4.83,6.77,6.47,3.73,16.95,3.73,23.42,0,3.23-1.87,4.84-4.32,4.83-6.77v-3.66C427.5,387.8,425.9,385.36,422.67,383.49Z" style="fill:#ebebeb"></path><path d="M422.67,383.49c-6.47-3.73-16.95-3.73-23.41,0-3.24,1.87-4.84,4.31-4.84,6.76,0,.47,0,3.2,0,3.66,0,2.45,1.6,4.9,4.83,6.77,6.47,3.73,16.95,3.73,23.42,0,3.23-1.87,4.84-4.32,4.83-6.77v-3.66C427.5,387.8,425.9,385.36,422.67,383.49Z" style="opacity:0.2"></path><path d="M399.25,400.68a18.72,18.72,0,0,0,3.59,1.56V381.93a19,19,0,0,0-3.58,1.56c-3.24,1.87-4.84,4.31-4.84,6.76,0,.47,0,3.2,0,3.66C394.41,396.36,396,398.81,399.25,400.68Z" style="opacity:0.2"></path><path d="M399.26,383.49c6.46-3.73,16.94-3.73,23.41,0s6.46,9.79,0,13.52-16.95,3.73-23.42,0S392.79,387.22,399.26,383.49Z" style="fill:#f5f5f5"></path><path d="M426.92,373.69v0c-6.54,13-2.11,15.67-1.76,15.86h0c0,2.1-1.4,4.21-4.18,5.81a17.24,17.24,0,0,1-4.25,1.7c-.36.09-.74.18-1.11.25a24.52,24.52,0,0,1-8.11.23l-.42-.07a18.3,18.3,0,0,1-6.26-2.11,9.77,9.77,0,0,1-3.13-2.71,5.44,5.44,0,0,1-1-3.1h0c0-3.68,3.63-9.76,3.83-12.87h-.05a8.73,8.73,0,0,0-3.21-.21h-.08s-4.73-2.85-4.94-3c-.93-.52-.61-2.71.78-6.16,1.7-4.19,2.17-9.59,2.53-13s2.3-7.11,3.74-9.72,1-4.74,1.82-7.15,2.16-.94,3.49.55l1.33,1.49s6.3-1.81,10.55.7c.61.37,4.91,2.87,6.8,3.95l.06,0,.46.29a2.6,2.6,0,0,1,.33.25l.33.27a1,1,0,0,1,.22.2c.14.13.28.27.41.41C429.06,350.12,432.46,358.49,426.92,373.69Z" style="fill:#e0e0e0"></path><path d="M426.92,373.69v0c-6.54,13-2.11,15.67-1.76,15.86h0c0,2.1-1.4,4.21-4.18,5.81a17.24,17.24,0,0,1-4.25,1.7c-.36.09-.74.18-1.11.25a24.52,24.52,0,0,1-8.11.23l-.42-.07a18.3,18.3,0,0,1-6.26-2.11,9.77,9.77,0,0,1-3.13-2.71,5.44,5.44,0,0,1-1-3.1h0c0-3.68,3.63-9.76,3.83-12.87h-.05a8.73,8.73,0,0,0-3.21-.21h-.08s-4.73-2.85-4.94-3c-.93-.52-.61-2.71.78-6.16,1.7-4.19,2.17-9.59,2.53-13s2.3-7.11,3.74-9.72,1-4.74,1.82-7.15,2.16-.94,3.49.55l1.33,1.49s6.3-1.81,10.55.7c.61.37,4.91,2.87,6.8,3.95l.06,0,.46.29a2.6,2.6,0,0,1,.33.25l.33.27a1,1,0,0,1,.22.2c.14.13.28.27.41.41C429.06,350.12,432.46,358.49,426.92,373.69Z" style="fill:#ebebeb"></path><path d="M413.65,360.61c2.22,3.72,1,6.78-4.07,17.28-2.08,4.26-5.18,11-2.48,19.64a18.44,18.44,0,0,1-6.26-2.11,9.7,9.7,0,0,1-3.13-2.73,5.36,5.36,0,0,1-1-3.09c0-3.69,3.62-9.77,3.82-12.88a3.32,3.32,0,0,0,2.67-.88c1.21-1.34,3.38-6,3.38-6A15.41,15.41,0,0,0,413.65,360.61Z" style="opacity:0.2"></path><path d="M426.92,373.69v0c-4.76,13.11-2,15.66-1.76,15.86h0c0,2.1-1.4,4.21-4.18,5.81a17.24,17.24,0,0,1-4.25,1.7c-.36.09-.74.18-1.11.25a24.25,24.25,0,0,1-8.11.23l-.42-.06h0c-2.7-8.6.4-15.38,2.48-19.63,5.1-10.49,6.29-13.57,4.07-17.28a15.45,15.45,0,0,1-7.11,9.26s-2.17,4.63-3.38,6a3.27,3.27,0,0,1-2.68.87h0a15.19,15.19,0,0,0-2.23.05,1.19,1.19,0,0,1-.78-.11.55.55,0,0,1-.2-.15c-.7-.72-.31-2.82,1-6,1.68-4.2,3.85-8.66,4.22-12.09s2.28-7.11,3.73-9.72,1-4.74,1.81-7.15,2.18-.93,3.5.55l1.33,1.48s6.15-1.74,10.39.62l.06,0,.06,0,.46.29a2.6,2.6,0,0,1,.33.25l.33.27a1,1,0,0,1,.22.2c.14.13.28.27.41.41C429.06,350.12,432.46,358.49,426.92,373.69Z" style="fill:#f5f5f5"></path><path d="M410,346.1c1.45-.35,2.19-1,1.37-2.35a9.09,9.09,0,0,0-2.07-2.35s1.43,2,1.37,3.22S410,346.1,410,346.1Z" style="fill:#e0e0e0"></path><path d="M410,346.1c1.45-.35,2.19-1,1.37-2.35a9.09,9.09,0,0,0-2.07-2.35s1.43,2,1.37,3.22S410,346.1,410,346.1Z" style="opacity:0.2"></path><path d="M415.35,345.26a8.25,8.25,0,0,1,6.29,1,10.36,10.36,0,0,1,4,5.15,17.37,17.37,0,0,1,1.09,6.45,29.39,29.39,0,0,1-.8,6.48,98.45,98.45,0,0,1-4,12.28,32.74,32.74,0,0,0-1.82,6.11,46.77,46.77,0,0,0-.67,6.38,38.65,38.65,0,0,1,.21-6.45,33.93,33.93,0,0,1,1.6-6.29A109.58,109.58,0,0,0,425,364.08c1-4.08,1.31-8.47-.05-12.46a9.78,9.78,0,0,0-3.55-5A8.31,8.31,0,0,0,415.35,345.26Z" style="fill:#e0e0e0"></path><path d="M415.35,345.26a8.25,8.25,0,0,1,6.29,1,10.36,10.36,0,0,1,4,5.15,17.37,17.37,0,0,1,1.09,6.45,29.39,29.39,0,0,1-.8,6.48,98.45,98.45,0,0,1-4,12.28,32.74,32.74,0,0,0-1.82,6.11,46.77,46.77,0,0,0-.67,6.38,38.65,38.65,0,0,1,.21-6.45,33.93,33.93,0,0,1,1.6-6.29A109.58,109.58,0,0,0,425,364.08c1-4.08,1.31-8.47-.05-12.46a9.78,9.78,0,0,0-3.55-5A8.31,8.31,0,0,0,415.35,345.26Z" style="opacity:0.2"></path><path d="M408,356.57c.35.42.12,1.56-.51,2.56s-1.43,1.46-1.78,1-.11-1.57.52-2.56S407.62,356.15,408,356.57Z" style="fill:#e0e0e0"></path><path d="M408,356.57c.35.42.12,1.56-.51,2.56s-1.43,1.46-1.78,1-.11-1.57.52-2.56S407.62,356.15,408,356.57Z" style="opacity:0.2"></path></g><g id="freepik--chess-piece--inject-33"><path d="M360.86,280.62c-5.77-3.33-15.12-3.33-20.9,0-2.88,1.67-4.31,3.85-4.31,6v2.49c0,2.19,1.42,4.38,4.31,6.05,5.77,3.33,15.13,3.33,20.9,0,2.89-1.67,4.32-3.86,4.31-6.05v-2.49C365.18,284.47,363.75,282.29,360.86,280.62Z" style="fill:#ebebeb"></path><path d="M360.86,280.62c-5.77-3.33-15.12-3.33-20.9,0-2.88,1.67-4.31,3.85-4.31,6v2.49c0,2.19,1.42,4.38,4.31,6.05,5.77,3.33,15.13,3.33,20.9,0,2.89-1.67,4.32-3.86,4.31-6.05v-2.49C365.18,284.47,363.75,282.29,360.86,280.62Z" style="opacity:0.2"></path><path d="M343.59,279.09a17.14,17.14,0,0,0-3.63,1.53c-2.88,1.67-4.31,3.85-4.31,6v2.49c0,2.19,1.42,4.38,4.31,6a16.66,16.66,0,0,0,3.63,1.54Z" style="opacity:0.2"></path><path d="M340,280.62c5.78-3.33,15.13-3.33,20.9,0s5.77,8.74,0,12.07-15.13,3.33-20.9,0S334.19,284,340,280.62Z" style="fill:#ebebeb"></path><path d="M340,280.62c5.78-3.33,15.13-3.33,20.9,0s5.77,8.74,0,12.07-15.13,3.33-20.9,0S334.19,284,340,280.62Z" style="opacity:0.4"></path><path d="M350.4,274.86c-14.12,0-15.95,6.08-15.95,9.21s1.91,5.74,5.84,8h0a22.37,22.37,0,0,0,20.2,0c3.94-2.27,5.85-4.87,5.85-8S364.53,274.86,350.4,274.86Z" style="fill:#ebebeb"></path><path d="M355.67,287.59l-.26,0c-1.05.14-3,0-3.83.84-1.44,1.39.54,2.58,1.78,3a9,9,0,0,0,6.24-.57,9.52,9.52,0,0,0,4.08-3.48c.39-.65,1.11-2.57.15-3a1.32,1.32,0,0,0-1.53.38,12.2,12.2,0,0,1-1.5,1.05,10,10,0,0,1-1.46.83A13.22,13.22,0,0,1,355.67,287.59Z" style="fill:#fff;opacity:0.1"></path><path d="M348.68,285.77c8.34.75,14.18-2.58,16.24-6.14-1.84-2.49-5.87-4.77-14.52-4.77-14.12,0-15.95,6.08-15.95,9.21s1.91,5.74,5.84,8h0a22.37,22.37,0,0,0,20.2,0,18.71,18.71,0,0,0,2.41-1.63c-3,2.07-7.89,3.6-14.24,2.68S340,285,348.68,285.77Z" style="opacity:0.1"></path><path d="M343.6,283.17l-.77-7.54c-7.26,1.73-8.38,6-8.38,8.44,0,3.14,1.91,5.74,5.84,8h0c.13.08.26.14.39.21C336.33,289.47,339,281.84,343.6,283.17Z" style="opacity:0.1"></path><path d="M360.25,267.4c-5.43-3.14-14.24-3.14-19.68,0-2.71,1.57-4.06,3.63-4.06,5.68v3.08c0,2.06,1.34,4.12,4.06,5.69,5.44,3.13,14.25,3.14,19.68,0,2.72-1.57,4.07-3.63,4.06-5.69v-3.08C364.32,271,363,269,360.25,267.4Z" style="fill:#ebebeb"></path><path d="M360.25,267.4c-5.43-3.14-14.24-3.14-19.68,0-2.71,1.57-4.06,3.63-4.06,5.68v3.08c0,2.06,1.34,4.12,4.06,5.69,5.44,3.13,14.25,3.14,19.68,0,2.72-1.57,4.07-3.63,4.06-5.69v-3.08C364.32,271,363,269,360.25,267.4Z" style="opacity:0.2"></path><path d="M340.57,281.85a15.83,15.83,0,0,0,3,1.31V266.09a15.83,15.83,0,0,0-3,1.31c-2.71,1.57-4.06,3.62-4.06,5.68v3.08C336.5,278.22,337.85,280.28,340.57,281.85Z" style="opacity:0.2"></path><path d="M340.57,267.4c5.44-3.14,14.25-3.14,19.68,0s5.43,8.22,0,11.36-14.24,3.14-19.68,0S335.14,270.54,340.57,267.4Z" style="fill:#f5f5f5"></path><path d="M361.65,270.54h0c-1.55-3.63-5.46-14.52-5.46-32.39h-11.6c0,17.87-3.9,28.76-5.45,32.39h0c-.95,2.35.06,4.94,3,6.78,4.53,2.79,11.87,2.79,16.4,0C361.6,275.48,362.6,272.89,361.65,270.54Z" style="fill:#ebebeb"></path><path d="M355.81,249.94A93.27,93.27,0,0,0,359,266.57c1,3.49,2.49,5.88.55,8.06s-6.68,2.84-6.68,2.84a14.43,14.43,0,0,0,4.67-3.16c2-2.1.79-5.15.2-7.74C356.77,262.34,355.48,255.76,355.81,249.94Z" style="fill:#fff;opacity:0.1"></path><path d="M351.93,279.35c-1-.44-3-1.24-1.52-9.89s1.49-22.27,1.46-31.31h-7.26c0,17.87-3.9,28.76-5.45,32.39h0c-.95,2.35.06,4.94,3,6.78A16.53,16.53,0,0,0,351.93,279.35Z" style="opacity:0.1"></path><path d="M345.17,265c1.35-5.79,1.76-17.7,1.79-26.85h-2.35c0,17.87-3.9,28.76-5.45,32.39h0c-.95,2.35.06,4.94,3,6.78a13.52,13.52,0,0,0,2.52,1.17C341,275.87,343.76,271,345.17,265Z" style="opacity:0.1"></path><path d="M358,229.9a16.8,16.8,0,0,0-15.19,0c-2.1,1.21-3.14,2.8-3.14,4.39v3.89c0,1.59,1,3.18,3.13,4.4a16.82,16.82,0,0,0,15.2,0c2.1-1.22,3.14-2.81,3.13-4.4v-3.89C361.15,232.7,360.11,231.11,358,229.9Z" style="fill:#e0e0e0"></path><path d="M349.15,228.13a14.92,14.92,0,0,0-6.33,1.77c-2.1,1.21-3.14,2.8-3.14,4.39v3.89c0,1.59,1,3.18,3.13,4.4a14.85,14.85,0,0,0,6.34,1.76Z" style="opacity:0.2"></path><path d="M342.82,229.9a16.8,16.8,0,0,1,15.19,0c4.19,2.42,4.19,6.35,0,8.77a16.79,16.79,0,0,1-15.2,0C338.62,236.25,338.62,232.32,342.82,229.9Z" style="fill:#f5f5f5"></path><path d="M359.73,229.65c0,4.7-4.17,8.5-9.32,8.5s-9.31-3.8-9.31-8.5,4.17-14.16,9.31-14.16S359.73,225,359.73,229.65Z" style="fill:#ebebeb"></path><path d="M345.48,231.79c-2.46-5.3,1.39-12.6,3.16-13.84a5.59,5.59,0,0,0,5.51-.81,5.76,5.76,0,0,0-3.74-1.65c-5.14,0-9.31,9.47-9.31,14.16s4.17,8.5,9.31,8.5a9.65,9.65,0,0,0,7.36-3.3C355.36,236.83,347.94,237.08,345.48,231.79Z" style="opacity:0.1"></path><path d="M355.34,211.79a4.93,4.93,0,1,1-4.93-4.93A4.93,4.93,0,0,1,355.34,211.79Z" style="fill:#ebebeb"></path><path d="M355.34,211.79a4.93,4.93,0,1,1-5.48-4.89,4.08,4.08,0,1,0,5.48,4.75Z" style="opacity:0.2"></path><path d="M351.85,207.74a2.33,2.33,0,0,0-1.05,0,1,1,0,0,0-.85,1c0,.63.74.88,1.24,1l.88.27c.38.12.72.35,1.1.46s.63-.22.65-.58a1.66,1.66,0,0,0-.18-.88,2.2,2.2,0,0,0-.63-.76A2.59,2.59,0,0,0,351.85,207.74Z" style="fill:#fff;opacity:0.2"></path></g><g id="freepik--chess-piece--inject-33"><path d="M347.77,336.39c-5.77-3.33-15.13-3.33-20.9,0-2.88,1.67-4.32,3.85-4.31,6v2.49c0,2.18,1.42,4.37,4.31,6,5.77,3.33,15.13,3.33,20.9,0,2.89-1.67,4.32-3.86,4.31-6v-2.49C352.08,340.24,350.65,338.06,347.77,336.39Z" style="fill:#ebebeb"></path><path d="M347.77,336.39c-5.77-3.33-15.13-3.33-20.9,0-2.88,1.67-4.32,3.85-4.31,6v2.49c0,2.18,1.42,4.37,4.31,6,5.77,3.33,15.13,3.33,20.9,0,2.89-1.67,4.32-3.86,4.31-6v-2.49C352.08,340.24,350.65,338.06,347.77,336.39Z" style="opacity:0.2"></path><path d="M330.49,334.86a17.27,17.27,0,0,0-3.62,1.53c-2.88,1.67-4.32,3.85-4.31,6v2.49c0,2.18,1.42,4.37,4.31,6a17.27,17.27,0,0,0,3.62,1.53Z" style="opacity:0.2"></path><path d="M326.87,336.39c5.77-3.33,15.13-3.33,20.9,0s5.77,8.74,0,12.07-15.13,3.33-20.9,0S321.1,339.73,326.87,336.39Z" style="fill:#ebebeb"></path><path d="M326.87,336.39c5.77-3.33,15.13-3.33,20.9,0s5.77,8.74,0,12.07-15.13,3.33-20.9,0S321.1,339.73,326.87,336.39Z" style="opacity:0.4"></path><path d="M337.31,330.63c-14.13,0-16,6.08-16,9.21s1.91,5.74,5.85,8h0a22.45,22.45,0,0,0,20.2,0c3.93-2.28,5.84-4.88,5.84-8S351.43,330.63,337.31,330.63Z" style="fill:#ebebeb"></path><path d="M342.58,343.36l-.26,0c-1.05.14-3,0-3.84.84-1.43,1.39.55,2.58,1.79,3a9,9,0,0,0,6.23-.57,9.54,9.54,0,0,0,4.09-3.48c.38-.65,1.11-2.57.15-3a1.32,1.32,0,0,0-1.53.38,13,13,0,0,1-1.5,1.05,10,10,0,0,1-1.46.83A13.4,13.4,0,0,1,342.58,343.36Z" style="fill:#fff;opacity:0.1"></path><path d="M335.59,341.54c8.33.75,14.18-2.58,16.23-6.14-1.83-2.49-5.86-4.77-14.51-4.77-14.13,0-16,6.08-16,9.21s1.91,5.74,5.85,8h0a22.45,22.45,0,0,0,20.2,0,18.91,18.91,0,0,0,2.4-1.64c-3,2.07-7.88,3.6-14.23,2.68S326.9,340.76,335.59,341.54Z" style="opacity:0.1"></path><path d="M330.51,339l-.78-7.55c-7.25,1.74-8.38,6-8.38,8.44,0,3.14,1.91,5.74,5.85,8h0l.38.2C323.24,345.24,325.93,337.61,330.51,339Z" style="opacity:0.1"></path><path d="M346.11,325c-4.85-2.81-12.73-2.81-17.59,0-2.42,1.4-3.63,3.23-3.63,5.07,0,.35,0,2.41,0,2.75,0,1.84,1.2,3.68,3.63,5.09,4.86,2.8,12.74,2.8,17.59,0,2.44-1.4,3.64-3.25,3.63-5.09V330C349.75,328.2,348.54,326.36,346.11,325Z" style="fill:#ebebeb"></path><path d="M346.11,325c-4.85-2.81-12.73-2.81-17.59,0-2.42,1.4-3.63,3.23-3.63,5.07,0,.35,0,2.41,0,2.75,0,1.84,1.2,3.68,3.63,5.09,4.86,2.8,12.74,2.8,17.59,0,2.44-1.4,3.64-3.25,3.63-5.09V330C349.75,328.2,348.54,326.36,346.11,325Z" style="opacity:0.2"></path><path d="M328.52,337.87a14.29,14.29,0,0,0,2.7,1.17V323.78a14.31,14.31,0,0,0-2.7,1.18c-2.42,1.4-3.63,3.23-3.63,5.07,0,.35,0,2.41,0,2.75C324.89,334.62,326.09,336.46,328.52,337.87Z" style="opacity:0.2"></path><path d="M328.52,325c4.86-2.81,12.74-2.81,17.59,0s4.86,7.35,0,10.15-12.73,2.8-17.59,0S323.67,327.76,328.52,325Z" style="fill:#f5f5f5"></path><path d="M348,326.73h0c-1.47-3.45-5.19-10.82-5.19-20.12H331.8c0,9.36-3.72,16.67-5.2,20.12h0c-.9,2.24.06,4.71,2.9,6.46a16.28,16.28,0,0,0,15.62,0C348,331.44,348.93,329,348,326.73Z" style="fill:#ebebeb"></path><path d="M342.46,307.12a87.67,87.67,0,0,0,3,15.83c1,3.33,2.37,5.6.52,7.67s-6.36,2.72-6.36,2.72a14,14,0,0,0,4.45-3c1.89-2,.75-4.91.19-7.38C343.37,318.93,342.14,312.66,342.46,307.12Z" style="fill:#fff;opacity:0.1"></path><path d="M338.76,335.13c-.94-.43-2.89-1.19-1.44-9.43s1.42-10.48,1.39-19.09H331.8c0,9.32-3.72,16.67-5.2,20.12h0c-.9,2.24.06,4.71,2.9,6.46A15.7,15.7,0,0,0,338.76,335.13Z" style="opacity:0.1"></path><path d="M332.33,321.46c1.28-5.52,1.67-6.13,1.7-14.85H331.8c0,9.36-3.72,16.67-5.2,20.12h0c-.9,2.24.06,4.71,2.9,6.46a12.25,12.25,0,0,0,2.4,1.11C328.31,331.81,331,327.19,332.33,321.46Z" style="opacity:0.1"></path><path d="M342.92,302.74a12.41,12.41,0,0,0-11.2,0,3.91,3.91,0,0,0-2.31,3.23v2.08a3.91,3.91,0,0,0,2.31,3.23,12.35,12.35,0,0,0,11.2,0,3.91,3.91,0,0,0,2.31-3.23V306C345.23,304.8,344.46,303.64,342.92,302.74Z" style="fill:#e0e0e0"></path><path d="M336.39,301.44a11.09,11.09,0,0,0-4.67,1.3,3.91,3.91,0,0,0-2.31,3.23v2.08a3.91,3.91,0,0,0,2.31,3.23,11,11,0,0,0,4.67,1.31Z" style="opacity:0.2"></path><path d="M331.72,302.74a12.41,12.41,0,0,1,11.2,0c3.09,1.79,3.09,4.68,0,6.47a12.41,12.41,0,0,1-11.2,0C328.63,307.42,328.63,304.53,331.72,302.74Z" style="fill:#f5f5f5"></path><path d="M337.31,299.24c-7.48,0-8.45,3.22-8.45,4.88s1,3,3.09,4.24h0a11.84,11.84,0,0,0,10.71,0c2.08-1.2,3.09-2.58,3.09-4.24S344.79,299.24,337.31,299.24Z" style="fill:#ebebeb"></path><path d="M340.1,306l-.14,0c-.55.08-1.58,0-2,.45-.76.73.29,1.37.95,1.57a4.71,4.71,0,0,0,3.3-.3,5.11,5.11,0,0,0,2.17-1.84c.2-.35.58-1.36.07-1.6a.7.7,0,0,0-.81.2,6.26,6.26,0,0,1-.79.56,5.88,5.88,0,0,1-.77.44A7.17,7.17,0,0,1,340.1,306Z" style="fill:#fff;opacity:0.1"></path><path d="M336.4,305c4.41.39,7.51-1.37,8.6-3.26-1-1.32-3.11-2.52-7.69-2.52-7.48,0-8.45,3.22-8.45,4.88s1,3,3.09,4.24h0a11.84,11.84,0,0,0,10.71,0,10,10,0,0,0,1.27-.86,10.63,10.63,0,0,1-7.54,1.42C333,308.43,331.79,304.6,336.4,305Z" style="opacity:0.1"></path><path d="M333.71,303.64l-.41-4c-3.85.91-4.44,3.17-4.44,4.47,0,1.66,1,3,3.09,4.24h0l.21.11C329.86,307,331.28,302.94,333.71,303.64Z" style="opacity:0.1"></path><path d="M342.92,295a12.35,12.35,0,0,0-11.2,0,3.91,3.91,0,0,0-2.31,3.23v2.07a3.93,3.93,0,0,0,2.31,3.24,12.41,12.41,0,0,0,11.2,0,3.93,3.93,0,0,0,2.31-3.24V298.2A3.93,3.93,0,0,0,342.92,295Z" style="fill:#e0e0e0"></path><path d="M336.39,293.66a11,11,0,0,0-4.67,1.31,3.91,3.91,0,0,0-2.31,3.23v2.07a3.93,3.93,0,0,0,2.31,3.24,11,11,0,0,0,4.67,1.3Z" style="opacity:0.2"></path><path d="M331.72,295a12.35,12.35,0,0,1,11.2,0c3.09,1.78,3.09,4.68,0,6.46a12.35,12.35,0,0,1-11.2,0C328.63,299.65,328.63,296.75,331.72,295Z" style="fill:#f5f5f5"></path><path d="M344.83,293.5a7.51,7.51,0,1,1-7.51-7.51A7.51,7.51,0,0,1,344.83,293.5Z" style="fill:#ebebeb"></path><path d="M344.83,293.5a7.51,7.51,0,1,1-8.36-7.46,6.21,6.21,0,1,0,8.35,7.24A1.62,1.62,0,0,1,344.83,293.5Z" style="opacity:0.2"></path><path d="M339.51,287.33a3.75,3.75,0,0,0-1.6,0,1.51,1.51,0,0,0-1.29,1.55c.06,1,1.12,1.35,1.89,1.59l1.33.41c.59.18,1.1.54,1.69.71s1-.34,1-.89a2.54,2.54,0,0,0-.29-1.33,3.16,3.16,0,0,0-1-1.16A3.81,3.81,0,0,0,339.51,287.33Z" style="fill:#fff;opacity:0.2"></path></g><g id="freepik--chess-piece--inject-33"><path d="M376.8,393.84c0,6.66-4.67,14.76-10.44,18.09-2.89,1.67-5.5,1.82-7.38.72l-2.16-1.24c-1.9-1.09-3.08-3.42-3.08-6.76,0-6.66,4.68-14.76,10.45-18.09,2.89-1.67,5.5-1.82,7.39-.72l2.16,1.25C375.63,388.18,376.8,390.51,376.8,393.84Z" style="fill:#ebebeb"></path><path d="M376.8,393.84c0,6.66-4.67,14.76-10.44,18.09-2.89,1.67-5.5,1.82-7.38.72l-2.16-1.24c-1.9-1.09-3.08-3.42-3.08-6.76,0-6.66,4.68-14.76,10.45-18.09,2.89-1.67,5.5-1.82,7.39-.72l2.16,1.25C375.63,388.18,376.8,390.51,376.8,393.84Z" style="opacity:0.2"></path><path d="M369.5,409.56a17.15,17.15,0,0,1-3.14,2.37c-2.89,1.67-5.5,1.82-7.38.72l-2.16-1.24c-1.9-1.09-3.08-3.42-3.08-6.76a16.66,16.66,0,0,1,.49-3.9Z" style="opacity:0.2"></path><path d="M366.36,411.93c5.77-3.33,10.44-11.43,10.44-18.09s-4.67-9.37-10.44-6-10.45,11.43-10.45,18.09S360.59,415.27,366.36,411.93Z" style="fill:#ebebeb"></path><path d="M366.36,411.93c5.77-3.33,10.44-11.43,10.44-18.09s-4.67-9.37-10.44-6-10.45,11.43-10.45,18.09S360.59,415.27,366.36,411.93Z" style="opacity:0.4"></path><path d="M376.56,405.78C369.5,418,363.32,416.56,360.61,415s-4-4.52-4-9.07v0a22.41,22.41,0,0,1,10.1-17.49c3.94-2.27,7.15-2.62,9.86-1.06S383.63,393.54,376.56,405.78Z" style="fill:#ebebeb"></path><path d="M368.18,394.84l-.17.21c-.65.84-1.51,2.58-2.65,2.9-1.91.55-2-1.76-1.67-3a9,9,0,0,1,3.61-5.11,9.51,9.51,0,0,1,5.05-1.8c.76,0,2.78.32,2.69,1.38-.06.66-.52.94-1.1,1.13a13.12,13.12,0,0,0-1.66.77,11.7,11.7,0,0,0-1.45.85A13.57,13.57,0,0,0,368.18,394.84Z" style="fill:#fff;opacity:0.1"></path><path d="M366.26,401.81c3.52-7.59,9.32-11,13.44-11,1.23,2.83,1.19,7.47-3.14,15C369.5,418,363.32,416.56,360.61,415s-4-4.52-4-9.07v0a22.41,22.41,0,0,1,10.1-17.49,18.34,18.34,0,0,1,2.62-1.27c-3.27,1.54-7.06,5-9.44,11S362.59,409.73,366.26,401.81Z" style="opacity:0.1"></path><path d="M366,407.51l6.15,4.44c-5.13,5.42-9.38,4.27-11.5,3-2.72-1.57-4-4.52-4-9.07v0c0-.14,0-.29,0-.43C356.88,410.65,364.83,412.14,366,407.51Z" style="opacity:0.1"></path><path d="M385.88,401c0,5.61-3.93,12.43-8.79,15.23-2.43,1.4-4.62,1.53-6.21.61l-2.39-1.38c-1.59-.91-2.58-2.88-2.58-5.68,0-5.61,3.93-12.43,8.79-15.24,2.43-1.4,4.63-1.52,6.22-.6l2.38,1.38C384.89,396.22,385.88,398.18,385.88,401Z" style="fill:#ebebeb"></path><path d="M385.88,401c0,5.61-3.93,12.43-8.79,15.23-2.43,1.4-4.62,1.53-6.21.61l-2.39-1.38c-1.59-.91-2.58-2.88-2.58-5.68,0-5.61,3.93-12.43,8.79-15.24,2.43-1.4,4.63-1.52,6.22-.6l2.38,1.38C384.89,396.22,385.88,398.18,385.88,401Z" style="opacity:0.2"></path><path d="M365.91,409.77a14.13,14.13,0,0,1,.33-2.92l13.21,7.63a14.18,14.18,0,0,1-2.36,1.74c-2.43,1.4-4.62,1.53-6.21.61l-2.39-1.38C366.9,414.54,365.91,412.57,365.91,409.77Z" style="opacity:0.2"></path><path d="M377.09,416.22c4.86-2.8,8.79-9.62,8.79-15.23s-3.93-7.88-8.79-5.08-8.8,9.63-8.8,15.24S372.23,419,377.09,416.22Z" style="fill:#f5f5f5"></path><path d="M385.3,398.45v0c2.25,3,6.77,9.91,14.82,14.56l-5.52,9.57c-8.1-4.68-16.29-5.11-20-5.56h0c-2.4-.34-4.05-2.4-4.15-5.74a16.3,16.3,0,0,1,7.81-13.53C381.2,396.14,383.81,396.54,385.3,398.45Z" style="fill:#ebebeb"></path><path d="M399.51,413.07a87.23,87.23,0,0,1-12.2-10.53c-2.41-2.5-3.67-4.85-6.39-4.29s-5.53,4.16-5.53,4.16a13.79,13.79,0,0,1,4.83-2.35c2.68-.64,4.63,1.8,6.49,3.52C389.73,406.38,394.55,410.58,399.51,413.07Z" style="fill:#fff;opacity:0.1"></path><path d="M373.4,402.27c-.11,1-.42,3.1,7.44,6s9.79,4,17.22,8.35l-3.45,6c-8.07-4.66-16.29-5.11-20-5.56h0c-2.4-.34-4.05-2.4-4.15-5.74A15.72,15.72,0,0,1,373.4,402.27Z" style="opacity:0.1"></path><path d="M382,414.68c5.42,1.64,6.15,1.61,13.71,5.94l-1.12,1.94c-8.1-4.68-16.29-5.11-20-5.56h0c-2.4-.34-4.05-2.4-4.15-5.74a11.92,11.92,0,0,1,.24-2.63C371.05,413,376.38,413,382,414.68Z" style="opacity:0.1"></path><path d="M403.52,414.86a12.35,12.35,0,0,1-5.6,9.7A3.93,3.93,0,0,1,394,425l-1.79-1c-1-.58-1.65-1.83-1.65-3.62a12.37,12.37,0,0,1,5.6-9.7,3.91,3.91,0,0,1,3.95-.38l1.8,1A3.91,3.91,0,0,1,403.52,414.86Z" style="fill:#e0e0e0"></path><path d="M401.38,421.17a10.83,10.83,0,0,1-3.46,3.39A3.93,3.93,0,0,1,394,425l-1.79-1c-1-.58-1.65-1.83-1.65-3.62a11,11,0,0,1,1.2-4.69Z" style="opacity:0.2"></path><path d="M397.92,424.56a12.35,12.35,0,0,0,5.6-9.7c0-3.57-2.5-5-5.6-3.23a12.38,12.38,0,0,0-5.59,9.7C392.33,424.9,394.83,426.35,397.92,424.56Z" style="fill:#f5f5f5"></path><path d="M403.75,421.47c-3.74,6.48-7,5.71-8.45,4.88s-2.13-2.39-2.13-4.8h0a11.87,11.87,0,0,1,5.35-9.27c2.08-1.2,3.78-1.39,5.22-.56S407.49,415,403.75,421.47Z" style="fill:#ebebeb"></path><path d="M399.31,415.68l-.09.11c-.34.45-.8,1.37-1.4,1.54-1,.29-1-.93-.89-1.61a4.78,4.78,0,0,1,1.91-2.71,5.11,5.11,0,0,1,2.68-.95c.4,0,1.48.17,1.42.73,0,.35-.27.5-.58.6a7.77,7.77,0,0,0-.88.41,5.24,5.24,0,0,0-.76.45A7.08,7.08,0,0,0,399.31,415.68Z" style="fill:#fff;opacity:0.1"></path><path d="M398.29,419.37c1.87-4,4.94-5.82,7.12-5.82.66,1.5.63,4-1.66,7.92-3.74,6.48-7,5.71-8.45,4.88s-2.13-2.39-2.13-4.8h0a11.87,11.87,0,0,1,5.35-9.27,9.23,9.23,0,0,1,1.39-.67,10.54,10.54,0,0,0-5,5.82C393.66,420.58,396.35,423.57,398.29,419.37Z" style="opacity:0.1"></path><path d="M398.14,422.39l3.25,2.35c-2.71,2.88-5,2.26-6.09,1.61-1.44-.83-2.13-2.39-2.13-4.8h0c0-.08,0-.15,0-.23C393.32,424.06,397.54,424.85,398.14,422.39Z" style="opacity:0.1"></path><path d="M410.26,418.75a12.4,12.4,0,0,1-5.6,9.7,3.92,3.92,0,0,1-4,.38l-1.79-1c-1-.58-1.65-1.83-1.65-3.62a12.4,12.4,0,0,1,5.6-9.7,3.92,3.92,0,0,1,4-.38l1.79,1A4,4,0,0,1,410.26,418.75Z" style="fill:#e0e0e0"></path><path d="M408.12,425.06a11.15,11.15,0,0,1-3.46,3.39,3.92,3.92,0,0,1-4,.38l-1.79-1c-1-.58-1.65-1.83-1.65-3.62a11,11,0,0,1,1.2-4.69Z" style="opacity:0.2"></path><path d="M404.66,428.45a12.4,12.4,0,0,0,5.6-9.7c0-3.57-2.51-5-5.6-3.23a12.35,12.35,0,0,0-5.6,9.7C399.06,428.79,401.56,430.23,404.66,428.45Z" style="fill:#f5f5f5"></path><path d="M412.48,417.83a7.51,7.51,0,1,0,2.75,10.26A7.5,7.5,0,0,0,412.48,417.83Z" style="fill:#ebebeb"></path><path d="M412.48,417.83a7.51,7.51,0,1,0,2.28,11A6.21,6.21,0,1,1,412.67,418,1,1,0,0,0,412.48,417.83Z" style="opacity:0.2"></path><path d="M415.17,425.52a3.72,3.72,0,0,1-.8,1.39,1.51,1.51,0,0,1-2,.34c-.8-.53-.6-1.64-.43-2.43.11-.45.21-.91.31-1.36s.09-1.22.24-1.81.76-.66,1.26-.41a2.46,2.46,0,0,1,1,.91,3.23,3.23,0,0,1,.53,1.41A3.91,3.91,0,0,1,415.17,425.52Z" style="fill:#fff;opacity:0.2"></path></g><g id="freepik--chess-piece--inject-33"><path d="M118.9,361c-5.77-3.33-15.13-3.33-20.9,0-2.88,1.66-4.31,3.85-4.31,6v2.49c0,2.19,1.42,4.37,4.31,6,5.77,3.33,15.13,3.33,20.9,0,2.89-1.67,4.32-3.85,4.31-6V367C123.21,364.8,121.78,362.62,118.9,361Z" style="fill:#ebebeb"></path><path d="M118.9,361c-5.77-3.33-15.13-3.33-20.9,0-2.88,1.66-4.31,3.85-4.31,6v2.49c0,2.19,1.42,4.37,4.31,6,5.77,3.33,15.13,3.33,20.9,0,2.89-1.67,4.32-3.85,4.31-6V367C123.21,364.8,121.78,362.62,118.9,361Z" style="opacity:0.2"></path><path d="M101.62,359.41A17.84,17.84,0,0,0,98,361c-2.88,1.66-4.31,3.85-4.31,6v2.49c0,2.19,1.42,4.37,4.31,6a17.84,17.84,0,0,0,3.62,1.54Z" style="opacity:0.2"></path><path d="M98,361c5.77-3.33,15.13-3.33,20.9,0s5.77,8.73,0,12.06-15.13,3.33-20.9,0S92.23,364.28,98,361Z" style="fill:#ebebeb"></path><path d="M98,361c5.77-3.33,15.13-3.33,20.9,0s5.77,8.73,0,12.06-15.13,3.33-20.9,0S92.23,364.28,98,361Z" style="opacity:0.4"></path><path d="M108.44,355.19c-14.13,0-16,6.07-16,9.21s1.91,5.74,5.85,8h0a22.37,22.37,0,0,0,20.2,0c3.94-2.27,5.84-4.87,5.84-8S122.56,355.19,108.44,355.19Z" style="fill:#ebebeb"></path><path d="M113.71,367.92l-.26,0c-1,.15-3,0-3.83.85-1.44,1.38.54,2.58,1.78,3a9,9,0,0,0,6.23-.58,9.52,9.52,0,0,0,4.09-3.47c.38-.66,1.11-2.57.15-3a1.34,1.34,0,0,0-1.53.38,12,12,0,0,1-1.5,1.06,11,11,0,0,1-1.46.83A13.77,13.77,0,0,1,113.71,367.92Z" style="fill:#fff;opacity:0.1"></path><path d="M106.72,366.09c8.33.75,14.18-2.57,16.23-6.14-1.83-2.48-5.86-4.76-14.51-4.76-14.13,0-16,6.07-16,9.21s1.91,5.74,5.85,8h0a22.37,22.37,0,0,0,20.2,0,18.73,18.73,0,0,0,2.41-1.64c-3,2.07-7.89,3.61-14.24,2.69S98,365.31,106.72,366.09Z" style="opacity:0.1"></path><path d="M101.64,363.5l-.78-7.54c-7.25,1.73-8.38,6-8.38,8.44,0,3.14,1.91,5.74,5.85,8h0l.39.2C94.37,369.8,97.06,362.17,101.64,363.5Z" style="opacity:0.1"></path><path d="M117.25,349.51c-4.86-2.8-12.74-2.8-17.59,0-2.43,1.4-3.64,3.24-3.63,5.08v2.75c0,1.84,1.19,3.68,3.62,5.08,4.86,2.81,12.74,2.81,17.59,0,2.44-1.4,3.64-3.24,3.63-5.08v-2.75C120.88,352.75,119.67,350.91,117.25,349.51Z" style="fill:#ebebeb"></path><path d="M117.25,349.51c-4.86-2.8-12.74-2.8-17.59,0-2.43,1.4-3.64,3.24-3.63,5.08v2.75c0,1.84,1.19,3.68,3.62,5.08,4.86,2.81,12.74,2.81,17.59,0,2.44-1.4,3.64-3.24,3.63-5.08v-2.75C120.88,352.75,119.67,350.91,117.25,349.51Z" style="opacity:0.2"></path><path d="M99.65,362.42a14.6,14.6,0,0,0,2.7,1.18V348.34a14.19,14.19,0,0,0-2.69,1.17c-2.43,1.4-3.64,3.24-3.63,5.08v2.75C96,359.18,97.22,361,99.65,362.42Z" style="opacity:0.2"></path><path d="M99.66,349.51c4.85-2.8,12.73-2.8,17.59,0s4.85,7.35,0,10.16-12.73,2.8-17.59,0S94.8,352.31,99.66,349.51Z" style="fill:#f5f5f5"></path><path d="M119.16,351.28h0c-1.47-3.45-5.19-10.82-5.19-20.11h-11c0,9.35-3.72,16.66-5.2,20.11h0c-.9,2.25.06,4.71,2.9,6.46a16.28,16.28,0,0,0,15.62,0C119.1,356,120.06,353.53,119.16,351.28Z" style="fill:#ebebeb"></path><path d="M113.59,331.67a87.67,87.67,0,0,0,3,15.83c1,3.33,2.37,5.6.52,7.68s-6.36,2.71-6.36,2.71a14,14,0,0,0,4.45-3c1.89-2,.76-4.9.19-7.38C114.5,343.48,113.27,337.21,113.59,331.67Z" style="fill:#fff;opacity:0.1"></path><path d="M109.89,359.68c-.94-.42-2.89-1.18-1.44-9.42s1.42-10.48,1.39-19.09h-6.91c0,9.32-3.72,16.66-5.2,20.11h0c-.9,2.25.06,4.71,2.9,6.46A15.65,15.65,0,0,0,109.89,359.68Z" style="opacity:0.1"></path><path d="M103.46,346c1.29-5.51,1.67-6.13,1.7-14.84h-2.23c0,9.35-3.72,16.66-5.2,20.11h0c-.9,2.25.06,4.71,2.9,6.46a12.28,12.28,0,0,0,2.4,1.12C99.44,356.36,102.12,351.75,103.46,346Z" style="opacity:0.1"></path><path d="M114.05,327.3a12.35,12.35,0,0,0-11.2,0,3.93,3.93,0,0,0-2.31,3.23v2.07a3.93,3.93,0,0,0,2.31,3.24,12.41,12.41,0,0,0,11.2,0,3.93,3.93,0,0,0,2.31-3.24v-2.07A3.93,3.93,0,0,0,114.05,327.3Z" style="fill:#e0e0e0"></path><path d="M107.52,326a11,11,0,0,0-4.67,1.31,3.93,3.93,0,0,0-2.31,3.23v2.07a3.93,3.93,0,0,0,2.31,3.24,11.09,11.09,0,0,0,4.67,1.3Z" style="opacity:0.2"></path><path d="M102.85,327.3a12.35,12.35,0,0,1,11.2,0c3.09,1.78,3.09,4.68,0,6.46a12.35,12.35,0,0,1-11.2,0C99.76,332,99.76,329.08,102.85,327.3Z" style="fill:#f5f5f5"></path><path d="M108.44,323.79c-7.48,0-8.45,3.22-8.45,4.88s1,3,3.09,4.25h0a11.92,11.92,0,0,0,10.71,0c2.08-1.21,3.09-2.59,3.09-4.25S115.92,323.79,108.44,323.79Z" style="fill:#ebebeb"></path><path d="M111.23,330.54l-.13,0c-.56.07-1.59,0-2,.44-.76.74.29,1.37,1,1.58a4.77,4.77,0,0,0,3.3-.31,5,5,0,0,0,2.17-1.84c.2-.35.58-1.36.07-1.6a.71.71,0,0,0-.81.21,6.19,6.19,0,0,1-.79.55,4.93,4.93,0,0,1-.77.44A7.09,7.09,0,0,1,111.23,330.54Z" style="fill:#fff;opacity:0.1"></path><path d="M107.53,329.57c4.41.4,7.51-1.36,8.6-3.25-1-1.32-3.11-2.53-7.69-2.53-7.48,0-8.45,3.22-8.45,4.88s1,3,3.09,4.25h0a11.92,11.92,0,0,0,10.71,0,10,10,0,0,0,1.27-.87,10.52,10.52,0,0,1-7.54,1.42C104.17,333,102.92,329.16,107.53,329.57Z" style="opacity:0.1"></path><path d="M104.84,328.2l-.41-4c-3.85.92-4.44,3.17-4.44,4.47,0,1.66,1,3,3.09,4.25h0l.21.1C101,331.53,102.41,327.49,104.84,328.2Z" style="opacity:0.1"></path><path d="M114.05,319.52a12.41,12.41,0,0,0-11.2,0c-1.54.9-2.31,2.06-2.31,3.23v2.08a3.91,3.91,0,0,0,2.31,3.23,12.35,12.35,0,0,0,11.2,0,3.91,3.91,0,0,0,2.31-3.23v-2.08A4,4,0,0,0,114.05,319.52Z" style="fill:#e0e0e0"></path><path d="M107.52,318.22a11.09,11.09,0,0,0-4.67,1.3c-1.54.9-2.31,2.06-2.31,3.23v2.08a3.91,3.91,0,0,0,2.31,3.23,11,11,0,0,0,4.67,1.31Z" style="opacity:0.2"></path><path d="M102.85,319.52a12.41,12.41,0,0,1,11.2,0c3.09,1.79,3.09,4.68,0,6.47a12.41,12.41,0,0,1-11.2,0C99.76,324.2,99.76,321.31,102.85,319.52Z" style="fill:#f5f5f5"></path><path d="M116,318.05a7.51,7.51,0,1,1-7.51-7.51A7.51,7.51,0,0,1,116,318.05Z" style="fill:#ebebeb"></path><path d="M116,318.05a7.51,7.51,0,1,1-8.36-7.46,6.21,6.21,0,1,0,8.35,7.25A1.48,1.48,0,0,1,116,318.05Z" style="opacity:0.2"></path><path d="M110.64,311.88a3.6,3.6,0,0,0-1.6,0,1.52,1.52,0,0,0-1.29,1.55c.06,1,1.12,1.34,1.89,1.59l1.33.41c.59.18,1.1.54,1.69.7s1-.33,1-.89a2.66,2.66,0,0,0-.28-1.33,3.36,3.36,0,0,0-1-1.16A3.91,3.91,0,0,0,110.64,311.88Z" style="fill:#fff;opacity:0.2"></path></g></g><g id="freepik--black-chess-pieces--inject-33"><g id="freepik--chess-piece--inject-33"><path d="M251.38,333.65c-5.77-3.33-15.13-3.33-20.9,0-2.88,1.67-4.31,3.85-4.31,6v2.49c0,2.18,1.42,4.37,4.31,6,5.77,3.33,15.13,3.33,20.9,0,2.89-1.67,4.32-3.86,4.31-6.05v-2.48C255.7,337.5,254.26,335.32,251.38,333.65Z" style="fill:#37474f"></path><path d="M251.38,333.65c-5.77-3.33-15.13-3.33-20.9,0-2.88,1.67-4.31,3.85-4.31,6v2.49c0,2.18,1.42,4.37,4.31,6,5.77,3.33,15.13,3.33,20.9,0,2.89-1.67,4.32-3.86,4.31-6.05v-2.48C255.7,337.5,254.26,335.32,251.38,333.65Z" style="opacity:0.2"></path><path d="M234.11,332.12a17.14,17.14,0,0,0-3.63,1.53c-2.88,1.67-4.31,3.85-4.31,6v2.49c0,2.18,1.42,4.37,4.31,6a17.14,17.14,0,0,0,3.63,1.53Z" style="opacity:0.2"></path><path d="M230.48,333.65c5.77-3.33,15.13-3.33,20.9,0s5.77,8.74,0,12.07-15.13,3.33-20.9,0S224.71,337,230.48,333.65Z" style="fill:#37474f"></path><path d="M230.48,333.65c5.77-3.33,15.13-3.33,20.9,0s5.77,8.74,0,12.07-15.13,3.33-20.9,0S224.71,337,230.48,333.65Z" style="opacity:0.4"></path><path d="M240.92,327.89C226.8,327.89,225,334,225,337.1s1.9,5.74,5.84,8h0a22.45,22.45,0,0,0,20.2,0c3.94-2.28,5.84-4.88,5.84-8S255,327.89,240.92,327.89Z" style="fill:#37474f"></path><path d="M246.19,340.62l-.26,0c-1.05.14-3,0-3.83.84-1.44,1.39.54,2.58,1.78,3a8.94,8.94,0,0,0,6.23-.57,9.48,9.48,0,0,0,4.09-3.48c.39-.65,1.11-2.57.15-3a1.32,1.32,0,0,0-1.53.38,13,13,0,0,1-1.5,1,10,10,0,0,1-1.46.83A13.31,13.31,0,0,1,246.19,340.62Z" style="fill:#fff;opacity:0.1"></path><path d="M239.2,338.8c8.34.75,14.18-2.58,16.23-6.14-1.83-2.49-5.86-4.77-14.51-4.77C226.8,327.89,225,334,225,337.1s1.9,5.74,5.84,8h0a22.45,22.45,0,0,0,20.2,0,19.81,19.81,0,0,0,2.41-1.64c-3,2.07-7.89,3.6-14.24,2.68S230.51,338,239.2,338.8Z" style="opacity:0.1"></path><path d="M234.12,336.2l-.77-7.54c-7.26,1.74-8.38,6-8.38,8.44,0,3.14,1.9,5.74,5.84,8h0l.39.2C226.85,342.5,229.54,334.87,234.12,336.2Z" style="opacity:0.1"></path><path d="M250.77,320.43c-5.43-3.14-14.24-3.14-19.68,0-2.72,1.57-4.06,3.63-4.06,5.68v3.08c0,2.06,1.34,4.12,4.06,5.69,5.44,3.14,14.25,3.14,19.68,0,2.72-1.57,4.07-3.63,4.06-5.69v-3.08C254.83,324.06,253.49,322,250.77,320.43Z" style="fill:#37474f"></path><path d="M231.09,334.88a15.83,15.83,0,0,0,3,1.31V319.12a15.83,15.83,0,0,0-3,1.31c-2.72,1.57-4.06,3.63-4.06,5.68v3.08C227,331.25,228.37,333.31,231.09,334.88Z" style="opacity:0.2"></path><path d="M231.09,320.43c5.44-3.14,14.25-3.14,19.68,0s5.43,8.23,0,11.36-14.24,3.14-19.68,0S225.66,323.57,231.09,320.43Z" style="fill:#455a64"></path><path d="M252.17,323.57h0c-1.55-3.62-5.46-14.52-5.46-32.39h-11.6c0,17.87-3.9,28.77-5.45,32.39h0c-.95,2.35.06,4.94,3,6.78,4.53,2.79,11.87,2.79,16.4,0C252.11,328.51,253.12,325.92,252.17,323.57Z" style="fill:#37474f"></path><path d="M246.33,303a92.39,92.39,0,0,0,3.17,16.63c1,3.49,2.49,5.88.55,8.06s-6.68,2.84-6.68,2.84a14.54,14.54,0,0,0,4.67-3.16c2-2.1.79-5.15.2-7.74C247.29,315.37,246,308.8,246.33,303Z" style="fill:#fff;opacity:0.1"></path><path d="M242.44,332.38c-1-.44-3-1.24-1.51-9.89s1.49-22.27,1.46-31.31h-7.26c0,17.87-3.9,28.77-5.45,32.39h0c-.95,2.35.06,4.94,3,6.78A16.5,16.5,0,0,0,242.44,332.38Z" style="opacity:0.1"></path><path d="M235.69,318c1.35-5.79,1.76-17.7,1.79-26.85h-2.35c0,17.87-3.9,28.77-5.45,32.39h0c-.95,2.35.06,4.94,3,6.78a13.52,13.52,0,0,0,2.52,1.17C231.47,328.9,234.28,324.05,235.69,318Z" style="opacity:0.1"></path><path d="M248.53,282.93a16.82,16.82,0,0,0-15.2,0c-2.09,1.21-3.13,2.8-3.13,4.39v3.89c0,1.59,1,3.18,3.13,4.4a16.82,16.82,0,0,0,15.2,0c2.1-1.22,3.14-2.81,3.13-4.4v-3.89C251.67,285.73,250.63,284.14,248.53,282.93Z" style="fill:#37474f"></path><path d="M248.53,282.93a16.82,16.82,0,0,0-15.2,0c-2.09,1.21-3.13,2.8-3.13,4.39v3.89c0,1.59,1,3.18,3.13,4.4a16.82,16.82,0,0,0,15.2,0c2.1-1.22,3.14-2.81,3.13-4.4v-3.89C251.67,285.73,250.63,284.14,248.53,282.93Z" style="opacity:0.2"></path><path d="M239.66,281.16a15,15,0,0,0-6.33,1.77c-2.09,1.21-3.13,2.8-3.13,4.39v3.89c0,1.59,1,3.18,3.13,4.4a15,15,0,0,0,6.33,1.77Z" style="opacity:0.2"></path><path d="M233.33,282.93a16.82,16.82,0,0,1,15.2,0c4.19,2.42,4.19,6.35,0,8.77a16.76,16.76,0,0,1-15.2,0C229.14,289.28,229.14,285.35,233.33,282.93Z" style="fill:#455a64"></path><path d="M250.25,282.69c0,4.69-4.17,8.49-9.32,8.49s-9.32-3.8-9.32-8.49,4.18-14.17,9.32-14.17S250.25,278,250.25,282.69Z" style="fill:#37474f"></path><path d="M236,284.82c-2.46-5.3,1.39-12.6,3.16-13.84a5.62,5.62,0,0,0,5.51-.8,5.73,5.73,0,0,0-3.74-1.66c-5.14,0-9.32,9.48-9.32,14.17s4.18,8.49,9.32,8.49a9.66,9.66,0,0,0,7.36-3.29C245.88,289.87,238.46,290.11,236,284.82Z" style="fill:#263238"></path><path d="M245.86,264.82a4.93,4.93,0,1,1-4.93-4.93A4.93,4.93,0,0,1,245.86,264.82Z" style="fill:#455a64"></path><path d="M245.86,264.82a4.93,4.93,0,1,1-5.49-4.89,4.08,4.08,0,1,0,5.48,4.75A.71.71,0,0,1,245.86,264.82Z" style="opacity:0.2"></path><path d="M242.37,260.77a2.48,2.48,0,0,0-1.05,0,1,1,0,0,0-.85,1c0,.63.73.88,1.24,1l.88.27c.38.12.72.35,1.1.46s.63-.22.65-.58a1.61,1.61,0,0,0-.18-.87,2.23,2.23,0,0,0-.63-.77A2.59,2.59,0,0,0,242.37,260.77Z" style="fill:#fff;opacity:0.2"></path></g><g id="freepik--chess-piece--inject-33"><path d="M173,407.25c0,6.66-4.68,14.76-10.45,18.09-2.89,1.67-5.49,1.82-7.38.72L153,424.82c-1.89-1.09-3.07-3.42-3.07-6.76,0-6.66,4.68-14.76,10.45-18.09,2.89-1.67,5.49-1.82,7.38-.72l2.16,1.25C171.78,401.59,173,403.92,173,407.25Z" style="fill:#37474f"></path><path d="M173,407.25c0,6.66-4.68,14.76-10.45,18.09-2.89,1.67-5.49,1.82-7.38.72L153,424.82c-1.89-1.09-3.07-3.42-3.07-6.76,0-6.66,4.68-14.76,10.45-18.09,2.89-1.67,5.49-1.82,7.38-.72l2.16,1.25C171.78,401.59,173,403.92,173,407.25Z" style="opacity:0.2"></path><path d="M165.65,423a16.82,16.82,0,0,1-3.14,2.37c-2.89,1.67-5.49,1.82-7.38.72L153,424.82c-1.89-1.09-3.07-3.42-3.07-6.76a17.19,17.19,0,0,1,.48-3.9Z" style="opacity:0.2"></path><path d="M162.51,425.34C168.28,422,173,413.91,173,407.25s-4.68-9.37-10.45-6-10.45,11.43-10.45,18.09S156.74,428.68,162.51,425.34Z" style="fill:#37474f"></path><path d="M162.51,425.34C168.28,422,173,413.91,173,407.25s-4.68-9.37-10.45-6-10.45,11.43-10.45,18.09S156.74,428.68,162.51,425.34Z" style="opacity:0.4"></path><path d="M172.72,419.19c-7.07,12.23-13.24,10.78-16,9.21s-4-4.53-4-9.07v0a22.34,22.34,0,0,1,10.1-17.49c3.93-2.27,7.14-2.62,9.86-1.06S179.78,407,172.72,419.19Z" style="fill:#37474f"></path><path d="M164.33,408.25l-.16.21c-.65.84-1.51,2.58-2.65,2.9-1.92.55-2-1.76-1.68-3a8.93,8.93,0,0,1,3.61-5.11,9.55,9.55,0,0,1,5.06-1.8c.75,0,2.78.32,2.68,1.38-.06.66-.52.94-1.09,1.13a12.5,12.5,0,0,0-1.66.77,11,11,0,0,0-1.45.85A13.62,13.62,0,0,0,164.33,408.25Z" style="fill:#fff;opacity:0.1"></path><path d="M162.41,415.22c3.52-7.59,9.32-11,13.44-11,1.24,2.83,1.19,7.47-3.13,15-7.07,12.23-13.24,10.78-16,9.21s-4-4.53-4-9.07v0a22.34,22.34,0,0,1,10.1-17.49,17.84,17.84,0,0,1,2.62-1.27c-3.28,1.54-7.07,5-9.44,11S158.75,423.14,162.41,415.22Z" style="opacity:0.1"></path><path d="M162.12,420.92l6.14,4.44c-5.13,5.42-9.37,4.26-11.5,3-2.71-1.57-4-4.53-4-9.07v0c0-.14,0-.29,0-.43C153,424.06,161,425.55,162.12,420.92Z" style="opacity:0.1"></path><path d="M184.1,414.39c0,6.27-4.4,13.9-9.84,17-2.71,1.57-5.17,1.71-6.95.67l-2.66-1.53c-1.79-1-2.9-3.22-2.9-6.37,0-6.27,4.41-13.9,9.84-17,2.72-1.57,5.18-1.71,7-.67l2.66,1.54C183,409.05,184.1,411.25,184.1,414.39Z" style="fill:#37474f"></path><path d="M161.75,424.2a16.22,16.22,0,0,1,.37-3.26l14.79,8.53a15.62,15.62,0,0,1-2.65,2c-2.71,1.57-5.17,1.71-6.95.67l-2.66-1.53C162.86,429.54,161.75,427.35,161.75,424.2Z" style="opacity:0.2"></path><path d="M174.26,431.43c5.44-3.14,9.84-10.77,9.84-17s-4.4-8.82-9.84-5.68-9.83,10.76-9.83,17S168.83,434.57,174.26,431.43Z" style="fill:#455a64"></path><path d="M182.09,411.6h0c2.36,3.15,9.85,12,25.32,20.92l-5.8,10.05c-15.48-8.94-26.87-11-30.78-11.48h0c-2.51-.35-4.25-2.52-4.36-6-.15-5.32,3.52-11.68,8.2-14.2C177.78,409.18,180.52,409.61,182.09,411.6Z" style="fill:#37474f"></path><path d="M197,427a92.35,92.35,0,0,1-12.81-11.06c-2.52-2.62-3.85-5.09-6.7-4.5s-5.81,4.36-5.81,4.36a14.53,14.53,0,0,1,5.07-2.46c2.81-.67,4.86,1.88,6.81,3.69C186.74,419.93,191.79,424.34,197,427Z" style="fill:#fff;opacity:0.1"></path><path d="M169.59,415.62c-.11,1.08-.44,3.25,7.81,6.26s20,9.84,27.85,14.39l-3.63,6.29c-15.48-8.94-26.87-11-30.78-11.48h0c-2.51-.35-4.25-2.52-4.36-6A16.48,16.48,0,0,1,169.59,415.62Z" style="opacity:0.1"></path><path d="M178.64,428.65c5.69,1.72,16.21,7.32,24.15,11.87l-1.17,2c-15.48-8.94-26.87-11-30.78-11.48h0c-2.51-.35-4.25-2.52-4.36-6a13.06,13.06,0,0,1,.25-2.76C167.12,426.87,172.72,426.85,178.64,428.65Z" style="opacity:0.1"></path><path d="M215.46,435.08a16.81,16.81,0,0,1-7.6,13.16c-2.1,1.21-4,1.32-5.36.52l-3.38-1.95c-1.38-.79-2.24-2.48-2.24-4.91a16.8,16.8,0,0,1,7.6-13.16c2.1-1.21,4-1.32,5.37-.52l3.38,1.95C214.6,431,215.46,432.66,215.46,435.08Z" style="fill:#37474f"></path><path d="M215.46,435.08a16.81,16.81,0,0,1-7.6,13.16c-2.1,1.21-4,1.32-5.36.52l-3.38-1.95c-1.38-.79-2.24-2.48-2.24-4.91a16.8,16.8,0,0,1,7.6-13.16c2.1-1.21,4-1.32,5.37-.52l3.38,1.95C214.6,431,215.46,432.66,215.46,435.08Z" style="opacity:0.2"></path><path d="M212.56,443.64a14.9,14.9,0,0,1-4.7,4.6c-2.1,1.21-4,1.32-5.36.52l-3.38-1.95c-1.38-.79-2.24-2.48-2.24-4.91a14.88,14.88,0,0,1,1.64-6.37Z" style="opacity:0.2"></path><path d="M207.86,448.24a16.81,16.81,0,0,0,7.6-13.16c0-4.85-3.4-6.81-7.6-4.39a16.82,16.82,0,0,0-7.6,13.16C200.26,448.7,203.67,450.66,207.86,448.24Z" style="fill:#455a64"></path><path d="M216.53,433.71c-4.06-2.34-9.44-.63-12,3.82s-1.37,10,2.69,12.32,14.36,3.47,16.93-1S220.59,436.06,216.53,433.71Z" style="fill:#37474f"></path><path d="M207.56,445c3.36,4.78,11.61,5.1,13.56,4.18a5.63,5.63,0,0,1,3.46-4.36,5.73,5.73,0,0,1-.44,4.06c-2.57,4.46-12.86,3.33-16.93,1S202,442,204.52,437.53a9.62,9.62,0,0,1,6.53-4.72C208.13,433.9,204.21,440.21,207.56,445Z" style="fill:#263238"></path><path d="M229.81,446.44a4.93,4.93,0,1,0,1.8,6.74A4.94,4.94,0,0,0,229.81,446.44Z" style="fill:#455a64"></path><path d="M229.81,446.44a4.93,4.93,0,1,0,1.49,7.2,4.08,4.08,0,1,1-1.37-7.12Z" style="opacity:0.2"></path><path d="M231.57,451.49a2.43,2.43,0,0,1-.52.91,1,1,0,0,1-1.31.23c-.52-.35-.4-1.08-.28-1.6.07-.3.14-.59.2-.89s.06-.8.15-1.19.51-.44.84-.27a1.73,1.73,0,0,1,.66.6,2,2,0,0,1,.34.92A2.42,2.42,0,0,1,231.57,451.49Z" style="fill:#fff;opacity:0.2"></path></g><g id="freepik--chess-piece--inject-33"><path d="M264.12,391.46c-5.77-3.34-15.13-3.34-20.9,0-2.88,1.67-4.31,3.85-4.31,6V400c0,2.18,1.42,4.37,4.31,6,5.77,3.33,15.13,3.33,20.9,0,2.89-1.67,4.32-3.86,4.31-6v-2.49C268.44,395.3,267,393.12,264.12,391.46Z" style="fill:#37474f"></path><path d="M264.12,391.46c-5.77-3.34-15.13-3.34-20.9,0-2.88,1.67-4.31,3.85-4.31,6V400c0,2.18,1.42,4.37,4.31,6,5.77,3.33,15.13,3.33,20.9,0,2.89-1.67,4.32-3.86,4.31-6v-2.49C268.44,395.3,267,393.12,264.12,391.46Z" style="opacity:0.2"></path><path d="M246.85,389.92a17.14,17.14,0,0,0-3.63,1.53c-2.88,1.67-4.31,3.85-4.31,6V400c0,2.18,1.42,4.37,4.31,6a17.14,17.14,0,0,0,3.63,1.53Z" style="opacity:0.2"></path><path d="M243.22,391.45c5.77-3.33,15.13-3.33,20.9,0s5.77,8.73,0,12.06-15.13,3.33-20.9,0S237.45,394.79,243.22,391.45Z" style="opacity:0.4"></path><path d="M253.66,385.69c-14.12,0-15.95,6.08-15.95,9.22s1.9,5.73,5.84,8h0a22.45,22.45,0,0,0,20.2,0c3.94-2.28,5.85-4.88,5.85-8S267.79,385.69,253.66,385.69Z" style="fill:#37474f"></path><path d="M258.93,398.42l-.26,0c-1.05.14-3,0-3.83.84-1.44,1.39.54,2.58,1.78,3a9,9,0,0,0,6.24-.57,9.52,9.52,0,0,0,4.08-3.48c.39-.65,1.11-2.57.15-3a1.32,1.32,0,0,0-1.53.38,12.2,12.2,0,0,1-1.5,1.05,10,10,0,0,1-1.46.83A13.22,13.22,0,0,1,258.93,398.42Z" style="fill:#fff;opacity:0.1"></path><path d="M251.94,396.6c8.34.75,14.18-2.57,16.24-6.14-1.84-2.49-5.87-4.77-14.52-4.77-14.12,0-15.95,6.08-15.95,9.22s1.9,5.73,5.84,8h0a22.45,22.45,0,0,0,20.2,0,18.73,18.73,0,0,0,2.41-1.64c-3,2.07-7.89,3.6-14.24,2.68S243.25,395.82,251.94,396.6Z" style="opacity:0.1"></path><path d="M246.86,394l-.77-7.55c-7.26,1.74-8.38,6-8.38,8.45,0,3.13,1.9,5.73,5.84,8h0l.39.2C239.59,400.31,242.28,392.67,246.86,394Z" style="opacity:0.1"></path><path d="M262.47,380c-4.86-2.81-12.73-2.81-17.59,0-2.43,1.4-3.64,3.24-3.63,5.07v2.76c0,1.84,1.19,3.68,3.63,5.08,4.85,2.8,12.73,2.8,17.59,0,2.43-1.4,3.63-3.25,3.63-5.09,0-.34,0-2.4,0-2.75C266.1,383.26,264.89,381.42,262.47,380Z" style="fill:#37474f"></path><path d="M244.88,392.93a14.19,14.19,0,0,0,2.69,1.17V378.84a14.22,14.22,0,0,0-2.69,1.18c-2.43,1.4-3.64,3.24-3.63,5.07v2.76C241.24,389.69,242.44,391.53,244.88,392.93Z" style="opacity:0.2"></path><path d="M244.88,380c4.86-2.81,12.73-2.81,17.59,0s4.85,7.35,0,10.15-12.74,2.8-17.59,0S240,382.82,244.88,380Z" style="fill:#455a64"></path><path d="M264.38,381.79h0c-1.47-3.45-5.19-10.82-5.19-20.12h-11c0,9.36-3.72,16.67-5.19,20.12h0c-.9,2.24.06,4.71,2.9,6.46a16.28,16.28,0,0,0,15.62,0C264.32,386.5,265.28,384,264.38,381.79Z" style="fill:#37474f"></path><path d="M258.81,362.18a88.55,88.55,0,0,0,3,15.83c1,3.33,2.37,5.6.53,7.68S256,388.4,256,388.4a14,14,0,0,0,4.45-3c1.89-2,.76-4.91.2-7.38C259.72,374,258.49,367.72,258.81,362.18Z" style="fill:#fff;opacity:0.1"></path><path d="M255.11,390.19c-.94-.43-2.89-1.19-1.44-9.43s1.42-10.48,1.39-19.09h-6.91c0,9.32-3.72,16.67-5.19,20.12h0c-.9,2.24.06,4.71,2.9,6.46A15.74,15.74,0,0,0,255.11,390.19Z" style="opacity:0.1"></path><path d="M248.68,376.52c1.29-5.52,1.68-6.13,1.71-14.85h-2.24c0,9.36-3.72,16.67-5.19,20.12h0c-.9,2.24.06,4.71,2.9,6.46a12.25,12.25,0,0,0,2.4,1.11C244.66,386.87,247.34,382.25,248.68,376.52Z" style="opacity:0.1"></path><path d="M259.27,357.8a12.41,12.41,0,0,0-11.2,0,4,4,0,0,0-2.31,3.23v2.08a3.91,3.91,0,0,0,2.31,3.23,12.35,12.35,0,0,0,11.2,0,3.91,3.91,0,0,0,2.31-3.23V361A3.93,3.93,0,0,0,259.27,357.8Z" style="fill:#37474f"></path><path d="M252.74,356.5a11.09,11.09,0,0,0-4.67,1.3,4,4,0,0,0-2.31,3.23v2.08a3.91,3.91,0,0,0,2.31,3.23,11,11,0,0,0,4.67,1.31Z" style="opacity:0.2"></path><path d="M248.07,357.8a12.41,12.41,0,0,1,11.2,0c3.09,1.79,3.09,4.68,0,6.47a12.41,12.41,0,0,1-11.2,0C245,362.48,245,359.59,248.07,357.8Z" style="fill:#455a64"></path><path d="M253.66,354.67c-7.48,0-8.45,3.22-8.45,4.88s1,3,3.09,4.25h0a11.9,11.9,0,0,0,10.7,0c2.08-1.21,3.09-2.59,3.09-4.25S261.14,354.67,253.66,354.67Z" style="fill:#37474f"></path><path d="M256.46,361.42l-.14,0c-.56.07-1.58,0-2,.44-.76.74.29,1.37.95,1.58a4.77,4.77,0,0,0,3.3-.31,5,5,0,0,0,2.17-1.84c.2-.35.59-1.36.08-1.6a.7.7,0,0,0-.81.21,7.1,7.1,0,0,1-.8.55,4.93,4.93,0,0,1-.77.44A7.12,7.12,0,0,1,256.46,361.42Z" style="fill:#fff;opacity:0.1"></path><path d="M252.75,360.45c4.42.4,7.51-1.36,8.6-3.25-1-1.32-3.11-2.53-7.69-2.53-7.48,0-8.45,3.22-8.45,4.88s1,3,3.09,4.25h0a11.9,11.9,0,0,0,10.7,0,10,10,0,0,0,1.27-.87,10.52,10.52,0,0,1-7.54,1.42C249.39,363.86,248.15,360,252.75,360.45Z" style="opacity:0.1"></path><path d="M250.06,359.08l-.41-4c-3.85.92-4.44,3.17-4.44,4.47,0,1.66,1,3,3.09,4.25h0l.2.1C246.21,362.41,247.63,358.37,250.06,359.08Z" style="opacity:0.1"></path><path d="M259.27,350a12.35,12.35,0,0,0-11.2,0,3.93,3.93,0,0,0-2.31,3.23v2.07a3.92,3.92,0,0,0,2.31,3.24,12.41,12.41,0,0,0,11.2,0,3.92,3.92,0,0,0,2.31-3.24v-2.07A3.91,3.91,0,0,0,259.27,350Z" style="fill:#37474f"></path><path d="M252.74,348.73a10.81,10.81,0,0,0-4.67,1.3,3.93,3.93,0,0,0-2.31,3.23v2.07a3.92,3.92,0,0,0,2.31,3.24,11,11,0,0,0,4.67,1.3Z" style="opacity:0.2"></path><path d="M248.07,350a12.35,12.35,0,0,1,11.2,0c3.09,1.78,3.09,4.68,0,6.46a12.35,12.35,0,0,1-11.2,0C245,354.71,245,351.81,248.07,350Z" style="fill:#455a64"></path><path d="M261.18,348.56a7.51,7.51,0,1,1-7.51-7.51A7.51,7.51,0,0,1,261.18,348.56Z" style="fill:#455a64"></path><path d="M261.18,348.56a7.51,7.51,0,1,1-8.36-7.46,6.21,6.21,0,1,0,8.35,7.24A1.62,1.62,0,0,1,261.18,348.56Z" style="opacity:0.2"></path><path d="M255.87,342.39a3.8,3.8,0,0,0-1.61,0,1.52,1.52,0,0,0-1.29,1.55c.06,1,1.12,1.35,1.89,1.59l1.33.41c.59.19,1.1.54,1.69.71s1-.33,1-.89a2.54,2.54,0,0,0-.28-1.33,3.27,3.27,0,0,0-1-1.16A3.78,3.78,0,0,0,255.87,342.39Z" style="fill:#fff;opacity:0.2"></path></g><g id="freepik--chess-piece--inject-33"><path d="M317.33,414.53c-5.77-3.33-15.13-3.33-20.9,0-2.88,1.67-4.32,3.85-4.31,6v2.49c0,2.19,1.42,4.37,4.31,6,5.77,3.33,15.13,3.33,20.9,0,2.89-1.67,4.32-3.85,4.31-6v-2.49C321.64,418.38,320.21,416.2,317.33,414.53Z" style="fill:#37474f"></path><path d="M317.33,414.53c-5.77-3.33-15.13-3.33-20.9,0-2.88,1.67-4.32,3.85-4.31,6v2.49c0,2.19,1.42,4.37,4.31,6,5.77,3.33,15.13,3.33,20.9,0,2.89-1.67,4.32-3.85,4.31-6v-2.49C321.64,418.38,320.21,416.2,317.33,414.53Z" style="opacity:0.2"></path><path d="M300.05,413a17.27,17.27,0,0,0-3.62,1.53c-2.88,1.67-4.32,3.85-4.31,6v2.49c0,2.19,1.42,4.37,4.31,6a17.07,17.07,0,0,0,3.62,1.54Z" style="opacity:0.2"></path><path d="M296.43,414.53c5.77-3.33,15.13-3.33,20.9,0s5.77,8.73,0,12.06-15.13,3.34-20.9,0S290.66,417.86,296.43,414.53Z" style="opacity:0.4"></path><path d="M306.87,408.77c-14.13,0-16,6.07-16,9.21s1.91,5.74,5.85,8h0a22.37,22.37,0,0,0,20.2,0c3.93-2.27,5.84-4.87,5.84-8S321,408.77,306.87,408.77Z" style="fill:#37474f"></path><path d="M312.14,421.5l-.26,0c-1.05.14-3,0-3.84.84-1.43,1.38.55,2.58,1.79,3a9,9,0,0,0,6.23-.57,9.61,9.61,0,0,0,4.09-3.48c.38-.65,1.11-2.57.15-3a1.32,1.32,0,0,0-1.53.37,12,12,0,0,1-1.5,1.06,11,11,0,0,1-1.46.83A13.4,13.4,0,0,1,312.14,421.5Z" style="fill:#fff;opacity:0.1"></path><path d="M305.15,419.67c8.33.75,14.18-2.57,16.23-6.14-1.83-2.48-5.86-4.76-14.51-4.76-14.13,0-16,6.07-16,9.21s1.91,5.74,5.85,8h0a22.37,22.37,0,0,0,20.2,0,17.9,17.9,0,0,0,2.4-1.63c-3,2.06-7.88,3.6-14.23,2.68S296.46,418.89,305.15,419.67Z" style="opacity:0.1"></path><path d="M300.07,417.08l-.78-7.54c-7.25,1.73-8.38,6-8.38,8.44,0,3.14,1.91,5.74,5.85,8h0l.38.2C292.8,423.38,295.49,415.75,300.07,417.08Z" style="opacity:0.1"></path><path d="M315.67,403.09c-4.85-2.8-12.73-2.8-17.59,0-2.42,1.4-3.63,3.24-3.63,5.08,0,.35,0,2.4,0,2.75,0,1.84,1.2,3.68,3.63,5.08,4.86,2.81,12.74,2.81,17.59,0,2.44-1.41,3.64-3.25,3.63-5.09v-2.75C319.31,406.33,318.1,404.49,315.67,403.09Z" style="fill:#37474f"></path><path d="M298.08,416a14.31,14.31,0,0,0,2.7,1.18V401.92a14.29,14.29,0,0,0-2.7,1.17c-2.42,1.4-3.63,3.24-3.63,5.08,0,.35,0,2.4,0,2.75C294.45,412.76,295.65,414.6,298.08,416Z" style="opacity:0.2"></path><path d="M298.08,403.09c4.86-2.8,12.74-2.8,17.59,0s4.86,7.35,0,10.16-12.73,2.8-17.59,0S293.23,405.9,298.08,403.09Z" style="fill:#455a64"></path><path d="M317.59,404.87h0c-1.47-3.45-5.19-10.83-5.19-20.12H301.36c0,9.36-3.72,16.67-5.2,20.12h0c-.9,2.24.06,4.7,2.9,6.46a16.34,16.34,0,0,0,15.62,0C317.53,409.57,318.49,407.11,317.59,404.87Z" style="fill:#37474f"></path><path d="M312,385.25a87.51,87.51,0,0,0,3,15.83c1,3.33,2.37,5.61.52,7.68s-6.36,2.71-6.36,2.71a14,14,0,0,0,4.45-3c1.89-2,.75-4.9.19-7.38C312.93,397.06,311.7,390.8,312,385.25Z" style="fill:#fff;opacity:0.1"></path><path d="M308.32,413.26c-.94-.42-2.89-1.18-1.44-9.42s1.42-10.48,1.38-19.09h-6.9c0,9.32-3.72,16.67-5.2,20.12h0c-.9,2.24.06,4.7,2.9,6.46A15.7,15.7,0,0,0,308.32,413.26Z" style="opacity:0.1"></path><path d="M301.89,399.59c1.28-5.51,1.67-6.13,1.7-14.84h-2.23c0,9.36-3.72,16.67-5.2,20.12h0c-.9,2.24.06,4.7,2.9,6.46a12.86,12.86,0,0,0,2.4,1.11C297.87,409.94,300.55,405.33,301.89,399.59Z" style="opacity:0.1"></path><path d="M312.48,380.88a12.35,12.35,0,0,0-11.2,0,3.91,3.91,0,0,0-2.31,3.23v2.07a3.93,3.93,0,0,0,2.31,3.24,12.41,12.41,0,0,0,11.2,0,3.93,3.93,0,0,0,2.31-3.24v-2.07A3.93,3.93,0,0,0,312.48,380.88Z" style="fill:#37474f"></path><path d="M306,379.57a11,11,0,0,0-4.67,1.31,3.91,3.91,0,0,0-2.31,3.23v2.07a3.93,3.93,0,0,0,2.31,3.24,11,11,0,0,0,4.67,1.3Z" style="opacity:0.2"></path><path d="M301.28,380.88a12.35,12.35,0,0,1,11.2,0c3.09,1.78,3.09,4.68,0,6.46a12.35,12.35,0,0,1-11.2,0C298.19,385.56,298.19,382.66,301.28,380.88Z" style="fill:#455a64"></path><path d="M306.87,377.75c-7.48,0-8.45,3.22-8.45,4.88s1,3,3.09,4.24h0a11.84,11.84,0,0,0,10.71,0c2.08-1.2,3.09-2.58,3.09-4.24S314.35,377.75,306.87,377.75Z" style="fill:#37474f"></path><path d="M309.66,384.49l-.14,0c-.55.08-1.58,0-2,.45-.76.73.29,1.37.95,1.57a4.71,4.71,0,0,0,3.3-.3,5.11,5.11,0,0,0,2.17-1.84c.2-.35.58-1.36.07-1.6a.7.7,0,0,0-.81.2,6.26,6.26,0,0,1-.79.56,5.88,5.88,0,0,1-.77.44A7.17,7.17,0,0,1,309.66,384.49Z" style="fill:#fff;opacity:0.1"></path><path d="M306,383.53c4.41.39,7.51-1.37,8.6-3.26-1-1.32-3.11-2.52-7.69-2.52-7.48,0-8.45,3.22-8.45,4.88s1,3,3.09,4.24h0a11.84,11.84,0,0,0,10.71,0,10,10,0,0,0,1.27-.86,10.63,10.63,0,0,1-7.54,1.42C302.59,386.94,301.35,383.11,306,383.53Z" style="opacity:0.1"></path><path d="M303.27,382.15l-.41-4c-3.85.91-4.44,3.17-4.44,4.47,0,1.66,1,3,3.09,4.24h0l.21.11C299.42,385.49,300.84,381.45,303.27,382.15Z" style="opacity:0.1"></path><path d="M312.48,373.1a12.41,12.41,0,0,0-11.2,0,3.93,3.93,0,0,0-2.31,3.24v2.07a3.91,3.91,0,0,0,2.31,3.23,12.35,12.35,0,0,0,11.2,0,3.91,3.91,0,0,0,2.31-3.23v-2.07A4,4,0,0,0,312.48,373.1Z" style="fill:#37474f"></path><path d="M306,371.8a11.09,11.09,0,0,0-4.67,1.3,3.93,3.93,0,0,0-2.31,3.24v2.07a3.91,3.91,0,0,0,2.31,3.23A11,11,0,0,0,306,383Z" style="opacity:0.2"></path><path d="M301.28,373.1a12.41,12.41,0,0,1,11.2,0c3.09,1.79,3.09,4.68,0,6.47a12.41,12.41,0,0,1-11.2,0C298.19,377.78,298.19,374.89,301.28,373.1Z" style="fill:#455a64"></path><circle cx="306.88" cy="371.63" r="7.51" transform="translate(-43.11 40.28) rotate(-7.02)" style="fill:#455a64"></circle><path d="M314.39,371.64a7.51,7.51,0,1,1-8.36-7.46,6.21,6.21,0,1,0,8.35,7.24A1.62,1.62,0,0,1,314.39,371.64Z" style="opacity:0.2"></path><path d="M309.07,365.46a3.75,3.75,0,0,0-1.6,0,1.51,1.51,0,0,0-1.29,1.55c.06,1,1.12,1.34,1.89,1.59l1.33.41c.59.18,1.1.54,1.69.7s1-.33,1-.89a2.57,2.57,0,0,0-.29-1.33,3.33,3.33,0,0,0-1-1.16A3.91,3.91,0,0,0,309.07,365.46Z" style="fill:#fff;opacity:0.2"></path></g><g id="freepik--chess-piece--inject-33"><path d="M150.07,425.37c-5.77-3.33-15.13-3.33-20.9,0-2.88,1.66-4.31,3.85-4.31,6v2.49c0,2.19,1.42,4.37,4.31,6,5.77,3.33,15.13,3.33,20.9,0,2.89-1.67,4.32-3.85,4.31-6V431.4C154.38,429.22,153,427,150.07,425.37Z" style="fill:#37474f"></path><path d="M150.07,425.37c-5.77-3.33-15.13-3.33-20.9,0-2.88,1.66-4.31,3.85-4.31,6v2.49c0,2.19,1.42,4.37,4.31,6,5.77,3.33,15.13,3.33,20.9,0,2.89-1.67,4.32-3.85,4.31-6V431.4C154.38,429.22,153,427,150.07,425.37Z" style="opacity:0.2"></path><path d="M132.8,423.83a17.69,17.69,0,0,0-3.63,1.54c-2.88,1.66-4.31,3.85-4.31,6v2.49c0,2.19,1.42,4.37,4.31,6a17.69,17.69,0,0,0,3.63,1.54Z" style="opacity:0.2"></path><path d="M129.17,425.37c5.77-3.33,15.13-3.33,20.9,0s5.77,8.73,0,12.06-15.13,3.33-20.9,0S123.4,428.7,129.17,425.37Z" style="opacity:0.4"></path><path d="M139.61,419.61c-14.13,0-16,6.07-16,9.21s1.91,5.74,5.85,8h0a22.37,22.37,0,0,0,20.2,0c3.94-2.27,5.84-4.87,5.84-8S153.73,419.61,139.61,419.61Z" style="fill:#37474f"></path><path d="M144.88,432.34l-.26,0c-1.05.15-3,0-3.83.85-1.44,1.38.54,2.58,1.78,3a9,9,0,0,0,6.23-.58,9.52,9.52,0,0,0,4.09-3.47c.38-.66,1.11-2.57.15-3a1.34,1.34,0,0,0-1.53.38,12,12,0,0,1-1.5,1.06,11,11,0,0,1-1.46.83A14.16,14.16,0,0,1,144.88,432.34Z" style="fill:#fff;opacity:0.1"></path><path d="M137.89,430.51c8.33.75,14.18-2.57,16.23-6.14-1.83-2.48-5.86-4.76-14.51-4.76-14.13,0-16,6.07-16,9.21s1.91,5.74,5.85,8h0a22.37,22.37,0,0,0,20.2,0,18.73,18.73,0,0,0,2.41-1.64c-3,2.07-7.89,3.61-14.24,2.69S129.2,429.73,137.89,430.51Z" style="opacity:0.1"></path><path d="M132.81,427.92l-.77-7.54c-7.26,1.73-8.39,6-8.39,8.44,0,3.14,1.91,5.74,5.85,8h0l.39.2C125.54,434.22,128.23,426.59,132.81,427.92Z" style="opacity:0.1"></path><path d="M148.42,413.93c-4.86-2.8-12.74-2.8-17.59,0-2.43,1.4-3.64,3.24-3.63,5.08v2.75c0,1.84,1.19,3.68,3.63,5.08,4.85,2.81,12.73,2.81,17.58,0,2.44-1.4,3.64-3.24,3.63-5.08V419C152.05,417.17,150.84,415.33,148.42,413.93Z" style="fill:#37474f"></path><path d="M130.83,426.84a14.22,14.22,0,0,0,2.69,1.18V412.76a14.19,14.19,0,0,0-2.69,1.17c-2.43,1.4-3.64,3.24-3.63,5.08v2.75C127.19,423.6,128.39,425.44,130.83,426.84Z" style="opacity:0.2"></path><path d="M130.83,413.93c4.85-2.8,12.73-2.8,17.59,0s4.85,7.35,0,10.15-12.73,2.81-17.58,0S126,416.73,130.83,413.93Z" style="fill:#455a64"></path><path d="M150.33,415.7h0c-1.47-3.45-5.19-10.82-5.19-20.11H134.1c0,9.35-3.72,16.66-5.2,20.11h0c-.9,2.25.06,4.71,2.9,6.46a16.28,16.28,0,0,0,15.62,0C150.27,420.41,151.23,418,150.33,415.7Z" style="fill:#37474f"></path><path d="M144.76,396.09a87.67,87.67,0,0,0,3,15.83c1,3.33,2.37,5.6.52,7.68s-6.36,2.71-6.36,2.71a14,14,0,0,0,4.45-3c1.89-2,.76-4.9.2-7.38C145.67,407.9,144.44,401.63,144.76,396.09Z" style="fill:#fff;opacity:0.1"></path><path d="M141.06,424.1c-.94-.42-2.89-1.18-1.44-9.42S141,404.2,141,395.59H134.1c0,9.32-3.72,16.66-5.2,20.11h0c-.9,2.25.06,4.71,2.9,6.46A15.65,15.65,0,0,0,141.06,424.1Z" style="opacity:0.1"></path><path d="M134.63,410.43c1.29-5.51,1.68-6.13,1.7-14.84H134.1c0,9.35-3.72,16.66-5.2,20.11h0c-.9,2.25.06,4.71,2.9,6.46a12.28,12.28,0,0,0,2.4,1.12C130.61,420.78,133.29,416.17,134.63,410.43Z" style="opacity:0.1"></path><path d="M145.22,391.72a12.35,12.35,0,0,0-11.2,0,3.93,3.93,0,0,0-2.31,3.23V397a3.93,3.93,0,0,0,2.31,3.24,12.41,12.41,0,0,0,11.2,0,3.93,3.93,0,0,0,2.31-3.24V395A3.91,3.91,0,0,0,145.22,391.72Z" style="fill:#37474f"></path><path d="M138.69,390.41a11,11,0,0,0-4.67,1.31,3.93,3.93,0,0,0-2.31,3.23V397a3.93,3.93,0,0,0,2.31,3.24,11.09,11.09,0,0,0,4.67,1.3Z" style="opacity:0.2"></path><path d="M134,391.72a12.35,12.35,0,0,1,11.2,0c3.09,1.78,3.09,4.68,0,6.46a12.35,12.35,0,0,1-11.2,0C130.93,396.4,130.93,393.5,134,391.72Z" style="fill:#455a64"></path><path d="M139.61,388.59c-7.48,0-8.45,3.22-8.45,4.88s1,3,3.09,4.24h0a11.84,11.84,0,0,0,10.71,0c2.08-1.2,3.09-2.58,3.09-4.24S147.09,388.59,139.61,388.59Z" style="fill:#37474f"></path><path d="M142.4,395.33l-.13,0c-.56.08-1.59,0-2,.45-.76.73.29,1.36,1,1.57a4.77,4.77,0,0,0,3.3-.3,5.12,5.12,0,0,0,2.17-1.84c.2-.35.58-1.37.07-1.6a.7.7,0,0,0-.81.2,7.48,7.48,0,0,1-.79.56,7.3,7.3,0,0,1-.77.44A7.08,7.08,0,0,1,142.4,395.33Z" style="fill:#fff;opacity:0.1"></path><path d="M138.7,394.36c4.41.4,7.51-1.36,8.6-3.25-1-1.32-3.11-2.52-7.69-2.52-7.48,0-8.45,3.22-8.45,4.88s1,3,3.09,4.24h0a11.84,11.84,0,0,0,10.71,0,10,10,0,0,0,1.27-.87,10.52,10.52,0,0,1-7.54,1.42C135.34,397.78,134.09,394,138.7,394.36Z" style="opacity:0.1"></path><path d="M136,393l-.41-4c-3.85.92-4.44,3.18-4.44,4.48,0,1.66,1,3,3.09,4.24h0l.21.11C132.16,396.33,133.58,392.28,136,393Z" style="opacity:0.1"></path><path d="M145.22,383.94a12.41,12.41,0,0,0-11.2,0,3.93,3.93,0,0,0-2.31,3.23v2.08a3.91,3.91,0,0,0,2.31,3.23,12.35,12.35,0,0,0,11.2,0,3.91,3.91,0,0,0,2.31-3.23v-2.08C147.53,386,146.77,384.84,145.22,383.94Z" style="fill:#37474f"></path><path d="M138.69,382.64a11.09,11.09,0,0,0-4.67,1.3,3.93,3.93,0,0,0-2.31,3.23v2.08a3.91,3.91,0,0,0,2.31,3.23,11,11,0,0,0,4.67,1.31Z" style="opacity:0.2"></path><path d="M134,383.94a12.41,12.41,0,0,1,11.2,0c3.09,1.79,3.09,4.68,0,6.47a12.41,12.41,0,0,1-11.2,0C130.93,388.62,130.93,385.73,134,383.94Z" style="fill:#455a64"></path><circle cx="139.62" cy="382.47" r="7.51" transform="matrix(0.08, -1, 1, 0.08, -253.06, 490.07)" style="fill:#455a64"></circle><path d="M147.13,382.47a7.51,7.51,0,1,1-8.36-7.46,6.21,6.21,0,1,0,8.35,7.25A1.48,1.48,0,0,1,147.13,382.47Z" style="opacity:0.2"></path><path d="M141.81,376.3a3.6,3.6,0,0,0-1.6,0,1.52,1.52,0,0,0-1.29,1.55c.06,1,1.12,1.34,1.89,1.58l1.33.42c.59.18,1.1.53,1.69.7s1-.33,1-.89a2.66,2.66,0,0,0-.28-1.33,3.36,3.36,0,0,0-1-1.16A3.91,3.91,0,0,0,141.81,376.3Z" style="fill:#fff;opacity:0.2"></path></g><g id="freepik--chess-piece--inject-33"><path d="M163.54,330.87c-6.54-3.78-17.15-3.78-23.7,0-3.27,1.89-4.9,4.36-4.89,6.84v2.82c0,2.48,1.61,5,4.89,6.85,6.54,3.78,17.15,3.78,23.7,0,3.27-1.89,4.9-4.37,4.89-6.85v-2.82C168.43,335.23,166.81,332.76,163.54,330.87Z" style="fill:#37474f"></path><path d="M163.54,330.87c-6.54-3.78-17.15-3.78-23.7,0-3.27,1.89-4.9,4.36-4.89,6.84v2.82c0,2.48,1.61,5,4.89,6.85,6.54,3.78,17.15,3.78,23.7,0,3.27-1.89,4.9-4.37,4.89-6.85v-2.82C168.43,335.23,166.81,332.76,163.54,330.87Z" style="opacity:0.2"></path><path d="M144,329.13a19,19,0,0,0-4.11,1.74c-3.27,1.89-4.9,4.36-4.89,6.84v2.82c0,2.48,1.61,5,4.89,6.85a19,19,0,0,0,4.11,1.74Z" style="opacity:0.2"></path><path d="M139.84,330.87c6.55-3.78,17.16-3.78,23.7,0s6.54,9.9,0,13.68-17.16,3.78-23.7,0S133.3,334.64,139.84,330.87Z" style="fill:#37474f"></path><path d="M139.84,330.87c6.55-3.78,17.16-3.78,23.7,0s6.54,9.9,0,13.68-17.16,3.78-23.7,0S133.3,334.64,139.84,330.87Z" style="opacity:0.4"></path><path d="M151.68,324.33c-16,0-18.1,6.89-18.1,10.45s2.17,6.51,6.63,9.09h0a25.48,25.48,0,0,0,22.91,0c4.47-2.58,6.63-5.53,6.63-9.09S167.7,324.33,151.68,324.33Z" style="fill:#37474f"></path><path d="M157.66,338.77l-.3,0c-1.19.16-3.38,0-4.35,1-1.63,1.57.62,2.93,2,3.36a10.16,10.16,0,0,0,7.07-.64,10.8,10.8,0,0,0,4.64-3.95c.43-.74,1.26-2.91.17-3.41a1.49,1.49,0,0,0-1.74.43,13.6,13.6,0,0,1-1.7,1.19,11.16,11.16,0,0,1-1.65.94A15.45,15.45,0,0,1,157.66,338.77Z" style="fill:#fff;opacity:0.1"></path><path d="M149.73,336.7c9.45.85,16.08-2.92,18.41-7-2.08-2.82-6.66-5.41-16.46-5.41-16,0-18.1,6.89-18.1,10.45s2.17,6.51,6.63,9.09h0a25.48,25.48,0,0,0,22.91,0,20.92,20.92,0,0,0,2.73-1.86c-3.37,2.34-8.94,4.09-16.14,3S139.87,335.81,149.73,336.7Z" style="opacity:0.1"></path><path d="M144,333.76l-.87-8.55c-8.24,2-9.51,6.79-9.51,9.57,0,3.56,2.17,6.51,6.63,9.09h0l.44.22C135.72,340.9,138.77,332.25,144,333.76Z" style="opacity:0.1"></path><path d="M163.51,315.29c-6.53-3.77-17.11-3.77-23.64,0-3.26,1.88-4.88,4.35-4.88,6.82,0,.47,0,3.23,0,3.7,0,2.47,1.61,4.94,4.88,6.83,6.53,3.77,17.11,3.77,23.64,0,3.26-1.89,4.88-4.36,4.87-6.83v-3.7C168.39,319.64,166.77,317.17,163.51,315.29Z" style="fill:#37474f"></path><path d="M163.51,315.29c-6.53-3.77-17.11-3.77-23.64,0-3.26,1.88-4.88,4.35-4.88,6.82,0,.47,0,3.23,0,3.7,0,2.47,1.61,4.94,4.88,6.83,6.53,3.77,17.11,3.77,23.64,0,3.26-1.89,4.88-4.36,4.87-6.83v-3.7C168.39,319.64,166.77,317.17,163.51,315.29Z" style="opacity:0.2"></path><path d="M139.87,332.64a19.39,19.39,0,0,0,3.62,1.57v-20.5a18.78,18.78,0,0,0-3.62,1.58c-3.26,1.88-4.88,4.35-4.88,6.82,0,.47,0,3.23,0,3.7C135,328.28,136.6,330.75,139.87,332.64Z" style="opacity:0.2"></path><path d="M139.87,315.29c6.53-3.77,17.11-3.77,23.64,0s6.52,9.87,0,13.64-17.11,3.77-23.64,0S133.34,319.05,139.87,315.29Z" style="fill:#455a64"></path><path d="M166.83,319.21h0c-2.09-4.28-7.35-17.18-7.35-38.32H143.88c0,21.14-5.26,34-7.34,38.32h0c-1.28,2.79.08,5.85,4.09,8,6.1,3.3,16,3.3,22.09,0C166.75,325.06,168.1,322,166.83,319.21Z" style="fill:#37474f"></path><path d="M159,294.85a97.16,97.16,0,0,0,4.27,19.66c1.36,4.14,3.35,7,.74,9.54s-9,3.37-9,3.37a20.13,20.13,0,0,0,6.29-3.74c2.67-2.49,1.07-6.09.28-9.17C160.25,309.52,158.51,301.73,159,294.85Z" style="fill:#fff;opacity:0.1"></path><path d="M153.73,329.64c-1.34-.52-4.09-1.47-2-11.7s2-26.35,2-37.05h-9.77c0,21.14-5.26,34-7.34,38.32h0c-1.28,2.79.08,5.85,4.09,8A24.84,24.84,0,0,0,153.73,329.64Z" style="opacity:0.1"></path><path d="M144.63,312.66c1.82-6.85,2.37-20.94,2.41-31.77h-3.16c0,21.14-5.26,34-7.34,38.32h0c-1.28,2.79.08,5.85,4.09,8a19.18,19.18,0,0,0,3.4,1.38C139,325.52,142.73,319.79,144.63,312.66Z" style="opacity:0.1"></path><path d="M160.38,269.46c-4.8-2.77-12.58-2.77-17.38,0-2.4,1.38-3.59,3.2-3.59,5v4.46c0,1.81,1.18,3.63,3.59,5,4.8,2.77,12.58,2.77,17.38,0,2.4-1.39,3.59-3.21,3.59-5v-4.46C164,272.66,162.78,270.85,160.38,269.46Z" style="fill:#37474f"></path><path d="M160.38,269.46c-4.8-2.77-12.58-2.77-17.38,0-2.4,1.38-3.59,3.2-3.59,5v4.46c0,1.81,1.18,3.63,3.59,5,4.8,2.77,12.58,2.77,17.38,0,2.4-1.39,3.59-3.21,3.59-5v-4.46C164,272.66,162.78,270.85,160.38,269.46Z" style="opacity:0.2"></path><path d="M150.24,267.44a17,17,0,0,0-7.24,2c-2.4,1.38-3.59,3.2-3.59,5v4.46c0,1.81,1.18,3.63,3.59,5a17,17,0,0,0,7.24,2Z" style="opacity:0.2"></path><path d="M143,269.46c4.8-2.77,12.58-2.77,17.38,0s4.8,7.26,0,10-12.58,2.77-17.38,0S138.2,272.23,143,269.46Z" style="fill:#455a64"></path><path d="M162,252.42c-5.7-3.29-14.94-3.29-20.64,0-3.28,1.89-4.66,4.46-4.17,6.92h0L140.85,274h0a5.88,5.88,0,0,0,3.11,3.7,17.07,17.07,0,0,0,15.44,0,5.88,5.88,0,0,0,3.11-3.7h0l3.66-14.62h0C166.67,256.88,165.29,254.31,162,252.42Z" style="fill:#37474f"></path><path d="M163,253c-.8,6.63-2.51,16.93-3.49,24.6a5.89,5.89,0,0,0,3.06-3.67h0l3.66-14.62h0C166.62,257.13,165.54,254.84,163,253Z" style="fill:#fff;opacity:0.1"></path><path d="M144.63,251a16.53,16.53,0,0,0-3.26,1.41c-3.28,1.89-4.66,4.46-4.17,6.92h0L140.85,274h0a5.88,5.88,0,0,0,3.11,3.7A12.65,12.65,0,0,0,147,278.9Z" style="opacity:0.1"></path><path d="M141.37,252.42c5.7-3.29,14.94-3.29,20.64,0s5.7,8.62,0,11.91-14.94,3.29-20.64,0S135.67,255.71,141.37,252.42Z" style="fill:#455a64"></path><path d="M160.33,262.63c-4.77,2.75-12.51,2.75-17.28,0-2.75-1.59-3.91-3.73-3.5-5.8h0l3.06-11.43h0a5,5,0,0,1,2.6-3.1,14.3,14.3,0,0,1,12.93,0,5,5,0,0,1,2.61,3.1h0l3.06,11.43h0C164.23,258.89,163.08,261,160.33,262.63Z" style="fill:#37474f"></path><path d="M161.12,262.12c-.67-5.56-2.1-13.37-2.92-19.79a5,5,0,0,1,2.56,3.07h0l3.06,11.43h0C164.19,258.68,163.29,260.6,161.12,262.12Z" style="fill:#fff;opacity:0.1"></path><path d="M145.77,263.81a13.88,13.88,0,0,1-2.72-1.18c-2.75-1.59-3.91-3.73-3.5-5.8h0l3.06-11.43h0a5,5,0,0,1,2.6-3.1,11,11,0,0,1,2.56-1Z" style="opacity:0.1"></path><path d="M145.22,249.78a14.32,14.32,0,0,0,12.94,0c3.58-2.07,3.58-5.41,0-7.48a14.32,14.32,0,0,0-12.94,0C141.64,244.37,141.64,247.71,145.22,249.78Z" style="fill:#455a64"></path><path d="M158.66,243h0a1.66,1.66,0,0,1-.14-.13l-.16-.14a9.83,9.83,0,0,0-13.36,0l-.2.18-.16.15h0c-1.73,1.77-1.29,4.06,1.33,5.57a12.65,12.65,0,0,0,11.4,0C160,247.06,160.45,244.75,158.66,243Z" style="fill:#37474f"></path><path d="M155.26,241.17a9.66,9.66,0,0,1,3.25,2.36,3.17,3.17,0,0,1-.22,3.47,4.52,4.52,0,0,0-.35-3.25A8.75,8.75,0,0,0,155.26,241.17Z" style="fill:#fff;opacity:0.2"></path><path d="M146.21,246.87c-2-1.85-1-3.94.46-5.41a9.9,9.9,0,0,0-1.66,1.23l-.2.18-.16.15h0c-1.73,1.77-1.29,4.06,1.33,5.57a12.65,12.65,0,0,0,11.4,0,5.9,5.9,0,0,0,1.37-1.06c-.11.1-1,.92-4.07,1.23C150,249.25,147.72,248.29,146.21,246.87Z" style="opacity:0.1"></path><polygon points="155.5 227.79 155.5 232.19 159.3 229.99 159.3 234.38 155.5 236.58 155.5 243.51 151.69 245.71 151.69 238.78 147.88 240.97 147.88 236.58 151.69 234.38 151.69 229.99 155.5 227.79" style="fill:#455a64"></polygon><polygon points="151.69 245.71 147.88 243.51 147.88 240.97 151.69 238.78 151.69 245.71" style="fill:#263238"></polygon><polygon points="147.88 236.58 144.08 234.38 144.08 238.78 147.88 240.97 147.88 236.58" style="fill:#37474f"></polygon><polygon points="151.69 234.38 147.88 232.19 144.08 234.38 147.88 236.58 151.69 234.38" style="fill:#455a64"></polygon><polygon points="151.69 234.38 147.88 232.19 144.08 234.38 147.88 236.58 151.69 234.38" style="fill:#fff;opacity:0.2"></polygon><polygon points="151.69 229.99 147.88 227.79 147.88 232.19 151.69 234.38 151.69 229.99" style="fill:#37474f"></polygon><polygon points="155.5 227.79 151.69 225.59 147.88 227.79 151.69 229.99 155.5 227.79" style="fill:#455a64"></polygon><polygon points="155.5 227.79 151.69 225.59 147.88 227.79 151.69 229.99 155.5 227.79" style="fill:#fff;opacity:0.2"></polygon><polygon points="159.3 229.99 155.5 227.79 155.5 232.19 159.3 229.99" style="fill:#455a64"></polygon><polygon points="159.3 229.99 155.5 227.79 155.5 232.19 159.3 229.99" style="fill:#fff;opacity:0.2"></polygon></g></g><g id="freepik--speech-bubbles--inject-33"><g id="freepik--speech-bubble--inject-33"><g id="freepik--Bubble--inject-33"><path d="M367.27,60.78c-3.36-1.9-8-1.61-13.07,1.33C343.94,68,335.63,82.44,335.63,94.28c0,5.92,2.08,10.07,5.43,12l6.35,3.65c3.36,1.94,8,1.66,13.11-1.3,10.26-5.92,18.57-20.32,18.57-32.17,0-5.9-2.06-10-5.41-12Z" style="fill:#E57C23"></path><path d="M336.31,88.12a30,30,0,0,0-.68,6.16c0,5.92,2.08,10.07,5.43,12l6.35,3.65c3.36,1.94,8,1.66,13.11-1.3a29.87,29.87,0,0,0,5-3.66Z" style="opacity:0.15"></path><path d="M373.66,94.76c3.36-5.82,5.43-12.37,5.43-18.29,0-11.84-8.31-16.64-18.57-10.72S342,86.07,342,97.92s8.32,16.64,18.57,10.72a31.85,31.85,0,0,0,7.25-5.89l7.58,1.39a1.25,1.25,0,0,0,1.39-1.69Z" style="fill:#E57C23"></path><path d="M373.66,94.76c3.36-5.82,5.43-12.37,5.43-18.29,0-11.84-8.31-16.64-18.57-10.72S342,86.07,342,97.92s8.32,16.64,18.57,10.72a31.85,31.85,0,0,0,7.25-5.89l7.58,1.39a1.25,1.25,0,0,0,1.39-1.69Z" style="fill:#fff;opacity:0.35000000000000003"></path></g><g id="freepik--Alert--inject-33"><path d="M362,92.86l-2.44,1.4a.52.52,0,0,1-.85-.46l-1-18.23a1.61,1.61,0,0,1,.75-1.38l4.6-2.67c.45-.25.78,0,.76.47l-1,19.48A1.93,1.93,0,0,1,362,92.86Z" style="fill:#fafafa"></path><path d="M360.79,102.66c-1.55.9-2.48-.26-2.48-1.88A5.87,5.87,0,0,1,360.79,96c1.55-.9,2.48.26,2.48,1.87A5.89,5.89,0,0,1,360.79,102.66Z" style="fill:#fafafa"></path></g></g><g id="freepik--speech-bubble--inject-33"><g id="freepik--bubble--inject-33"><path d="M135.73,61.83c3.36-1.91,8-1.61,13.07,1.33,10.26,5.92,18.57,20.32,18.57,32.16,0,5.92-2.07,10.08-5.43,12L155.6,111c-3.36,1.93-8,1.65-13.12-1.31-10.26-5.92-18.57-20.32-18.57-32.16,0-5.91,2.07-10.06,5.41-12C130.72,64.7,134.31,62.64,135.73,61.83Z" style="fill:#E57C23"></path><path d="M166.69,89.17a30,30,0,0,1,.68,6.15c0,5.92-2.07,10.08-5.43,12L155.6,111c-3.36,1.93-8,1.65-13.12-1.31a29.18,29.18,0,0,1-5-3.66Z" style="opacity:0.15"></path><path d="M129.34,95.81C126,90,123.91,83.44,123.91,77.52c0-11.84,8.31-16.64,18.57-10.72S161.05,87.12,161.05,99s-8.31,16.65-18.57,10.72a32,32,0,0,1-7.25-5.88l-7.58,1.39a1.25,1.25,0,0,1-1.38-1.7Z" style="fill:#E57C23"></path><path d="M129.34,95.81C126,90,123.91,83.44,123.91,77.52c0-11.84,8.31-16.64,18.57-10.72S161.05,87.12,161.05,99s-8.31,16.65-18.57,10.72a32,32,0,0,1-7.25-5.88l-7.58,1.39a1.25,1.25,0,0,1-1.38-1.7Z" style="fill:#fff;opacity:0.35000000000000003"></path></g><g id="freepik--alert--inject-33"><path d="M142.21,103.71c1.55.89,2.49-.27,2.49-1.88a5.89,5.89,0,0,0-2.49-4.75c-1.55-.89-2.48.27-2.48,1.88A5.89,5.89,0,0,0,142.21,103.71Z" style="fill:#fafafa"></path></g><path d="M142.35,73.34a11.45,11.45,0,0,1,2.49,2A14.22,14.22,0,0,1,147,78.19a16.63,16.63,0,0,1,1.52,3.52,13.81,13.81,0,0,1,.57,4,8.84,8.84,0,0,1-.34,2.72,5.65,5.65,0,0,1-.87,1.72,5.93,5.93,0,0,1-1.16,1.14l-1.19.87a4.74,4.74,0,0,0-1,1,2.61,2.61,0,0,0-.51,1.43,1.25,1.25,0,0,1-.25.66.35.35,0,0,1-.49,0L141.23,94a1.4,1.4,0,0,1-.53-.64,1.74,1.74,0,0,1-.21-.92,8.3,8.3,0,0,1,.45-2.62,5.91,5.91,0,0,1,1-1.67,5.6,5.6,0,0,1,1.2-1.1c.43-.28.82-.56,1.19-.84a4.24,4.24,0,0,0,.9-1,2.6,2.6,0,0,0,.35-1.42,6.59,6.59,0,0,0-3.19-5.5Q140,77,138.94,80a1.46,1.46,0,0,1-.29.53q-.15.15-.51-.06l-2.21-1.28a1.16,1.16,0,0,1-.42-.49,1.72,1.72,0,0,1-.18-.78,6.6,6.6,0,0,1,.59-2.66,4.75,4.75,0,0,1,1.5-1.91,4,4,0,0,1,2.21-.76A5,5,0,0,1,142.35,73.34Z" style="fill:#fafafa"></path></g><g id="freepik--speech-bubble--inject-33"><g id="freepik--speech-bubble--inject-33"><path d="M250,26.85a37.09,37.09,0,1,0,37.08,37.09A37.13,37.13,0,0,0,250,26.85Zm0,69.65a32.56,32.56,0,1,1,32.55-32.56A32.6,32.6,0,0,1,250,96.5Z" style="fill:#455a64"></path><path d="M282.55,63.94A32.56,32.56,0,1,1,250,31.38,32.59,32.59,0,0,1,282.55,63.94Z" style="fill:#fff"></path><path d="M248,111.24,243.24,99h13.52L252,111.24A2.16,2.16,0,0,1,248,111.24Z" style="fill:#455a64"></path></g><g id="freepik--Brain--inject-33"><g id="freepik--brain--inject-33"><path d="M246,77a4.93,4.93,0,0,1-4.61-3.21.14.14,0,0,0-.12-.09A4.92,4.92,0,0,1,236,68.46a4.92,4.92,0,0,1-3.35-7.79.27.27,0,0,0,0-.36,4.92,4.92,0,0,1,0-7,4.87,4.87,0,0,1,2.82-1.4,4.93,4.93,0,0,1,5.81-7.73l0-.13A4.84,4.84,0,0,1,246,40.24,4.93,4.93,0,0,1,251,45.16V72.07A4.93,4.93,0,0,1,246,77Zm-4.72-5.24a2.08,2.08,0,0,1,1.93,1.35,3,3,0,0,0,5.78-1V45.16a3,3,0,0,0-3-3,2.88,2.88,0,0,0-2.82,2.3l-.18.88a1.41,1.41,0,0,1-2.18.86,3,3,0,0,0-3.82.33,2.93,2.93,0,0,0-.88,2.11,3,3,0,0,0,.88,2.11,1.79,1.79,0,0,1,.42,1.89,1.82,1.82,0,0,1-1.58,1.2A3,3,0,0,0,234,58.94a2.21,2.21,0,0,1,.21,2.88,3,3,0,0,0,2.38,4.73,1.45,1.45,0,0,1,1.39,1.7,2.93,2.93,0,0,0,.33,2,3,3,0,0,0,2.82,1.51ZM241.14,45Z" style="fill:#E57C23"></path><path d="M243,51.46a4.43,4.43,0,0,1-3.92-2.35.86.86,0,0,1,.35-1.17.87.87,0,0,1,1.18.35A2.69,2.69,0,0,0,243,49.72,2.73,2.73,0,0,0,245.58,48a.87.87,0,1,1,1.63.6A4.47,4.47,0,0,1,243,51.46Z" style="fill:#E57C23"></path><path d="M243.14,69.67a4.45,4.45,0,0,1-2.15-.56.87.87,0,1,1,.84-1.52,2.71,2.71,0,0,0,2.79-.09,2.76,2.76,0,0,0,1.18-2.88.87.87,0,1,1,1.69-.38A4.45,4.45,0,0,1,245.56,69,4.39,4.39,0,0,1,243.14,69.67Z" style="fill:#E57C23"></path><path d="M237.33,64.23a4.4,4.4,0,0,1-1.51-.26,4.45,4.45,0,0,1-2.89-3.54.87.87,0,1,1,1.72-.25,2.7,2.7,0,0,0,1.76,2.16,2.74,2.74,0,0,0,3-.81.86.86,0,0,1,1.22-.11.88.88,0,0,1,.11,1.23A4.48,4.48,0,0,1,237.33,64.23Z" style="fill:#E57C23"></path><path d="M245,60.56h-.12a.87.87,0,0,1-.74-1A2.71,2.71,0,0,0,240,56.9a.87.87,0,0,1-.95-1.46,4.47,4.47,0,0,1,5.09.16,4.42,4.42,0,0,1,1.75,4.22A.86.86,0,0,1,245,60.56Z" style="fill:#E57C23"></path><path d="M254,77A4.93,4.93,0,0,1,249,72.07V45.16A4.92,4.92,0,0,1,254,40.24a4.84,4.84,0,0,1,4.72,3.85l0,.13A4.93,4.93,0,0,1,264.51,52a4.87,4.87,0,0,1,2.82,1.4,4.93,4.93,0,0,1,0,7,.27.27,0,0,0,0,.36A4.92,4.92,0,0,1,264,68.46a4.92,4.92,0,0,1-5.29,5.24c-.05,0-.1,0-.11.09A5,5,0,0,1,254,77Zm0-34.82a3,3,0,0,0-3,3V72.07a3,3,0,0,0,5.78,1,2,2,0,0,1,2.08-1.34,3,3,0,0,0,2.82-1.51,2.94,2.94,0,0,0,.34-2,1.41,1.41,0,0,1,.3-1.17,1.43,1.43,0,0,1,1.08-.53,3,3,0,0,0,2.38-4.73,2.22,2.22,0,0,1,.21-2.88,3,3,0,0,0,0-4.22,3,3,0,0,0-1.85-.86,1.83,1.83,0,0,1-1.58-1.2,1.78,1.78,0,0,1,.43-1.89,3,3,0,0,0-3.83-4.55,1.41,1.41,0,0,1-2.18-.86h0l-.18-.88A2.88,2.88,0,0,0,254,42.18Zm9.95,25.71Z" style="fill:#E57C23"></path><path d="M257,51.46a4.47,4.47,0,0,1-4.18-2.91.88.88,0,0,1,.52-1.12.86.86,0,0,1,1.11.52,2.73,2.73,0,0,0,5,.34.86.86,0,0,1,1.17-.35.87.87,0,0,1,.36,1.17A4.46,4.46,0,0,1,257,51.46Z" style="fill:#E57C23"></path><path d="M256.85,69.67a4.47,4.47,0,0,1-4.35-5.43.87.87,0,1,1,1.7.38,2.71,2.71,0,0,0,4,3,.87.87,0,1,1,.84,1.52A4.45,4.45,0,0,1,256.85,69.67Z" style="fill:#E57C23"></path><path d="M262.66,64.23a4.46,4.46,0,0,1-3.41-1.58.87.87,0,1,1,1.33-1.12,2.71,2.71,0,0,0,4.76-1.35.87.87,0,1,1,1.72.25A4.45,4.45,0,0,1,264.17,64,4.36,4.36,0,0,1,262.66,64.23Z" style="fill:#E57C23"></path><path d="M255,60.56a.86.86,0,0,1-.86-.74,4.42,4.42,0,0,1,1.75-4.22,4.47,4.47,0,0,1,5.09-.16.87.87,0,0,1-1,1.46,2.71,2.71,0,0,0-4.17,2.67.87.87,0,0,1-.73,1Z" style="fill:#E57C23"></path></g><path d="M255.76,80.17H244.23a.87.87,0,0,1,0-1.74h11.53a.87.87,0,1,1,0,1.74Z" style="fill:#E57C23"></path><path d="M250,89.17a6.65,6.65,0,0,1-6.64-6.64.87.87,0,0,1,.87-.87h11.53a.87.87,0,0,1,.87.87A6.65,6.65,0,0,1,250,89.17Zm-4.82-5.77a4.9,4.9,0,0,0,9.64,0Z" style="fill:#E57C23"></path></g></g></g></svg>