<svg xmlns="http://www.w3.org/2000/svg" viewBox="0 0 500 500"><g id="freepik--Floor--inject-2"><path id="freepik--floor--inject-2" d="M88.88,453c-89-51.38-89-134.67,0-186s233.25-51.38,322.24,0,89,134.66,0,186S177.87,504.36,88.88,453Z" style="fill:#fafafa"></path></g><g id="freepik--Plants--inject-2"><g id="freepik--plants--inject-2"><path d="M482.59,369.18a5.86,5.86,0,0,1,3.07-5.48c2.65-1.56,5.94-1.83,6.21-1.58s-.57,3.4-3.42,5.58A6.93,6.93,0,0,1,482.59,369.18Z" style="fill:#E57C23"></path><path d="M480,376.34a5.92,5.92,0,0,1,5.25-3.48c3.07-.17,6.12,1.08,6.26,1.42s-2.07,2.77-5.61,3.41A7,7,0,0,1,480,376.34Z" style="fill:#E57C23"></path><path d="M474.12,376.51a5.88,5.88,0,0,1-2.53-5.76c.35-3.05,1.81-5.68,2.17-5.75s2.64,2.76,2.89,6A6.18,6.18,0,0,1,474.12,376.51Z" style="fill:#E57C23"></path><path d="M466.59,401.49a24.19,24.19,0,0,1,1.16-8.18,47.35,47.35,0,0,1,2.67-7.22,60.08,60.08,0,0,1,8.61-13.5,32,32,0,0,1,7.57-7c.06,0,.19.09.13.14a48.16,48.16,0,0,0-6.39,6.85,56,56,0,0,0-4.9,6.8,57.8,57.8,0,0,0-5.83,13,80.58,80.58,0,0,0-2,9.2A.52.52,0,0,1,466.59,401.49Z" style="fill:#37474f"></path><path d="M474.32,379a18.33,18.33,0,0,1-.81-4.08,10.39,10.39,0,0,1,.25-4c.05-.18.15.09.15.2a30.29,30.29,0,0,0,.26,3.56,13.49,13.49,0,0,0,1,3.62.82.82,0,0,1-.2.94A.45.45,0,0,1,474.32,379Z" style="fill:#37474f"></path><path d="M474.69,378.63a15.23,15.23,0,0,1,5.12-2.74,18.85,18.85,0,0,1,2.57-.73,10.76,10.76,0,0,1,3.14-.2c.05,0,.27.14.19.15a29.88,29.88,0,0,0-3,.59,16.52,16.52,0,0,0-2.66.9,25.08,25.08,0,0,0-4.92,2.69C474.78,379.51,474.44,378.85,474.69,378.63Z" style="fill:#37474f"></path><path d="M474.07,386.05a5.89,5.89,0,0,1,4.41-4.49c3-.81,6.2-.22,6.41.08s-1.44,3.14-4.77,4.51A6.92,6.92,0,0,1,474.07,386.05Z" style="fill:#E57C23"></path><path d="M469.38,389.39a15.2,15.2,0,0,1,4.43-3.74,17.15,17.15,0,0,1,2.36-1.25,10.64,10.64,0,0,1,3-.85s.29.08.22.1a27.28,27.28,0,0,0-2.84,1.22,16.28,16.28,0,0,0-2.42,1.43,25.14,25.14,0,0,0-4.25,3.65C469.64,390.24,469.17,389.66,469.38,389.39Z" style="fill:#37474f"></path></g><g id="freepik--plants--inject-2"><path d="M19.92,366.32a5.86,5.86,0,0,0-3.07-5.48c-2.65-1.56-5.94-1.83-6.21-1.58s.57,3.4,3.42,5.58A6.93,6.93,0,0,0,19.92,366.32Z" style="fill:#E57C23"></path><path d="M22.53,373.48A5.92,5.92,0,0,0,17.28,370c-3.07-.17-6.12,1.08-6.26,1.42s2.07,2.77,5.61,3.41A7,7,0,0,0,22.53,373.48Z" style="fill:#E57C23"></path><path d="M28.39,373.65a5.91,5.91,0,0,0,2.54-5.76c-.36-3.05-1.82-5.68-2.18-5.75s-2.64,2.76-2.89,6A6.18,6.18,0,0,0,28.39,373.65Z" style="fill:#E57C23"></path><path d="M35.92,398.63a24.19,24.19,0,0,0-1.16-8.18,46.32,46.32,0,0,0-2.67-7.22,60.08,60.08,0,0,0-8.61-13.5,32,32,0,0,0-7.57-7c-.06,0-.19.09-.13.14a47.58,47.58,0,0,1,6.39,6.85,56,56,0,0,1,4.9,6.8,57.8,57.8,0,0,1,5.83,13,80.58,80.58,0,0,1,2,9.2A.52.52,0,0,0,35.92,398.63Z" style="fill:#37474f"></path><path d="M28.19,376.13a18.33,18.33,0,0,0,.81-4.08,10.39,10.39,0,0,0-.25-4c-.05-.18-.15.09-.15.2a30.29,30.29,0,0,1-.26,3.56,13.14,13.14,0,0,1-1,3.62.82.82,0,0,0,.21.94A.44.44,0,0,0,28.19,376.13Z" style="fill:#37474f"></path><path d="M27.82,375.77A15.23,15.23,0,0,0,22.7,373a18.85,18.85,0,0,0-2.57-.73,10.76,10.76,0,0,0-3.14-.2s-.27.14-.19.15a29.88,29.88,0,0,1,3,.59,16.52,16.52,0,0,1,2.66.9,25.08,25.08,0,0,1,4.92,2.69C27.73,376.65,28.07,376,27.82,375.77Z" style="fill:#37474f"></path><path d="M28.44,383.19A5.89,5.89,0,0,0,24,378.7c-3-.81-6.2-.22-6.41.08s1.44,3.14,4.77,4.51A6.92,6.92,0,0,0,28.44,383.19Z" style="fill:#E57C23"></path><path d="M33.14,386.53a15.38,15.38,0,0,0-4.44-3.74,17.63,17.63,0,0,0-2.35-1.25,10.78,10.78,0,0,0-3-.85s-.29.08-.22.1A27.28,27.28,0,0,1,25.93,382a16.28,16.28,0,0,1,2.42,1.43,25.14,25.14,0,0,1,4.25,3.65C32.87,387.38,33.34,386.8,33.14,386.53Z" style="fill:#37474f"></path></g><g id="freepik--plants--inject-2"><path d="M37,349.13a6.39,6.39,0,0,1,0-6.83c1.69-2.87,4.66-4.87,5.05-4.78s1.26,3.52-.29,7.11A7.49,7.49,0,0,1,37,349.13Z" style="fill:#E57C23"></path><path d="M38.35,357.29a6.41,6.41,0,0,1,3.14-6.07c2.82-1.79,6.37-2.22,6.68-2s-.49,3.71-3.51,6.2A7.51,7.51,0,0,1,38.35,357.29Z" style="fill:#E57C23"></path><path d="M32.88,360.56a6.4,6.4,0,0,1-5.45-4.13c-1.28-3.07-1.3-6.34-1-6.6s4,1.22,5.91,4.13C34.47,357.14,33.11,359.62,32.88,360.56Z" style="fill:#E57C23"></path><path d="M39,388.23a26.17,26.17,0,0,1-3.24-8.38,50.06,50.06,0,0,1-1.3-8.25,65.11,65.11,0,0,1,1-17.35,35,35,0,0,1,3.46-10.67c0-.07.22,0,.2.06a51.67,51.67,0,0,0-2.43,9.88,60.23,60.23,0,0,0-1,9A62.87,62.87,0,0,0,37,378a88.1,88.1,0,0,0,3,9.77A.56.56,0,0,1,39,388.23Z" style="fill:#37474f"></path><path d="M34.39,362.8a20.11,20.11,0,0,1-2.94-3.44,11.45,11.45,0,0,1-1.86-3.89c-.05-.2.19,0,.25.11A32.73,32.73,0,0,0,32,358.81a14.44,14.44,0,0,0,2.9,2.89.9.9,0,0,1,.3,1A.48.48,0,0,1,34.39,362.8Z" style="fill:#37474f"></path><path d="M34.55,362.26A16.33,16.33,0,0,1,38,357a18,18,0,0,1,2-2,11.55,11.55,0,0,1,2.88-1.85s.32,0,.25,0a33.05,33.05,0,0,0-2.55,2.17,18,18,0,0,0-2.06,2.26,27.62,27.62,0,0,0-3.24,5.15C35.1,363.05,34.42,362.61,34.55,362.26Z" style="fill:#37474f"></path><path d="M37.89,369.63a6.41,6.41,0,0,1,1.8-6.59c2.38-2.34,5.77-3.49,6.13-3.31s.29,3.73-2.14,6.79A7.52,7.52,0,0,1,37.89,369.63Z" style="fill:#E57C23"></path><path d="M35.21,375.28a16.53,16.53,0,0,1,2.22-5.89A17.75,17.75,0,0,1,39,367a11.39,11.39,0,0,1,2.42-2.41s.32-.08.26,0a31.91,31.91,0,0,0-2,2.65,18.12,18.12,0,0,0-1.53,2.64A26.9,26.9,0,0,0,36,375.53C35.91,375.94,35.16,375.64,35.21,375.28Z" style="fill:#37474f"></path></g><g id="freepik--plants--inject-2"><path d="M465.48,352a6.39,6.39,0,0,0,0-6.83c-1.69-2.87-4.66-4.87-5.05-4.78s-1.26,3.52.29,7.11A7.49,7.49,0,0,0,465.48,352Z" style="fill:#E57C23"></path><path d="M464.16,360.15a6.41,6.41,0,0,0-3.14-6.07c-2.82-1.79-6.37-2.22-6.68-2s.49,3.71,3.51,6.2A7.51,7.51,0,0,0,464.16,360.15Z" style="fill:#E57C23"></path><path d="M469.63,363.42a6.4,6.4,0,0,0,5.45-4.13c1.28-3.07,1.3-6.34,1-6.6s-4,1.22-5.91,4.13C468,360,469.4,362.48,469.63,363.42Z" style="fill:#E57C23"></path><path d="M463.52,391.09a26.17,26.17,0,0,0,3.24-8.38,50.06,50.06,0,0,0,1.3-8.25,64.7,64.7,0,0,0-1-17.35,35.21,35.21,0,0,0-3.45-10.67c0-.07-.23,0-.21.06a51.67,51.67,0,0,1,2.43,9.88,60.23,60.23,0,0,1,1.05,9,62.87,62.87,0,0,1-1.35,15.39,88.1,88.1,0,0,1-3,9.77A.56.56,0,0,0,463.52,391.09Z" style="fill:#37474f"></path><path d="M468.12,365.66a19.73,19.73,0,0,0,2.94-3.44,11.45,11.45,0,0,0,1.86-3.89c.05-.2-.19,0-.25.11a32.73,32.73,0,0,1-2.13,3.23,14.18,14.18,0,0,1-2.9,2.89.92.92,0,0,0-.3,1A.48.48,0,0,0,468.12,365.66Z" style="fill:#37474f"></path><path d="M468,365.12a16.46,16.46,0,0,0-3.4-5.3,18.9,18.9,0,0,0-2.05-2.05,11.55,11.55,0,0,0-2.88-1.85s-.32,0-.25,0a31.27,31.27,0,0,1,2.55,2.17,18,18,0,0,1,2.06,2.26,27.62,27.62,0,0,1,3.24,5.15C467.41,365.91,468.09,365.47,468,365.12Z" style="fill:#37474f"></path><path d="M464.62,372.49a6.41,6.41,0,0,0-1.8-6.59c-2.38-2.34-5.77-3.49-6.13-3.31s-.29,3.73,2.14,6.79A7.52,7.52,0,0,0,464.62,372.49Z" style="fill:#E57C23"></path><path d="M467.3,378.14a16.53,16.53,0,0,0-2.22-5.89,17.75,17.75,0,0,0-1.58-2.43,11.39,11.39,0,0,0-2.42-2.41s-.32-.08-.26,0a31.91,31.91,0,0,1,2.05,2.65,17.25,17.25,0,0,1,1.53,2.64,26.9,26.9,0,0,1,2.09,5.71C466.6,378.8,467.35,378.5,467.3,378.14Z" style="fill:#37474f"></path></g></g><g id="freepik--Shadows--inject-2"><ellipse id="freepik--Shadow--inject-2" cx="245.2" cy="436.03" rx="71.35" ry="41.19" style="fill:#e0e0e0"></ellipse><ellipse id="freepik--shadow--inject-2" cx="95.22" cy="402.25" rx="67.16" ry="38.77" style="fill:#e0e0e0"></ellipse><ellipse id="freepik--shadow--inject-2" cx="403.62" cy="400.88" rx="67.16" ry="38.77" style="fill:#e0e0e0"></ellipse></g><g id="freepik--Icons--inject-2"><g id="freepik--Like--inject-2"><path d="M315.5,350s.93-5.29.9-6.07-1.58-3.53-1.81-4.06,2.17-1.83,3.8-.28a8.46,8.46,0,0,1,2.74,5.06l6.06-2.7a2,2,0,0,1,2.65,1.09,2.25,2.25,0,0,1-.19,2.21,1.84,1.84,0,0,1,2,1.16,2.1,2.1,0,0,1-.66,2.5,2.5,2.5,0,0,1,1,1.26,2.28,2.28,0,0,1-.91,2.53A4.22,4.22,0,0,1,332,354a2.3,2.3,0,0,1-1.38,2.9l-10,4.47Z" style="fill:#e0e0e0"></path><path d="M313.91,350.35l-4.37,1.95,5.89,13.19,4.37-1.95Zm2.79,13a.85.85,0,1,1,.86-.85A.85.85,0,0,1,316.7,363.31Z" style="fill:#e0e0e0"></path></g><g id="freepik--like--inject-2"><path d="M175.34,121.5s-3.05-6.67-3.28-7.71.88-5.21,1-6-3.49-1.68-5.12.93a11.58,11.58,0,0,0-1.89,7.63l-8.93-1.5a2.78,2.78,0,0,0-3.13,2.35,3.05,3.05,0,0,0,1,2.86,2.52,2.52,0,0,0-2.21,2.21,2.84,2.84,0,0,0,1.71,3.07,3.44,3.44,0,0,0-.93,2,3.1,3.1,0,0,0,2.07,3,5.61,5.61,0,0,0-.73,2,3.14,3.14,0,0,0,2.81,3.36l14.79,2.49Z" style="fill:#e0e0e0"></path><path d="M177.55,121.38l-3.28,19.45,6.44,1.09L184,122.46Zm.3,18.21a1.37,1.37,0,0,1-1.37-1.37,1.37,1.37,0,0,1,2.73,0A1.38,1.38,0,0,1,177.85,139.59Z" style="fill:#e0e0e0"></path></g><g id="freepik--like--inject-2"><path d="M34.11,252.27a.49.49,0,0,1,.59.23l7.88,14.85a.5.5,0,0,1,0,.38.46.46,0,0,1-.24.29l-4.91,2.61a.49.49,0,0,1-.67-.2l-7.88-14.85a.5.5,0,0,1,0-.38.53.53,0,0,1,.24-.29L34,252.3Zm7.36,15.11-7.41-14L30,255.55l7.42,14Zm-13-9.92a.5.5,0,0,1,.59.24l6.77,12.76a.45.45,0,0,1,.06.28c-.27,2.48-.65,6.39-.58,7a19.43,19.43,0,0,0,1.89,3.58c.23.37.41.66.48.81s.25.68-.47,1.26a3.74,3.74,0,0,1-4.67,0A10.2,10.2,0,0,1,29,278.06l-6.27,3.33a2.87,2.87,0,0,1-3.83-1.26,3,3,0,0,1-.26-2.3,2.64,2.64,0,0,1-2.07-1.48,2.94,2.94,0,0,1,.24-3.08,4,4,0,0,1-1-1.25,3.3,3.3,0,0,1,.55-3.27,5.61,5.61,0,0,1-.81-1.13,3.14,3.14,0,0,1,1.58-4.14l11.28-6Zm6.42,13.32-6.47-12.19-10.85,5.76a2.19,2.19,0,0,0-1.17,2.81,4.11,4.11,0,0,0,1,1.23.49.49,0,0,1,.18.43.46.46,0,0,1-.26.39,2.23,2.23,0,0,0-.65,2.35,2.5,2.5,0,0,0,1,1.16.49.49,0,0,1,.13.83,1.93,1.93,0,0,0-.44,2.34,1.64,1.64,0,0,0,1.82.95.49.49,0,0,1,.52.18.5.5,0,0,1,0,.55,2.1,2.1,0,0,0,0,2.09,1.88,1.88,0,0,0,2.5.86l6.82-3.62a.5.5,0,0,1,.71.32,9.36,9.36,0,0,0,3.41,5.4,2.68,2.68,0,0,0,2.4.51,2.45,2.45,0,0,0,1.18-.64c-.09-.16-.23-.38-.39-.65a15.57,15.57,0,0,1-2-4C34.25,277,34.78,271.89,34.9,270.78Z" style="fill:#e0e0e0"></path></g><g id="freepik--like--inject-2"><path d="M455.27,115.82l6.48,1.09a.58.58,0,0,1,.37.24.55.55,0,0,1,.1.43l-3.29,19.55a.57.57,0,0,1-.67.48l-6.48-1.09a.58.58,0,0,1-.37-.24.55.55,0,0,1-.1-.43l3.29-19.55a.59.59,0,0,1,.57-.49Zm2.61,20.55L461,118l-5.33-.9-3.1,18.41Zm5.62-16.83,14.86,2.5a3.71,3.71,0,0,1,3.31,4,6.35,6.35,0,0,1-.49,1.57A3.89,3.89,0,0,1,483,131.1a4.87,4.87,0,0,1-.64,1.76,3.52,3.52,0,0,1,1.42,3.37,3.16,3.16,0,0,1-1.76,2.43,3.65,3.65,0,0,1,.56,2.66,3.4,3.4,0,0,1-3.82,2.84l-8.26-1.39a12,12,0,0,1-2,7.29,4.43,4.43,0,0,1-5.22,1.76c-1-.39-1-1-1-1.24s.12-.59.24-1.09a24,24,0,0,0,.78-4.71c-.16-.72-2-4.95-3.25-7.63a.56.56,0,0,1-.05-.34l2.83-16.8a.59.59,0,0,1,.57-.48Zm.93,25c.19.85-.26,2.95-.78,5.22-.09.36-.15.67-.2.87a2.91,2.91,0,0,0,1.56.28,3.16,3.16,0,0,0,2.5-1.46,11,11,0,0,0,1.8-7.31.61.61,0,0,1,.19-.48.58.58,0,0,1,.49-.15l9,1.52a2.23,2.23,0,0,0,2.48-1.89,2.5,2.5,0,0,0-.82-2.33.6.6,0,0,1-.18-.63.58.58,0,0,1,.51-.39,2,2,0,0,0,1.69-1.74,2.27,2.27,0,0,0-1.36-2.45.61.61,0,0,1-.36-.45.58.58,0,0,1,.19-.53,3,3,0,0,0,.75-1.7,2.61,2.61,0,0,0-1.61-2.38.57.57,0,0,1-.43-.34.59.59,0,0,1,0-.55,4.88,4.88,0,0,0,.65-1.75,2.58,2.58,0,0,0-2.35-2.7l-14.29-2.41-2.7,16.05C461.72,138,464.21,143.53,464.43,144.53Z" style="fill:#e0e0e0"></path></g><path id="freepik--Star--inject-2" d="M486.37,273.81l-7.11-1.16-5,5.2a1.07,1.07,0,0,1-1.82-.58l-1.09-7.11L464.89,267a1.07,1.07,0,0,1,0-1.91l6.42-3.23,1-7.13a1.07,1.07,0,0,1,1.82-.61l5.06,5.12,7.08-1.28a1.07,1.07,0,0,1,1.14,1.54l-3.3,6.4,3.4,6.34A1.06,1.06,0,0,1,486.37,273.81Z" style="fill:#e0e0e0"></path><g id="freepik--star--inject-2"><path d="M27.65,145.17a1.76,1.76,0,0,1-.55-.09,1.82,1.82,0,0,1-1.25-1.46l-1.24-8.07L17.26,132a1.82,1.82,0,0,1,0-3.26l7.3-3.67,1.11-8.1a1.83,1.83,0,0,1,1.23-1.48,1.81,1.81,0,0,1,1.87.45l5.75,5.8,8-1.44a1.81,1.81,0,0,1,1.93,2.62l-3.74,7.27,3.86,7.2a1.82,1.82,0,0,1-1.9,2.65h0l-8.06-1.32L29,144.61A1.82,1.82,0,0,1,27.65,145.17Zm-.2-28.65a.83.83,0,0,0-.22,0,.69.69,0,0,0-.47.56l-1.19,8.69-7.83,3.94a.68.68,0,0,0,0,1.23l7.89,3.82L27,143.45a.67.67,0,0,0,.47.55.66.66,0,0,0,.71-.18l6.06-6.32,8.65,1.41a.68.68,0,0,0,.72-1l-4.14-7.73,4-7.78a.69.69,0,0,0-.06-.73.68.68,0,0,0-.67-.27L34.1,123l-6.17-6.23A.67.67,0,0,0,27.45,116.52Z" style="fill:#e0e0e0"></path></g><g id="freepik--star--inject-2"><path d="M177.7,371.67a1.29,1.29,0,0,1-.43-.07,1.38,1.38,0,0,1-1-1.12l-1-6.23-5.67-2.74a1.41,1.41,0,0,1,0-2.52l5.63-2.83.86-6.24a1.39,1.39,0,0,1,2.38-.79L183,353.6l6.2-1.11a1.4,1.4,0,0,1,1.49,2l-2.89,5.6,3,5.55a1.41,1.41,0,0,1-.1,1.48,1.37,1.37,0,0,1-1.36.57h0l-6.21-1-4.36,4.55A1.41,1.41,0,0,1,177.7,371.67Zm-.16-22.09-.17,0a.51.51,0,0,0-.36.43l-.92,6.69-6,3a.53.53,0,0,0-.3.48.52.52,0,0,0,.3.47l6.09,2.95,1,6.68a.53.53,0,0,0,.91.28l4.68-4.87,6.67,1.09a.52.52,0,0,0,.51-.22.5.5,0,0,0,0-.55l-3.19-6,3.1-6a.54.54,0,0,0,0-.56.52.52,0,0,0-.52-.2l-6.65,1.19-4.76-4.8A.49.49,0,0,0,177.54,349.58Z" style="fill:#e0e0e0"></path></g><path id="freepik--star--inject-2" d="M39.36,238.49,36.5,236l-3.66,1a.57.57,0,0,1-.66-.77l1.47-3.48-2-3.19a.56.56,0,0,1,.52-.86l3.77.32,2.4-2.92a.56.56,0,0,1,1,.23l.86,3.68,3.52,1.39a.56.56,0,0,1,.09,1l-3.25,2-.22,3.77A.56.56,0,0,1,39.36,238.49Z" style="fill:#e0e0e0"></path><g id="freepik--star--inject-2"><path d="M237.12,435.05a1,1,0,0,1-.29,0,.91.91,0,0,1-.63-.75l-.63-4.11-3.75-1.82a.93.93,0,0,1-.53-.82.94.94,0,0,1,.51-.84l3.72-1.87.57-4.13a.93.93,0,0,1,1.58-.52l2.93,3,4.1-.74a.94.94,0,0,1,.91.36.92.92,0,0,1,.07,1l-1.9,3.7,2,3.67a.92.92,0,0,1-1,1.35l-4.11-.67-2.89,3A.94.94,0,0,1,237.12,435.05Zm-.11-14.6a.22.22,0,0,0-.11,0,.33.33,0,0,0-.24.28l-.61,4.43-4,2a.34.34,0,0,0-.19.31.34.34,0,0,0,.2.32l4,1.94.68,4.42a.35.35,0,0,0,.24.28.37.37,0,0,0,.36-.09l3.09-3.23,4.41.72a.35.35,0,0,0,.36-.51l-2.1-3.94,2-4a.33.33,0,0,0,0-.37.34.34,0,0,0-.34-.13l-4.4.79-3.14-3.18A.35.35,0,0,0,237,420.45Z" style="fill:#e0e0e0"></path></g><g id="freepik--star--inject-2"><path d="M463.6,246.14a1,1,0,0,1-.29,0,.91.91,0,0,1-.63-.74l-.63-4.12-3.75-1.81a.92.92,0,0,1-.52-.83.9.9,0,0,1,.51-.83l3.72-1.88.56-4.12a1,1,0,0,1,.63-.76.93.93,0,0,1,.95.23l2.93,3,4.1-.73a.9.9,0,0,1,.91.36.92.92,0,0,1,.08,1l-1.91,3.7,2,3.68a.9.9,0,0,1-.06,1,.91.91,0,0,1-.9.38h0l-4.11-.67-2.89,3A.91.91,0,0,1,463.6,246.14Zm-.11-14.61-.11,0a.35.35,0,0,0-.24.29l-.61,4.42-4,2a.35.35,0,0,0-.19.32.35.35,0,0,0,.2.31l4,1.95.68,4.41a.33.33,0,0,0,.24.28.33.33,0,0,0,.36-.09l3.09-3.22,4.41.72a.35.35,0,0,0,.34-.14.35.35,0,0,0,0-.37l-2.11-3.94,2-4a.32.32,0,0,0,0-.37.34.34,0,0,0-.34-.14l-4.4.79-3.14-3.17A.36.36,0,0,0,463.49,231.53Z" style="fill:#e0e0e0"></path></g></g><g id="freepik--paper-planes--inject-2"><g id="freepik--paper-plane--inject-2"><polygon points="298.61 313.7 339.93 293.03 356.4 300.31 298.61 313.7" style="fill:#E57C23"></polygon><g style="opacity:0.15"><polygon points="298.61 313.7 339.93 293.03 356.4 300.31 298.61 313.7" style="fill:#fff"></polygon></g><polygon points="298.61 313.7 335.01 289.36 328.49 279.99 298.61 313.7" style="fill:#E57C23"></polygon><g style="opacity:0.15"><polygon points="298.61 313.7 335.01 289.36 328.49 279.99 298.61 313.7" style="fill:#fff"></polygon></g><polygon points="335.01 289.36 334.33 295.83 298.61 313.7 335.01 289.36" style="fill:#E57C23"></polygon><g style="opacity:0.2"><polygon points="335.01 289.36 334.33 295.83 298.61 313.7 335.01 289.36"></polygon></g><path d="M341.37,220.07a.41.41,0,0,0,.31-.14.4.4,0,0,0,0-.57c-.61-.54-1.23-1.07-1.86-1.57a.41.41,0,0,0-.51.65q.93.74,1.83,1.53A.39.39,0,0,0,341.37,220.07Zm-4.89-4.63c-.7-.45-1.4-.86-2.1-1.24a.41.41,0,1,0-.39.71c.68.38,1.37.78,2,1.22a.46.46,0,0,0,.23.06.39.39,0,0,0,.34-.19A.4.4,0,0,0,336.48,215.44Zm8.81,66c-.45.65-.92,1.3-1.41,1.94a.41.41,0,0,0,.08.57.4.4,0,0,0,.25.09.42.42,0,0,0,.33-.17c.49-.64,1-1.3,1.42-1.95a.41.41,0,1,0-.67-.48Zm-14.66-68.93a8.35,8.35,0,0,0-1.25-.31.42.42,0,0,0-.47.35.41.41,0,0,0,.35.46,7.9,7.9,0,0,1,1.12.28l.13,0a.42.42,0,0,0,.39-.28A.41.41,0,0,0,330.63,212.52Zm24.3,35.22a.41.41,0,0,0,.41.37h0a.41.41,0,0,0,.37-.44c-.08-.8-.17-1.62-.29-2.42a.4.4,0,0,0-.46-.34.41.41,0,0,0-.35.46C354.76,246.16,354.86,247,354.93,247.74Zm-10.39-25.55a.4.4,0,0,0-.58,0,.41.41,0,0,0,0,.57c.54.58,1.07,1.18,1.58,1.79a.41.41,0,0,0,.32.15.43.43,0,0,0,.26-.09.41.41,0,0,0,0-.58C345.63,223.38,345.09,222.77,344.54,222.19Zm9.38,19.27a.42.42,0,0,0,.4.32h.1a.4.4,0,0,0,.3-.49c-.18-.79-.39-1.58-.61-2.36a.41.41,0,0,0-.79.23C353.54,239.91,353.75,240.69,353.92,241.46Zm-12.53,45-.79.93a.41.41,0,0,0,0,.58.43.43,0,0,0,.27.1.41.41,0,0,0,.3-.14L342,287a.41.41,0,0,0-.63-.53Zm7.86-10.61a.41.41,0,0,0-.56.16c-.38.69-.79,1.38-1.21,2.06a.41.41,0,0,0,.7.43c.43-.69.83-1.39,1.23-2.1A.4.4,0,0,0,349.25,275.9ZM354,264a.41.41,0,0,0-.5.29c-.21.76-.43,1.53-.68,2.29a.41.41,0,0,0,.26.52l.13,0a.41.41,0,0,0,.39-.29c.25-.77.48-1.56.69-2.32A.42.42,0,0,0,354,264Zm1.92-12.3a.41.41,0,0,0-.41-.41h0a.42.42,0,0,0-.41.42v.51c0,.63,0,1.25,0,1.87a.41.41,0,0,0,.39.43h0a.41.41,0,0,0,.41-.39c0-.64,0-1.27,0-1.91Zm-.72,6a.41.41,0,0,0-.46.36c-.1.78-.23,1.58-.37,2.35a.41.41,0,0,0,.33.48h.08a.41.41,0,0,0,.4-.34c.14-.79.27-1.6.37-2.4A.41.41,0,0,0,355.24,257.71Zm-6.65-30.47a.41.41,0,0,0-.67.47c.44.65.87,1.32,1.28,2a.41.41,0,0,0,.35.2.41.41,0,0,0,.35-.62C349.49,228.6,349.05,227.91,348.59,227.24ZM352,270.1a.41.41,0,0,0-.53.22c-.3.73-.63,1.47-1,2.19a.43.43,0,0,0,.2.55l.17,0a.39.39,0,0,0,.37-.23c.35-.74.68-1.48,1-2.22A.41.41,0,0,0,352,270.1Zm-.2-37.23a.41.41,0,0,0-.54-.2.42.42,0,0,0-.2.55c.34.71.66,1.45.95,2.18a.42.42,0,0,0,.39.26.4.4,0,0,0,.37-.56C352.49,234.35,352.16,233.6,351.81,232.87Z" style="fill:#e0e0e0"></path><path d="M341.37,220.07a.41.41,0,0,0,.31-.14.4.4,0,0,0,0-.57c-.61-.54-1.23-1.07-1.86-1.57a.41.41,0,0,0-.51.65q.93.74,1.83,1.53A.39.39,0,0,0,341.37,220.07Zm-4.89-4.63c-.7-.45-1.4-.86-2.1-1.24a.41.41,0,1,0-.39.71c.68.38,1.37.78,2,1.22a.46.46,0,0,0,.23.06.39.39,0,0,0,.34-.19A.4.4,0,0,0,336.48,215.44Zm8.81,66c-.45.65-.92,1.3-1.41,1.94a.41.41,0,0,0,.08.57.4.4,0,0,0,.25.09.42.42,0,0,0,.33-.17c.49-.64,1-1.3,1.42-1.95a.41.41,0,1,0-.67-.48Zm-14.66-68.93a8.35,8.35,0,0,0-1.25-.31.42.42,0,0,0-.47.35.41.41,0,0,0,.35.46,7.9,7.9,0,0,1,1.12.28l.13,0a.42.42,0,0,0,.39-.28A.41.41,0,0,0,330.63,212.52Zm24.3,35.22a.41.41,0,0,0,.41.37h0a.41.41,0,0,0,.37-.44c-.08-.8-.17-1.62-.29-2.42a.4.4,0,0,0-.46-.34.41.41,0,0,0-.35.46C354.76,246.16,354.86,247,354.93,247.74Zm-10.39-25.55a.4.4,0,0,0-.58,0,.41.41,0,0,0,0,.57c.54.58,1.07,1.18,1.58,1.79a.41.41,0,0,0,.32.15.43.43,0,0,0,.26-.09.41.41,0,0,0,0-.58C345.63,223.38,345.09,222.77,344.54,222.19Zm9.38,19.27a.42.42,0,0,0,.4.32h.1a.4.4,0,0,0,.3-.49c-.18-.79-.39-1.58-.61-2.36a.41.41,0,0,0-.79.23C353.54,239.91,353.75,240.69,353.92,241.46Zm-12.53,45-.79.93a.41.41,0,0,0,0,.58.43.43,0,0,0,.27.1.41.41,0,0,0,.3-.14L342,287a.41.41,0,0,0-.63-.53Zm7.86-10.61a.41.41,0,0,0-.56.16c-.38.69-.79,1.38-1.21,2.06a.41.41,0,0,0,.7.43c.43-.69.83-1.39,1.23-2.1A.4.4,0,0,0,349.25,275.9ZM354,264a.41.41,0,0,0-.5.29c-.21.76-.43,1.53-.68,2.29a.41.41,0,0,0,.26.52l.13,0a.41.41,0,0,0,.39-.29c.25-.77.48-1.56.69-2.32A.42.42,0,0,0,354,264Zm1.92-12.3a.41.41,0,0,0-.41-.41h0a.42.42,0,0,0-.41.42v.51c0,.63,0,1.25,0,1.87a.41.41,0,0,0,.39.43h0a.41.41,0,0,0,.41-.39c0-.64,0-1.27,0-1.91Zm-.72,6a.41.41,0,0,0-.46.36c-.1.78-.23,1.58-.37,2.35a.41.41,0,0,0,.33.48h.08a.41.41,0,0,0,.4-.34c.14-.79.27-1.6.37-2.4A.41.41,0,0,0,355.24,257.71Zm-6.65-30.47a.41.41,0,0,0-.67.47c.44.65.87,1.32,1.28,2a.41.41,0,0,0,.35.2.41.41,0,0,0,.35-.62C349.49,228.6,349.05,227.91,348.59,227.24ZM352,270.1a.41.41,0,0,0-.53.22c-.3.73-.63,1.47-1,2.19a.43.43,0,0,0,.2.55l.17,0a.39.39,0,0,0,.37-.23c.35-.74.68-1.48,1-2.22A.41.41,0,0,0,352,270.1Zm-.2-37.23a.41.41,0,0,0-.54-.2.42.42,0,0,0-.2.55c.34.71.66,1.45.95,2.18a.42.42,0,0,0,.39.26.4.4,0,0,0,.37-.56C352.49,234.35,352.16,233.6,351.81,232.87Z" style="opacity:0.1"></path></g><g id="freepik--paper-plane--inject-2"><polygon points="164.93 261.62 202.28 233.79 177.89 267.52 164.93 261.62" style="fill:#E57C23"></polygon><polygon points="164.93 261.62 202.28 233.79 177.89 267.52 164.93 261.62" style="fill:#fff;opacity:0.30000000000000004"></polygon><polygon points="202.28 233.79 159.73 257.16 146.77 251.26 202.28 233.79" style="fill:#E57C23"></polygon><polygon points="202.28 233.79 159.73 257.16 146.77 251.26 202.28 233.79" style="fill:#fff;opacity:0.30000000000000004"></polygon><polygon points="159.73 257.16 163.67 268.34 164.93 261.62 202.28 233.79 159.73 257.16" style="fill:#E57C23"></polygon><polygon points="159.73 257.16 163.67 268.34 164.93 261.62 202.28 233.79 159.73 257.16" style="opacity:0.2"></polygon><polygon points="163.67 268.34 169.25 263.58 164.93 261.62 163.67 268.34" style="fill:#E57C23"></polygon><polygon points="164.93 261.62 169.25 263.58 168.36 264.34 164.93 261.62" style="opacity:0.2"></polygon><path d="M155.63,268.14l.09-.09a8.33,8.33,0,0,1,.71-.91.4.4,0,0,0,0-.58.41.41,0,0,0-.57,0,8.25,8.25,0,0,0-.81,1,.39.39,0,0,0,.11.56A.39.39,0,0,0,155.63,268.14Zm-2.79,5.79a.36.36,0,0,0,.13-.19c.28-.75.57-1.5.88-2.21a.41.41,0,0,0-.21-.54.42.42,0,0,0-.54.21c-.32.73-.62,1.49-.9,2.27a.41.41,0,0,0,.64.46Zm-1.79,22.22a.41.41,0,0,0-.31.49c.17.79.37,1.58.59,2.36a.42.42,0,0,0,.51.28l.14-.07a.42.42,0,0,0,.14-.44c-.22-.76-.41-1.53-.58-2.31A.41.41,0,0,0,151.05,296.15Zm2.34,6.38a.41.41,0,0,0-.53-.23.41.41,0,0,0-.23.53c.29.76.61,1.51,1,2.24a.4.4,0,0,0,.54.2l.08,0a.39.39,0,0,0,.12-.49C154,304,153.68,303.27,153.39,302.53Zm-2.73-12.36a.41.41,0,0,0-.82.05c0,.8.12,1.62.22,2.42a.4.4,0,0,0,.45.36.49.49,0,0,0,.21-.08.41.41,0,0,0,.15-.37C150.78,291.76,150.71,291,150.66,290.17Zm.18-10a.42.42,0,0,0,.33-.08.46.46,0,0,0,.15-.25c.15-.78.32-1.57.51-2.33a.41.41,0,0,0-.8-.2c-.19.78-.36,1.58-.51,2.38A.41.41,0,0,0,150.84,280.21Zm-.65,6.38a.38.38,0,0,0,.26-.08.4.4,0,0,0,.16-.31c0-.8.08-1.6.16-2.38a.41.41,0,0,0-.37-.45.41.41,0,0,0-.45.37c-.07.8-.13,1.62-.16,2.43A.41.41,0,0,0,150.19,286.59Zm37.73,45.16c-.77-.21-1.54-.44-2.3-.67a.41.41,0,0,0-.51.27.4.4,0,0,0,.27.51c.77.24,1.54.47,2.33.68a.43.43,0,0,0,.35-.07.48.48,0,0,0,.15-.22A.41.41,0,0,0,187.92,331.75Zm-6.07-2c-.75-.28-1.49-.58-2.22-.89a.41.41,0,0,0-.54.22.4.4,0,0,0,.22.53c.74.32,1.49.62,2.25.91a.41.41,0,0,0,.39-.06.37.37,0,0,0,.14-.18A.41.41,0,0,0,181.85,329.78ZM193,332.94l-1.2-.25a.41.41,0,0,0-.17.8l1.21.25a.38.38,0,0,0,.33-.07.46.46,0,0,0,.15-.25A.41.41,0,0,0,193,332.94Zm-17-5.74c-.71-.37-1.42-.75-2.1-1.14a.41.41,0,1,0-.41.71c.7.4,1.41.79,2.14,1.16a.42.42,0,0,0,.43,0,.41.41,0,0,0,.12-.14A.41.41,0,0,0,176,327.2Zm-12.21-8.82a.42.42,0,0,0-.58,0,.41.41,0,0,0,0,.58c.57.57,1.16,1.14,1.76,1.67a.41.41,0,0,0,.53,0l0,0a.4.4,0,0,0,0-.57C165,319.5,164.37,318.94,163.81,318.38ZM159.94,314l-.31-.4a.4.4,0,0,0-.57-.08h0a.41.41,0,0,0-.08.57l.32.41c.39.51.79,1,1.19,1.49a.42.42,0,0,0,.57.06h0a.41.41,0,0,0,.05-.58C160.72,315,160.33,314.49,159.94,314Zm8.67,8.57a.41.41,0,0,0-.58.08.4.4,0,0,0,.08.57c.63.48,1.3,1,2,1.42a.4.4,0,0,0,.48,0,.2.2,0,0,0,.09-.09.41.41,0,0,0-.11-.57C169.88,323.5,169.23,323,168.61,322.56Zm-12.47-14.3a.41.41,0,0,0-.71.41c.4.7.82,1.4,1.25,2.08a.41.41,0,0,0,.56.13l0,0a.42.42,0,0,0,.1-.55C157,309.65,156.54,309,156.14,308.26Z" style="fill:#e0e0e0"></path><path d="M155.63,268.14l.09-.09a8.33,8.33,0,0,1,.71-.91.4.4,0,0,0,0-.58.41.41,0,0,0-.57,0,8.25,8.25,0,0,0-.81,1,.39.39,0,0,0,.11.56A.39.39,0,0,0,155.63,268.14Zm-2.79,5.79a.36.36,0,0,0,.13-.19c.28-.75.57-1.5.88-2.21a.41.41,0,0,0-.21-.54.42.42,0,0,0-.54.21c-.32.73-.62,1.49-.9,2.27a.41.41,0,0,0,.64.46Zm-1.79,22.22a.41.41,0,0,0-.31.49c.17.79.37,1.58.59,2.36a.42.42,0,0,0,.51.28l.14-.07a.42.42,0,0,0,.14-.44c-.22-.76-.41-1.53-.58-2.31A.41.41,0,0,0,151.05,296.15Zm2.34,6.38a.41.41,0,0,0-.53-.23.41.41,0,0,0-.23.53c.29.76.61,1.51,1,2.24a.4.4,0,0,0,.54.2l.08,0a.39.39,0,0,0,.12-.49C154,304,153.68,303.27,153.39,302.53Zm-2.73-12.36a.41.41,0,0,0-.82.05c0,.8.12,1.62.22,2.42a.4.4,0,0,0,.45.36.49.49,0,0,0,.21-.08.41.41,0,0,0,.15-.37C150.78,291.76,150.71,291,150.66,290.17Zm.18-10a.42.42,0,0,0,.33-.08.46.46,0,0,0,.15-.25c.15-.78.32-1.57.51-2.33a.41.41,0,0,0-.8-.2c-.19.78-.36,1.58-.51,2.38A.41.41,0,0,0,150.84,280.21Zm-.65,6.38a.38.38,0,0,0,.26-.08.4.4,0,0,0,.16-.31c0-.8.08-1.6.16-2.38a.41.41,0,0,0-.37-.45.41.41,0,0,0-.45.37c-.07.8-.13,1.62-.16,2.43A.41.41,0,0,0,150.19,286.59Zm37.73,45.16c-.77-.21-1.54-.44-2.3-.67a.41.41,0,0,0-.51.27.4.4,0,0,0,.27.51c.77.24,1.54.47,2.33.68a.43.43,0,0,0,.35-.07.48.48,0,0,0,.15-.22A.41.41,0,0,0,187.92,331.75Zm-6.07-2c-.75-.28-1.49-.58-2.22-.89a.41.41,0,0,0-.54.22.4.4,0,0,0,.22.53c.74.32,1.49.62,2.25.91a.41.41,0,0,0,.39-.06.37.37,0,0,0,.14-.18A.41.41,0,0,0,181.85,329.78ZM193,332.94l-1.2-.25a.41.41,0,0,0-.17.8l1.21.25a.38.38,0,0,0,.33-.07.46.46,0,0,0,.15-.25A.41.41,0,0,0,193,332.94Zm-17-5.74c-.71-.37-1.42-.75-2.1-1.14a.41.41,0,1,0-.41.71c.7.4,1.41.79,2.14,1.16a.42.42,0,0,0,.43,0,.41.41,0,0,0,.12-.14A.41.41,0,0,0,176,327.2Zm-12.21-8.82a.42.42,0,0,0-.58,0,.41.41,0,0,0,0,.58c.57.57,1.16,1.14,1.76,1.67a.41.41,0,0,0,.53,0l0,0a.4.4,0,0,0,0-.57C165,319.5,164.37,318.94,163.81,318.38ZM159.94,314l-.31-.4a.4.4,0,0,0-.57-.08h0a.41.41,0,0,0-.08.57l.32.41c.39.51.79,1,1.19,1.49a.42.42,0,0,0,.57.06h0a.41.41,0,0,0,.05-.58C160.72,315,160.33,314.49,159.94,314Zm8.67,8.57a.41.41,0,0,0-.58.08.4.4,0,0,0,.08.57c.63.48,1.3,1,2,1.42a.4.4,0,0,0,.48,0,.2.2,0,0,0,.09-.09.41.41,0,0,0-.11-.57C169.88,323.5,169.23,323,168.61,322.56Zm-12.47-14.3a.41.41,0,0,0-.71.41c.4.7.82,1.4,1.25,2.08a.41.41,0,0,0,.56.13l0,0a.42.42,0,0,0,.1-.55C157,309.65,156.54,309,156.14,308.26Z" style="opacity:0.1"></path></g></g><g id="freepik--speech-bubble-3--inject-2"><g id="freepik--speech-bubble--inject-2"><g id="freepik--speech-bubble--inject-2"><path d="M321.73,44.31v12a7.21,7.21,0,0,0,7.21,7.21h51.73c1.47,6.2,7.42,9.25,14.85,9-5.44-2.39-6.5-5.69-6.33-9H416.3a7.2,7.2,0,0,0,7.2-7.21v-12a7.2,7.2,0,0,0-7.2-7.21H328.94A7.21,7.21,0,0,0,321.73,44.31Z" style="fill:#fff"></path><path d="M394.63,73c-7.5,0-12.79-3.32-14.31-9H328.94a7.68,7.68,0,0,1-7.67-7.66v-12a7.67,7.67,0,0,1,7.67-7.66H416.3A7.67,7.67,0,0,1,424,44.31v12A7.67,7.67,0,0,1,416.3,64H389.63c-.05,2.61.74,5.78,6.07,8.12a.46.46,0,0,1,.27.51.46.46,0,0,1-.43.37ZM328.94,37.56a6.76,6.76,0,0,0-6.76,6.75v12a6.76,6.76,0,0,0,6.76,6.75h51.74a.46.46,0,0,1,.44.35c1.22,5.2,5.83,8.34,12.47,8.64-4.57-2.65-5-6.1-4.86-8.56a.47.47,0,0,1,.46-.43H416.3a6.76,6.76,0,0,0,6.75-6.75v-12a6.76,6.76,0,0,0-6.75-6.75Z" style="fill:#455a64"></path></g><g id="freepik--Stars--inject-2"><path d="M409,44.23l-1.71,3.45-3.8.56a.74.74,0,0,0-.41,1.26l2.75,2.69L405.22,56a.74.74,0,0,0,1.08.78L409.7,55l3.41,1.79a.74.74,0,0,0,1.07-.78l-.65-3.79,2.76-2.69a.74.74,0,0,0-.41-1.26l-3.81-.56-1.7-3.45A.74.74,0,0,0,409,44.23Z" style="fill:#E57C23"></path><path d="M390.5,44.23l-1.71,3.45-3.8.56a.74.74,0,0,0-.42,1.26l2.76,2.69L386.68,56a.74.74,0,0,0,1.07.78L391.16,55l3.4,1.79a.74.74,0,0,0,1.08-.78L395,52.19l2.75-2.69a.74.74,0,0,0-.41-1.26l-3.8-.56-1.71-3.45A.73.73,0,0,0,390.5,44.23Z" style="fill:#E57C23"></path><path d="M372,44.23l-1.7,3.45-3.81.56A.74.74,0,0,0,366,49.5l2.76,2.69L368.14,56a.74.74,0,0,0,1.07.78L372.62,55l3.4,1.79A.74.74,0,0,0,377.1,56l-.65-3.79,2.75-2.69a.74.74,0,0,0-.41-1.26L375,47.68l-1.7-3.45A.74.74,0,0,0,372,44.23Z" style="fill:#E57C23"></path><path d="M353.41,44.23l-1.7,3.45-3.81.56a.74.74,0,0,0-.41,1.26l2.76,2.69L349.59,56a.75.75,0,0,0,1.08.78L354.08,55l3.4,1.79a.75.75,0,0,0,1.08-.78l-.66-3.79,2.76-2.69a.74.74,0,0,0-.41-1.26l-3.81-.56-1.7-3.45A.74.74,0,0,0,353.41,44.23Z" style="fill:#E57C23"></path><path d="M334.87,44.23l-1.7,3.45-3.81.56A.74.74,0,0,0,329,49.5l2.75,2.69L331.05,56a.74.74,0,0,0,1.08.78l3.4-1.79,3.41,1.79A.74.74,0,0,0,340,56l-.65-3.79,2.76-2.69a.74.74,0,0,0-.41-1.26l-3.81-.56-1.7-3.45A.74.74,0,0,0,334.87,44.23Z" style="fill:#E57C23"></path></g></g></g><g id="freepik--speech-bubble-2--inject-2"><g id="freepik--speech-bubble--inject-2"><g id="freepik--speech-bubble--inject-2"><path d="M189.16,80.54v12a7.2,7.2,0,0,0,7.21,7.2h13.55c1.47,6.21,7.42,9.26,14.85,9-5.44-2.39-6.5-5.69-6.33-9h65.29a7.2,7.2,0,0,0,7.2-7.2v-12a7.2,7.2,0,0,0-7.2-7.21H196.37A7.21,7.21,0,0,0,189.16,80.54Z" style="fill:#fff"></path><path d="M223.88,109.21c-7.5,0-12.79-3.32-14.31-9h-13.2a7.68,7.68,0,0,1-7.67-7.66v-12a7.68,7.68,0,0,1,7.67-7.67h87.36a7.68,7.68,0,0,1,7.66,7.67v12a7.67,7.67,0,0,1-7.66,7.66H218.88c0,2.61.73,5.78,6.07,8.12a.45.45,0,0,1-.16.87ZM196.37,73.78a6.76,6.76,0,0,0-6.76,6.76v12a6.76,6.76,0,0,0,6.76,6.75h13.55a.46.46,0,0,1,.45.35c1.22,5.19,5.83,8.34,12.47,8.64-4.57-2.66-5-6.1-4.86-8.56a.47.47,0,0,1,.46-.43h65.29a6.76,6.76,0,0,0,6.75-6.75v-12a6.76,6.76,0,0,0-6.75-6.76Z" style="fill:#455a64"></path></g><g id="freepik--stars--inject-2"><path d="M276.47,80.46l-1.71,3.45-3.8.55a.74.74,0,0,0-.41,1.27l2.75,2.68-.65,3.8a.74.74,0,0,0,1.07.78l3.41-1.79,3.4,1.79a.75.75,0,0,0,1.08-.78l-.65-3.8,2.75-2.68a.74.74,0,0,0-.41-1.27l-3.8-.55-1.71-3.45A.73.73,0,0,0,276.47,80.46Z" style="fill:#e0e0e0"></path><path d="M257.92,80.46l-1.7,3.45-3.81.55a.75.75,0,0,0-.41,1.27l2.76,2.68-.65,3.8a.74.74,0,0,0,1.07.78l3.41-1.79L262,93a.75.75,0,0,0,1.08-.78l-.65-3.8,2.75-2.68a.74.74,0,0,0-.41-1.27L261,83.91l-1.7-3.45A.74.74,0,0,0,257.92,80.46Z" style="fill:#e0e0e0"></path><path d="M239.38,80.46l-1.7,3.45-3.81.55a.74.74,0,0,0-.41,1.27l2.76,2.68-.65,3.8a.74.74,0,0,0,1.07.78l3.41-1.79,3.4,1.79a.75.75,0,0,0,1.08-.78l-.65-3.8,2.75-2.68a.74.74,0,0,0-.41-1.27l-3.81-.55-1.7-3.45A.74.74,0,0,0,239.38,80.46Z" style="fill:#e0e0e0"></path><path d="M220.84,80.46l-1.7,3.45-3.81.55a.74.74,0,0,0-.41,1.27l2.75,2.68-.65,3.8a.75.75,0,0,0,1.08.78l3.4-1.79L224.91,93a.74.74,0,0,0,1.07-.78l-.65-3.8,2.76-2.68a.74.74,0,0,0-.41-1.27l-3.81-.55-1.7-3.45A.74.74,0,0,0,220.84,80.46Z" style="fill:#e0e0e0"></path><path d="M202.3,80.46l-1.71,3.45-3.8.55a.74.74,0,0,0-.41,1.27l2.75,2.68-.65,3.8a.75.75,0,0,0,1.08.78L203,91.2,206.37,93a.74.74,0,0,0,1.07-.78l-.65-3.8,2.76-2.68a.75.75,0,0,0-.41-1.27l-3.81-.55-1.7-3.45A.74.74,0,0,0,202.3,80.46Z" style="fill:#E57C23"></path></g></g></g><g id="freepik--speech-bubble-1--inject-2"><g id="freepik--speech-bubble--inject-2"><g id="freepik--speech-bubble--inject-2"><path d="M156.14,38H68.78a7.21,7.21,0,0,0-7.21,7.21v12a7.2,7.2,0,0,0,7.21,7.2h65.29c.17,3.31-.89,6.61-6.33,9,7.43.26,13.38-2.79,14.84-9h13.56a7.2,7.2,0,0,0,7.21-7.2v-12A7.21,7.21,0,0,0,156.14,38Z" style="fill:#fff"></path><path d="M128.63,73.85l-.91,0a.45.45,0,0,1-.43-.37.46.46,0,0,1,.26-.5c5.34-2.34,6.13-5.51,6.08-8.12H68.78a7.67,7.67,0,0,1-7.66-7.66v-12a7.68,7.68,0,0,1,7.66-7.67h87.36a7.68,7.68,0,0,1,7.66,7.67v12a7.67,7.67,0,0,1-7.66,7.66h-13.2C141.42,70.53,136.13,73.85,128.63,73.85ZM68.78,38.42A6.76,6.76,0,0,0,62,45.18v12a6.76,6.76,0,0,0,6.75,6.75h65.29a.45.45,0,0,1,.45.43c.13,2.46-.28,5.9-4.86,8.56,6.65-.3,11.25-3.45,12.48-8.64a.45.45,0,0,1,.44-.35h13.56a6.76,6.76,0,0,0,6.75-6.75v-12a6.76,6.76,0,0,0-6.75-6.76Z" style="fill:#455a64"></path></g><g id="freepik--stars--inject-2"><path d="M76,45.1l1.7,3.45,3.81.56A.74.74,0,0,1,82,50.37l-2.75,2.68.65,3.8a.75.75,0,0,1-1.08.78l-3.4-1.79L72,57.63a.74.74,0,0,1-1.07-.78l.65-3.8-2.76-2.68a.74.74,0,0,1,.41-1.26L73,48.55l1.7-3.45A.74.74,0,0,1,76,45.1Z" style="fill:#E57C23"></path><path d="M94.58,45.1l1.71,3.45,3.8.56a.74.74,0,0,1,.41,1.26l-2.75,2.68.65,3.8a.75.75,0,0,1-1.08.78l-3.4-1.79-3.41,1.79a.74.74,0,0,1-1.07-.78l.65-3.8-2.76-2.68a.74.74,0,0,1,.41-1.26l3.81-.56,1.7-3.45A.74.74,0,0,1,94.58,45.1Z" style="fill:#E57C23"></path><path d="M113.12,45.1l1.71,3.45,3.8.56a.74.74,0,0,1,.42,1.26l-2.76,2.68.65,3.8a.74.74,0,0,1-1.07.78l-3.41-1.79-3.4,1.79a.75.75,0,0,1-1.08-.78l.65-3.8-2.75-2.68a.74.74,0,0,1,.41-1.26l3.8-.56,1.71-3.45A.73.73,0,0,1,113.12,45.1Z" style="fill:#E57C23"></path><path d="M131.67,45.1l1.7,3.45,3.81.56a.74.74,0,0,1,.41,1.26l-2.76,2.68.65,3.8a.74.74,0,0,1-1.07.78L131,55.84l-3.4,1.79a.75.75,0,0,1-1.08-.78l.65-3.8-2.75-2.68a.74.74,0,0,1,.41-1.26l3.81-.56,1.7-3.45A.74.74,0,0,1,131.67,45.1Z" style="fill:#E57C23"></path><path d="M150.21,45.1l1.7,3.45,3.81.56a.74.74,0,0,1,.41,1.26l-2.76,2.68.65,3.8a.74.74,0,0,1-1.07.78l-3.41-1.79-3.4,1.79a.75.75,0,0,1-1.08-.78l.66-3.8L143,50.37a.74.74,0,0,1,.41-1.26l3.81-.56,1.7-3.45A.74.74,0,0,1,150.21,45.1Z" style="fill:#e0e0e0"></path></g></g></g><g id="freepik--character-3--inject-2"><g id="freepik--Character--inject-2"><g id="freepik--Bottom--inject-2"><path d="M395.08,352.78l-19.86-1.5c.13,9.06,0,17.39-.09,18.89-.22,5.13-2,8.9-3.94,11.09-4.12,4.58-7.11,6.46-12.31,10.49.8,2,11.84,1.73,14.95.14a114.89,114.89,0,0,0,13.05-8c4.27-3.28,5.25-5.23,5.24-10.11a15,15,0,0,0-.07-1.59C392.06,371,393.41,362.7,395.08,352.78Z" style="fill:#ffa8a7"></path><path d="M449.47,363.06l-19.61-.64c1.74,8.08,2.32,11.3,3.93,20.46,1.09,6.24,3.53,27.18,4.86,31.52,4.27,14,15.51,7.59,16.44,0,.63-5.07-5.1-31-5.16-33.43C449.74,374.33,449.6,369.76,449.47,363.06Z" style="fill:#ffa8a7"></path><path d="M346.19,398.27c-.3,0-.72,3.24.88,4.6,1.85,1.57,7.25,4.13,14.37,3.16s10.95-3.19,13.78-5.6,6.81-5.79,10-6.52c3-.68,7.84-2.4,8.8-3.33s.79-5,.79-5Z" style="fill:#263238"></path><path d="M392.05,371.14a2.18,2.18,0,0,1,1.16,1.4,44.31,44.31,0,0,0,.73,4.43,33.22,33.22,0,0,1,.76,10c-.38,2.1-6.86,3.94-10,5.15a39.72,39.72,0,0,0-10.05,6.44c-3.33,2.78-10.35,5.6-15,5.7-7.08.15-11.68-1.74-13.11-4.28-1.78-3.14-.93-6.41,7.19-10.24,1.53-.72,6.93-4,8.76-5.13a42.1,42.1,0,0,0,5.51-4.16,30.42,30.42,0,0,0,2.47-2.48,11.09,11.09,0,0,0,2.05-2.64c.09-.22.15-.47.23-.69a12.66,12.66,0,0,0,.52-1.92c.12-.67.2-1.66.84-2.07s10.77,1.51,11.48,2.63a5.89,5.89,0,0,1,.69,3c0,.47,0,.95,0,1.43,0,.2-.08.57.2.48s.57-.79.67-1c.22-.53.36-1.1.61-1.63a4.88,4.88,0,0,1,1-1.73c1.35-1.14,2.66-.93,3.05-1.32C391.88,372.41,392,371.55,392.05,371.14Z" style="fill:#37474f"></path><path d="M353.32,390c10.26.64,13.18,8.8,13.64,12.72a24.24,24.24,0,0,1-7.27,1.58c-7.08.15-12-1.74-13.4-4.28C344.61,397,346.07,392.75,353.32,390Z" style="fill:#fafafa"></path><path d="M368.35,391.8a.45.45,0,0,0,.31-.11.52.52,0,0,0,.07-.71c-1.44-1.73-6.09-5.46-9.81-5a.5.5,0,0,0,.11,1c3.48-.4,7.78,3.29,8.93,4.67A.47.47,0,0,0,368.35,391.8Z" style="fill:#f0f0f0"></path><path d="M372.74,389.2a.5.5,0,0,0,.39-.82c-1.44-1.74-6.09-5.47-9.81-5a.5.5,0,0,0-.44.55.48.48,0,0,0,.55.44c3.48-.39,7.78,3.3,8.93,4.68A.48.48,0,0,0,372.74,389.2Z" style="fill:#f0f0f0"></path><path d="M376.82,386.24a.52.52,0,0,0,.31-.12.51.51,0,0,0,.07-.71c-1.44-1.73-6.1-5.46-9.81-5a.51.51,0,0,0-.44.56.5.5,0,0,0,.55.44c3.48-.4,7.79,3.3,8.93,4.67A.51.51,0,0,0,376.82,386.24Z" style="fill:#f0f0f0"></path><path d="M380.81,383.27a.51.51,0,0,0,.31-.11.49.49,0,0,0,.07-.7c-2-2.47-6.94-5.51-10.66-5.08a.5.5,0,0,0-.44.55.49.49,0,0,0,.55.44c3.35-.38,8,2.53,9.77,4.71A.5.5,0,0,0,380.81,383.27Z" style="fill:#f0f0f0"></path><path d="M437.08,415.92c.6,4.69,1.55,7.76,3.41,10.41s5.08,3.29,8.21,2.26,7.08-3.48,7.71-7.6,1-6.95-.06-11.27Z" style="fill:#263238"></path><path d="M449.93,381c1.32,0,1.4,6.28,2.6,12.55,1.29,6.73,2.45,9.36,3.57,14.87,1.27,6.3.41,9.21-1.55,13.21s-9.58,8.32-13.85,3.09c-3.48-4.27-4-9.24-4.11-15.61a92.23,92.23,0,0,0-2-15.86c-.91-5.1-1.93-9.72-.82-10.33a46.78,46.78,0,0,0,1.13,5.08c.16.34.73,1.19.84-.15,0-.4-.15-1.3-.14-1.69a1.69,1.69,0,0,1,1.09-1.61,12.83,12.83,0,0,1,5.52-1.62c2.57-.19,4.78-.43,6.27.21.89.38.92,1.2,1.07,2s.24,1.54.46,1.33C450.47,386,449.84,381.65,449.93,381Z" style="fill:#37474f"></path><path d="M456.72,412a15.93,15.93,0,0,1-1.79,9.83c-2,4-10.22,8.38-14.49,3.14-2.12-2.6-2.86-5.81-3.36-9.09C439.11,411.51,452.79,408.68,456.72,412Z" style="fill:#fafafa"></path><path d="M439.47,408.81a.52.52,0,0,0,.16-.06c.05,0,6-3,12-2a.49.49,0,0,0,.56-.41.5.5,0,0,0-.41-.56c-6.36-1-12.39,2-12.62,2.13a.49.49,0,0,0,.33.91Z" style="fill:#f0f0f0"></path><path d="M451,402a.48.48,0,0,0,.39-.35.5.5,0,0,0-.35-.6c-6-1.59-12.37,1.86-12.61,2a.49.49,0,0,0,.51.83c.05,0,6.23-3.38,11.85-1.9A.5.5,0,0,0,451,402Z" style="fill:#f0f0f0"></path><path d="M450.47,397.57a.5.5,0,0,0,.39-.35.49.49,0,0,0-.34-.6c-6.65-1.88-12.63,1.83-12.86,2a.48.48,0,0,0-.11.68.49.49,0,0,0,.68.12s5.83-3.59,12-1.85A.55.55,0,0,0,450.47,397.57Z" style="fill:#f0f0f0"></path><path d="M449.84,393.19a.49.49,0,0,0,.06-.95c-6.24-1.85-12.69,2-12.93,2.14a.49.49,0,0,0-.14.68.49.49,0,0,0,.68.13c.06,0,6.32-3.73,12.11-2A.41.41,0,0,0,449.84,393.19Z" style="fill:#ebebeb"></path><path d="M444.47,209.76c.41,14.5.53,18,1.33,49.08.79,30.15.83,34.26,1,37.9.34,8.33,2.72,11,3,30.67.25,18-.07,40.19-.07,40.19s-2.56,3.22-9.42,3.55c-6.34.31-9.4-2.19-9.4-2.19s-10.05-40.4-12.82-53c-3.22-14.64-9-39.87-9-39.87l-5.31,28.58a116.06,116.06,0,0,1-2.44,26.72c-3.41,16.11-6.78,28.29-6.78,28.29a26.08,26.08,0,0,1-10.36.85c-7.36-1.05-9.4-2.86-9.4-2.86s-.92-43.78-.19-61.57,2.74-61.32,4.91-89Z" style="fill:#455a64"></path><path d="M409,276.06l-3.85-31.33s-10.19-3.14-16.52-10.32c.28,5.17,9.17,12.16,13.42,13.36l4.59,27.81-3,29.06Z" style="fill:#37474f"></path><path d="M423.55,213.75a42.61,42.61,0,0,1,3.53,8.32,83.21,83.21,0,0,1,2.22,8.76c.55,3,1,5.94,1.26,8.94a59,59,0,0,1,.23,9c-.6-3-1.15-5.89-1.7-8.82s-1.07-5.86-1.66-8.78-1.15-5.83-1.78-8.73S424.33,216.66,423.55,213.75Z" style="fill:#37474f"></path><path d="M427.44,215a31.91,31.91,0,0,1,3.88,4.73,44.1,44.1,0,0,1,3.1,5.27,40,40,0,0,1,2.28,5.69,24.32,24.32,0,0,1,1.13,6l-2.51-5.5c-.86-1.8-1.71-3.6-2.6-5.38s-1.79-3.56-2.67-5.36S428.25,216.88,427.44,215Z" style="fill:#37474f"></path><path d="M419.43,250.72c.91,9.38,1.69,18.77,2.49,28.14s2.64,19.76,4,29.05,10.74,45.82,11.79,55.18c-1.78-9.25-12.24-45.57-13.67-54.92s-3-19.79-3.58-29.2S419.61,260.14,419.43,250.72Z" style="fill:#37474f"></path><path d="M385.93,249.35l-2.54,24.47c-.39,4.08-.82,8.15-1.17,12.23s-.77,8.16-.87,12.2-1.43,43.25-2.32,51.42c-.59-9.17.37-43.2.43-51.47.36-8.29,1.4-16.4,2.47-24.55S384.34,257.4,385.93,249.35Z" style="fill:#37474f"></path><path d="M395.34,355.82l-1.49,7.92s-3.76,2.37-10.9,1.34-8.32-3.19-8.32-3.19l-.15-8s1.65,1.74,8.17,2.75A33.12,33.12,0,0,0,395.34,355.82Z" style="fill:#37474f"></path><path d="M449.79,361.65l.29,8.64s-2.94,2.8-10.12,3.46-8.64-1.42-8.64-1.42l-1.88-8.08s2.33,1.51,8.91,1A28.2,28.2,0,0,0,449.79,361.65Z" style="fill:#37474f"></path></g><g id="freepik--Top--inject-2"><path d="M308.61,143.39c-.05-.15-.09-.3-.14-.45a13.11,13.11,0,0,1-.52-2.71,16.75,16.75,0,0,1,.11-2.83c.14-1.42.29-2.84.46-4.26.11-.85,0-3,.88-3.42.44-.22,1,.08,1.44.17a.3.3,0,0,0,.25,0,.35.35,0,0,0,.09-.17c.25-.86.19-1.75.45-2.6a2.89,2.89,0,0,1,1.29-1.8,3.62,3.62,0,0,1,1.67-.29,12.83,12.83,0,0,1,.22-2.13,1.54,1.54,0,0,1,.39-.87,1.2,1.2,0,0,1,.8-.24,2.54,2.54,0,0,1,1.71.83,3.51,3.51,0,0,1,1.07,2.24,2.15,2.15,0,0,1,2.79.55,3.64,3.64,0,0,1,.55,1.69,22.24,22.24,0,0,1,.23,3.26,37.89,37.89,0,0,0,.3,5.93,12.44,12.44,0,0,0,1.75,4.83c.14.22.33.48.6.46s.42-.36.49-.64c.6-2.65-.51-5.59.63-8a7.94,7.94,0,0,1,1.71-2.24,1.36,1.36,0,0,1,.49-.34.94.94,0,0,1,1.06.66,11.87,11.87,0,0,1,.21,2.48,36.3,36.3,0,0,0,1.21,6.11,24.47,24.47,0,0,1,.94,5.37c.1,1.5-.44,3.51,0,4.93a3.22,3.22,0,0,0,.54.91c1.87,2.46,12.15,12.71,15.28,15.52q3.38,3,6.8,6s9.48-11.29,14.4-17.19c9.83-11.77,13-12.85,22.38-15l-8.79,34.72s-10,9.63-20.33,18.82c-4.19,3.73-9.16,6.08-17.27-3-4.92-5.53-16.91-22.26-19.17-25.16a34.38,34.38,0,0,0-6.06-5.81,32,32,0,0,1-3.95-3.11c-2.52-2.36-4-5.6-5.35-8.78A43.74,43.74,0,0,1,308.61,143.39Z" style="fill:#ffa8a7"></path><path d="M391.47,139.55c-6.05.87-10.62,2.1-15.61,7s-16.7,19.24-16.7,19.24a21,21,0,0,0,4.56,9.62,50.21,50.21,0,0,0,9.4,8.6l11.5-10.7Z" style="fill:#263238"></path><g id="freepik--Chest--inject-2"><g id="freepik--chest--inject-2"><path d="M440.41,150s6.25,11.07,4.66,27.63c-.85,9,.25,9-.38,23-.45,10.05.36,30.57.36,30.57-10.32,8.77-57.51,9.28-68.08-3.9,0,0,.58-21.62.58-38.68,0-12.73.35-22.66,1.79-28.68,3.27-13.58,9.38-18.4,12.13-20.46,10.58-1.33,17.13-3.45,23.18-1.23C431.84,144.64,440.41,150,440.41,150Z" style="fill:#37474f"></path></g><g id="freepik--Head--inject-2"><path d="M422.57,131.54c3.83-6.59,7.46-10.83,10.09-18.07,1.06-2.93,2.64-9.66,1-13.54-1.1-2.71-2.78-4.84-5.7-4.89.75-3.79-1-6.06-2.59-7.68a6,6,0,0,0-6.23-1.42,5.16,5.16,0,0,0-8.8-3A5.44,5.44,0,0,0,405,80a6,6,0,0,0-5.13,3.9c-4.32-3.3-10.89-.41-10.54,6.67a3.23,3.23,0,0,0-3.47-.22,3.2,3.2,0,0,0-1.52,3.12,9.4,9.4,0,0,1,.43,2.37,1.9,1.9,0,0,1-1.3,1.52,1.88,1.88,0,0,1-1.92-.57,3.88,3.88,0,0,0,4.48,4.76,3,3,0,0,0,1.12,3,3.51,3.51,0,0,0,2.49.49Z" style="fill:#263238"></path><path d="M390,124.33c.74,5.35,3,8.1,6.55,9.42a17.56,17.56,0,0,0,5.93.71l-.36,5.18c-10.69,12.33,15,12.68,20.08,1.84l.6-17.47s2.2,2.7,6.1.38a8.28,8.28,0,0,0,3-10c-1.72-4-5.46-4-7.36-2.2-2.11,2-2,3.93-3,3.82a2.73,2.73,0,0,1-2.56-2c-.61-1.73-.68-3.49-.6-7.29a9.8,9.8,0,0,1-3.62-3.37c-1.48-3-.5-6,.44-7.92-4.23-1.7-8.78,2.67-13.35,3.14-5.22.53-5.59-3.87-8.44-3.59-2.34,2-3.52,6.76-3.48,9.86C390,110.89,388.65,114.32,390,124.33Z" style="fill:#ffa8a7"></path><path d="M402.51,134.46c4.17-.07,12.62-1.67,14.94-3.91s3.47-6.94,3.47-6.94-.58,6-2.41,8.57-6.23,3.55-8.9,4.1a65.79,65.79,0,0,1-7.29.81Z" style="fill:#f28f8f"></path><path d="M406.67,121.73l-6.17,1.4a3.11,3.11,0,0,0,3.72,2.5A3.31,3.31,0,0,0,406.67,121.73Z" style="fill:#b16668"></path><path d="M402.8,125.6a3.09,3.09,0,0,0,1.42,0,3.32,3.32,0,0,0,2.52-3.2A3.85,3.85,0,0,0,402.8,125.6Z" style="fill:#f28f8f"></path><path d="M392.48,106.46l4.1-1.67a2.13,2.13,0,0,0-2.82-1.26A2.32,2.32,0,0,0,392.48,106.46Z" style="fill:#263238"></path><path d="M412,107.39l-3.75-2.46a2.15,2.15,0,0,1,3-.71A2.37,2.37,0,0,1,412,107.39Z" style="fill:#263238"></path><path d="M396.61,110.11a1.9,1.9,0,0,1-1.86,1.86,1.77,1.77,0,0,1-1.83-1.79,1.9,1.9,0,0,1,1.86-1.86A1.77,1.77,0,0,1,396.61,110.11Z" style="fill:#263238"></path><path d="M410.5,110.67a1.9,1.9,0,0,1-1.86,1.86,1.77,1.77,0,0,1-1.83-1.79,1.89,1.89,0,0,1,1.86-1.86A1.78,1.78,0,0,1,410.5,110.67Z" style="fill:#263238"></path><path d="M395.57,117.6l6.05,2.1L403,108C400.82,107.62,397.56,113.5,395.57,117.6Z" style="fill:#f28f8f"></path></g></g><g id="freepik--like--inject-2"><path d="M308,130.3c-.6,2.07,1.06,6.38,3.76,7.17a12.44,12.44,0,0,0-2.1,4.11c-.88,3,1.15,6.87,5.3,8.08l31.74,9.25,4.54,1.39,10.5-36L357.16,123s-5-15.4-5.18-17.72,3.26-11.2,3.75-12.86-7.22-4.58-11.46.71a25.35,25.35,0,0,0-6.09,16.23L319,103.79c-4.05-1.18-6.8,2.07-7.46,4.35a6.76,6.76,0,0,0,1.47,6.51,5.58,5.58,0,0,0-5.41,4.28,6.28,6.28,0,0,0,3,7.17A7.6,7.6,0,0,0,308,130.3Z" style="fill:#fafafa"></path><path d="M355.73,92.45c.48-1.66-7.22-4.58-11.46.71a25.35,25.35,0,0,0-6.09,16.23l.24.33,3.42,1C344.68,92.11,352.07,91.48,355.73,92.45Z" style="fill:#e0e0e0"></path><rect x="355.65" y="124.47" width="14.41" height="43.5" transform="translate(670.26 388.18) rotate(-163.74)" style="fill:#E57C23"></rect><rect x="355.65" y="124.47" width="14.41" height="43.5" transform="translate(670.26 388.18) rotate(-163.74)" style="opacity:0.2"></rect><path d="M310.58,126.1a7.6,7.6,0,0,0-2.58,4.2,3.44,3.44,0,0,0-.09.5c-.26,2.19,1.35,5.94,3.85,6.67a12.44,12.44,0,0,0-2.1,4.11,4.23,4.23,0,0,0-.17.93c-.28,2.83,1.74,6.06,5.47,7.15l6.37,1.86c-3.73-1.09-5.75-4.32-5.47-7.15a5.85,5.85,0,0,1,.17-.93,12.31,12.31,0,0,1,2.1-4.11c-2.49-.73-4.11-4.48-3.85-6.68a3.56,3.56,0,0,1,.09-.49A7.61,7.61,0,0,1,317,128a6.26,6.26,0,0,1-3-7.16l0-.11a5.57,5.57,0,0,1,5.38-4.17,6.74,6.74,0,0,1-1.48-6.51,4,4,0,0,1,.14-.41c.85-2.23,3.51-5,7.32-3.94L319,103.79c-3.81-1.11-6.47,1.71-7.33,3.94-.05.15-.1.28-.13.41a6.76,6.76,0,0,0,1.47,6.51,5.56,5.56,0,0,0-5.37,4.17.49.49,0,0,0,0,.11A6.28,6.28,0,0,0,310.58,126.1Z" style="fill:#e0e0e0"></path><path d="M346.63,159.15l-31.74-9.25a8.15,8.15,0,0,1-4.68-3.47,6.19,6.19,0,0,1-.79-4.92,13,13,0,0,1,1.93-3.92,6,6,0,0,1-2.93-3.12,6.56,6.56,0,0,1-.66-4.24,8.63,8.63,0,0,1,2.37-4.1,6.58,6.58,0,0,1-2.77-7.27,5.83,5.83,0,0,1,5.14-4.43,7,7,0,0,1-1.2-6.36,7.19,7.19,0,0,1,2.55-3.6,5.75,5.75,0,0,1,5.22-.92l18.87,5.51A25.65,25.65,0,0,1,344.07,93a8.77,8.77,0,0,1,10.55-2.23c1,.53,1.52,1.17,1.35,1.75-.12.4-.41,1.23-.79,2.28-1.09,3.07-3.12,8.78-2.95,10.49.2,2.15,4.65,16,5.13,17.53l4.69,1.32-10.64,36.47ZM357,123.23l-.05-.13c-.2-.63-5-15.45-5.19-17.77-.18-1.81,1.8-7.38,3-10.7.37-1,.66-1.86.78-2.25s-.35-.78-1.1-1.17a8.27,8.27,0,0,0-9.93,2.1,25.2,25.2,0,0,0-6,16.09v.32L318.93,104a5.28,5.28,0,0,0-4.78.84,6.69,6.69,0,0,0-2.37,3.35,6.46,6.46,0,0,0,1.42,6.26l.41.45-.61,0a5.29,5.29,0,0,0-5.16,4.1,6.05,6.05,0,0,0,2.85,6.88l.37.2-.35.23a7.53,7.53,0,0,0-2.47,4.06,6.13,6.13,0,0,0,.63,3.89,5.23,5.23,0,0,0,3,3l.37.11-.25.29a12.29,12.29,0,0,0-2.05,4,5.67,5.67,0,0,0,.74,4.51,7.59,7.59,0,0,0,4.39,3.26l31.74,9.25,4.3,1.32,10.36-35.51Z" style="fill:#455a64"></path><rect x="352.61" y="145.78" width="14.41" height="21.75" transform="translate(661.36 407.79) rotate(-163.74)" style="opacity:0.2"></rect><path d="M360.34,162.29a2.09,2.09,0,1,0-2.59,1.42A2.1,2.1,0,0,0,360.34,162.29Z" style="fill:#f0f0f0"></path></g><path d="M365.23,163.8s-.7,2.28-.78,2.67c-.59,4.42,3.11,6.37,6.2,9.6,7.68,8,17.55,18.29,22.52,22.46,8.94,7.51,10.7,8.62,21.18.63,9.19-7,23.73-18.15,30.27-25.58s3.31-17.94-4-22.06c0,0-6,1.36-14,9.09-7.59,7.35-24.27,22.54-24.27,22.54s-14.69-11.05-23.81-18.82c-4.1-3.49-3.77-10.66-3.77-10.66Z" style="fill:#ffa8a7"></path><path d="M374.62,150.87c1.23-3.93,1.17-4.82,0-7.91s-1.71-4.52-2.28-5.69a28,28,0,0,0-4.06-5.42c-1.48-1-2.67,2.06-1.63,4.33s2.64,5.12,2.64,5.12Z" style="fill:#f28f8f"></path><path d="M369.29,168.74c-.25-1.09,3.81-3.24,3.67-5.2s-.46-2.08.8-3.62,1.38-3,.85-4,1.56-1.43,1.21-3.57a37.14,37.14,0,0,0-3.07-7.54c-.93-1.68-5.18-4.57-7.13-5.76s-2.6.49-2.7,1.82,1.31,3.23,1.31,3.23-2.31-1.09-2.85-.37c-.72.94-.78,3.11,1.38,5.16-1.85-1.15-2.87-.5-2.83,1.11,0,1.22.87,2.65,2.29,4.14,1.78,1.89,4,4,4.06,6.13l-1,3.58Z" style="fill:#ffa8a7"></path><path d="M369.29,168.74c-.14-.46.2-.9.43-1.27a10.6,10.6,0,0,1,.84-1,15,15,0,0,0,1.6-1.91,1.77,1.77,0,0,0,.35-.95l0-1.29a2.31,2.31,0,0,1,.33-1.41,4.61,4.61,0,0,1,.95-1,8,8,0,0,0-.53,1.17,2.1,2.1,0,0,0,0,1.14c.08.42.14.86.19,1.31A2.56,2.56,0,0,1,373,165a8.21,8.21,0,0,1-1.9,2l-1,.8C369.73,168.06,369.37,168.31,369.29,168.74Z" style="fill:#f28f8f"></path><path d="M364.23,144.05c1.11.59,2.2,1.19,3.25,1.84a20.94,20.94,0,0,1,3.1,2.2,16.71,16.71,0,0,1,2,3.28,30.77,30.77,0,0,1,1.44,3.46c-.74-1-1.43-2-2.09-3.09l-1-1.55a13.61,13.61,0,0,0-1-1.43c-.83-.77-1.9-1.49-2.85-2.26A29.74,29.74,0,0,1,364.23,144.05Z" style="fill:#f28f8f"></path><path d="M371.5,159.42c-.62-1-1.11-2.1-1.62-3.1a9.56,9.56,0,0,0-2.11-2.57c-1.68-1.59-3.44-3.14-5-4.91a32,32,0,0,1,5.66,4.21,8,8,0,0,1,2.13,3A29.81,29.81,0,0,1,371.5,159.42Z" style="fill:#f28f8f"></path><path d="M440.41,150a17.15,17.15,0,0,1,8,10.27c1,4.28.29,10.87-7,17.73-9,8.42-17.45,15.86-17.45,15.86a24.21,24.21,0,0,1-9.52-5.95c-4.95-4.76-5.25-11.9-5.25-11.9s12.29-13.18,17.55-17.74S436.62,150,440.41,150Z" style="fill:#263238"></path></g></g></g><g id="freepik--character-2--inject-2"><g id="freepik--Chartacter--inject-2"><g id="freepik--bottom--inject-2"><path d="M289.9,409.82c-.52-11.25-.81-16.52-1.43-36.63h0c0-5.15-.05-10.67-.28-15.58-.8-16.51-2.83-20.48-4.12-26.16s-2.21-16.29-3.58-51.78a182.61,182.61,0,0,0-5.65-40.19l-50.77-1.13c-5.71,22.11-8.26,70.19-8.62,93.1-.18,11.68-1.39,72-1.79,76.82a16.28,16.28,0,0,1-5.11,10.36c-4.29,4.39-7.33,6.14-12.66,9.94.72,2,11.71,2.19,14.86.74A115,115,0,0,0,224,421.89c4.38-3.09,5.43-5,5.61-9.84a14.93,14.93,0,0,0,0-1.59c.14-2.83,9.25-44.92,11.25-54.43,1.54-7.39.35-21.78.35-21.78l6.16-35.2S253,322.63,255.87,337c2.15,10.54,7.68,27.25,11.17,44.12h0c4.13,17.15,4.45,18.66,6.84,30.94,1.2,6.19,4,27,5.42,31.26,4.52,13.86,15.58,7.27,16.37-.31C296.19,437.93,290,412.25,289.9,409.82Z" style="fill:#ffbda7"></path><path d="M184.14,434c-.29,0-.82,3.11.68,4.5,1.74,1.6,6.89,4.3,13.84,3.63s10.77-2.69,13.61-4.91,6.84-5.37,10-6c2.93-.54,7.72-2,8.68-2.9s1-4.86,1-4.86Z" style="fill:#263238"></path><path d="M229.76,409.4a2.11,2.11,0,0,1,1.07,1.39c.17,1.11.14,2.52.54,4.34a32.74,32.74,0,0,1,.36,9.74c-.45,2-6.83,3.57-9.89,4.62a38.4,38.4,0,0,0-10,5.88c-3.34,2.57-10.27,5-14.79,4.95-6.89-.12-11.28-2.14-12.58-4.66-1.6-3.11-.21-4.84,7.83-8.25,1.52-.65,6.88-3.59,8.71-4.66a39.66,39.66,0,0,0,5.52-3.83,28.61,28.61,0,0,0,2.49-2.31,10.53,10.53,0,0,0,2.09-2.49c.1-.21.17-.45.26-.66a11.87,11.87,0,0,0,.57-1.84c.15-.66.26-1.61.9-2a5.36,5.36,0,0,1,2.84-.24,20.81,20.81,0,0,1,3,.54c1.16.3,4.09.17,4.74,1.29a5.85,5.85,0,0,1,.56,2.89c0,.46,0,.93,0,1.39,0,.2-.11.55.17.47s.59-.75.69-1c.24-.51.4-1.06.66-1.56a4.51,4.51,0,0,1,1-1.64c1.35-1.06,2.62-.81,3-1.17C229.54,410.62,229.7,409.79,229.76,409.4Z" style="fill:#37474f"></path><path d="M191,428c10,1,12.88,7.28,13.18,11.1a23.56,23.56,0,0,1-7.13,1.25c-6.89-.12-11.57-2.14-12.86-4.66C182.66,432.72,183.82,430.42,191,428Z" style="fill:#fafafa"></path><path d="M205.92,428.56a.4.4,0,0,0,.31-.1.48.48,0,0,0,.1-.68,11.79,11.79,0,0,0-8.9-3.85.49.49,0,0,0-.45.52.48.48,0,0,0,.52.45,10.88,10.88,0,0,1,8.05,3.47A.47.47,0,0,0,205.92,428.56Z" style="fill:#f0f0f0"></path><path d="M210.3,426.2a.4.4,0,0,0,.31-.1.49.49,0,0,0,.09-.68,11.72,11.72,0,0,0-8.9-3.85.49.49,0,1,0,.08,1,10.88,10.88,0,0,1,8.05,3.47A.47.47,0,0,0,210.3,426.2Z" style="fill:#f0f0f0"></path><path d="M214.37,423.48a.5.5,0,0,0,.31-.1.47.47,0,0,0,.09-.68,11.74,11.74,0,0,0-8.89-3.86.49.49,0,0,0,.07,1,10.85,10.85,0,0,1,8.05,3.47A.5.5,0,0,0,214.37,423.48Z" style="fill:#f0f0f0"></path><path d="M218.36,420.75a.5.5,0,0,0,.31-.1.49.49,0,0,0,.1-.68c-1.83-2.47-6.09-4.2-9.73-3.93a.49.49,0,1,0,.08,1c3.27-.25,7.24,1.34,8.87,3.53A.48.48,0,0,0,218.36,420.75Z" style="fill:#f0f0f0"></path><path d="M277.77,444.85c.69,4.66,1.69,7.69,3.59,10.29s5.11,3.18,8.21,2.1,7-3.59,7.53-7.71.84-6.93-.27-11.21Z" style="fill:#263238"></path><path d="M289.9,409.82c1.32,0,1.52,6.22,2.83,12.45,1.4,6.67,2.61,9.26,3.82,14.72,1.38,6.25.59,9.16-1.29,13.18s-9.38,8.45-13.72,3.32c-3.54-4.18-4.11-9.11-4.38-15.45a91.33,91.33,0,0,0-2.27-15.74c-1-5.05-2.1-9.63-1-10.26a45.83,45.83,0,0,0,1.22,5c.17.34.75,1.17.84-.16,0-.4-.18-1.29-.18-1.68a1.68,1.68,0,0,1,1.05-1.62,12.54,12.54,0,0,1,5.46-1.71c2.56-.24,4.76-.52,6.25.08.89.36.94,1.18,1.1,2,.2.94.27,1.53.48,1.32C290.54,414.84,289.82,410.51,289.9,409.82Z" style="fill:#37474f"></path><path d="M297.24,440.62a15.85,15.85,0,0,1-1.6,9.82c-1.87,4-10,8.52-14.35,3.39-2.17-2.55-3-5.72-3.52-9C279.71,440.43,293.27,437.35,297.24,440.62Z" style="fill:#fafafa"></path><path d="M280,437.73a.44.44,0,0,0,.16-.06c.05,0,5.88-3.07,11.89-2.23a.48.48,0,1,0,.13-1c-6.35-.89-12.29,2.22-12.51,2.35a.49.49,0,0,0-.18.67A.51.51,0,0,0,280,437.73Z" style="fill:#f0f0f0"></path><path d="M291.35,430.76a.48.48,0,0,0,.38-.36.49.49,0,0,0-.36-.59c-6-1.47-12.27,2.09-12.51,2.24a.48.48,0,0,0-.14.67.5.5,0,0,0,.67.15c.05,0,6.13-3.48,11.75-2.11Z" style="fill:#f0f0f0"></path><path d="M290.75,426.34a.49.49,0,0,0,.38-.35.49.49,0,0,0-.35-.6c-6.65-1.74-12.53,2.06-12.75,2.22a.49.49,0,0,0,.58.79s5.73-3.68,11.92-2.07A.55.55,0,0,0,290.75,426.34Z" style="fill:#f0f0f0"></path><path d="M290,422a.49.49,0,0,0,0-.95c-6.24-1.73-12.59,2.2-12.82,2.37a.48.48,0,1,0,.55.79c.06,0,6.22-3.83,12-2.22A.55.55,0,0,0,290,422Z" style="fill:#ebebeb"></path><path d="M278.88,239.57c1.59,13.9,2.12,17.32,3.5,48.23,1.35,30,1.41,34.37,1.63,38,.49,8.29,4.09,11.22,4.73,30.76.58,17.91.68,40,.68,40s-2.48,3.26-9.31,3.72c-6.29.42-9.38-2-9.38-2S260,356.3,257,345.72c-4.1-14.34-9.74-39.49-9.74-39.49l-4.74,28.53s1,13.74-1.93,26.62c-3.66,16-7.41,33.35-7.41,33.35a21.3,21.3,0,0,1-9.49,1c-7.34-.91-9.76-2.67-9.76-2.67s-1-48.54-.6-66.25,1.58-61.06,3.23-88.6Z" style="fill:#455a64"></path><path d="M247.24,306.23l-4.42-31.1s-10.19-2.93-16.62-10c.37,5.14,9.35,11.92,13.6,13l5.09,27.58-2.39,29Z" style="fill:#37474f"></path><path d="M260.53,244a42.62,42.62,0,0,1,3.67,8.22,81.72,81.72,0,0,1,2.37,8.67,88.76,88.76,0,0,1,1.42,8.86,58.58,58.58,0,0,1,.4,9c-.65-2.93-1.25-5.84-1.85-8.75s-1.18-5.81-1.82-8.7-1.26-5.78-1.93-8.66S261.36,246.84,260.53,244Z" style="fill:#37474f"></path><path d="M264.42,245.13a31.67,31.67,0,0,1,4,4.63,47.41,47.41,0,0,1,3.18,5.19,40.76,40.76,0,0,1,2.37,5.62,24,24,0,0,1,1.24,6l-2.6-5.42c-.89-1.78-1.77-3.56-2.69-5.31s-1.84-3.51-2.76-5.29S265.27,247,264.42,245.13Z" style="fill:#37474f"></path><path d="M257.12,280.82c1.09,9.31,2,18.64,3,27.95s3,19.61,4.51,28.82,11.55,45.39,12.76,54.69c-1.94-9.18-13-45.11-14.62-54.39s-3.41-19.63-4.11-29S257.48,290.19,257.12,280.82Z" style="fill:#37474f"></path><path d="M223.77,280.08l-2.07,24.39c-.31,4.07-.66,8.13-.94,12.2s-.61,8.13-.63,12.15-.62,43.05-1.35,51.21c-.76-9.12-.44-43-.54-51.22.21-8.26,1.09-16.35,2-24.48S222.34,288.12,223.77,280.08Z" style="fill:#37474f"></path><path d="M234,390.82l-1.57,8.46s-3.45,2.09-10.57,1.2-8.1-3.23-8.1-3.23l.18-8s1.67,1.7,8.18,2.58A28.09,28.09,0,0,0,234,390.82Z" style="fill:#37474f"></path><path d="M289.4,390.61l.45,8.6s-2.87,2.84-10,3.63-8.63-1.25-8.63-1.25l-1.69-7.81s2,1.26,8.55.6A28,28,0,0,0,289.4,390.61Z" style="fill:#37474f"></path></g><g id="freepik--top--inject-2"><path d="M176.35,203.56c2.17-4.68,24.53-19.34,33.45-25.07,7.37-4.74,9.39-6.92,17.7-7.94L222,197.32l-25.24,12.74Z" style="fill:#ffbda7"></path><path d="M186.57,199c3.45-2.08,15-2.14,19.85-.76a37,37,0,0,1,7.79,3.06l-17.42,8.79Z" style="fill:#f0997a"></path><path d="M227.5,170a25.94,25.94,0,0,0-13,4.66c-3.69,2.34-22.91,16-22.91,16,5.8,1.27,12.39,8.11,15.93,15.26l14.66-6.29Z" style="fill:#455a64"></path><g id="freepik--chest--inject-2"><path id="freepik--chest--inject-2" d="M259.4,167.4c9.92,2.45,12.89,3.49,17.58,4.69,0,0,8.53,10.73,3.61,42.25-.63,4-.75,13.8-.74,20.85s.58,14.82,1.16,22.17c0,0-13.25,9.36-41,5.89-21.84-2.73-24.29-10.94-24.29-10.94s.5-29.87.56-46.06c.09-19.56,6.21-31,11.27-36.23.8-.43,13-2.89,13-2.89Z" style="fill:#263238"></path></g><g id="freepik--head--inject-2"><path d="M227.72,135c-2.26-5.51.23-12.7,3.15-16,4.22-4.82,10.66-6.8,20.3-6,7.32.62,16,4.09,17.24,11.64,6.71,3.59,4.09,13,2.19,16.9-4,8.25-9.54,14.65-9.73,19.08Z" style="fill:#263238"></path><path d="M227.73,156a12.49,12.49,0,0,0,9,7.7,25,25,0,0,0,3.9.39l-.26,4.89c-1,4.26-.1,8.05,2.7,10.58,13.18-2.22,17.86-9,17.86-9l.4-18s2.31,2.74,6.27.29c2.71-1.7,5.2-6.41,2.88-10.37s-6.56-2.44-7.78-1.22-1.86,3.43-2.84,3.08a3.63,3.63,0,0,1-2.35-2.51,22,22,0,0,1-1.09-7.94,2.77,2.77,0,0,1-1.66-2.4c-.47-2.63-1.25-2.56-1.27-4.58-8.31-2.8-20.49-3.32-24-.71-2.08,3.48-2.33,11.67-2.77,16.38C226.24,147.63,226.33,151.88,227.73,156Z" style="fill:#ffbda7"></path><path d="M239.69,153.58l0,0a.25.25,0,0,1,0-.12.65.65,0,0,1,0-.13,1.1,1.1,0,0,1,.15-.26,2.67,2.67,0,0,1,.38-.44,3.22,3.22,0,0,1,.93-.62,4.36,4.36,0,0,1,2.59-.32c.17,0,.14.38,0,.42a13.42,13.42,0,0,0-2.35.48,3.5,3.5,0,0,0-.81.49,2.42,2.42,0,0,0-.32.32,2.46,2.46,0,0,1-.45.51c-.06.05-.13,0-.15-.09a.2.2,0,0,1,0-.11S239.69,153.6,239.69,153.58Z" style="fill:#b16668"></path><path d="M240.64,164.05c4.29-.14,12.94-2,15.28-4.29s3.43-7.2,3.43-7.2-.48,6.16-2.31,8.85-6.34,3.77-9.07,4.39a68,68,0,0,1-7.47,1Z" style="fill:#f0997a"></path><polygon points="240.52 136.82 238.94 148.65 233.19 146.28 240.52 136.82" style="fill:#f0997a"></polygon><path d="M230.68,139.48c-.34.93.3,1.25,1.2,1.58s1.7.55,2.05-.38a1.73,1.73,0,1,0-3.25-1.2Z" style="fill:#263238"></path><path d="M233.78,138.76a4.32,4.32,0,0,0-1.29-.5,3.55,3.55,0,0,0-1.34-.1,4.51,4.51,0,0,0-1.37.36s-.06.12,0,.11c.37,0,.69-.08,1.22-.09a6.32,6.32,0,0,1,1.5.22,6.18,6.18,0,0,1,1.69.67c.17.09.51.29.54.32s.1-.1.07-.14A2.87,2.87,0,0,0,233.78,138.76Z" style="fill:#263238"></path><path d="M234.19,133.42,230.26,135a2.23,2.23,0,0,1,1.23-2.82A2.07,2.07,0,0,1,234.19,133.42Z" style="fill:#263238"></path><path d="M248.58,140.39c.31.94-.35,1.24-1.26,1.53s-1.73.47-2-.48a1.73,1.73,0,1,1,3.29-1.05Z" style="fill:#263238"></path><path d="M245.52,139.53a4.31,4.31,0,0,1,1.31-.44,3.56,3.56,0,0,1,1.34,0,4.16,4.16,0,0,1,1.36.43s.06.11,0,.11a12.29,12.29,0,0,0-1.22-.15,6.31,6.31,0,0,0-1.5.15,6.11,6.11,0,0,0-1.72.6c-.18.08-.52.26-.56.29s-.09-.1-.06-.14A3,3,0,0,1,245.52,139.53Z" style="fill:#263238"></path><path d="M246.44,134.41l3.86,1.73a2.22,2.22,0,0,0-1.11-2.86A2.06,2.06,0,0,0,246.44,134.41Z" style="fill:#263238"></path><path d="M233.88,116.31l18.87,8.49c14.16,6.45,10.39,17.4,7.25,19.5-8.4-4.07-7.39-12.61-6.5-17.46-4.57,3.85-12,6.48-15.41,6.66,1.68-1.82,3.25-6.45,3.25-6.45a17.4,17.4,0,0,1-7.15,7c-5.45,2.77-8.95.55-8.95.55S224.12,121.55,233.88,116.31Z" style="fill:#263238"></path></g><g id="freepik--like--inject-2"><path d="M234.83,266.06a6.26,6.26,0,0,0-5.24,5.72,5.55,5.55,0,0,0,3.62,5.86,6.77,6.77,0,0,0-3.61,5.62c-.16,2.37,1.32,6.36,5.53,6.63l19.94,1.3a25.38,25.38,0,0,0,.17,17.33c2.18,6.42,10.42,6.31,10.53,4.58s-.13-11.26.87-13.36,10.92-14.89,10.92-14.89l4.75.36,2.42-37.41-4.74-.25-33-2.14c-4.32-.28-7.54,2.65-7.74,5.78a12.17,12.17,0,0,0,.57,4.58c-2.81-.18-5.85,3.3-6,5.46A7.6,7.6,0,0,0,234.83,266.06Z" style="fill:#fafafa"></path><path d="M265.77,313.1c-.11,1.73-8.35,1.84-10.53-4.58a25.38,25.38,0,0,1-.17-17.33l.34-.23,3.53.27C255.28,309.65,262,312.76,265.77,313.1Z" style="fill:#e0e0e0"></path><rect x="283.63" y="243.25" width="14.41" height="43.5" transform="matrix(-1, -0.06, 0.06, -1, 563.89, 548.29)" style="fill:#E57C23"></rect><rect x="283.63" y="243.25" width="14.41" height="43.5" transform="matrix(-1, -0.06, 0.06, -1, 563.89, 548.29)" style="opacity:0.2"></rect><path d="M234.83,266.06a7.6,7.6,0,0,1-1-4.83,3.05,3.05,0,0,1,.08-.5c.51-2.15,3.31-5.13,5.91-5a12.17,12.17,0,0,1-.57-4.58,4.75,4.75,0,0,1,.15-.93c.71-2.75,3.71-5.1,7.59-4.85l6.62.43c-3.88-.25-6.88,2.1-7.59,4.85a4.75,4.75,0,0,0-.15.93,12.41,12.41,0,0,0,.57,4.58c-2.59-.17-5.39,2.81-5.9,5a3.05,3.05,0,0,0-.08.5,7.64,7.64,0,0,0,1,4.83,6.27,6.27,0,0,0-5.24,5.72v.11a5.55,5.55,0,0,0,3.63,5.75,6.76,6.76,0,0,0-3.62,5.62c0,.13,0,.28,0,.43,0,2.39,1.58,5.95,5.54,6.2l-6.62-.42c-4-.26-5.5-3.82-5.54-6.21,0-.15,0-.3,0-.43a6.77,6.77,0,0,1,3.61-5.62,5.55,5.55,0,0,1-3.63-5.75.37.37,0,0,1,0-.11A6.26,6.26,0,0,1,234.83,266.06Z" style="fill:#e0e0e0"></path><path d="M285,247.57l-2.46,37.91-4.86-.37c-1,1.24-9.88,12.78-10.82,14.73-.73,1.55-.78,7.61-.8,10.87,0,1.11,0,2,0,2.41,0,.6-.72,1-1.86,1.19A8.78,8.78,0,0,1,255,308.6a25.61,25.61,0,0,1-.27-17.18l-19.62-1.28a5.73,5.73,0,0,1-4.59-2.64,7.3,7.3,0,0,1-1.17-4.26,7,7,0,0,1,3.3-5.56,5.84,5.84,0,0,1-3.31-5.92,6.55,6.55,0,0,1,5.08-5.88,8.68,8.68,0,0,1-.83-4.67,6.68,6.68,0,0,1,2.07-3.76,6,6,0,0,1,3.82-1.93,13,13,0,0,1-.47-4.35,6.13,6.13,0,0,1,2.42-4.34,8.1,8.1,0,0,1,5.58-1.67l33,2.14Zm-2.93,37.37,2.4-36.9-4.5-.24-33-2.14a7.6,7.6,0,0,0-5.24,1.56,5.64,5.64,0,0,0-2.23,4,12.25,12.25,0,0,0,.55,4.49l.14.36-.39,0a5.25,5.25,0,0,0-3.8,1.78,6.13,6.13,0,0,0-1.92,3.45,7.5,7.5,0,0,0,.94,4.66l.25.33-.41.06a6,6,0,0,0-5,5.5,5.27,5.27,0,0,0,3.45,5.61l.57.18-.54.28a6.49,6.49,0,0,0-3.47,5.4,6.69,6.69,0,0,0,1.09,4,5.26,5.26,0,0,0,4.2,2.42L255.41,291l-.11.31a25.15,25.15,0,0,0,.18,17.17,8.25,8.25,0,0,0,8.61,5.37c.83-.11,1.41-.4,1.43-.72s0-1.28,0-2.38c0-3.53.07-9.44.85-11.08,1-2.1,10.55-14.41,11-14.93l.08-.1Z" style="fill:#455a64"></path><rect x="284.34" y="243.27" width="14.41" height="21.75" transform="translate(566 526.65) rotate(-176.29)" style="opacity:0.2"></rect><path d="M294,249a2.08,2.08,0,1,1-1.94-2.22A2.09,2.09,0,0,1,294,249Z" style="fill:#f0f0f0"></path></g><g id="freepik--Arm--inject-2"><path d="M289.79,231c-.22,2.9.27,21.54-1.72,29.93a9.62,9.62,0,0,1-4,5.65c-3.11,2.35-4.4,5.42-6.71,7.83-1.81,1.88-2.9,2.68-2.66,3.28.3.78,1.51,1.89,3.75,1.3a13.23,13.23,0,0,0,4.42-2.79,12.65,12.65,0,0,1,1.77-1.58c1-.56,1,.43.95,1.15a14.25,14.25,0,0,1-1.14,3.64,47.2,47.2,0,0,1-2.81,6l-4-.3-2.63,3.42c2.06,2.28,4.56,4.81,7.93,3.65a15.94,15.94,0,0,1,1.51-.54c1.49-.32,3.15.49,4.53-.17.82-.4,1.34-1.24,2.13-1.7,1.24-.72,2.78-.34,4.07-.9a7.05,7.05,0,0,0,3-3.33c2.26-4.74,4.62-10.93,5-16.17.18-2.28.52-4.83.94-7.39,1.41-6.69,2.88-12.55,3.93-18.41,2.56-14.41,3.22-15.16-.06-23.57s-8.43-22.84-11.87-31.5c-4.62-11.64-6.06-12.6-18.65-15.94-5.52,5.17-5.24,20.58-1.69,28.95C282.66,216.31,289.79,231,289.79,231Z" style="fill:#ffbda7"></path><path d="M289.24,222.19c-2.49.6-1.4.55-3.94.44,0,0-8.75-18.56-10.23-22s-6.73-21.31,1.79-28.64c7.63,2,11.69,2.39,15,6.57s6.43,14.35,10.46,24.76c1.61,4.15,3.74,9.81,3.74,9.81C301.93,216.64,294.47,220.94,289.24,222.19Z" style="fill:#455a64"></path></g><g id="freepik--arm--inject-2"><path d="M223.89,217.25a8.53,8.53,0,0,1,5.11,2.22c1.17,1.3,4,5.46,5.13,6.59a62.3,62.3,0,0,1,4.51,6.36,24,24,0,0,1,2.14,4.1c.33,1.15.92,3.16,2,2.69s1.52-2.82,1.5-5-1.56-5-2.33-6.75a3.79,3.79,0,0,1-.16-3.24,3.9,3.9,0,0,1,1-.8,10.33,10.33,0,0,1,1.5,1.14,7.7,7.7,0,0,0,3.13,1.29s1.19.2,1.89.28a2.86,2.86,0,0,0,2.77-3,5,5,0,0,0-.46-1.15,6.74,6.74,0,0,0,.47-1.89c.11-1.12.33-2.19-.54-2.66a7.85,7.85,0,0,0,.51-2.08,2.53,2.53,0,0,0-.71-2.27,3.24,3.24,0,0,0,.28-2.12c-.09-1.18-1.59-3.22-2.59-4.38s-1.93-1-5.7-1.62-6-1.29-7.93-.84a20.36,20.36,0,0,1-8.39.4c-4.52-.53-19.75-4.91-28.15-5.56-11.09-.85-18.55.15-22.52,4.65-5.72,6.5,3,14.5,16.09,15.86S221.89,217,223.89,217.25Z" style="fill:#ffbda7"></path><path d="M241.52,210.68a1.94,1.94,0,0,1,1.22-1.33,2.45,2.45,0,0,1,1.22-.12c0-.14,0-.28,0-.41s0-.32.07-.47a3.86,3.86,0,0,1,.49-1.55c.06-.08.11.06.09.11a4.44,4.44,0,0,0-.21.71,2.07,2.07,0,0,0,0,.7,3.37,3.37,0,0,0,.1.34,2,2,0,0,0,.08.33,2.19,2.19,0,0,0,.17.38l.32.09a9.17,9.17,0,0,0,1,.27c.34.06.63-.12.95-.08.14,0,.16.25.11.35-.47.95-1.69.6-2.6.36a.22.22,0,0,1-.24-.07l-.25-.06a1.91,1.91,0,0,0-1.89.31c-.63.75.44,1.48.91,1.91a19.92,19.92,0,0,0,1.56,1.49,1.69,1.69,0,0,0,1.1.42,5.69,5.69,0,0,0,1.15-.16l2.38-.46a2.61,2.61,0,0,0,1.74-.83c.18-.24.33.2.21.37a2.74,2.74,0,0,1-1.89.9c-1,.18-2,.37-3,.52a3.07,3.07,0,0,1-2.34-.39,12,12,0,0,1-1.69-1.66c-.36.91-.91,2-.4,2.92s1.87,1.2,2.86,1.43a30.29,30.29,0,0,0,3.78.7,3.62,3.62,0,0,0,3-.7c.07-.07.1.08.09.12-.29,1.19-1.55,1.37-2.62,1.32a25.12,25.12,0,0,1-4.93-.88,4.66,4.66,0,0,1-2.16-1,2.3,2.3,0,0,0-1,2.7,3.71,3.71,0,0,0,2.65,1.85c1.25.37,2.53.68,3.8,1,1.09.3,2.41.66,3.44,0,.2-.15.26.27.16.38-1,1.27-2.64.8-4,.45a29.13,29.13,0,0,1-4.59-1.35l-.27-.14a2.62,2.62,0,0,0,.8,1.45,6,6,0,0,0,1.46,1.28,6.8,6.8,0,0,0,1.73.69c.3.08.61.14.91.2a1.93,1.93,0,0,1,.94.3c.11.08.09.39,0,.43a2,2,0,0,1-1,0c-.36-.06-.72-.14-1.08-.23a6.3,6.3,0,0,1-2-.84,6,6,0,0,1-1.46-1.56,2.47,2.47,0,0,1-.45-1.8,3,3,0,0,1-1.61-2.42,3,3,0,0,1,1.33-2.73,2,2,0,0,1-.26-.52,3.81,3.81,0,0,1,.73-3.24A2,2,0,0,1,241.52,210.68Z" style="fill:#f0997a"></path><path d="M246.44,209.62a2.81,2.81,0,0,1,1.69-1.74c.1,0,.13.16.07.21a6.13,6.13,0,0,0-.83.86,3.7,3.7,0,0,0-.29.47,1.6,1.6,0,0,1,.61-.07,1.5,1.5,0,0,1,.51.15,2.64,2.64,0,0,1,.49.29s0,.13,0,.12a2,2,0,0,0-.49-.06,4.63,4.63,0,0,0-.52.07,2.4,2.4,0,0,0-.93.32c-.14.09-.27-.05-.29-.18s0,0,0,0A.51.51,0,0,1,246.44,209.62Z" style="fill:#f0997a"></path><path d="M241.7,211.56c-1.2,1.58-5.13,3-9.31,2.66,4,1.78,8.43.46,9.27-.63l.73-1.37Z" style="fill:#f0997a"></path></g></g></g></g><g id="freepik--character-1--inject-2"><g id="freepik--character--inject-2"><g id="freepik--bottom--inject-2"><path d="M105.78,366.09l-2-17.84,20.31-1.83s-.86,13.75-.74,20.06c.06,3,2.16,8.56,2.16,8.56s-8.5,4.41-12.91,2.61-7.34-8.77-7.23-10S105.78,366.09,105.78,366.09Z" style="fill:#ffa8a7"></path><path d="M149.06,394.15c.28,0,.49,2.59-1.06,3.86a20.06,20.06,0,0,1-14.26,3.27c-6.8-1-10.45-3.13-13.14-5.42s-6.45-5.53-9.52-6.26a22,22,0,0,1-7.6-3.91c-.9-.89-.7-4.76-.7-4.76Z" style="fill:#263238"></path><path d="M105.78,366.06a1.08,1.08,0,0,0-1,.88c-.23,1.07-.52,4.17-1,5.92a30.85,30.85,0,0,0-.84,9.41c.33,2,5.73,4.47,8.7,5.64a38.15,38.15,0,0,1,9.55,6.18c3.16,2.66,9.85,5.48,14.29,5.52,5.26.06,11.21-1.52,12.61-3.89,1.73-3,3-6.37-4.71-10.07-1.46-.7-6.59-3.81-8.33-4.93-4.73-3.05-8-5.82-10.14-11.1a3,3,0,0,0-1.09-1.63,2.6,2.6,0,0,0-1.52-.16c-1.3.16-6.49.77-7.69,1.31-1,.47-2.55,1-2.55,2.34a4.38,4.38,0,0,0,.27,1.34c.09.27.16.63-.09.79s-.52,0-.72-.21a19.87,19.87,0,0,1-2.06-2.52,21.39,21.39,0,0,0-2-2.28,12.11,12.11,0,0,1-1.32-.88C105.66,367.25,105.79,366.67,105.78,366.06Z" style="fill:#455a64"></path><path d="M121.14,394.09c-1.34-1.13-2.76-2.22-4.19-3.2h0s9.06,5.64,12.81,3.21c2.42-1.56,1.32-3.53,1.28-4.15s8.46-4.88,10.78-5.11h0c.64.36,1.17.67,1.51.81,6,2.5,6.8,5.61,5.71,9.48-1.4,2.37-6.72,4.76-13.52,4.64C131.08,399.7,124.3,396.75,121.14,394.09Z" style="fill:#37474f"></path><path d="M130.43,388.12c4.81,2,2.73,2.85,1.37,3s-9.44-4.66-14.34-8.62c-5.12-4.14-9.06-9.64-11-11.15-.71-.57-1.47-1.26-2.15-1.91.15-1.05.27-2,.38-2.51a1.08,1.08,0,0,1,1-.88c0,.61-.12,1.19.35,1.66a12.11,12.11,0,0,0,1.32.88,21.39,21.39,0,0,1,2,2.28,19.87,19.87,0,0,0,2.06,2.52C115.6,378.76,125.62,386.13,130.43,388.12Z" style="fill:#37474f"></path><path d="M131.46,390.43a.52.52,0,0,1-.3-.12.45.45,0,0,1,0-.66c1.4-1.63,7.95-5.43,11.51-5a.47.47,0,1,1-.12.93c-3.32-.41-9.55,3.37-10.66,4.66A.52.52,0,0,1,131.46,390.43Z" style="fill:#263238"></path><path d="M127.28,387.79a.5.5,0,0,1-.3-.11.47.47,0,0,1,0-.67c1.39-1.62,7.95-5.42,11.51-5a.47.47,0,1,1-.12.94c-3.32-.41-9.55,3.37-10.66,4.65A.48.48,0,0,1,127.28,387.79Z" style="fill:#263238"></path><path d="M123.1,385.29a.48.48,0,0,1-.3-.11.47.47,0,0,1-.06-.67c1.4-1.62,8-5.43,11.52-5a.47.47,0,1,1-.12.94c-3.33-.41-9.56,3.37-10.67,4.65A.45.45,0,0,1,123.1,385.29Z" style="fill:#263238"></path><path d="M119.23,382.45a.48.48,0,0,1-.3-.11.48.48,0,0,1-.06-.67c1.4-1.62,8-5.42,11.52-5a.47.47,0,1,1-.12.94c-3.32-.41-9.56,3.37-10.66,4.65A.48.48,0,0,1,119.23,382.45Z" style="fill:#263238"></path><path d="M115.44,379.61a.45.45,0,0,1-.29-.1.47.47,0,0,1-.07-.67c1.93-2.31,8.78-5.46,12.34-5a.46.46,0,0,1,.41.52.47.47,0,0,1-.53.41c-3.21-.39-9.77,2.64-11.48,4.68A.44.44,0,0,1,115.44,379.61Z" style="fill:#263238"></path><path d="M72.12,374.46,77,353l-21.13-3.3-.34,21.15s-1.61,5.68-.42,7.64,13.88,4,15,2.71S72.12,374.46,72.12,374.46Z" style="fill:#ffa8a7"></path><path d="M70,408.21c-.56,4.81-1.56,7.91-3.64,10.51s-5.78,3-9.45,1.77-8.3-4.09-9.16-8.4-.5-7.15.56-11.53Z" style="fill:#263238"></path><path d="M55.48,370.89c-1.53-.08-1.12,3.7-1.84,10.18-.78,7-3.94,12.5-5.06,18.12-1.29,6.42-1,9.38,1.35,13.65s11.36,9.27,16.14,4.16c3.91-4.16,4.31-9.26,4.3-15.83a146.78,146.78,0,0,1,.47-16.66c.54-4.86,2.58-9.34,1.28-10.05-.14.71-1.44,5.63-2.3,5.55a8.8,8.8,0,0,1,.08-1.85,2.15,2.15,0,0,0-.34-1.63,6.94,6.94,0,0,0-2.47-1.25c-1.49-.45-4.15-1-5.67-1.32q-1.14-.22-2.28-.36a6.7,6.7,0,0,0-2,0,1.18,1.18,0,0,0-.86.56,2,2,0,0,0-.12.74,4.82,4.82,0,0,1-.25,1.31c-.07.19-.23.41-.45.33a.42.42,0,0,1-.23-.42C55.32,375.34,55.43,371.3,55.48,370.89Z" style="fill:#455a64"></path><path d="M49,397.37c-.2.92-1.41,7.06.46,8.42,2,1.47,3.4-3.3,3.4-3.3s4.93-.72,11.89,2.89c-.41,1,.52,4.45,2.5,4s3.08-7.53,3.1-7.62c0,6.29-.51,11.22-4.3,15.26-4.78,5.11-13.75.11-16.14-4.16s-2.64-7.23-1.35-13.65C48.71,398.54,48.85,397.94,49,397.37Z" style="fill:#37474f"></path><path d="M53.41,403c-.15,2.36-2.74,1.24-2.69-2.11s1.81-11.49,2.47-17c.45-7.88.76-13.09,2.29-13,0,.08,0,.16,0,.24s-.16,4.49-.18,5c-.27,4.81-.33,14.17-1,18.52A69.54,69.54,0,0,0,53.41,403Z" style="fill:#37474f"></path><path d="M64,405.22a64.37,64.37,0,0,0,1.86-8.12c.75-4.3,3.32-12.92,4.6-17.55.41-.76,1.71-5.09,1.71-5.09,1.06.3,0,4.43-.5,6.36s-1.1,4-1.72,6.77c-1.59,5.47-1.74,13.67-2.76,16.81S63.34,407.48,64,405.22Z" style="fill:#37474f"></path><path d="M64.91,405.59a.5.5,0,0,1-.2-.08A21,21,0,0,0,53,403a.62.62,0,0,1-.68-.44.46.46,0,0,1,.44-.56,22,22,0,0,1,12.52,2.7.49.49,0,0,1,.2.7A.53.53,0,0,1,64.91,405.59Z" style="fill:#263238"></path><path d="M66.44,400.62a.73.73,0,0,1-.19-.07,26,26,0,0,0-13.11-2.82.63.63,0,0,1-.66-.46.47.47,0,0,1,.45-.55,27.06,27.06,0,0,1,13.86,3,.52.52,0,0,1,.23.71A.54.54,0,0,1,66.44,400.62Z" style="fill:#263238"></path><path d="M53.75,392.91a.62.62,0,0,1-.46-.4.45.45,0,0,1,.38-.59c6.95-1.22,13.56,2.69,13.84,2.86a.5.5,0,0,1,.21.71.6.6,0,0,1-.78.11c-.06,0-6.49-3.83-12.95-2.69A.65.65,0,0,1,53.75,392.91Z" style="fill:#263238"></path><path d="M54.37,388.36a.61.61,0,0,1-.46-.39.46.46,0,0,1,.37-.6,20.39,20.39,0,0,1,14.12,2.86.5.5,0,0,1,.16.72.6.6,0,0,1-.79.07c-.06,0-6-4-13.15-2.66A.53.53,0,0,1,54.37,388.36Z" style="fill:#263238"></path><path d="M55.09,383.26a.64.64,0,0,1-.46-.38.45.45,0,0,1,.36-.61c7.17-1.48,13.93,2.83,14.22,3a.49.49,0,0,1,.17.71.58.58,0,0,1-.78.09c-.07,0-6.6-4.19-13.26-2.82A.7.7,0,0,1,55.09,383.26Z" style="fill:#263238"></path><path d="M63.59,209.3c-6.71,16.46-2.31,38.48-3,56.42C59.79,287.18,59.41,304,59.41,304c-.26,2.89-1.9,6.93-3.24,21.16-1.42,15-1.36,36.46-1.36,36.46s12.69,5.43,20.58,2.62c0,0,8.48-32.16,12.59-49.85,3.88-16.74,6.74-42.92,6.74-42.92l4.61,25.22s-.58,10.84-.31,18.42c.32,8.82,5.08,42.59,5.08,42.59s11.79,7.06,20,.33c0,0,4-49.56,4.26-60.17.52-20.81,1.12-61.73-1.34-88.57Z" style="fill:#37474f"></path><path d="M94.72,271.48l5.25-33s11.37-1.89,16.28-6.62a20.9,20.9,0,0,1-12.69,9.73l-5.51,30.55,1.28,24.55Z" style="fill:#263238"></path><path d="M54.59,362.37c3.54,2.78,13.87,5.15,20.94,2.59L77,359c-5.33,1.79-16.33.65-22.24-3Z" style="fill:#455a64"></path><path d="M104.1,358.4c2.39,2.43,13.48,4.44,20,.6l.48-6c-5,2.77-16.37,2.29-21.24-.55Z" style="fill:#455a64"></path><path d="M60.23,268.67s-1.1,26.74-1,28.69,14.61,5.8,15,4.56c.63-2.06.47-6.66,1.73-28.81C63.87,271.55,60.23,268.67,60.23,268.67Z" style="fill:#455a64"></path><path d="M73.66,280.73a4.51,4.51,0,0,0-1.37-.11c-.54,0-1.07,0-1.6-.09a23.56,23.56,0,0,1-3.35-.51,27.24,27.24,0,0,1-3.67-1.11c-1-.38-1.9-.88-2.87-1.25-.09,0-.11.15,0,.19a14.08,14.08,0,0,0,3.07,1.56,22.91,22.91,0,0,0,3,1,25.1,25.1,0,0,0,3.34.59c.56.06,1.12.1,1.69.12a3.57,3.57,0,0,0,1.78-.12C73.74,280.94,73.75,280.76,73.66,280.73Z" style="fill:#37474f"></path><path d="M67.33,277c-.14-.28-.24-.45-.56-.49a1.06,1.06,0,0,0-.73.19.86.86,0,0,0-.36.61,1,1,0,0,0,.52,1,1,1,0,0,0,1,0,.69.69,0,0,0,.25-.61A1.36,1.36,0,0,0,67.33,277Zm-.27.81a.59.59,0,0,1-.73.14.54.54,0,0,1,.16-1,.52.52,0,0,1,.4.11A.59.59,0,0,1,67.06,277.81Z" style="fill:#37474f"></path></g><g id="freepik--top--inject-2"><path d="M109.15,139.65c7.32,1.32,10.87,3.18,16.37,12s16.68,34,16.68,34l13.43,27.39-12.42,4.5s-6.05-8.05-11.16-14.31a105.36,105.36,0,0,1-11.24-16.64c-5-8.64-9.31-17.55-9.31-17.55Z" style="fill:#ffbda7"></path><path d="M63.39,151.3h0a17.76,17.76,0,0,0,17.76-17.76V89.2H78.21A14.81,14.81,0,0,0,63.39,104Z" style="fill:#37474f"></path><path d="M72.14,94.78A11.49,11.49,0,0,0,71.67,97a6.11,6.11,0,0,0,0,1.48,5,5,0,0,0,4.87,4,7.59,7.59,0,0,0,5.87-3.14c1.89-2.43,4.73-8.15,1-10.18a7.54,7.54,0,0,0-7.84.65A9.66,9.66,0,0,0,72.14,94.78Z" style="fill:#E57C23"></path><path d="M72.14,94.78A11.49,11.49,0,0,0,71.67,97a6.11,6.11,0,0,0,0,1.48,5,5,0,0,0,4.87,4,7.59,7.59,0,0,0,5.87-3.14c1.89-2.43,4.73-8.15,1-10.18a7.54,7.54,0,0,0-7.84.65A9.66,9.66,0,0,0,72.14,94.78Z" style="opacity:0.25"></path><path d="M69.28,191.47c0,1.89-4.83,11.42-7.45,21.69,15.79,20.36,62.57,9.25,66-2.21-.73-13.62-1.36-48-4.34-54.24a46.07,46.07,0,0,0-14.33-17.06,84,84,0,0,0-10-1.33,58.67,58.67,0,0,0-15,.39c-4.43.67-11.71,2.6-11.71,2.6-2.77,2.34-10.46,12.22-8.68,24.11C64.64,170.89,69.29,178,69.28,191.47Z" style="fill:#E57C23"></path><path d="M69.28,191.47c0,1.89-4.83,11.42-7.45,21.69,15.79,20.36,62.57,9.25,66-2.21-.73-13.62-1.36-48-4.34-54.24a46.07,46.07,0,0,0-14.33-17.06,84,84,0,0,0-10-1.33,58.67,58.67,0,0,0-15,.39c-4.43.67-11.71,2.6-11.71,2.6-2.77,2.34-10.46,12.22-8.68,24.11C64.64,170.89,69.29,178,69.28,191.47Z" style="fill:#fff;opacity:0.2"></path><path d="M95.8,215c-.53-1.17,5-2.13,7-4.65,1-1.25.87-3.68-1.2-2.84-4.33,1.74-6.81,1.31-9.68,2" style="fill:#ffbda7"></path><g id="freepik--like--inject-2"><path d="M158.05,195.5a6.28,6.28,0,0,0,3-7.17,5.57,5.57,0,0,0-5.42-4.26,6.77,6.77,0,0,0,1.46-6.52c-.67-2.28-3.43-5.52-7.47-4.33l-19.17,5.64a25.43,25.43,0,0,0-6.13-16.22c-4.25-5.28-12-2.34-11.46-.68s4,10.53,3.78,12.85-5.14,17.73-5.14,17.73l-4.58,1.3,10.58,36,4.55-1.4,31.71-9.33c4.15-1.22,6.17-5.07,5.28-8.08a12.22,12.22,0,0,0-2.11-4.11c2.7-.79,4.36-5.11,3.75-7.18A7.64,7.64,0,0,0,158.05,195.5Z" style="fill:#fafafa"></path><path d="M112.82,162c-.49-1.66,7.21-4.6,11.46.68a25.43,25.43,0,0,1,6.13,16.22l-.24.33-3.41,1C123.87,161.6,116.48,161,112.82,162Z" style="fill:#e0e0e0"></path><rect x="98.62" y="194" width="14.41" height="43.5" transform="translate(-56.58 38.63) rotate(-16.39)" style="fill:#E57C23"></rect><rect x="98.62" y="194" width="14.41" height="43.5" transform="translate(-56.58 38.63) rotate(-16.39)" style="opacity:0.2"></rect><path d="M158.05,195.5a7.64,7.64,0,0,1,2.59,4.2,3.44,3.44,0,0,1,.09.5c.26,2.19-1.34,6-3.84,6.68A12.22,12.22,0,0,1,159,211a4.83,4.83,0,0,1,.18.92c.28,2.83-1.73,6.07-5.46,7.16L147.35,221c3.74-1.1,5.74-4.34,5.46-7.16a4.93,4.93,0,0,0-.18-.93,12.35,12.35,0,0,0-2.11-4.11c2.5-.73,4.11-4.49,3.84-6.68a3.44,3.44,0,0,0-.09-.5,7.58,7.58,0,0,0-2.59-4.19,6.29,6.29,0,0,0,3-7.18.42.42,0,0,0,0-.1,5.55,5.55,0,0,0-5.38-4.16,6.76,6.76,0,0,0,1.46-6.51,3.31,3.31,0,0,0-.14-.41c-.86-2.24-3.52-5.05-7.33-3.93l6.37-1.87c3.81-1.12,6.47,1.69,7.33,3.92.06.15.1.28.14.41a6.8,6.8,0,0,1-1.46,6.52,5.56,5.56,0,0,1,5.38,4.15.49.49,0,0,1,0,.11A6.28,6.28,0,0,1,158.05,195.5Z" style="fill:#e0e0e0"></path><path d="M117.29,230.11l-10.72-36.45,4.69-1.32c.47-1.49,4.89-15.4,5.09-17.55.17-1.71-1.88-7.42-3-10.48-.37-1.05-.67-1.87-.79-2.28-.17-.58.32-1.22,1.34-1.76a8.78,8.78,0,0,1,10.56,2.21,25.58,25.58,0,0,1,6.16,16.05L149.51,173a5.76,5.76,0,0,1,5.22.9,7.28,7.28,0,0,1,2.56,3.6,7,7,0,0,1-1.19,6.36,5.85,5.85,0,0,1,5.15,4.42,6.57,6.57,0,0,1-2.76,7.27,8.61,8.61,0,0,1,2.39,4.1,6.65,6.65,0,0,1-.65,4.25A6,6,0,0,1,157.3,207a12.68,12.68,0,0,1,1.94,3.92,6.13,6.13,0,0,1-.78,4.91,8,8,0,0,1-4.67,3.48l-31.71,9.33ZM107.19,194l10.44,35.48,4.3-1.33,31.72-9.33a7.54,7.54,0,0,0,4.38-3.26,5.63,5.63,0,0,0,.73-4.51,12.2,12.2,0,0,0-2.06-4l-.25-.29.37-.11a5.25,5.25,0,0,0,3-3,6.11,6.11,0,0,0,.62-3.89,7.49,7.49,0,0,0-2.49-4.06l-.34-.23.36-.2a6,6,0,0,0,2.84-6.88,5.26,5.26,0,0,0-5.17-4.08l-.61,0,.41-.44a6.51,6.51,0,0,0,1.41-6.28,6.74,6.74,0,0,0-2.38-3.33,5.25,5.25,0,0,0-4.78-.83l-19.48,5.73v-.32a25.2,25.2,0,0,0-6.07-16.07,8.26,8.26,0,0,0-9.93-2.08c-.75.39-1.19.86-1.1,1.17s.41,1.21.78,2.25c1.19,3.32,3.18,8.88,3,10.7-.22,2.31-4.95,17.15-5.15,17.78l0,.13Z" style="fill:#455a64"></path><rect x="101.69" y="215.3" width="14.41" height="21.75" transform="translate(-59.4 39.92) rotate(-16.39)" style="opacity:0.2"></rect><path d="M108.37,231.81a2.09,2.09,0,1,1,2.59,1.42A2.1,2.1,0,0,1,108.37,231.81Z" style="fill:#f0f0f0"></path></g><path d="M92,209.54c-2.88.74-5.17.83-9.49-.3-4.58-1.2-20.25-14.11-20.25-14.11L73,168.07a38.45,38.45,0,0,0-.5-26.76c-10.65,2.28-13.2,6.25-15.18,9.68s-3,6.55-8.22,20.76c-4.5,12.31-6.82,19.55-7.83,24.55-1.26,6.18,2.79,9.42,10.54,13.94S64.72,217.15,76,222.56c5.45,2.6,8.79,3.22,13.78,4.64a19.09,19.09,0,0,0,5.79.9,10.93,10.93,0,0,0,5.19-1.19,3.44,3.44,0,0,1,.89-.42,7.78,7.78,0,0,1,1-.11,6.32,6.32,0,0,0,1.83-.26,9.55,9.55,0,0,0,1.68-1,7.62,7.62,0,0,1,.77-.48,6.61,6.61,0,0,1,.89-.29,7,7,0,0,0,2.31-.79,1.25,1.25,0,0,0,.56-1.1s1-.09,1.41-.14a7.27,7.27,0,0,0,1.46-.37.71.71,0,0,0,.46-.36.78.78,0,0,0,0-.34c-.42-1.83-2.24-2.38-3.85-2.72-4.18-.9-7-.59-11.08-1.95-2.22-.74-2.76-1-3.29-1.6" style="fill:#ffbda7"></path><path d="M62.23,195.13A49.23,49.23,0,0,0,54.28,189s3.1-.29,8.59,4.54Z" style="fill:#f0997a"></path><path d="M110.5,222.58c-1.06.13-2.13.17-3.2.2s-2.13,0-3.19,0c-.53,0-1.06,0-1.6,0s-1.08-.06-1.61-.12c-1.06-.11-2.12-.27-3.17-.48l1.6.08q.8.06,1.59.09c.53,0,1.06.05,1.59.05s1.06,0,1.59,0c1.07,0,2.14,0,3.21.05Z" style="fill:#f0997a"></path><path d="M107.06,224.59a12.7,12.7,0,0,1-2.44.56c-.81.1-1.63.16-2.45.2s-1.65,0-2.47,0a17,17,0,0,1-2.46-.21c.83,0,1.64-.07,2.46-.1l2.45-.1,2.45-.11C105.41,224.79,106.25,224.7,107.06,224.59Z" style="fill:#f0997a"></path><g id="freepik--head--inject-2"><path d="M114.57,114.26l1.45-.45c6.53-3.5,6.2-12,4.62-16.45-3.54-9.9-14.24-13.6-20.86-14-12.56-.68-18.69,2.56-20,9.06-1.7-.14-4,1.23-5.45,3.15-3.09,4.21-6.76,18.85,9.52,34.3Z" style="fill:#37474f"></path><path d="M80.83,125a5.81,5.81,0,0,1-5.34-2.42c-2.91-3.47-3.06-6.88-1.55-9.1,1.24-1.81,4.16-2.89,6.12-1.55s2.12,2.54,2.88,4.09,3.9,1.55,4.89-4.57c.93-5.71.67-11.7,3.58-14.18,4.34-3.7,9.77-2.42,11.35-.08a5.69,5.69,0,0,1,7.81-1.63c2.75,1.62,4.82,6,5.38,16.92.57,11.13-2.31,17.95-4.92,19.72-2,1.34-4.17,1.89-8.34,1.91l.15,4.9s5.64,10.65,5.25,20.15c0,0-2.3-1.58-12.64-10.62-6.89-6-11.24-9.82-11.24-9.82l-.59-15.36A3.56,3.56,0,0,1,80.83,125Z" style="fill:#ffbda7"></path><path d="M113,107.12,109,105.55a2.11,2.11,0,0,1,2.76-1.31A2.31,2.31,0,0,1,113,107.12Z" style="fill:#263238"></path><path d="M97.86,105.52l-4.06,2.36a2.26,2.26,0,0,1,.77-3.18A2.47,2.47,0,0,1,97.86,105.52Z" style="fill:#263238"></path><path d="M92.41,98c-1,1.25-1.7,2.5-1.55,7,.06,1.86-.08,6.21-1.33,8.8-1.09,2.27-2.22,3.61-4.64,4a8.92,8.92,0,0,1-4.35-.44c-.86-.4-3.26-2.1-3-4.58A5.13,5.13,0,0,0,79.33,114a5.26,5.26,0,0,0,1.6.38A4.86,4.86,0,0,0,85,112.13c1.62-2.4,1.52-5.64,2-8.4.63-3.51,1.24-7.48,4.41-9.22,3.73-2.05,10.49-1.14,11.3,2.67A7.43,7.43,0,0,0,92.41,98Z" style="fill:#37474f"></path><path d="M98,121.88l6.12,1.7a3.18,3.18,0,0,1-4.2,2.11A3,3,0,0,1,98,121.88Z" style="fill:#b16668"></path><path d="M101.69,125.8A3.32,3.32,0,0,0,98.23,123a1.67,1.67,0,0,0-.31,0,2.81,2.81,0,0,0,2,2.66A3.59,3.59,0,0,0,101.69,125.8Z" style="fill:#f0997a"></path><polygon points="102.76 108.54 104.05 119.44 109.96 117.14 102.76 108.54" style="fill:#f0997a"></polygon><path d="M102.69,134.1a38.78,38.78,0,0,1-11.76-2.65c-1.36-.6-3.18-3.11-4.66-5.9,0,0,1,5.48,4,7.39,4.47,2.9,12.54,3.59,12.54,3.59Z" style="fill:#f0997a"></path><path d="M112,110.37c.32.89-.3,1.19-1.16,1.5s-1.63.5-2-.39a1.65,1.65,0,1,1,3.11-1.11Z" style="fill:#263238"></path><path d="M109.07,109.65a4.32,4.32,0,0,1,1.24-.46,3.44,3.44,0,0,1,1.28-.08,4,4,0,0,1,1.3.36s.06.11,0,.11a10.48,10.48,0,0,0-1.16-.1,6.38,6.38,0,0,0-1.44.18,6.21,6.21,0,0,0-1.61.63c-.17.08-.49.27-.53.29s-.09-.09-.06-.13A2.8,2.8,0,0,1,109.07,109.65Z" style="fill:#263238"></path><path d="M95.38,111c-.19.93.46,1.14,1.35,1.33s1.69.27,1.88-.65a1.65,1.65,0,1,0-3.23-.68Z" style="fill:#263238"></path><path d="M98.2,109.85a4.31,4.31,0,0,0-1.28-.28,3.24,3.24,0,0,0-1.28.09,3.83,3.83,0,0,0-1.24.54s-.05.12,0,.1a10.75,10.75,0,0,1,1.14-.25,6.62,6.62,0,0,1,3.13.39c.18.06.53.2.56.22s.08-.11,0-.14A2.94,2.94,0,0,0,98.2,109.85Z" style="fill:#263238"></path></g><path d="M156.11,220.65c2.56,0,2.7-.29,3.09-1.57a6.59,6.59,0,0,0-.92-5.92c-1.12-1.44-2.18-3-3.13-3.44s-2.08,1.34-1.11,3.58c1.52,3.54.68,4.12.68,4.12a45.61,45.61,0,0,0-2.16-4.42,33.85,33.85,0,0,0-3.91-4c-1.13-1.13-3-.19-2,2.4l-2.08-2.08c-1.45-1.45-2.74-1.37-2.82.66a3.06,3.06,0,0,0,.53,1.89s-1.27-1.75-1.88-1.37c-1.75,1.11-1.4,2.51.14,6.8,1.32,3.64.81,5.5-.64,6.06l-.94.27s1.78.79,3.5,1.39c1.25.44,2.49.69,3.58-.71,0,0,1.36,1.95,2.64,1.21a7.6,7.6,0,0,0,2.22-2.33,2.58,2.58,0,0,0,2.74-.37,4.25,4.25,0,0,0,1.59-2.22Z" style="fill:#ffbda7"></path><path d="M146.69,211.43a13.39,13.39,0,0,1,1.78,2,8.74,8.74,0,0,1,.85,2.54,31.84,31.84,0,0,1,.71,5.17,31,31,0,0,1-1.46-5,15,15,0,0,0-.62-2.42C147.59,213,147.06,212.22,146.69,211.43Z" style="fill:#f0997a"></path><path d="M142.32,211.9a5.71,5.71,0,0,1,1.74,2.26,14.51,14.51,0,0,1,.9,2.7,26.79,26.79,0,0,1,.77,5.57,52.79,52.79,0,0,1-1.51-5.39A15,15,0,0,0,142.32,211.9Z" style="fill:#f0997a"></path></g></g></g></svg>
