<svg xmlns="http://www.w3.org/2000/svg" viewBox="0 0 750 500"><g id="freepik--background-simple--inject-43"><path d="M616.5,77.85C568.6,49.65,514.28,38,459.92,30.63A403.46,403.46,0,0,0,237.11,64.68C217.42,73.85,198.4,90.26,177,94.52L198.5,64.43c4.15-5.79,8.22-14.08,3.43-19.34-2-2.14-4.93-3-7.8-3.46C183.05,40,171.91,44,161.85,49c-46.35,22.78-84.2,65.27-113,107.29C1.38,225.6,6.66,339.43,60.93,395.22s170.37,82.92,218.61,76.89c36.63-4.58-2.83-26.35-10.94-39.54a6.87,6.87,0,0,1-1.31-3.77c.1-2.31,2.21-4,4.2-5.13,16.74-9.72,38.12-6.86,56.64-8.32a767.73,767.73,0,0,1,88.7-2.18c4,.14,50.31,1.25,46.64,10.7-2.91,7.5-14.42,13.56-20.46,18.15-4.64,3.53-34.68,24-26,30.94,2.39,1.92,5.64,2.32,8.7,2.62,50.72,4.92,102.92,3.4,152.87-7.17,43.5-9.21,91.51-24.19,117.46-63.1,26.47-39.67,28.08-92.67,18-137.89a220.71,220.71,0,0,0-9.56-31.66c-3.71-9.55-9.61-17.59-14.53-26.51-2-3.59-3.35-7.93-1.92-11.77,6.3-17,24.61,16.88,29.6-1.3,2.42-8.83-2.25-21.93-5.22-30.27-5.34-15-14.39-28.54-25.22-40.16C666.47,103.54,641.92,92.82,616.5,77.85Z" style="fill:#E57C23"></path><path d="M616.5,77.85C568.6,49.65,514.28,38,459.92,30.63A403.46,403.46,0,0,0,237.11,64.68C217.42,73.85,198.4,90.26,177,94.52L198.5,64.43c4.15-5.79,8.22-14.08,3.43-19.34-2-2.14-4.93-3-7.8-3.46C183.05,40,171.91,44,161.85,49c-46.35,22.78-84.2,65.27-113,107.29C1.38,225.6,6.66,339.43,60.93,395.22s170.37,82.92,218.61,76.89c36.63-4.58-2.83-26.35-10.94-39.54a6.87,6.87,0,0,1-1.31-3.77c.1-2.31,2.21-4,4.2-5.13,16.74-9.72,38.12-6.86,56.64-8.32a767.73,767.73,0,0,1,88.7-2.18c4,.14,50.31,1.25,46.64,10.7-2.91,7.5-14.42,13.56-20.46,18.15-4.64,3.53-34.68,24-26,30.94,2.39,1.92,5.64,2.32,8.7,2.62,50.72,4.92,102.92,3.4,152.87-7.17,43.5-9.21,91.51-24.19,117.46-63.1,26.47-39.67,28.08-92.67,18-137.89a220.71,220.71,0,0,0-9.56-31.66c-3.71-9.55-9.61-17.59-14.53-26.51-2-3.59-3.35-7.93-1.92-11.77,6.3-17,24.61,16.88,29.6-1.3,2.42-8.83-2.25-21.93-5.22-30.27-5.34-15-14.39-28.54-25.22-40.16C666.47,103.54,641.92,92.82,616.5,77.85Z" style="fill:#fff;opacity:0.7000000000000001"></path></g><g id="freepik--Target--inject-43"><circle cx="598.69" cy="419.88" r="38.24" transform="translate(50.59 903.93) rotate(-76.49)" style="fill:none;stroke:#263238;stroke-linecap:round;stroke-linejoin:round;stroke-width:0.75px"></circle><circle cx="598.69" cy="419.88" r="26.09" style="fill:none;stroke:#263238;stroke-linecap:round;stroke-linejoin:round;stroke-width:0.75px"></circle><circle cx="598.69" cy="419.88" r="12.47" style="fill:none;stroke:#263238;stroke-linecap:round;stroke-linejoin:round;stroke-width:0.75px"></circle><line x1="598.69" y1="419.88" x2="644.68" y2="384.48" style="fill:none;stroke:#263238;stroke-linecap:round;stroke-linejoin:round;stroke-width:0.75px"></line><polygon points="633.68 392.77 633.58 386.62 641.23 380.15 642.31 386.19 633.68 392.77" style="fill:none;stroke:#263238;stroke-linecap:round;stroke-linejoin:round;stroke-width:0.75px"></polygon><polygon points="642.31 386.19 648.13 389.1 639.72 394.92 633.68 392.77 642.31 386.19" style="fill:none;stroke:#263238;stroke-linecap:round;stroke-linejoin:round;stroke-width:0.75px"></polygon></g><g id="freepik--Device--inject-43"><path d="M492.24,317.3h0a1.68,1.68,0,0,1-2.17-1l-4-10.17a1.67,1.67,0,0,1,1-2.17h0a1.67,1.67,0,0,1,2.18.95l4,10.17A1.69,1.69,0,0,1,492.24,317.3Z" style="fill:#263238;stroke:#263238;stroke-linecap:round;stroke-linejoin:round"></path><path d="M498.46,333.21h0a1.68,1.68,0,0,1-2.17-1l-4-10.17a1.69,1.69,0,0,1,.95-2.18h0a1.69,1.69,0,0,1,2.18,1l4,10.17A1.69,1.69,0,0,1,498.46,333.21Z" style="fill:#263238;stroke:#263238;stroke-linecap:round;stroke-linejoin:round"></path><path d="M507,355.11h0a1.69,1.69,0,0,1-2.18-.95l-4-10.17a1.67,1.67,0,0,1,.95-2.18h0a1.69,1.69,0,0,1,2.18.95l4,10.18A1.68,1.68,0,0,1,507,355.11Z" style="fill:#263238;stroke:#263238;stroke-linecap:round;stroke-linejoin:round"></path><path d="M537.86,453.26l-74.74,29.23a7.29,7.29,0,0,1-9.44-4.14L396,330.76a7.29,7.29,0,0,1,4.14-9.44l74.74-29.23a7.29,7.29,0,0,1,9.45,4.14L542,443.81A7.31,7.31,0,0,1,537.86,453.26Z" style="fill:#263238;stroke:#263238;stroke-linecap:round;stroke-linejoin:round"></path><rect x="428.66" y="313.72" width="80.63" height="147.14" transform="translate(-108.84 197.39) rotate(-21.36)" style="fill:#fff;stroke:#263238;stroke-linecap:round;stroke-linejoin:round"></rect><rect x="447.03" y="414.61" width="8.33" height="21.9" transform="translate(-124 193.54) rotate(-21.36)" style="fill:#263238;stroke:#263238;stroke-linecap:round;stroke-linejoin:round"></rect><rect x="457.79" y="408.31" width="8.33" height="23.92" transform="translate(-121.33 197.09) rotate(-21.36)" style="fill:#E57C23;stroke:#263238;stroke-linecap:round;stroke-linejoin:round"></rect><rect x="467.31" y="395.5" width="8.33" height="32.68" transform="translate(-117.61 199.99) rotate(-21.36)" style="fill:#263238;stroke:#263238;stroke-linecap:round;stroke-linejoin:round"></rect><rect x="475.92" y="377.81" width="8.33" height="46.49" transform="translate(-113.09 202.39) rotate(-21.36)" style="fill:#E57C23;stroke:#263238;stroke-linecap:round;stroke-linejoin:round"></rect><rect x="488.77" y="382.57" width="8.33" height="37.06" transform="translate(-112.22 207.07) rotate(-21.36)" style="fill:#263238;stroke:#263238;stroke-linecap:round;stroke-linejoin:round"></rect><rect x="495.6" y="355.45" width="8.33" height="60.64" transform="translate(-106.17 208.49) rotate(-21.36)" style="fill:#E57C23;stroke:#263238;stroke-linecap:round;stroke-linejoin:round"></rect><line x1="449.72" y1="439.7" x2="517.8" y2="413.07" style="fill:#fff;stroke:#263238;stroke-linecap:round;stroke-linejoin:round"></line><polyline points="438.9 407.39 456.92 390.58 464.62 365.87 475.9 363.26 481.82 344.25" style="fill:none;stroke:#263238;stroke-linecap:round;stroke-linejoin:round"></polyline><polygon points="484.52 348.03 481.45 345.43 477.45 345.83 483.6 338.55 484.52 348.03" style="fill:#263238"></polygon><circle cx="438.23" cy="348.33" r="14.15" transform="translate(11.94 711.18) rotate(-78.88)" style="fill:#263238;stroke:#263238;stroke-linecap:round;stroke-linejoin:round"></circle><path d="M440.43,354l-.05,0a2,2,0,0,1-1.85-.26l-9.09-6.58a2,2,0,0,1,2.35-3.24l6.69,4.85,5-19.62a2,2,0,0,1,3.88,1l-5.68,22.48A2,2,0,0,1,440.43,354Z" style="fill:#E57C23"></path></g><g id="freepik--Paint--inject-43"><path d="M219.87,198.61c-3.26-18.89,3.58-41.33-.1-60.05-1.12-5.67,4.74-14.84-1.9-18.83-.09,1.87-.17,3.74-.25,5.61-3.84-5.77.49-11.24-.62-16.9-2.73-.1-4.09-.16-5.37-2.08-.16,3.75,1,9.42-.57,13.11l-4.08-.15c-1.2-3.8,1.77-9.31.57-13.11l-5.45-.2c-1.36-.05-1.27-1.93-1.19-3.8-.08,1.87-.25,5.62-.33,7.49l-5.44-.2c-1.37,0-1.28-1.92-1.2-3.79-2.72-.1-5.36-2.08-6.8-.25-.09,1.87-.17,3.74-.25,5.62-1-7.55-7.68-11.55-11.76-11.7,1.28,1.93-2.8,1.78-1.52,3.7-.8-1.2-1.66-2.41-2.54-3.5,0-.38,0-.76,0-1.13-.62-3.41-2-2.64-3.53-2.32-2-1.34-3.82-1-4.67,2.8-.67,6.3-1.23,12.63-1.74,19a1.82,1.82,0,0,0-1.77.48c-.08,2-.25,6.11-.33,8.15-2.8,1.93-5.36-2.26-8.16-.33s-1.32,10.15-3.22,12.11c-.84,2.48-1.42,2.22-1.8.63.4-6,2.73-13.79-1-17.39l-.24,6.1c-.06-.15-.11-.3-.16-.45,0-1.32.24-3.24-.75-3.32-.51-4.89,1.26-9.7.73-14.59-1.81-.08-2.72-.11-3.54-2.19-.17,4.08.5,10.22-.58,14.26l-2.72-.11c-.74-4.11,1.32-10.15.58-14.26l-3.64-.14c-.9,0-.82-2.08-.74-4.11-.08,2-.24,6.11-.33,8.15l-3.62-.15c-.91,0-.83-2.07-.75-4.11-1.81-.07-3.55-2.18-4.53-.18-.09,2-.17,4.07-.25,6.11-.58-8.19-4.95-12.44-7.68-12.55.83,2.07-1.89,2-1.07,4-2.34-5.9-5.5-11.82-6.88-5.52-6-4.58-15.67,1.28-20.2,12.87l-4.22-.14c2.84-15.45-8.08-8.05-13.26-10.17a61.09,61.09,0,0,1-5.32,23.13L65.36,132c-2.14,45.49-2.1,88.36-6.16,132.67,3.39-28.51,5.66-55.24,6-83.9.68.24,1.51.88,2.12-.14,3.9,29.28-5.82,56.15-4,85.35l-4.19-.14c-1,10.23-2.13,20.53-3.6,31-.2,4.35,1.61,8.15,3.95,11.36,8.76-30.67,9.61-64.51,13.07-96.63-.64,13.58-.31,29.13-3.06,42.64-3,19.32-2.79,36.82-6.77,54.17-.26.93-.52,1.88-.79,2.82,1.15,1.28,2.3,2.43,3.33,3.46,5.09,4,12.38,6.25,18-1.33.1-1.94.28-5.82.28-5.82,2.12-.69,4.34-.18,6.47.36,1.72-12.51,3.19-25,4.74-37.54,1.32-15.69,3.17-31.13,6.77-46.11-2.82,15.35-4.86,30.73-6.77,46.11-1,12.55-1.76,25.26-2.74,38,2.49.51,4.74.47,6.39-2.26,3.34-3.77.82-17.46,2.24-25.19,1-4,1.79-8.09,2.47-12.23-.15,15.77-.29,31.49-.52,47.11.74,4.11,2.64,2.14,4.45,2.21.33-8.14-.25-16.32,1.81-22.36.08-2,3.55,2.18,5.45.22l.32-8.16c2.8-1.92,5.36,2.26,8.17.33s1.31-10.14,3.21-12.11c.84-2.48,1.42-2.22,1.8-.63-.39,6-2.73,13.79,1,17.4.08-2,.17-4.07.25-6.11.06.15.1.31.15.46,0,1.31-.24,3.23.75,3.31.51,4.9-1.26,9.7-.73,14.6,1.82.07,2.72.11,3.55,2.18.16-4.07-.5-10.22.57-14.26l2.72.11c.75,4.11-1.31,10.15-.57,14.26l3.63.15c.91,0,.82,2.07.74,4.11.08-2,.25-6.11.33-8.15l3.63.15c.91,0,.83,2.07.74,4.11,1.82.07,3.55,2.18,4.54.18l.24-6.11c.59,8.18,5,12.44,7.68,12.55-.83-2.08,1.9-2,1.07-4,2.48,6.22,5.86,12.48,7.09,4.37.93-11.81,1.67-23.69,2.29-35.61.83-.88,5.46,2.27,8,.65l.32-7.49c4.16-1.72,8.08,2.17,12.25.45s1.77-9.32,4.57-11.09c3-5.52,3.92,3.9,3.67,9.52,2.81-1.77-.16,3.74,2.56,3.85,5.45.2,10.89.4,15.3-6.94,1.45-1.83,5.45.2,8.17.3C223.28,245.64,224.34,221.28,219.87,198.61Z" style="fill:#E57C23"></path></g><g id="freepik--Ruler--inject-43"><rect x="307.72" y="65.19" width="316.31" height="33.22" transform="translate(26.12 -92.39) rotate(11.65)" style="fill:none;stroke:#263238;stroke-linecap:round;stroke-linejoin:round"></rect><line x1="316" y1="67.54" x2="318.25" y2="56.63" style="fill:none;stroke:#263238;stroke-linecap:round;stroke-linejoin:round"></line><line x1="324.9" y1="69.38" x2="327.15" y2="58.46" style="fill:none;stroke:#263238;stroke-linecap:round;stroke-linejoin:round"></line><line x1="333.8" y1="71.21" x2="336.05" y2="60.29" style="fill:none;stroke:#263238;stroke-linecap:round;stroke-linejoin:round"></line><line x1="342.7" y1="73.05" x2="344.95" y2="62.13" style="fill:none;stroke:#263238;stroke-linecap:round;stroke-linejoin:round"></line><line x1="351.6" y1="74.88" x2="355.43" y2="56.28" style="fill:none;stroke:#263238;stroke-linecap:round;stroke-linejoin:round"></line><line x1="360.5" y1="76.72" x2="362.75" y2="65.8" style="fill:none;stroke:#263238;stroke-linecap:round;stroke-linejoin:round"></line><line x1="369.39" y1="78.55" x2="371.65" y2="67.63" style="fill:none;stroke:#263238;stroke-linecap:round;stroke-linejoin:round"></line><line x1="378.29" y1="80.39" x2="380.54" y2="69.47" style="fill:none;stroke:#263238;stroke-linecap:round;stroke-linejoin:round"></line><line x1="387.19" y1="82.22" x2="389.44" y2="71.3" style="fill:none;stroke:#263238;stroke-linecap:round;stroke-linejoin:round"></line><line x1="396.09" y1="84.06" x2="399.93" y2="65.45" style="fill:none;stroke:#263238;stroke-linecap:round;stroke-linejoin:round"></line><line x1="404.99" y1="85.89" x2="407.24" y2="74.97" style="fill:none;stroke:#263238;stroke-linecap:round;stroke-linejoin:round"></line><line x1="413.89" y1="87.73" x2="416.14" y2="76.81" style="fill:none;stroke:#263238;stroke-linecap:round;stroke-linejoin:round"></line><line x1="422.79" y1="89.56" x2="425.04" y2="78.64" style="fill:none;stroke:#263238;stroke-linecap:round;stroke-linejoin:round"></line><line x1="431.68" y1="91.4" x2="433.94" y2="80.48" style="fill:none;stroke:#263238;stroke-linecap:round;stroke-linejoin:round"></line><line x1="440.58" y1="93.23" x2="444.42" y2="74.63" style="fill:none;stroke:#263238;stroke-linecap:round;stroke-linejoin:round"></line><line x1="449.48" y1="95.06" x2="451.73" y2="84.15" style="fill:none;stroke:#263238;stroke-linecap:round;stroke-linejoin:round"></line><line x1="458.38" y1="96.9" x2="460.63" y2="85.98" style="fill:none;stroke:#263238;stroke-linecap:round;stroke-linejoin:round"></line><line x1="467.28" y1="98.73" x2="469.53" y2="87.82" style="fill:none;stroke:#263238;stroke-linecap:round;stroke-linejoin:round"></line><line x1="476.18" y1="100.57" x2="478.43" y2="89.65" style="fill:none;stroke:#263238;stroke-linecap:round;stroke-linejoin:round"></line><line x1="485.08" y1="102.4" x2="488.91" y2="83.8" style="fill:none;stroke:#263238;stroke-linecap:round;stroke-linejoin:round"></line><line x1="493.97" y1="104.24" x2="496.23" y2="93.32" style="fill:none;stroke:#263238;stroke-linecap:round;stroke-linejoin:round"></line><line x1="502.87" y1="106.07" x2="505.12" y2="95.15" style="fill:none;stroke:#263238;stroke-linecap:round;stroke-linejoin:round"></line><line x1="511.77" y1="107.91" x2="514.02" y2="96.99" style="fill:none;stroke:#263238;stroke-linecap:round;stroke-linejoin:round"></line><line x1="520.67" y1="109.74" x2="522.92" y2="98.82" style="fill:none;stroke:#263238;stroke-linecap:round;stroke-linejoin:round"></line><line x1="529.57" y1="111.58" x2="533.4" y2="92.98" style="fill:none;stroke:#263238;stroke-linecap:round;stroke-linejoin:round"></line><line x1="538.47" y1="113.41" x2="540.72" y2="102.49" style="fill:none;stroke:#263238;stroke-linecap:round;stroke-linejoin:round"></line><line x1="547.37" y1="115.25" x2="549.62" y2="104.33" style="fill:none;stroke:#263238;stroke-linecap:round;stroke-linejoin:round"></line><line x1="556.27" y1="117.08" x2="558.52" y2="106.16" style="fill:none;stroke:#263238;stroke-linecap:round;stroke-linejoin:round"></line><line x1="565.16" y1="118.92" x2="567.42" y2="108" style="fill:none;stroke:#263238;stroke-linecap:round;stroke-linejoin:round"></line><line x1="574.06" y1="120.75" x2="577.9" y2="102.15" style="fill:none;stroke:#263238;stroke-linecap:round;stroke-linejoin:round"></line><line x1="582.96" y1="122.59" x2="585.21" y2="111.67" style="fill:none;stroke:#263238;stroke-linecap:round;stroke-linejoin:round"></line><line x1="591.86" y1="124.42" x2="594.11" y2="113.5" style="fill:none;stroke:#263238;stroke-linecap:round;stroke-linejoin:round"></line><line x1="600.76" y1="126.26" x2="603.01" y2="115.34" style="fill:none;stroke:#263238;stroke-linecap:round;stroke-linejoin:round"></line><line x1="608.85" y1="127.92" x2="611.1" y2="117" style="fill:none;stroke:#263238;stroke-linecap:round;stroke-linejoin:round"></line></g><g id="freepik--Pencil--inject-43"><path d="M367.67,121.29l-21.1-3.2,17.33-12.61L513.72,69.73a5.59,5.59,0,0,1,6.74,4.15l1.18,4.92a5.6,5.6,0,0,1-4.14,6.75Z" style="fill:#E57C23;stroke:#263238;stroke-linecap:round;stroke-linejoin:round"></path><polygon points="364.37 105.36 363.9 105.48 346.57 118.09 367.67 121.29 368.14 121.18 364.37 105.36" style="fill:#fff;stroke:#263238;stroke-linecap:round;stroke-linejoin:round"></polygon><polygon points="357.47 110.16 346.57 118.09 359.84 120.1 357.47 110.16" style="fill:#263238;stroke:#263238;stroke-linecap:round;stroke-linejoin:round"></polygon><path d="M504.73,65.45h5.07a5.6,5.6,0,0,1,5.6,5.6V93.81a0,0,0,0,1,0,0H499.13a0,0,0,0,1,0,0V71A5.6,5.6,0,0,1,504.73,65.45Z" transform="translate(466.99 -432.26) rotate(76.58)" style="fill:#263238;stroke:#263238;stroke-linecap:round;stroke-linejoin:round"></path><rect x="498.2" y="73.3" width="3.04" height="16.26" transform="translate(-5.25 118.19) rotate(-13.42)" style="fill:#fff;stroke:#263238;stroke-linecap:round;stroke-linejoin:round"></rect><path d="M510.1,69.7h5.07a5.6,5.6,0,0,1,5.6,5.6V87a0,0,0,0,1,0,0H504.51a0,0,0,0,1,0,0V75.29a5.6,5.6,0,0,1,5.6-5.6Z" transform="translate(469.87 -438.48) rotate(76.58)" style="fill:#9c9c9c;stroke:#263238;stroke-linecap:round;stroke-linejoin:round"></path><line x1="491.91" y1="80.76" x2="412.25" y2="99.76" style="fill:none;stroke:#263238;stroke-linecap:round;stroke-linejoin:round"></line><line x1="392.45" y1="104.49" x2="365.96" y2="110.81" style="fill:none;stroke:#263238;stroke-linecap:round;stroke-linejoin:round"></line></g><g id="freepik--Calendar--inject-43"><path d="M283.2,410.46H260.89v-85.4h14.22V328a1.92,1.92,0,0,0,3.84,0v-2.93h16.42V328a1.92,1.92,0,0,0,3.83,0v-2.93h16.42V328a1.92,1.92,0,0,0,3.83,0v-2.93h16.42V328a1.92,1.92,0,0,0,3.83,0v-2.93h16.42V328a1.92,1.92,0,0,0,3.84,0v-2.93h14.21v18.2" style="fill:none;stroke:#263238;stroke-linecap:round;stroke-linejoin:round;stroke-width:0.75px"></path><polyline points="374.17 351.68 374.17 410.46 293.31 410.46" style="fill:none;stroke:#263238;stroke-linecap:round;stroke-linejoin:round;stroke-width:0.75px"></polyline><rect x="273.48" y="348.43" width="12.59" height="12.59" style="fill:none;stroke:#263238;stroke-linecap:round;stroke-linejoin:round;stroke-width:0.75px"></rect><rect x="292.36" y="348.43" width="12.59" height="12.59" style="fill:none;stroke:#263238;stroke-linecap:round;stroke-linejoin:round;stroke-width:0.75px"></rect><rect x="311.24" y="348.43" width="12.59" height="12.59" style="fill:none;stroke:#263238;stroke-linecap:round;stroke-linejoin:round;stroke-width:0.75px"></rect><rect x="330.12" y="348.43" width="12.59" height="12.59" style="fill:none;stroke:#263238;stroke-linecap:round;stroke-linejoin:round;stroke-width:0.75px"></rect><rect x="349" y="348.43" width="12.59" height="12.59" style="fill:none;stroke:#263238;stroke-linecap:round;stroke-linejoin:round;stroke-width:0.75px"></rect><rect x="273.48" y="369.11" width="12.59" height="12.59" style="fill:none;stroke:#263238;stroke-linecap:round;stroke-linejoin:round;stroke-width:0.75px"></rect><rect x="292.36" y="369.11" width="12.59" height="12.59" style="fill:none;stroke:#263238;stroke-linecap:round;stroke-linejoin:round;stroke-width:0.75px"></rect><rect x="311.24" y="369.11" width="12.59" height="12.59" style="fill:none;stroke:#263238;stroke-linecap:round;stroke-linejoin:round;stroke-width:0.75px"></rect><rect x="330.12" y="369.11" width="12.59" height="12.59" style="fill:none;stroke:#263238;stroke-linecap:round;stroke-linejoin:round;stroke-width:0.75px"></rect><rect x="349" y="369.11" width="12.59" height="12.59" style="fill:none;stroke:#263238;stroke-linecap:round;stroke-linejoin:round;stroke-width:0.75px"></rect><rect x="273.48" y="389.78" width="12.59" height="12.59" style="fill:none;stroke:#263238;stroke-linecap:round;stroke-linejoin:round;stroke-width:0.75px"></rect><rect x="292.36" y="389.78" width="12.59" height="12.59" style="fill:none;stroke:#263238;stroke-linecap:round;stroke-linejoin:round;stroke-width:0.75px"></rect><rect x="311.24" y="389.78" width="12.59" height="12.59" style="fill:none;stroke:#263238;stroke-linecap:round;stroke-linejoin:round;stroke-width:0.75px"></rect><rect x="330.12" y="389.78" width="12.59" height="12.59" style="fill:none;stroke:#263238;stroke-linecap:round;stroke-linejoin:round;stroke-width:0.75px"></rect><rect x="349" y="389.78" width="12.59" height="12.59" style="fill:none;stroke:#263238;stroke-linecap:round;stroke-linejoin:round;stroke-width:0.75px"></rect><path d="M279,317V328a1.92,1.92,0,0,1-3.84,0V317a1.92,1.92,0,1,1,3.84,0Z" style="fill:none;stroke:#263238;stroke-linecap:round;stroke-linejoin:round;stroke-width:0.75px"></path><path d="M299.2,317V328a1.92,1.92,0,0,1-3.83,0V317a1.92,1.92,0,1,1,3.83,0Z" style="fill:none;stroke:#263238;stroke-linecap:round;stroke-linejoin:round;stroke-width:0.75px"></path><path d="M319.45,317V328a1.92,1.92,0,0,1-3.83,0V317a1.92,1.92,0,1,1,3.83,0Z" style="fill:none;stroke:#263238;stroke-linecap:round;stroke-linejoin:round;stroke-width:0.75px"></path><path d="M339.7,317V328a1.92,1.92,0,0,1-3.83,0V317a1.92,1.92,0,1,1,3.83,0Z" style="fill:none;stroke:#263238;stroke-linecap:round;stroke-linejoin:round;stroke-width:0.75px"></path><path d="M360,317V328a1.92,1.92,0,0,1-3.84,0V317a1.92,1.92,0,1,1,3.84,0Z" style="fill:none;stroke:#263238;stroke-linecap:round;stroke-linejoin:round;stroke-width:0.75px"></path></g><g id="freepik--Lines--inject-43"><line x1="419.74" y1="141.2" x2="419.74" y2="127.72" style="fill:none;stroke:#263238;stroke-linecap:round;stroke-linejoin:round"></line><line x1="450.27" y1="141.2" x2="450.27" y2="127.72" style="fill:none;stroke:#263238;stroke-linecap:round;stroke-linejoin:round"></line><line x1="417.78" y1="134.24" x2="452.43" y2="134.24" style="fill:none;stroke:#263238;stroke-linecap:round;stroke-linejoin:round"></line><line x1="300.81" y1="144.27" x2="314.29" y2="144.27" style="fill:none;stroke:#263238;stroke-linecap:round;stroke-linejoin:round"></line><line x1="300.81" y1="261.49" x2="314.29" y2="261.49" style="fill:none;stroke:#263238;stroke-linecap:round;stroke-linejoin:round"></line><line x1="307.77" y1="136.75" x2="307.77" y2="269.76" style="fill:none;stroke:#263238;stroke-linecap:round;stroke-linejoin:round"></line><line x1="318.93" y1="277.74" x2="318.93" y2="264.26" style="fill:none;stroke:#263238;stroke-linecap:round;stroke-linejoin:round"></line><line x1="343.28" y1="277.74" x2="343.28" y2="264.26" style="fill:none;stroke:#263238;stroke-linecap:round;stroke-linejoin:round"></line><line x1="390.98" y1="277.74" x2="390.98" y2="264.26" style="fill:none;stroke:#263238;stroke-linecap:round;stroke-linejoin:round"></line><line x1="364.02" y1="277.74" x2="364.02" y2="264.26" style="fill:none;stroke:#263238;stroke-linecap:round;stroke-linejoin:round"></line><line x1="314.31" y1="270.78" x2="396.06" y2="270.78" style="fill:none;stroke:#263238;stroke-linecap:round;stroke-linejoin:round"></line><line x1="483.69" y1="277.74" x2="483.69" y2="264.26" style="fill:none;stroke:#263238;stroke-linecap:round;stroke-linejoin:round"></line><line x1="505.3" y1="277.74" x2="505.3" y2="264.26" style="fill:none;stroke:#263238;stroke-linecap:round;stroke-linejoin:round"></line><line x1="547.64" y1="277.74" x2="547.64" y2="264.26" style="fill:none;stroke:#263238;stroke-linecap:round;stroke-linejoin:round"></line><line x1="529.88" y1="277.74" x2="529.88" y2="264.26" style="fill:none;stroke:#263238;stroke-linecap:round;stroke-linejoin:round"></line><line x1="479.59" y1="270.78" x2="552.14" y2="270.78" style="fill:none;stroke:#263238;stroke-linecap:round;stroke-linejoin:round"></line></g><g id="freepik--Text--inject-43"><path d="M232.23,262V144.48h30.61a84.53,84.53,0,0,1,14.28,1.16,32.85,32.85,0,0,1,12,4.42,22.35,22.35,0,0,1,8.2,9.29q3,6,3,15.88a30.19,30.19,0,0,1-2.1,12,19,19,0,0,1-6,7.76,21.68,21.68,0,0,1-9.21,3.91,23.36,23.36,0,0,1,11.46,4.43,22,22,0,0,1,7,9.5,38.35,38.35,0,0,1,2.4,14.36,46.15,46.15,0,0,1-2.4,15.74,27,27,0,0,1-6.89,10.8,27.9,27.9,0,0,1-11.09,6.24,51.76,51.76,0,0,1-15.16,2Zm26-70.5h5.07c4,0,7-.6,9-1.81a9.11,9.11,0,0,0,4.13-5.29,28.64,28.64,0,0,0,1.09-8.42,16.35,16.35,0,0,0-1.67-7.76,10.87,10.87,0,0,0-4.93-4.71,18.69,18.69,0,0,0-8.2-1.6H258.2Zm0,52.37h5.51q8.55,0,11.82-4.35t3.26-12.77a31.29,31.29,0,0,0-1.45-10.59,10.34,10.34,0,0,0-4.78-5.73,19.06,19.06,0,0,0-9-1.81H258.2Z" style="fill:#263238"></path><path d="M317.52,262V144.48h32.35a72.17,72.17,0,0,1,20.6,2.61A25,25,0,0,1,384,156.44q4.86,6.75,4.86,19.08a64.94,64.94,0,0,1-1.16,12.91,24.26,24.26,0,0,1-4.28,9.79,23.58,23.58,0,0,1-8.92,6.89L390.63,262H363.79l-12.91-52.65h-7.39V262Zm26-67.59h7.25c3.67,0,6.53-.66,8.56-2a10.44,10.44,0,0,0,4.28-5.66,28.46,28.46,0,0,0,1.23-8.92q0-7.54-2.76-11.75t-10.15-4.21h-8.41Z" style="fill:#263238"></path><path d="M398.89,262l22.2-117.49h29.59L472.58,262H448.65l-3.92-24.8H427.47L423.41,262Zm30.9-40.32h12.47L436,175.81Z" style="fill:#263238"></path><path d="M483.31,262V144.48h18.28l24.08,56.57V144.48h21.47V262H529.59l-24.08-60.92V262Z" style="fill:#263238"></path><path d="M564.69,262V144.48h29.73q15.38,0,23.94,3.84a22.57,22.57,0,0,1,12,12q3.5,8.19,3.49,21.25v42.65q0,13.2-3.49,21.54a22.78,22.78,0,0,1-12,12.25Q609.94,262,594.71,262Zm26-18h4.06q6,0,8.56-1.74a7.63,7.63,0,0,0,3.26-5.22,47.85,47.85,0,0,0,.66-8.7V177.11a35.94,35.94,0,0,0-.8-8.41,7,7,0,0,0-3.41-4.64c-1.74-1-4.55-1.45-8.41-1.45h-3.92Z" style="fill:#263238"></path><path d="M78.94,262V144.48h32.35a72.12,72.12,0,0,1,20.6,2.61,25,25,0,0,1,13.56,9.35q4.86,6.75,4.86,19.08a64.94,64.94,0,0,1-1.16,12.91,24.13,24.13,0,0,1-4.28,9.79,23.51,23.51,0,0,1-8.92,6.89L152.05,262H125.21l-12.9-52.65h-7.4V262Zm26-67.59h7.25c3.67,0,6.53-.66,8.56-2a10.44,10.44,0,0,0,4.28-5.66,28.46,28.46,0,0,0,1.23-8.92q0-7.54-2.76-11.75t-10.15-4.21h-8.41Z" style="fill:#fff;stroke:#b2b2b2;stroke-linecap:round;stroke-linejoin:round"></path><path d="M165.39,262V144.48h52.8v17.69H191.36v29.16h20.45v18H191.36v35.1h27.12V262Z" style="fill:#fff;stroke:#b2b2b2;stroke-linecap:round;stroke-linejoin:round"></path></g><g id="freepik--hand-2--inject-43"><path d="M698.69,175.87s3.69-7.38,4.92-9.51-1.45-4.92-4.81-4.58a9.06,9.06,0,0,0-6.6,4.58c-.67,1.46-1.79,3.47-1.79,3.47l-.45,2s4-2.69,5.93-1.68,2,5.7,2,5.7Z" style="fill:#fff;stroke:#263238;stroke-linecap:round;stroke-linejoin:round"></path><path d="M749.69,37l-32.94,69.1s-.86,8.63-1.72,13.38-7.34,12.31-7.34,12.31l-22.88,37.56,1.72,2.8s6.05-4.53,8.64-5.39,3.88,0,5.39,2.16-3.23,9.49-3.23,9.49l-3,4.75s2,2.59,1.73,4.1-8,10.37-9.5,11.44-8.2,2.6-8.2,2.6,7.56,4.74,9.07,8.85-1.73,5.39-4.1,5.18-27.85-6.05-29.15-7.34-12.73-10.36-16-13.17-3.89-16-3.89-17.49-.64-21.8-1.07-25,.86-9.28,5-11.87,17.27-18.78,17.27-18.78,19.86-27.4,21-29.74,16-65.41,16-65.41" style="fill:#fff;stroke:#263238;stroke-linecap:round;stroke-linejoin:round"></path><path d="M662.72,197.94,694.09,190a6,6,0,0,1,7.33,4.38l38.83,154.12a6,6,0,0,1-4.38,7.33l-31.37,7.9a6,6,0,0,1-7.33-4.38L658.35,205.26A6,6,0,0,1,662.72,197.94Z" style="fill:#fff"></path><rect x="672.16" y="245.23" width="44.42" height="24.24" transform="translate(-41.83 177.44) rotate(-14.14)" style="fill:#263238"></rect><rect x="665.04" y="216.95" width="44.42" height="24.24" transform="translate(-35.14 174.84) rotate(-14.14)" style="fill:#263238"></rect><rect x="686.41" y="301.78" width="44.42" height="24.24" transform="translate(-55.22 182.63) rotate(-14.14)" style="fill:#263238"></rect><rect x="686.41" y="301.78" width="44.42" height="24.24" transform="translate(-55.22 182.63) rotate(-14.14)" style="fill:#fff;opacity:0.5"></rect><rect x="693.53" y="330.06" width="44.42" height="24.24" transform="translate(-61.91 185.23) rotate(-14.14)" style="fill:#263238"></rect><rect x="693.53" y="330.06" width="44.42" height="24.24" transform="translate(-61.91 185.23) rotate(-14.14)" style="fill:#fff;opacity:0.6900000000000001"></rect><rect x="679.29" y="273.5" width="44.42" height="24.24" transform="translate(-48.52 180.04) rotate(-14.14)" style="fill:#263238"></rect><rect x="679.29" y="273.5" width="44.42" height="24.24" transform="translate(-48.52 180.04) rotate(-14.14)" style="fill:#fff;opacity:0.31"></rect><path d="M662.72,197.94,694.09,190a6,6,0,0,1,7.33,4.38l38.83,154.12a6,6,0,0,1-4.38,7.33l-31.37,7.9a6,6,0,0,1-7.33-4.38L658.35,205.26A6,6,0,0,1,662.72,197.94Z" style="fill:none;stroke:#263238;stroke-linecap:round;stroke-linejoin:round"></path><rect x="653.9" y="196.51" width="44.42" height="171.01" rx="6.04" transform="translate(1340.06 591.56) rotate(-177.65)" style="fill:#fff"></rect><rect x="664.81" y="239.66" width="24.24" height="44.42" transform="translate(387.48 927.48) rotate(-87.65)" style="fill:#E57C23"></rect><rect x="666.01" y="210.53" width="24.24" height="44.42" transform="translate(417.74 900.74) rotate(-87.65)" style="fill:#E57C23"></rect><rect x="662.42" y="297.94" width="24.24" height="44.42" transform="translate(326.96 980.96) rotate(-87.65)" style="fill:#E57C23"></rect><rect x="662.42" y="297.94" width="24.24" height="44.42" transform="translate(326.96 980.96) rotate(-87.65)" style="fill:#fff;opacity:0.5"></rect><rect x="661.22" y="327.07" width="24.24" height="44.42" transform="translate(296.7 1007.71) rotate(-87.65)" style="fill:#E57C23"></rect><rect x="661.22" y="327.07" width="24.24" height="44.42" transform="translate(296.7 1007.71) rotate(-87.65)" style="fill:#fff;opacity:0.6900000000000001"></rect><rect x="663.62" y="268.8" width="24.24" height="44.42" transform="translate(357.22 954.22) rotate(-87.65)" style="fill:#E57C23"></rect><rect x="663.62" y="268.8" width="24.24" height="44.42" transform="translate(357.22 954.22) rotate(-87.65)" style="fill:#fff;opacity:0.31"></rect><rect x="653.9" y="196.51" width="44.42" height="171.01" rx="6.04" transform="translate(1340.06 591.56) rotate(-177.65)" style="fill:none;stroke:#263238;stroke-linecap:round;stroke-linejoin:round"></rect><rect x="639.26" y="196.29" width="44.42" height="171.01" rx="6.04" transform="translate(1246.29 700.06) rotate(-167.5)" style="fill:#fff"></rect><rect x="653.71" y="239.9" width="24.24" height="44.42" transform="translate(265.85 855.44) rotate(-77.5)" style="fill:#E57C23"></rect><rect x="660.03" y="211.43" width="24.24" height="44.42" transform="translate(298.59 839.3) rotate(-77.5)" style="fill:#E57C23"></rect><rect x="641.09" y="296.84" width="24.24" height="44.42" transform="translate(200.37 887.74) rotate(-77.5)" style="fill:#E57C23"></rect><rect x="641.09" y="296.84" width="24.24" height="44.42" transform="translate(200.37 887.74) rotate(-77.5)" style="fill:#fff;opacity:0.5"></rect><rect x="634.78" y="325.31" width="24.24" height="44.42" transform="translate(167.63 903.89) rotate(-77.5)" style="fill:#E57C23"></rect><rect x="634.78" y="325.31" width="24.24" height="44.42" transform="translate(167.63 903.89) rotate(-77.5)" style="fill:#fff;opacity:0.6900000000000001"></rect><rect x="647.4" y="268.37" width="24.24" height="44.42" transform="translate(233.11 871.59) rotate(-77.5)" style="fill:#E57C23"></rect><rect x="647.4" y="268.37" width="24.24" height="44.42" transform="translate(233.11 871.59) rotate(-77.5)" style="fill:#fff;opacity:0.31"></rect><rect x="639.26" y="196.29" width="44.42" height="171.01" rx="6.04" transform="translate(1246.29 700.06) rotate(-167.5)" style="fill:none;stroke:#263238;stroke-linecap:round;stroke-linejoin:round"></rect><rect x="623.34" y="193.03" width="44.42" height="171.01" rx="6.04" transform="translate(1124.11 793.6) rotate(-156.23)" style="fill:#fff"></rect><rect x="641.55" y="237.87" width="24.24" height="44.42" transform="translate(152.22 753.51) rotate(-66.23)" style="fill:#E57C23"></rect><rect x="653.31" y="211.19" width="24.24" height="44.42" transform="translate(183.66 748.34) rotate(-66.23)" style="fill:#E57C23"></rect><rect x="618.05" y="291.25" width="24.24" height="44.42" transform="translate(89.34 763.87) rotate(-66.23)" style="fill:#E57C23"></rect><rect x="618.05" y="291.25" width="24.24" height="44.42" transform="translate(89.34 763.87) rotate(-66.23)" style="fill:#fff;opacity:0.5"></rect><rect x="606.3" y="317.94" width="24.24" height="44.42" transform="translate(57.9 769.05) rotate(-66.23)" style="fill:#E57C23"></rect><rect x="606.3" y="317.94" width="24.24" height="44.42" transform="translate(57.9 769.05) rotate(-66.23)" style="fill:#fff;opacity:0.6900000000000001"></rect><rect x="629.8" y="264.56" width="24.24" height="44.42" transform="translate(120.78 758.69) rotate(-66.23)" style="fill:#E57C23"></rect><rect x="629.8" y="264.56" width="24.24" height="44.42" transform="translate(120.78 758.69) rotate(-66.23)" style="fill:#fff;opacity:0.31"></rect><rect x="623.34" y="193.03" width="44.42" height="171.01" rx="6.04" transform="translate(1124.11 793.6) rotate(-156.23)" style="fill:none;stroke:#263238;stroke-linecap:round;stroke-linejoin:round"></rect><path d="M666.69,192.78l25.67,19.68a6,6,0,0,1,1.11,8.47L596.74,347a6,6,0,0,1-8.46,1.11l-25.66-19.68A6,6,0,0,1,561.5,320l96.73-126.11A6,6,0,0,1,666.69,192.78Z" style="fill:#fff"></path><rect x="627.64" y="232.26" width="24.24" height="44.42" transform="translate(48.48 607.22) rotate(-52.51)" style="fill:#E57C23"></rect><rect x="645.39" y="209.12" width="24.24" height="44.42" transform="translate(73.79 612.25) rotate(-52.51)" style="fill:#E57C23"></rect><rect x="592.14" y="278.54" width="24.24" height="44.42" transform="translate(-2.13 597.17) rotate(-52.51)" style="fill:#E57C23"></rect><rect x="592.14" y="278.54" width="24.24" height="44.42" transform="translate(-2.13 597.17) rotate(-52.51)" style="fill:#fff;opacity:0.5"></rect><rect x="574.4" y="301.67" width="24.24" height="44.42" transform="translate(-27.44 592.14) rotate(-52.51)" style="fill:#E57C23"></rect><rect x="574.4" y="301.67" width="24.24" height="44.42" transform="translate(-27.44 592.14) rotate(-52.51)" style="fill:#fff;opacity:0.6900000000000001"></rect><rect x="609.89" y="255.4" width="24.24" height="44.42" transform="translate(23.17 602.19) rotate(-52.51)" style="fill:#E57C23"></rect><rect x="609.89" y="255.4" width="24.24" height="44.42" transform="translate(23.17 602.19) rotate(-52.51)" style="fill:#fff;opacity:0.31"></rect><path d="M666.69,192.78l25.67,19.68a6,6,0,0,1,1.11,8.47L596.74,347a6,6,0,0,1-8.46,1.11l-25.66-19.68A6,6,0,0,1,561.5,320l96.73-126.11A6,6,0,0,1,666.69,192.78Z" style="fill:none;stroke:#263238;stroke-linecap:round;stroke-linejoin:round"></path><path d="M646.66,156.3s17.68,4.47,19.36,5.59,1.68,3.13,1.45,5.48-6.93,19.13-7.38,24.17-2.91,17.34-2,20.36,5.25,6,9.73,5.15,5.26-2.47,7.05-7.5,6.71-12.2,7.49-20.81a110.27,110.27,0,0,1,1.46-11.63s10-14.88,13.76-20.14a77,77,0,0,0,10-20.36,160.65,160.65,0,0,0,3.69-15.78" style="fill:#fff;stroke:#263238;stroke-linecap:round;stroke-linejoin:round"></path><path d="M661.54,202.39s-3,5-2.79,8.5,1.56,5.26,5.37,6,5.7-.89,6.15-1.34,2.91-9.51,2.13-10.52S664.68,202.05,661.54,202.39Z" style="fill:#fff;stroke:#263238;stroke-linecap:round;stroke-linejoin:round"></path><path d="M694.3,183.14s-4.23-2.79-8.59-.78a5.33,5.33,0,0,0-2.91,2.58" style="fill:#fff;stroke:#263238;stroke-linecap:round;stroke-linejoin:round"></path><path d="M696,187.24s-3-1.41-4-1-7.28,6.49-6.38,7.83a2.82,2.82,0,0,0,3.47,1.34" style="fill:none;stroke:#263238;stroke-linecap:round;stroke-linejoin:round"></path><path d="M700.56,168.9s-4.33-1.53-5.68-.19-4.14,5.93-3.13,7.61a3.79,3.79,0,0,0,4.81,1.57" style="fill:none;stroke:#263238;stroke-linecap:round;stroke-linejoin:round"></path><path d="M703.72,164.35s-2.57-1.12-3.91-.33a3.49,3.49,0,0,0-1.57,2.34" style="fill:none;stroke:#263238;stroke-linecap:round;stroke-linejoin:round"></path><path d="M666.91,169.72l-8.27,1.68s-3.14,1.68-5,1.79-4.7-1.9-5.48-2.24" style="fill:none;stroke:#263238;stroke-linecap:round;stroke-linejoin:round"></path><path d="M653.6,173.19a40.92,40.92,0,0,1,1.23,8.39c-.11,3-.45,4.7-.45,5.26s5.71,4.7,5.71,4.7" style="fill:none;stroke:#263238;stroke-linecap:round;stroke-linejoin:round"></path><path d="M649.13,189.19s3.13-2.8,5.25-2.35" style="fill:none;stroke:#263238;stroke-linecap:round;stroke-linejoin:round"></path><path d="M656.4,186.61a28.23,28.23,0,0,1,5.82-3.13" style="fill:none;stroke:#263238;stroke-linecap:round;stroke-linejoin:round"></path><path d="M664.34,170.73a8,8,0,0,1,1.23,3" style="fill:#fff;stroke:#263238;stroke-linecap:round;stroke-linejoin:round"></path><path d="M664.09,151.16s4.28,7.47,3.39,14.48" style="fill:none;stroke:#263238;stroke-linecap:round;stroke-linejoin:round"></path></g><g id="freepik--hand-1--inject-43"><rect x="83.98" y="412.6" width="104.18" height="9.12" transform="translate(-299.13 473.19) rotate(-79.27)" style="fill:#263238;stroke:#263238;stroke-linecap:round;stroke-linejoin:round"></rect><path d="M147.77,366.37l-4-.77,2.57-13.27a10.76,10.76,0,0,1,9.25-8.65l70.33-8.89a6.65,6.65,0,0,0,5.8-5.55l5.54-32.32a6.78,6.78,0,0,0-5-7.69l-4.54-1.12,1-3.93,4.55,1.11a10.85,10.85,0,0,1,8.06,12.31l-5.53,32.32a10.73,10.73,0,0,1-9.29,8.89l-70.34,8.89a6.72,6.72,0,0,0-5.77,5.41Z" style="fill:#fff;stroke:#263238;stroke-linecap:round;stroke-linejoin:round"></path><rect x="139.9" y="201.94" width="36.49" height="143.54" transform="translate(-139.9 379.04) rotate(-79.45)" style="fill:#E57C23;stroke:#263238;stroke-linecap:round;stroke-linejoin:round"></rect><path d="M51.47,499.47h59.94c6.83-16,14.66-34.14,15.73-35.93,2-3.25,7.68-6.31,7.68-6.31s4.93-2.91,10.12-6.71,9.17-9.9,9-11.11.88-2.23,1.75-4.47a13.88,13.88,0,0,0,1.06-6c-.2-1.22,1.75-4.47,3.7-7.72s-1.3-7.7-1.3-7.7.93-4.33,1.93-8.25-4.42-11.34-4.42-11.34.73-3.05,1.4-6.49-2.66-8.31-4.48-9.25-11.69,2.4-11.69,2.4,3.09-6.37,2.6-11.7a9.66,9.66,0,0,0-10.63-8.63c-5.34.49,0,7.88-3.88,14-2.55,4.08-12.81,10.51-17.81,13S100,404.34,98.4,407.12,93.85,424.57,94.6,429C95.17,432.35,66.21,477,51.47,499.47Z" style="fill:#fff;stroke:#263238;stroke-linecap:round;stroke-linejoin:round"></path><path d="M141.85,380.58s-15.2,4.34-18,6.09" style="fill:none;stroke:#263238;stroke-linecap:round;stroke-linejoin:round"></path><path d="M160,408.64a15.78,15.78,0,0,1-4.33,3c-.44.2-1,.48-1.65.81" style="fill:none;stroke:#263238;stroke-linecap:round;stroke-linejoin:round"></path><path d="M153.33,436.85a18.1,18.1,0,0,1-5.79,3.54" style="fill:none;stroke:#263238;stroke-linecap:round;stroke-linejoin:round"></path><path d="M147.91,438s-.37.83-2.93,2.29" style="fill:none;stroke:#263238;stroke-linecap:round;stroke-linejoin:round"></path><path d="M149.25,381.09s5,.69,6.22,5.08-2.68,5.3-2.79,7.62a7.68,7.68,0,0,0,.63,3.73" style="fill:none;stroke:#263238;stroke-linecap:round;stroke-linejoin:round"></path><path d="M156.91,397.67s3.85,4.17,4.13,7.59" style="fill:none;stroke:#263238;stroke-linecap:round;stroke-linejoin:round"></path><path d="M136.82,360.3s2.14,1,1.79,4.1-.91,6.32-.91,6.32a15,15,0,0,1-4.78.37" style="fill:none;stroke:#263238;stroke-linecap:round;stroke-linejoin:round"></path></g></svg>
